<svg width="24" height="25" viewBox="0 0 24 25" fill="none" xmlns="http://www.w3.org/2000/svg">
<mask id="mask0_1632_17541" style="mask-type:alpha" maskUnits="userSpaceOnUse" x="0" y="0" width="24" height="25">
<rect y="0.5" width="24" height="24" fill="#D9D9D9"/>
</mask>
<g mask="url(#mask0_1632_17541)">
<path d="M4 22.5C3.45 22.5 2.97917 22.3042 2.5875 21.9125C2.19583 21.5208 2 21.05 2 20.5V9.5C2 8.95 2.19583 8.47917 2.5875 8.0875C2.97917 7.69583 3.45 7.5 4 7.5H9V4.5C9 3.95 9.19583 3.47917 9.5875 3.0875C9.97917 2.69583 10.45 2.5 11 2.5H13C13.55 2.5 14.0208 2.69583 14.4125 3.0875C14.8042 3.47917 15 3.95 15 4.5V7.5H20C20.55 7.5 21.0208 7.69583 21.4125 8.0875C21.8042 8.47917 22 8.95 22 9.5V20.5C22 21.05 21.8042 21.5208 21.4125 21.9125C21.0208 22.3042 20.55 22.5 20 22.5H4ZM4 20.5H20V9.5H15C15 10.05 14.8042 10.5208 14.4125 10.9125C14.0208 11.3042 13.55 11.5 13 11.5H11C10.45 11.5 9.97917 11.3042 9.5875 10.9125C9.19583 10.5208 9 10.05 9 9.5H4V20.5ZM6 18.5H12V18.05C12 17.7667 11.9208 17.5042 11.7625 17.2625C11.6042 17.0208 11.3833 16.8333 11.1 16.7C10.7667 16.55 10.4292 16.4375 10.0875 16.3625C9.74583 16.2875 9.38333 16.25 9 16.25C8.61667 16.25 8.25417 16.2875 7.9125 16.3625C7.57083 16.4375 7.23333 16.55 6.9 16.7C6.61667 16.8333 6.39583 17.0208 6.2375 17.2625C6.07917 17.5042 6 17.7667 6 18.05V18.5ZM14 17H18V15.5H14V17ZM9 15.5C9.41667 15.5 9.77083 15.3542 10.0625 15.0625C10.3542 14.7708 10.5 14.4167 10.5 14C10.5 13.5833 10.3542 13.2292 10.0625 12.9375C9.77083 12.6458 9.41667 12.5 9 12.5C8.58333 12.5 8.22917 12.6458 7.9375 12.9375C7.64583 13.2292 7.5 13.5833 7.5 14C7.5 14.4167 7.64583 14.7708 7.9375 15.0625C8.22917 15.3542 8.58333 15.5 9 15.5ZM14 14H18V12.5H14V14ZM11 9.5H13V4.5H11V9.5Z" fill="#0059A0"/>
</g>
</svg>
