<svg width="9" height="13" viewBox="0 0 9 13" fill="none" xmlns="http://www.w3.org/2000/svg">
<path d="M1.24032 11.7847C1.31599 11.853 1.40588 11.9071 1.50485 11.944C1.60382 11.981 1.70992 12 1.81707 12C1.92422 12 2.03032 11.981 2.12929 11.944C2.22826 11.9071 2.31815 11.853 2.39382 11.7847L7.80942 6.91335C7.86983 6.85912 7.91776 6.7947 7.95046 6.72379C7.98317 6.65287 8 6.57685 8 6.50008C8 6.4233 7.98317 6.34728 7.95046 6.27637C7.91776 6.20545 7.86983 6.14104 7.80942 6.0868L2.39382 1.21543C2.07449 0.92819 1.55965 0.92819 1.24032 1.21543C0.920988 1.50267 0.920988 1.96577 1.24032 2.25301L5.9586 6.50301L1.2338 10.753C0.920988 11.0344 0.920987 11.5033 1.24032 11.7847Z" fill="#0059A0" stroke="#0059A0"/>
</svg>
