<svg width="33" height="32" viewBox="0 0 33 32" fill="none" xmlns="http://www.w3.org/2000/svg">
<path d="M5.83268 29.3333C5.09935 29.3333 4.47179 29.0724 3.95002 28.5506C3.42824 28.0288 3.1669 27.4008 3.16602 26.6666V10.6666C3.16602 9.93329 3.42735 9.30574 3.95002 8.78396C4.47268 8.26218 5.10024 8.00085 5.83268 7.99996H11.166V5.33329C11.166 4.59996 11.4274 3.9724 11.95 3.45063C12.4727 2.92885 13.1002 2.66751 13.8327 2.66663H19.166C19.8993 2.66663 20.5273 2.92796 21.05 3.45063C21.5727 3.97329 21.8336 4.60085 21.8327 5.33329V7.99996H27.166C27.8993 7.99996 28.5273 8.26129 29.05 8.78396C29.5727 9.30663 29.8336 9.93418 29.8327 10.6666V26.6666C29.8327 27.4 29.5718 28.028 29.05 28.5506C28.5282 29.0733 27.9002 29.3342 27.166 29.3333H5.83268ZM13.8327 7.99996H19.166V5.33329H13.8327V7.99996ZM15.166 20V24H17.8327V20H21.8327V17.3333H17.8327V13.3333H15.166V17.3333H11.166V20H15.166Z" fill="#318AD1"/>
</svg>
