<svg width="32" height="32" viewBox="0 0 32 32" fill="none" xmlns="http://www.w3.org/2000/svg">
<path d="M5.33366 29.3333C4.60033 29.3333 3.97277 29.0724 3.45099 28.5506C2.92921 28.0288 2.66788 27.4008 2.66699 26.6666V10.6666C2.66699 9.93329 2.92833 9.30574 3.45099 8.78396C3.97366 8.26218 4.60121 8.00085 5.33366 7.99996H10.667V5.33329C10.667 4.59996 10.9283 3.9724 11.451 3.45063C11.9737 2.92885 12.6012 2.66751 13.3337 2.66663H18.667C19.4003 2.66663 20.0283 2.92796 20.551 3.45063C21.0737 3.97329 21.3345 4.60085 21.3337 5.33329V7.99996H26.667C27.4003 7.99996 28.0283 8.26129 28.551 8.78396C29.0737 9.30663 29.3345 9.93418 29.3337 10.6666V26.6666C29.3337 27.4 29.0728 28.028 28.551 28.5506C28.0292 29.0733 27.4012 29.3342 26.667 29.3333H5.33366ZM13.3337 7.99996H18.667V5.33329H13.3337V7.99996ZM14.667 20V24H17.3337V20H21.3337V17.3333H17.3337V13.3333H14.667V17.3333H10.667V20H14.667Z" fill="#B9C2C9"/>
</svg>
