<svg width="30" height="30" viewBox="0 0 30 30" fill="none" xmlns="http://www.w3.org/2000/svg">
<path d="M14.9993 14.5454C13.3118 14.5454 11.8672 13.9446 10.6655 12.7429C9.46378 11.5412 8.86293 10.0966 8.86293 8.40907C8.86293 6.72157 9.46378 5.27697 10.6655 4.07526C11.8672 2.87356 13.3118 2.27271 14.9993 2.27271C16.6868 2.27271 18.1314 2.87356 19.3331 4.07526C20.5348 5.27697 21.1357 6.72157 21.1357 8.40907C21.1357 10.0966 20.5348 11.5412 19.3331 12.7429C18.1314 13.9446 16.6868 14.5454 14.9993 14.5454ZM2.72656 26.8182V22.5227C2.72656 21.6534 2.95054 20.8546 3.39849 20.1265C3.84645 19.3983 4.44065 18.8419 5.18111 18.4574C6.76633 17.6648 8.37713 17.0705 10.0135 16.6747C11.6499 16.279 13.3118 16.0805 14.9993 16.0795C16.6868 16.0785 18.3487 16.2769 19.9851 16.6747C21.6214 17.0726 23.2322 17.6668 24.8175 18.4574C25.5589 18.8409 26.1537 19.3972 26.6016 20.1265C27.0496 20.8557 27.273 21.6544 27.272 22.5227V26.8182H2.72656Z" fill="#318AD1"/>
</svg>
