<svg width="30" height="30" viewBox="0 0 30 30" fill="none" xmlns="http://www.w3.org/2000/svg">
<path d="M15.0003 14.5454C13.3128 14.5454 11.8682 13.9446 10.6665 12.7429C9.46475 11.5412 8.8639 10.0966 8.8639 8.40907C8.8639 6.72157 9.46475 5.27697 10.6665 4.07526C11.8682 2.87356 13.3128 2.27271 15.0003 2.27271C16.6878 2.27271 18.1324 2.87356 19.3341 4.07526C20.5358 5.27697 21.1366 6.72157 21.1366 8.40907C21.1366 10.0966 20.5358 11.5412 19.3341 12.7429C18.1324 13.9446 16.6878 14.5454 15.0003 14.5454ZM2.72754 26.8182V22.5227C2.72754 21.6534 2.95152 20.8546 3.39947 20.1265C3.84743 19.3983 4.44163 18.8419 5.18208 18.4574C6.76731 17.6648 8.37811 17.0705 10.0145 16.6747C11.6508 16.279 13.3128 16.0805 15.0003 16.0795C16.6878 16.0785 18.3497 16.2769 19.9861 16.6747C21.6224 17.0726 23.2332 17.6668 24.8184 18.4574C25.5599 18.8409 26.1546 19.3972 26.6026 20.1265C27.0505 20.8557 27.274 21.6544 27.273 22.5227V26.8182H2.72754Z" fill="#B9C2C9"/>
</svg>
