<svg width="55" height="55" viewBox="0 0 55 55" fill="none" xmlns="http://www.w3.org/2000/svg">
<rect width="55" height="55" rx="27.5" fill="white" fill-opacity="0.8"/>
<path d="M31.0513 19.9781C30.9515 19.878 30.833 19.7987 30.7025 19.7445C30.572 19.6904 30.4321 19.6625 30.2908 19.6625C30.1495 19.6625 30.0096 19.6904 29.8791 19.7445C29.7486 19.7987 29.63 19.878 29.5302 19.9781L22.3888 27.1195C22.3092 27.199 22.246 27.2934 22.2028 27.3974C22.1597 27.5013 22.1375 27.6128 22.1375 27.7253C22.1375 27.8379 22.1597 27.9493 22.2028 28.0533C22.246 28.1573 22.3092 28.2517 22.3888 28.3312L29.5302 35.4726C29.9513 35.8937 30.6302 35.8937 31.0513 35.4726C31.4724 35.0515 31.4724 34.3726 31.0513 33.9515L24.8295 27.721L31.0599 21.4906C31.4724 21.0781 31.4724 20.3906 31.0513 19.9781Z" fill="#318AD1" stroke="#318AD1" stroke-width="1.5"/>
</svg>
