<svg width="50" height="50" viewBox="0 0 50 50" fill="none" xmlns="http://www.w3.org/2000/svg">
<rect width="50" height="50" rx="8" fill="#CF3535"/>
<path d="M24.9997 26.9834L29.108 31.0917C29.3677 31.3514 29.6983 31.4813 30.0997 31.4813C30.5011 31.4813 30.8316 31.3514 31.0913 31.0917C31.3511 30.832 31.4809 30.5014 31.4809 30.1C31.4809 29.6987 31.3511 29.3681 31.0913 29.1084L26.983 25L31.0913 20.8917C31.3511 20.632 31.4809 20.3014 31.4809 19.9C31.4809 19.4987 31.3511 19.1681 31.0913 18.9084C30.8316 18.6487 30.5011 18.5188 30.0997 18.5188C29.6983 18.5188 29.3677 18.6487 29.108 18.9084L24.9997 23.0167L20.8913 18.9084C20.6316 18.6487 20.3011 18.5188 19.8997 18.5188C19.4983 18.5188 19.1677 18.6487 18.908 18.9084C18.6483 19.1681 18.5184 19.4987 18.5184 19.9C18.5184 20.3014 18.6483 20.632 18.908 20.8917L23.0163 25L18.908 29.1084C18.6483 29.3681 18.5184 29.6987 18.5184 30.1C18.5184 30.5014 18.6483 30.832 18.908 31.0917C19.1677 31.3514 19.4983 31.4813 19.8997 31.4813C20.3011 31.4813 20.6316 31.3514 20.8913 31.0917L24.9997 26.9834ZM24.9997 39.1667C23.04 39.1667 21.1983 38.7946 19.4747 38.0504C17.7511 37.3062 16.2518 36.297 14.9768 35.023C13.7018 33.7489 12.6926 32.2496 11.9493 30.525C11.2061 28.8005 10.834 26.9588 10.833 25C10.8321 23.0413 11.2042 21.1996 11.9493 19.475C12.6945 17.7505 13.7036 16.2512 14.9768 14.9771C16.2499 13.7031 17.7492 12.6939 19.4747 11.9497C21.2002 11.2055 23.0418 10.8334 24.9997 10.8334C26.9575 10.8334 28.7992 11.2055 30.5247 11.9497C32.2502 12.6939 33.7495 13.7031 35.0226 14.9771C36.2957 16.2512 37.3053 17.7505 38.0514 19.475C38.7975 21.1996 39.1692 23.0413 39.1663 25C39.1635 26.9588 38.7914 28.8005 38.05 30.525C37.3086 32.2496 36.2995 33.7489 35.0226 35.023C33.7457 36.297 32.2464 37.3066 30.5247 38.0518C28.803 38.797 26.9613 39.1686 24.9997 39.1667Z" fill="white"/>
</svg>
