<svg width="32" height="32" viewBox="0 0 32 32" fill="none" xmlns="http://www.w3.org/2000/svg">
<path d="M21.332 6.66659L19.4387 8.55992L17.3187 6.43992V21.3333H14.6787V6.43992L12.5587 8.55992L10.6654 6.66659L15.9987 1.33325L21.332 6.66659ZM26.6654 13.3333V27.9999C26.6654 29.4666 25.4654 30.6666 23.9987 30.6666H7.9987C7.29145 30.6666 6.61318 30.3856 6.11308 29.8855C5.61298 29.3854 5.33203 28.7072 5.33203 27.9999V13.3333C5.33203 11.8533 6.5187 10.6666 7.9987 10.6666H11.9987V13.3333H7.9987V27.9999H23.9987V13.3333H19.9987V10.6666H23.9987C24.7059 10.6666 25.3842 10.9475 25.8843 11.4476C26.3844 11.9477 26.6654 12.626 26.6654 13.3333Z" fill="black"/>
</svg>
