<svg width="29" height="29" viewBox="0 0 29 29" fill="none" xmlns="http://www.w3.org/2000/svg">
<path d="M10.875 21.7501C10.2104 21.7501 9.64169 21.5137 9.16883 21.0408C8.69597 20.5679 8.45914 19.9988 8.45833 19.3334V4.83341C8.45833 4.16883 8.69517 3.60011 9.16883 3.12725C9.6425 2.65439 10.2112 2.41755 10.875 2.41675H21.75C22.4146 2.41675 22.9837 2.65358 23.4574 3.12725C23.931 3.60091 24.1675 4.16964 24.1667 4.83341V19.3334C24.1667 19.998 23.9302 20.5671 23.4574 21.0408C22.9845 21.5145 22.4154 21.7509 21.75 21.7501H10.875ZM10.875 19.3334H21.75V4.83341H10.875V19.3334ZM6.04167 26.5834C5.37708 26.5834 4.80836 26.347 4.3355 25.8741C3.86264 25.4013 3.62581 24.8321 3.625 24.1667V7.25008H6.04167V24.1667H19.3333V26.5834H6.04167Z" fill="black"/>
</svg>
