<svg width="34" height="31" viewBox="0 0 34 31" fill="none" xmlns="http://www.w3.org/2000/svg">
<path d="M5.33594 30.3334V27H28.6693V30.3334H5.33594ZM5.33594 24.5L3.21094 11.125C3.15539 11.125 3.09261 11.1323 3.02261 11.1467C2.95261 11.1612 2.89039 11.1678 2.83594 11.1667C2.1415 11.1667 1.5515 10.9234 1.06594 10.4367C0.580386 9.95005 0.337052 9.36005 0.335941 8.66671C0.33483 7.97338 0.578163 7.38338 1.06594 6.89671C1.55372 6.41005 2.14372 6.16671 2.83594 6.16671C3.52816 6.16671 4.11872 6.41005 4.60761 6.89671C5.0965 7.38338 5.33927 7.97338 5.33594 8.66671C5.33594 8.86116 5.31483 9.04171 5.27261 9.20838C5.23039 9.37504 5.18205 9.52782 5.12761 9.66671L10.3359 12L15.5443 4.87504C15.2387 4.65282 14.9887 4.36116 14.7943 4.00004C14.5998 3.63893 14.5026 3.25004 14.5026 2.83338C14.5026 2.13893 14.7459 1.54838 15.2326 1.06171C15.7193 0.575045 16.3093 0.332267 17.0026 0.333378C17.6959 0.334489 18.2865 0.577822 18.7743 1.06338C19.2621 1.54893 19.5048 2.13893 19.5026 2.83338C19.5026 3.25004 19.4054 3.63893 19.2109 4.00004C19.0165 4.36116 18.7665 4.65282 18.4609 4.87504L23.6693 12L28.8776 9.66671C28.8221 9.52782 28.7732 9.37504 28.7309 9.20838C28.6887 9.04171 28.6682 8.86116 28.6693 8.66671C28.6693 7.97227 28.9126 7.38171 29.3993 6.89504C29.8859 6.40838 30.4759 6.1656 31.1693 6.16671C31.8626 6.16782 32.4532 6.41116 32.9409 6.89671C33.4287 7.38227 33.6715 7.97227 33.6693 8.66671C33.6671 9.36116 33.4243 9.95171 32.9409 10.4384C32.4576 10.925 31.8671 11.1678 31.1693 11.1667C31.1137 11.1667 31.0515 11.16 30.9826 11.1467C30.9137 11.1334 30.8509 11.1262 30.7943 11.125L28.6693 24.5H5.33594Z" fill="#CAE8FF"/>
</svg>
