<svg width="68" height="61" viewBox="0 0 68 61" fill="none" xmlns="http://www.w3.org/2000/svg">
<path d="M10.6641 60.6668V54.0001H57.3307V60.6668H10.6641ZM10.6641 49.0001L6.41407 22.2501C6.30296 22.2501 6.1774 22.2645 6.0374 22.2934C5.8974 22.3223 5.77296 22.3356 5.66407 22.3334C4.27518 22.3334 3.09518 21.8468 2.12407 20.8734C1.15296 19.9001 0.666292 18.7201 0.66407 17.3334C0.661848 15.9468 1.14851 14.7668 2.12407 13.7934C3.09963 12.8201 4.27963 12.3334 5.66407 12.3334C7.04851 12.3334 8.22963 12.8201 9.20741 13.7934C10.1852 14.7668 10.6707 15.9468 10.6641 17.3334C10.6641 17.7223 10.6218 18.0834 10.5374 18.4168C10.453 18.7501 10.3563 19.0556 10.2474 19.3334L20.6641 24.0001L31.0807 9.75009C30.4696 9.30564 29.9696 8.72231 29.5807 8.00009C29.1918 7.27787 28.9974 6.50009 28.9974 5.66676C28.9974 4.27787 29.4841 3.09676 30.4574 2.12342C31.4307 1.15009 32.6107 0.664533 33.9974 0.666756C35.3841 0.668978 36.5652 1.15564 37.5407 2.12676C38.5163 3.09787 39.0019 4.27787 38.9974 5.66676C38.9974 6.50009 38.803 7.27787 38.4141 8.00009C38.0252 8.72231 37.5252 9.30564 36.9141 9.75009L47.3307 24.0001L57.7474 19.3334C57.6363 19.0556 57.5385 18.7501 57.4541 18.4168C57.3696 18.0834 57.3285 17.7223 57.3307 17.3334C57.3307 15.9445 57.8174 14.7634 58.7907 13.7901C59.7641 12.8168 60.9441 12.3312 62.3307 12.3334C63.7174 12.3356 64.8985 12.8223 65.8741 13.7934C66.8496 14.7645 67.3352 15.9445 67.3307 17.3334C67.3263 18.7223 66.8407 19.9034 65.8741 20.8768C64.9074 21.8501 63.7263 22.3356 62.3307 22.3334C62.2196 22.3334 62.0952 22.3201 61.9574 22.2934C61.8196 22.2668 61.6941 22.2523 61.5807 22.2501L57.3307 49.0001H10.6641Z" fill="#CAE8FF"/>
</svg>
