<svg width="16" height="16" viewBox="0 0 16 16" fill="none" xmlns="http://www.w3.org/2000/svg">
<mask id="mask0_1632_12712" style="mask-type:alpha" maskUnits="userSpaceOnUse" x="0" y="0" width="16" height="16">
<rect x="16" y="16" width="16" height="16" transform="rotate(180 16 16)" fill="#D9D9D9"/>
</mask>
<g mask="url(#mask0_1632_12712)">
<path d="M12.668 3.33337L12.668 9.33337C12.668 9.70156 12.3695 10 12.0013 10C11.6331 10 11.3346 9.70156 11.3346 9.33337L11.3346 5.60004L4.06797 12.8667C3.81024 13.1244 3.39237 13.1244 3.13463 12.8667C2.8769 12.609 2.8769 12.1911 3.13463 11.9334L10.4013 4.66671L6.66797 4.66671C6.29978 4.66671 6.0013 4.36823 6.0013 4.00004C6.0013 3.63185 6.29978 3.33337 6.66797 3.33337L12.668 3.33337Z" fill="#DC0004"/>
</g>
</svg>
