<svg width="29" height="29" viewBox="0 0 29 29" fill="none" xmlns="http://www.w3.org/2000/svg">
<circle cx="14.727" cy="14.8823" r="14.1176" fill="#318AD1"/>
<path d="M21.5467 11.6509C21.9168 11.2809 22.1248 10.779 22.1249 10.2557C22.1249 9.73236 21.9171 9.23044 21.5471 8.86034C21.1771 8.49025 20.6752 8.28229 20.1519 8.28223C19.6286 8.28216 19.1266 8.48999 18.7565 8.85999L9.41435 18.2043C9.25183 18.3663 9.13163 18.5659 9.06435 18.7853L8.13965 21.8317C8.12156 21.8922 8.1202 21.9565 8.1357 22.0178C8.1512 22.079 8.183 22.135 8.22771 22.1796C8.27242 22.2242 8.32839 22.2559 8.38966 22.2713C8.45094 22.2868 8.51525 22.2853 8.57575 22.2671L11.6229 21.3431C11.8421 21.2764 12.0416 21.157 12.2039 20.9952L21.5467 11.6509Z" stroke="white" stroke-width="1.2" stroke-linecap="round" stroke-linejoin="round"/>
<path d="M17.2266 10.3823L20.0266 13.1823" stroke="white" stroke-width="1.2" stroke-linecap="round" stroke-linejoin="round"/>
</svg>
