<svg width="32" height="32" viewBox="0 0 32 32" fill="none" xmlns="http://www.w3.org/2000/svg">
<path d="M23.9672 12C24.3005 11.2 24.5783 10.3609 24.8005 9.4827C25.0227 8.60448 25.1894 7.66581 25.3005 6.6667H22.3339L21.7672 9.80003L23.9672 12ZM6.66719 25.2667C7.55608 25.2 8.45074 25.0556 9.35119 24.8334C10.2516 24.6111 11.1459 24.3111 12.0339 23.9334L9.80052 21.7L6.66719 22.3334V25.2667ZM22.8005 19.1334L20.8672 17.2C21.0672 16.9556 21.3952 16.5111 21.8512 15.8667C22.3072 15.2223 22.5903 14.7778 22.7005 14.5334L18.9005 10.7L20.1339 4.00003H28.0005V5.40003C28.0005 7.82226 27.5672 10.1778 26.7005 12.4667C25.8339 14.7556 24.5339 16.9778 22.8005 19.1334ZM5.40052 28H4.00052V20.1667L10.6672 18.8L14.5339 22.6667C15.1783 22.2667 15.6841 21.9391 16.0512 21.684C16.4183 21.4289 16.757 21.1787 17.0672 20.9334L1.86719 5.73337L3.73385 3.8667L28.2672 28.4L26.4005 30.2667L19.0005 22.8667C16.9561 24.5334 14.7672 25.8058 12.4339 26.684C10.1005 27.5623 7.75608 28.0009 5.40052 28Z" fill="white"/>
</svg>
