<svg width="14" height="15" viewBox="0 0 14 15" fill="none" xmlns="http://www.w3.org/2000/svg">
<path d="M11.4623 12.3708L11.8707 11.9625L10.7915 10.8833V9.24996H10.2082V11.1166L11.4623 12.3708ZM5.83317 3.99996H8.1665V2.83329H5.83317V3.99996ZM10.4998 13.9166C9.69289 13.9166 9.00514 13.6322 8.43659 13.0632C7.86803 12.4943 7.58356 11.8065 7.58317 11C7.58278 10.1934 7.86725 9.50565 8.43659 8.93671C9.00592 8.36777 9.69367 8.08329 10.4998 8.08329C11.306 8.08329 11.9939 8.36777 12.5637 8.93671C13.1334 9.50565 13.4177 10.1934 13.4165 11C13.4153 11.8065 13.1309 12.4945 12.5631 13.0638C11.9953 13.6331 11.3076 13.9174 10.4998 13.9166ZM2.33317 12.75C2.01234 12.75 1.73778 12.6358 1.5095 12.4075C1.28123 12.1793 1.16689 11.9045 1.1665 11.5833V5.16663C1.1665 4.84579 1.28084 4.57124 1.5095 4.34296C1.73817 4.11468 2.01273 4.00035 2.33317 3.99996H4.6665V2.83329C4.6665 2.51246 4.78084 2.2379 5.0095 2.00963C5.23817 1.78135 5.51273 1.66701 5.83317 1.66663H8.1665C8.48734 1.66663 8.76209 1.78096 8.99075 2.00963C9.21942 2.23829 9.33356 2.51285 9.33317 2.83329V3.99996H11.6665C11.9873 3.99996 12.2621 4.11429 12.4908 4.34296C12.7194 4.57163 12.8336 4.84618 12.8332 5.16663V7.66038C12.4929 7.41732 12.1234 7.2326 11.7248 7.10621C11.3262 6.97982 10.9179 6.91663 10.4998 6.91663C9.37206 6.91663 8.40956 7.31524 7.61234 8.11246C6.81512 8.90968 6.4165 9.87218 6.4165 11C6.4165 11.3013 6.4482 11.6004 6.51159 11.8971C6.57498 12.1938 6.67453 12.4781 6.81025 12.75H2.33317Z" fill="#787878"/>
</svg>
