<svg width="21" height="21" viewBox="0 0 21 21" fill="none" xmlns="http://www.w3.org/2000/svg">
<path d="M17.7557 7.32375L16.8807 5.81C16.7636 5.60926 16.5721 5.46272 16.3477 5.40212C16.1234 5.34153 15.8842 5.37175 15.6819 5.48625L12.2519 7.4725V3.5C12.2519 3.01875 11.8582 2.625 11.3769 2.625H9.62693C9.14568 2.625 8.75193 3.01875 8.75193 3.5V7.4725L5.31318 5.48625C5.21441 5.42859 5.10524 5.39099 4.99191 5.37562C4.87858 5.36025 4.76333 5.3674 4.65278 5.39667C4.54222 5.42593 4.43853 5.47673 4.34765 5.54616C4.25677 5.61559 4.18049 5.70228 4.12318 5.80125L3.24818 7.315C3.00318 7.735 3.14318 8.2775 3.56318 8.51375L7.00193 10.5L3.56318 12.4862C3.14318 12.7313 3.00318 13.265 3.23943 13.685L4.11443 15.1988C4.35943 15.6188 4.89318 15.7587 5.31318 15.5225L8.75193 13.5275V17.5C8.75193 17.9812 9.14568 18.375 9.62693 18.375H11.3769C11.8582 18.375 12.2519 17.9812 12.2519 17.5V13.5275L15.6907 15.5138C16.1107 15.7587 16.6444 15.61 16.8894 15.19L17.7644 13.6763C18.0094 13.2563 17.8607 12.7225 17.4407 12.4775L14.0019 10.5L17.4407 8.51375C17.8607 8.2775 18.0007 7.735 17.7557 7.32375Z" fill="#CF3535"/>
</svg>
