<svg width="24" height="25" viewBox="0 0 24 25" fill="none" xmlns="http://www.w3.org/2000/svg">
<path d="M18 6.50001C17.45 6.50001 16.9793 6.30434 16.588 5.91301C16.1967 5.52167 16.0007 5.05067 16 4.50001C15.9993 3.94934 16.1953 3.47867 16.588 3.08801C16.9807 2.69734 17.4513 2.50134 18 2.50001C18.5487 2.49867 19.0197 2.69467 19.413 3.08801C19.8063 3.48134 20.002 3.95201 20 4.50001C19.998 5.04801 19.8023 5.51901 19.413 5.91301C19.0237 6.30701 18.5527 6.50267 18 6.50001ZM17 22.5V14.5C17 13.8333 16.829 13.2333 16.487 12.7C16.145 12.1667 15.7077 11.75 15.175 11.45L16.05 8.87501C16.1833 8.45834 16.4293 8.12501 16.788 7.87501C17.1467 7.62501 17.5507 7.50001 18 7.50001C18.4493 7.50001 18.8537 7.62501 19.213 7.87501C19.5723 8.12501 19.818 8.45834 19.95 8.87501L22.5 16.5H20V22.5H17ZM12.5 12C12.0833 12 11.7293 11.8543 11.438 11.563C11.1467 11.2717 11.0007 10.9173 11 10.5C10.9993 10.0827 11.1453 9.72867 11.438 9.43801C11.7307 9.14734 12.0847 9.00134 12.5 9.00001C12.9153 8.99867 13.2697 9.14467 13.563 9.43801C13.8563 9.73134 14.002 10.0853 14 10.5C13.998 10.9147 13.8523 11.269 13.563 11.563C13.2737 11.857 12.9193 12.0027 12.5 12ZM5.5 6.50001C4.95 6.50001 4.47933 6.30434 4.088 5.91301C3.69667 5.52167 3.50067 5.05067 3.5 4.50001C3.49933 3.94934 3.69533 3.47867 4.088 3.08801C4.48067 2.69734 4.95133 2.50134 5.5 2.50001C6.04867 2.49867 6.51967 2.69467 6.913 3.08801C7.30633 3.48134 7.502 3.95201 7.5 4.50001C7.498 5.04801 7.30233 5.51901 6.913 5.91301C6.52367 6.30701 6.05267 6.50267 5.5 6.50001ZM3.5 22.5V15.5H2V9.50001C2 8.95001 2.196 8.47934 2.588 8.08801C2.98 7.69667 3.45067 7.50067 4 7.50001H7C7.55 7.50001 8.021 7.69601 8.413 8.08801C8.805 8.48001 9.00067 8.95067 9 9.50001V15.5H7.5V22.5H3.5ZM11 22.5V18.5H10V14.5C10 14.0833 10.146 13.7293 10.438 13.438C10.73 13.1467 11.084 13.0007 11.5 13H13.5C13.9167 13 14.271 13.146 14.563 13.438C14.855 13.73 15.0007 14.084 15 14.5V18.5H14V22.5H11Z" fill="#0059A0"/>
</svg>
