<svg width="24" height="25" viewBox="0 0 24 25" fill="none" xmlns="http://www.w3.org/2000/svg">
<path d="M8.76667 9.16667C9.02789 8.42408 9.5435 7.7979 10.2222 7.39904C10.9008 7.00018 11.6988 6.85438 12.4746 6.98746C13.2505 7.12054 13.9542 7.52392 14.4612 8.12614C14.9682 8.72837 15.2456 9.49058 15.2444 10.2778C15.2444 12.5 11.9111 13.6111 11.9111 13.6111M12 18.0556H12.0111M7.33333 22.5H16.6667C18.5335 22.5 19.4669 22.5 20.18 22.1367C20.8072 21.8171 21.3171 21.3072 21.6367 20.68C22 19.9669 22 19.0335 22 17.1667V7.83333C22 5.96649 22 5.03307 21.6367 4.32003C21.3171 3.69282 20.8072 3.18289 20.18 2.86331C19.4669 2.5 18.5335 2.5 16.6667 2.5H7.33333C5.46649 2.5 4.53307 2.5 3.82003 2.86331C3.19282 3.18289 2.68289 3.69282 2.36331 4.32003C2 5.03307 2 5.96649 2 7.83333V17.1667C2 19.0335 2 19.9669 2.36331 20.68C2.68289 21.3072 3.19282 21.8171 3.82003 22.1367C4.53307 22.5 5.46649 22.5 7.33333 22.5Z" stroke="#0059A0" stroke-width="2" stroke-linecap="round" stroke-linejoin="round"/>
</svg>
