<svg width="32" height="26" viewBox="0 0 32 26" fill="none" xmlns="http://www.w3.org/2000/svg">
<path d="M4.46215 25.7703H27.537C30.3227 25.7703 31.7427 24.3772 31.7427 21.6183V7.59602C31.7427 4.83716 30.3227 3.45774 27.537 3.45774H24.4033C23.3587 3.45774 23.0376 3.24345 22.4347 2.57374L21.3496 1.36802C20.6936 0.632022 20.0107 0.229736 18.6176 0.229736H13.2873C11.9079 0.229736 11.2244 0.632022 10.5553 1.36802L9.47015 2.57374C8.881 3.22974 8.54615 3.45774 7.50157 3.45774H4.46157C1.67586 3.45774 0.255859 4.83716 0.255859 7.59602V21.6183C0.255859 24.3772 1.67643 25.7703 4.46215 25.7703ZM4.50157 23.6137C3.17586 23.6137 2.41243 22.904 2.41243 21.5109V7.71659C2.41243 6.32345 3.17586 5.61374 4.50157 5.61374H8.037C9.24272 5.61374 9.88557 5.38631 10.5553 4.63659L11.613 3.45774C12.3764 2.60059 12.765 2.38631 13.957 2.38631H17.9479C19.1399 2.38631 19.5284 2.60059 20.2919 3.45774L21.3496 4.63602C22.0193 5.38631 22.6621 5.61374 23.8679 5.61374H27.497C28.8227 5.61374 29.5867 6.32345 29.5867 7.71659V21.5109C29.5867 22.904 28.8233 23.6137 27.497 23.6137H4.50157ZM16.0061 6.53774C14.3987 6.53774 12.7513 7.11374 11.6404 8.05145C11.0239 8.53374 10.8633 9.20288 11.3187 9.68574C11.7736 10.1675 12.3633 10.1006 12.8587 9.71202C13.7959 8.96231 14.7473 8.58688 16.0061 8.58688C18.6044 8.58688 20.7604 10.3412 21.3364 12.6315H19.8764C19.2741 12.6315 19.1267 13.2075 19.4747 13.6629L21.5776 16.596C21.9261 17.0783 22.5284 17.1183 22.8901 16.596L24.9656 13.6629C25.301 13.1943 25.1667 12.6315 24.5639 12.6315H23.265C22.6353 9.02916 19.7159 6.53774 16.0061 6.53774ZM7.39472 14.9892H8.77357C9.41643 18.5915 12.3364 21.0829 16.033 21.0829C17.653 21.0829 19.2736 20.52 20.4124 19.5823C21.0284 19.1006 21.189 18.4177 20.7336 17.9355C20.2781 17.4532 19.689 17.5337 19.1667 17.9086C18.2296 18.6452 17.2919 19.0469 16.033 19.0469C13.4479 19.0469 11.2787 17.2926 10.7159 14.9886H12.0953C12.6844 14.9886 12.8456 14.4263 12.497 13.9577L10.3941 11.0377C10.0461 10.556 9.44329 10.5155 9.08215 11.0377L7.00615 13.9577C6.67129 14.4263 6.805 14.9892 7.39472 14.9892Z" fill="black"/>
</svg>
