<svg xmlns="http://www.w3.org/2000/svg" width="320" height="320" fill="none" xmlns:v="https://vecta.io/nano"><style><![CDATA[.B{fill:#318ad1}.C{fill:#000}.D{fill:#fff}.E{fill:#455a64}.F{opacity:.2}.G{fill:#37474f}.H{fill:#fafafa}.I{fill:#263238}.J{fill:#f28f8f}.K{opacity:.1}.L{fill:#ebebeb}.M{opacity:.9}.N{opacity:.8}.O{opacity:.6}.P{fill:#b16668}.Q{fill:#ffa8a7}.R{fill:#ffbda7}.S{fill:#9e6767}.T{fill:#f0f0f0}.U{fill:#e0e0e0}.V{opacity:.15}.W{fill:#e6e6e6}.X{fill:#ffc4c3}.Y{fill:#874c4c}]]></style><path d="M160 293.843c84.566 0 153.12-38.261 153.12-85.459S244.566 122.925 160 122.925 6.88 161.186 6.88 208.384 75.434 293.843 160 293.843z" class="T"/><g class="U"><path d="M159.994 190.33c18.323 0 33.177-8.577 33.177-19.156s-14.854-19.155-33.177-19.155-33.178 8.576-33.178 19.155 14.854 19.156 33.178 19.156zm40.832 32.416c18.323 0 33.177-8.576 33.177-19.156s-14.854-19.155-33.177-19.155-33.178 8.576-33.178 19.155 14.854 19.156 33.178 19.156z"/><use href="#B"/><path d="M267.181 210.957c18.323 0 33.177-8.576 33.177-19.155s-14.854-19.156-33.177-19.156-33.178 8.576-33.178 19.156 14.854 19.155 33.178 19.155zm-214.375 0c18.324 0 33.178-8.576 33.178-19.155s-14.854-19.156-33.178-19.156-33.178 8.576-33.178 19.156 14.854 19.155 33.178 19.155z"/><path d="M116.608 221.274c18.323 0 33.178-8.576 33.178-19.156s-14.855-19.155-33.178-19.155-33.178 8.576-33.178 19.155 14.854 19.156 33.178 19.156z"/><use href="#B" x="-155.136" y="3.885"/><path d="M144.691 270.24l.307-9.958c.008-.204-.025-.407-.098-.598a1.52 1.52 0 0 0-.325-.51c-.142-.147-.312-.263-.5-.342a1.51 1.51 0 0 0-.593-.118H124.8c-.204.001-.407-.038-.596-.117a1.52 1.52 0 0 1-.501-.341c-.143-.147-.254-.321-.327-.512a1.51 1.51 0 0 1-.099-.598l.537-17.14c.015-.42.192-.817.494-1.11a1.63 1.63 0 0 1 1.126-.458h18.7a1.63 1.63 0 0 0 1.122-.461c.302-.292.48-.688.498-1.107l.307-9.964a1.64 1.64 0 0 1 .499-1.109c.303-.292.706-.457 1.126-.459h24.666c.42.002.824.167 1.126.459s.482.689.5 1.109l.307 9.958c.016.42.193.818.495 1.111s.704.459 1.124.463h18.746a1.63 1.63 0 0 1 1.125.458c.302.293.479.69.494 1.11l.486 17.14a1.5 1.5 0 0 1-.101.597c-.073.191-.185.364-.327.511a1.52 1.52 0 0 1-.5.341c-.189.079-.391.12-.595.119h-18.714a1.51 1.51 0 0 0-.593.118c-.188.079-.358.195-.5.342a1.52 1.52 0 0 0-.325.51c-.073.191-.106.394-.098.598l.307 9.958c.008.205-.026.409-.099.6s-.184.365-.327.512a1.53 1.53 0 0 1-.501.344c-.189.079-.392.119-.596.118h-27.578a1.5 1.5 0 0 1-1.095-.462 1.5 1.5 0 0 1-.325-.513 1.51 1.51 0 0 1-.097-.599z"/></g><use href="#C" class="B"/><g class="V C"><use href="#C"/></g><path d="M288.474 174.016c.068-.014.13-.051.175-.104a.32.32 0 0 0 .074-.19c.73-15.104 10.88-28.8 17.587-32.461.042-.017.08-.043.111-.076s.054-.072.069-.114.021-.088.017-.133a.34.34 0 0 0-.126-.229.32.32 0 0 0-.255-.058.33.33 0 0 0-.123.053c-6.848 3.75-17.171 17.651-17.92 32.986-.002.041.003.083.017.123a.32.32 0 0 0 .064.106c.028.031.061.056.099.074a.3.3 0 0 0 .121.029l.09-.006z" class="D"/><path d="M288.378 186.714c.332-2.516 2.707-6.938 7.001-10.938 4.749-4.416 11.194-7.04 12.32-10.138 1.351-3.68-1.997-6.483-7.328-5.011s-13.785 10.253-13.651 21.645l1.658 4.442z" class="B"/><path d="M286.957 184.32c.059-.014.113-.045.155-.089a.31.31 0 0 0 .082-.161c2.662-13.235 11.616-19.059 16-20.288a.31.31 0 0 0 .115-.057c.035-.027.064-.06.086-.097s.035-.08.041-.123a.33.33 0 0 0-.009-.129.34.34 0 0 0-.057-.116c-.027-.034-.06-.063-.098-.085a.31.31 0 0 0-.122-.041.33.33 0 0 0-.129.008c-4.819 1.357-13.709 7.258-16.423 20.775-.009.041-.01.083-.002.124s.024.081.047.115.054.065.089.087.075.038.116.045c.033.019.071.03.109.032z" class="D"/><use href="#D" class="B"/><g class="V C"><use href="#D"/></g><path d="M31.744 163.84h.064c.041-.002.082-.013.119-.032s.07-.044.097-.076.047-.068.059-.108.016-.082.012-.123c-1.28-16.506-10.694-26.183-15.469-28.999-.071-.042-.156-.054-.237-.034s-.149.072-.192.143a.32.32 0 0 0-.035.24c.02.081.072.152.143.195 4.678 2.752 13.869 12.263 15.162 28.506.005.072.036.141.086.193s.117.086.189.095z" class="D"/><path d="M7.77 154.419c.128 1.242 1.126 2.189 2.08 2.983s1.99 1.664 2.253 2.88c.525 2.451-2.381 4.716-1.754 7.142a3.89 3.89 0 0 0 .793 1.353 3.9 3.9 0 0 0 1.262.932 25.01 25.01 0 0 0 2.406 1.03 10.45 10.45 0 0 0 1.21.288 5.63 5.63 0 0 1 3.296 1.479c1.344 1.452 1.171 3.686 1.651 5.612.31 1.143.865 2.205 1.625 3.113a8.19 8.19 0 0 0 2.778 2.148c1.779.851 4.704 1.338 5.453.672.57-.505.09-2.745.301-3.481a30.73 30.73 0 0 0 1.094-5.76 11.05 11.05 0 0 1 .461-2.624l.928-2.848c.288-.928.832-1.767.8-2.919-.084-1.097-.332-2.176-.736-3.2l-1.082-3.072a15.53 15.53 0 0 0-1.619-3.481c-.632-.92-1.445-1.701-2.389-2.295s-2-.99-3.102-1.161c-1.824-.269-3.84.153-5.587-.512s-3.251-1.658-5.069-2.132c-.946-.278-1.943-.338-2.916-.174s-1.895.548-2.697 1.122c-.461.328-.834.765-1.085 1.271s-.373 1.069-.355 1.634z" class="B"/><g class="D"><path d="M30.79 178.938c.037.001.074-.004.109-.017s.067-.032.094-.057.049-.055.065-.088.025-.07.026-.107c.941-17.568-15.36-25.447-19.418-26.451-.072-.016-.147-.004-.21.034s-.109.099-.129.17-.006.149.033.212.1.109.172.128c3.987.985 19.917 8.684 18.995 25.881-.003.037.001.074.012.109s.03.068.055.096a.27.27 0 0 0 .088.065c.034.016.07.024.107.025z"/><path d="M14.522 164.595c.058.008.116-.003.166-.032a14.91 14.91 0 0 1 6.383-1.158c2.187.087 4.328.655 6.27 1.664a.29.29 0 0 0 .214.012c.07-.024.129-.074.163-.14.016-.033.026-.07.029-.106s-.002-.074-.014-.11-.031-.067-.055-.095a.29.29 0 0 0-.087-.067c-2.021-1.047-4.249-1.634-6.524-1.72a15.44 15.44 0 0 0-6.634 1.227c-.033.017-.063.039-.087.067s-.043.061-.054.096-.015.073-.012.11.014.072.032.105c.021.04.051.074.088.099s.079.042.123.048z"/></g><path d="M258.906 76.314c-1.645 3.654-7.565 17.645-7.565 17.645l7.565 5.818c.64-.941 4.588-12.486 4.588-12.486l2.976-15.834c-3.808.102-6.048 1.504-7.564 4.858z" class="W"/><path d="M264.198 177.792c-.14.096-.473.48-1.062 1.024a21.3 21.3 0 0 1-1.92 1.466 34.78 34.78 0 0 1-4.218 2.643c-1.74.96-3.308 1.542-5.388 2.483a1.65 1.65 0 0 0-.583.384c-.126.149-.214.327-.256.518a2.15 2.15 0 0 0 .142 1.163c.154.367.406.685.729.917a5.74 5.74 0 0 0 2.176.928c1.768.497 3.632.552 5.427.16a15.39 15.39 0 0 0 4.358-2.016c1.118-.788 2.389-1.333 3.731-1.6 1.165-.166 2.605-.115 3.616-.812 1.127-.775.679-2.432.359-3.84-.346-1.556-.429-3.924-1.133-3.872l-.058.64c-.057.672-1.683.979-2.944.979-1.043 0-3.014-.269-3.008-.762l.032-.403zm18.176 8.602l-.096-.826c-.3 0-.435.339-.556 1.069-.26 1.558-.751 3.068-1.46 4.48-.87 1.82-1.985 3.512-3.315 5.03-.629.64-1.217 1.32-1.76 2.035-.345.64-.467 2.311.115 2.695 2.144 1.433 5.402 1.472 7.68.8a4.44 4.44 0 0 0 2.26-1.361c.598-.672.977-1.51 1.088-2.402.371-2.1.569-3.392 1.638-4.98.39-.582 1.024-1.049 1.28-1.702.474-1.165.09-2.477-.211-3.642-.263-1.004-.551-2.105-.896-2.016v.64c-.41.461-1.856.909-3.143.96-.793.007-2.63-.147-2.624-.78z" class="I"/><path d="M288.122 111.021l1.235 40.614a78.27 78.27 0 0 1 .704 8.691c.147 7.04-.275 25.312-.275 25.312-.455 2.976-8.237 2.452-8.96 1.076l-2.816-33.088-3.303-25.991-1.99 19.565c.08 2.284.028 4.57-.154 6.848-.224 3.2-1.28 24.768-1.28 24.768 0 1.184-7.744 2.528-8.819-.23l-.64-32.608c-.064-3.373.403-35.316.403-35.316l25.895.359z" class="G"/><path d="M274.08 120.166c-2.237-.862-4.277-2.169-5.997-3.84 0 0 .954 2.791 4.877 5.12l-.256 24.32 1.978-18.118-.602-7.482z" class="I"/><path d="M279.27 70.758a80.21 80.21 0 0 1 6.727 1.997c1.297.493 2.422 1.354 3.238 2.477 1.863 2.72.186 8.768-1.19 20.16l.32 16.499c-3.386 2.464-19.162 4.135-26.279-1.062 0 0-.236-27.603.237-31.194.896-6.867 3.591-8.704 9.139-9.03l7.808.154z" class="E"/><use href="#E" class="B"/><use href="#E" class="C F"/><use href="#F" class="B"/><g class="C"><use href="#F" class="F"/><path d="M269.574 78.822c.192-.678 1.108-.64 1.844-.845.414-.163.761-.46.985-.845.378-.64 0-1.734-.531-1.85 1.139.083 2.477-.173 2.477 1.235 0 1.722-2.336 2.72-2.336 2.72a3.31 3.31 0 0 0-2.439-.416z" class="F"/></g><g class="I"><path d="M277.562 54.003a7.42 7.42 0 0 1-1.349 4.094 7.43 7.43 0 0 1-3.395 2.655c-1.369.53-2.866.641-4.299.321s-2.738-1.059-3.752-2.121-1.689-2.402-1.941-3.849-.07-2.935.524-4.278 1.573-2.479 2.813-3.266a7.42 7.42 0 0 1 9.349 1.145c1.359 1.425 2.096 3.331 2.05 5.298zm5.28 5.408l-1.837 6.534a2.56 2.56 0 0 1-1.511 1.158l.18-3.974 3.168-3.718z"/><path d="M281.53 51.277c.421-.039.846.018 1.242.168a2.78 2.78 0 0 1 1.042.696c.967 1.037.34 4.192-.972 7.27l-2.272.205.96-8.339z"/></g><path d="M279.891 59.603c.448.282 1.12-.576 1.696-1.152s2.419-1.331 3.283.64-.908 4.531-2.361 4.947c-2.503.717-2.835-.883-2.835-.883l-.423 10.131c-1.773 2.163-5.939 2.285-8 1.862-1.651-.333-1.677-1.504-.051-3.296l.077-2.906c-1.109.15-2.231.183-3.347.096-1.818-.326-2.938-1.792-3.437-3.782-.768-3.04-.954-6.432-.192-11.987.941-6.822 8.96-6.701 13.177-3.891s2.413 10.221 2.413 10.221z" class="R"/><g class="I"><path d="M279.872 60.365c.23 0 1.133-1.414 1.715-1.92.8-.691-.057-7.174-.057-7.174.283-.561.392-1.194.311-1.817a3.13 3.13 0 0 0-.766-1.677c-1.587-1.83-3.673-2.368-6.054-2.31l-2.599.109a9.52 9.52 0 0 1-3.046-.525l-3.981-1.325a1.32 1.32 0 0 0-1.28.166c-.104.138-.177.297-.213.466s-.036.344.002.513a4.11 4.11 0 0 0 .954 2.144 5.76 5.76 0 0 0-1.408-.07 1.92 1.92 0 0 0-1.28.595c-.209.263-.341.579-.379.913a1.8 1.8 0 0 0 .161.975 3.2 3.2 0 0 0 1.37 1.414c1.128.65 2.457.86 3.731.589a2.61 2.61 0 0 0 .633.891c.271.249.592.438.941.555 1.066.46 2.216.692 3.377.681s2.306-.265 3.362-.745a9.48 9.48 0 0 0 .768.998 5.13 5.13 0 0 0 1.05.794c.181.107.369.201.563.282.22.053.434.126.64.218.237.179.211.64.256.954l.378 2.445a3.84 3.84 0 0 0 .544 1.677.43.43 0 0 0 .133.126.44.44 0 0 0 .174.06z"/><path d="M281.51 51.782l2.784-1.408a1.52 1.52 0 0 0-.352-.492 1.51 1.51 0 0 0-.517-.315 1.52 1.52 0 0 0-.599-.088c-.204.011-.403.063-.586.153a1.64 1.64 0 0 0-.795.929c-.136.401-.113.838.065 1.221z"/></g><path d="M271.277 68.922s4.089-.723 5.536-1.446c.85-.422 1.553-1.091 2.016-1.92-.238.828-.639 1.6-1.178 2.272-1.069 1.28-6.4 2.24-6.4 2.24l.026-1.146z" fill="#f1a288"/><path d="M272.64 58.605a.82.82 0 0 0 1.434.467.82.82 0 0 0 .194-.43c.021-.159-.005-.322-.075-.466s-.182-.265-.32-.347a.82.82 0 0 0-.459-.113.83.83 0 0 0-.314.085.84.84 0 0 0-.258.199.82.82 0 0 0-.161.283c-.035.104-.049.214-.041.323zm.538-3.072l1.792.87a1.05 1.05 0 0 0-.48-1.37.98.98 0 0 0-.379-.093.97.97 0 0 0-.384.063.98.98 0 0 0-.329.209.96.96 0 0 0-.22.321zm-8.448.787l1.92-.64a.96.96 0 0 0-.183-.344.97.97 0 0 0-.304-.244c-.117-.06-.244-.095-.375-.104a.97.97 0 0 0-.386.052 1.04 1.04 0 0 0-.594.505c-.125.239-.153.516-.078.775zm.928 2.054c-.008.16.031.319.112.458s.202.249.346.32a.82.82 0 0 0 .465.076c.16-.021.309-.088.43-.193a.81.81 0 0 0 .253-.398c.044-.154.041-.318-.008-.471a.82.82 0 0 0-.702-.567.84.84 0 0 0-.896.774z" class="C"/><path d="M270.074 57.907l-.295 4.909-2.56-.883 2.855-4.026zm2.771 5.747l-3.2.877a1.63 1.63 0 0 0 .267.598c.128.179.291.331.479.445s.398.19.616.222a1.64 1.64 0 0 0 .654-.037 1.74 1.74 0 0 0 1.184-2.106z" fill="#f1a288"/><path d="M272.851 64.467a1.45 1.45 0 0 0-.441-.077c-.378.001-.741.143-1.021.397s-.453.603-.49.979h.058c.227.051.463.051.691 0a1.73 1.73 0 0 0 .781-.484c.211-.229.357-.511.422-.815z" class="J"/><path d="M271.251 75.123c2.266-.474 7.616-2.56 8.135-5.19l.07-1.44c.877 0 1.28.986 1.715 2.387.179 3.706-3.725 7.085-7.648 7.994a6.81 6.81 0 0 0-.864-2.432 3.3 3.3 0 0 0-1.408-1.318z" class="G"/><path d="M279.366 70.4s-1.67 8.39-2.4 14.08-.582 21.696-.198 31.872c.282 7.411 1.389 21.12 1.389 21.12s1.83.371 6.246-.358a17.29 17.29 0 0 0 6.464-2.215l-1.222-28.096c-.487-6.701-.467-10.393-.467-10.393l1.58-15.302s-.121-9.6-3.11-10.022c-3.098-.48-8.282-.685-8.282-.685z" class="H"/><path d="M282.24 84.134l.096-2.067c.294-4.691-.134-11.475-1.715-11.814l-.141.64c1.158.25 1.338 8.851 1.197 11.13-.064.979-.115 1.754-.096 2.144l.659-.032z" class="B"/><path d="M287.738 120.96c.819-1.395.864-2.432 2.099-3.68.531-.51.915-1.153 1.113-1.862a13.61 13.61 0 0 0 .448-3.501l7.168.333a45.24 45.24 0 0 1-.876 7.929c-1.37 5.971-2.65 8.461-5.255 9.101-4.102.928-5.12-.838-3.673-3.802a14.76 14.76 0 0 0 1.318-3.91c-.443.524-.958.983-1.53 1.363a1.44 1.44 0 0 1-1.952-.211c-.179-.288.493-.685 1.14-1.76z" class="R"/><path d="M286.438 71.04s3.546-.051 5.536 1.741 3.066 6.579 4.346 11.386 2.432 9.472 2.771 12.8c.288 2.79-.173 17.28-.173 17.28s-4.921 1.044-8.044-.64l.256-16.294-5.159-16.365c-.942-3.263-.777-6.747.467-9.907z" class="T"/><path d="M279.482 67.629c.467-.09.896.154 1.28.8l1.216 2.003s.428 4.48 0 5.626c-.372.973-2.861 5.562-2.861 5.562l.205 5.76c.038 1.28-2.56 6.88-2.823 9.459 0 0-.128-10.483.25-13.395.64-5.062 1.51-11.405 2.637-13.485l.096-2.33z" class="L"/><path d="M281.261 98.925c-.599.397-1.304.602-2.023.589l.058-.461a2.84 2.84 0 0 0 1.555-.429 5.65 5.65 0 0 1-1.158-1.248c-.64-1.024-1.703-8.019-1.063-9.6.525-1.28 2.074-4.096 3.245-4.096h.032c1.178.051 2.496 3.014 2.919 4.365.505 1.6-1.127 8.486-1.876 9.453a5.48 5.48 0 0 1-1.28 1.139c.444.325.969.521 1.517.563v.467h-.057a3.69 3.69 0 0 1-1.869-.742zm-2.221-10.95c-.589 1.427.41 8.198 1.024 9.152.33.475.734.894 1.197 1.242.487-.305.92-.69 1.28-1.139.691-.89 2.259-7.558 1.798-9.03-.563-1.805-1.805-4.006-2.496-4.032-.665 0-2.073 2.067-2.803 3.808z" class="E"/><path d="M278.586 99.258a.68.68 0 0 0 .093.383c.068.116.17.208.291.266a.68.68 0 0 0 .932-.84.68.68 0 0 0-.606-.45c-.179-.009-.354.054-.487.174a.68.68 0 0 0-.223.466zm3.948.166c-.008.136.024.271.092.389s.171.212.293.272a.69.69 0 0 0 .395.061c.135-.019.261-.078.362-.169s.173-.21.206-.343a.69.69 0 0 0-.26-.719c-.11-.08-.241-.126-.377-.132a.69.69 0 0 0-.711.64z" class="I"/><path d="M278.515 90.829h.391c.039-.003.076-.022.102-.052s.04-.069.038-.108a7.79 7.79 0 0 1 .116-2.624c.684-1.67 2.105-3.763 2.72-3.738s1.849 2.234 2.393 3.955a7.94 7.94 0 0 1-.115 2.618c-.006.039.004.079.026.111s.057.054.096.062l.39.058c.04.005.08-.005.113-.029s.053-.06.06-.099a7.91 7.91 0 0 0 .077-2.938c-.288-.922-1.652-4.384-3.021-4.442s-3.027 3.277-3.392 4.173c-.243.957-.301 1.952-.173 2.931.008.04.031.075.065.098s.074.031.114.024z" class="B"/><path d="M271.264 69.293c-.64.051-.883.896-2.291 1.28-2.624.781-4.679 1.088-5.76 2.509-1.76 2.349-1.415 4.269-1.856 16.16s-.583 45.753-.583 45.753c1.259.572 2.631.849 4.013.813l.147-45.779c.25-8.41 1.524-12.499 3.341-15.27.478-1.887 1.484-3.599 2.899-4.934l.09-.531z" class="H"/><path d="M268.294 74.79c-1.817 2.771-3.091 6.867-3.34 15.27l-.084 4.096s-1.497-7.616-1.228-9.235 2.016-4.973 2.016-4.973c-.221-2.699.292-5.408 1.484-7.84a5.36 5.36 0 0 1 .928-1.216 9.33 9.33 0 0 1 1.133-.768c.598-.462 1.311-.75 2.061-.832v.582c-1.441 1.32-2.471 3.026-2.97 4.915z" class="L"/><path d="M271.251 69.875a7.63 7.63 0 0 0-1.971 1.69c-.69.923-1.122 2.013-1.251 3.158a6.48 6.48 0 0 0 .515 3.357 5.47 5.47 0 0 1 1.165-1.971c.417-.46.949-.801 1.542-.986-.723-.768-.441-2.112-.051-3.296l.051-1.952z" class="G"/><path d="M243.469 86.214l20.729 7.315 5.703 24.665-.461.493-19.712-7.36-6.726-24.621.467-.493z" class="B"/><g class="C"><path opacity=".35" d="M263.731 94.022l5.709 24.666.461-.493-5.703-24.665-.467.493z"/><path opacity=".25" d="M243.002 86.707l20.729 7.315 5.709 24.666-19.712-7.36-6.726-24.621z"/><g class="F"><path d="M252.8 106.317c-.192.48-1.779 1.549-4.077 1.357l-.403-1.434 4.48.077z"/></g><g class="K"><path d="M249.248 91.763l-.173-.832c-.089-.454 1.127-.218 2.72.538l3.744 1.133c1.594.755 3.098 1.312 3.2 1.773l.173.826-9.664-3.437z"/></g></g><g class="G"><path d="M248.019 88.019c-.064-.288.41-.224 1.075-.051l1.191.41s-.487-1.203 2.342-.435c3.104.838 3.2 2.394 3.2 2.394.474.209.959.39 1.453.544 1.03.333 1.146.538 1.229.826l.153.525-10.566-3.718s-.019-.192-.077-.493z"/><path d="M249.126 89.6c.98.442 1.389.64 1.53 1.363l.205 1.139 5.504 2.17-.371-1.574c-.071-.39.64-.403 1.606.038l-.23-.986-8.551-3.2.307 1.05z"/><path d="M248.96 91.776l-.173-.826c-.096-.461 1.12-.218 2.72.531l3.738 1.133c1.593.755 3.104 1.28 3.2 1.773l.166.826-9.651-3.437z"/></g><path d="M245.312 95.149l.922 3.386c.192.685 3.59 2.253 5.292 2.464 3.252.404 3.616 1.114 2.836 3.418-.724 2.131-2.836 2.931-5.76 2.56-.922-.178-1.78-.597-2.487-1.214a5.31 5.31 0 0 1-1.539-2.3c-.947-2.72-.435-5.625-.813-7.212s.717-2.048 1.549-1.101z" class="R"/><path d="M228.742 235.981c.071-1.92-1.331-20.896-1.331-20.896l9.229 6.694c-1.92 11.309-2.298 13.971-2.33 15.821a1.76 1.76 0 0 1 .052.474c0 2.195-2.49 3.379-4.423 4.844a36.23 36.23 0 0 1-5.229 3.418c-1.401.704-4.256.768-4.608-.134 2.349-1.799 5.76-4.48 7.642-6.541.896-.979.934-1.754.998-3.68z" class="Q"/><path d="M216.09 248.563a1.88 1.88 0 0 0-.093 1.009c.062.339.216.654.445.911 1.722 1.198 3.842 1.68 5.913 1.344 2.931-.377 4.519-1.28 5.696-2.272s2.816-2.368 4.141-2.662c1.062-.197 2.072-.609 2.97-1.21.39-.377.339-2.073.339-2.073l-19.411 4.953z" class="E"/><use href="#G" class="B"/><use href="#G" class="D M"/><use href="#H" class="B"/><use href="#H" class="D N"/><path d="M223.885 246.074c-2.087.838-1.197 1.228-.64 1.312s4.096-1.972 6.233-3.661 3.642-3.699 4.48-4.352l.941-.813-.147-1.101a.46.46 0 0 0-.15-.277c-.08-.073-.183-.115-.292-.12 0 .269.039.525-.166.73a5.62 5.62 0 0 1-.57.371 2.85 2.85 0 0 0-.531.538c-.273.386-.577.75-.909 1.088-2.319 2.606-5.12 4.74-8.249 6.285z" class="B"/><path d="M223.418 247.078c.049-.001.096-.019.134-.051.036-.039.057-.09.057-.144s-.021-.105-.057-.144a4.93 4.93 0 0 0-3.84-1.504.21.21 0 0 0-.077.024c-.023.013-.044.031-.061.052s-.03.045-.037.071-.01.053-.007.08a.21.21 0 0 0 .024.077c.013.024.03.045.051.062s.046.029.072.037.053.01.08.007a4.6 4.6 0 0 1 1.871.314c.595.234 1.135.589 1.585 1.043.023.03.055.054.091.068a.21.21 0 0 0 .114.008zm1.817-1.12c.048-.001.095-.016.135-.044.019-.019.035-.042.046-.068a.2.2 0 0 0 .016-.08.22.22 0 0 0-.016-.08c-.01-.026-.027-.048-.046-.067-.496-.51-1.095-.909-1.757-1.168a4.99 4.99 0 0 0-2.083-.336c-.054.007-.102.034-.136.076s-.049.095-.044.148c.003.027.011.053.023.077a.22.22 0 0 0 .051.063c.021.017.045.03.07.038s.053.01.08.008c.639-.027 1.277.079 1.872.313a4.58 4.58 0 0 1 1.584 1.044.22.22 0 0 0 .092.067c.036.013.075.017.113.009zm1.824-1.062c.047 0 .092-.015.128-.045.039-.039.06-.092.06-.147s-.021-.108-.06-.147a4.96 4.96 0 0 0-1.757-1.169c-.662-.26-1.372-.374-2.083-.335a.21.21 0 0 0-.185.23c.003.027.011.053.025.077s.031.044.052.061.046.029.072.036a.2.2 0 0 0 .081.005 4.6 4.6 0 0 1 1.871.315c.595.233 1.135.588 1.585 1.042.023.034.055.059.093.073a.19.19 0 0 0 .118.004zm1.683-1.21c.05-.001.097-.019.135-.051.036-.039.056-.09.056-.144s-.02-.105-.056-.144a4.95 4.95 0 0 0-1.756-1.171c-.663-.26-1.374-.373-2.084-.333-.027.003-.053.01-.076.023s-.045.03-.062.051-.029.045-.036.071-.009.053-.005.079.008.054.021.078.029.046.05.064a.2.2 0 0 0 .072.038.22.22 0 0 0 .081.006c.638-.027 1.275.081 1.871.314a4.59 4.59 0 0 1 1.585 1.043.21.21 0 0 0 .091.067c.036.013.076.017.113.009zm1.658-1.209c.038-.003.075-.015.107-.036s.058-.051.075-.086a.22.22 0 0 0 .021-.111c-.002-.038-.015-.075-.037-.106-.534-.554-1.187-.98-1.91-1.243a5.09 5.09 0 0 0-2.262-.281c-.028.002-.054.009-.079.021s-.046.03-.063.051-.03.045-.038.072a.18.18 0 0 0-.006.08c.006.055.034.106.077.14s.098.051.153.046a4.7 4.7 0 0 1 2.056.255 4.67 4.67 0 0 1 1.746 1.115c.019.024.043.045.071.059s.058.023.089.024z" class="H"/><path d="M246.56 221.843l9.312-.166c-.134 6.214-1.126 13.113-1.28 18.95-.032 1.095 0 8.531-.384 10.791-.64 3.392-4.653 2.937-4.87.902s.262-10.707.249-11.603c0-3.744-1.721-10.055-2.637-16.775-.051-.326-.345-1.779-.39-2.099z" class="Q"/><path d="M247.814 253.734c-.083 1.997.09 3.341.679 4.576.296.58.777 1.045 1.367 1.322a2.94 2.94 0 0 0 1.89.208c1.376-.211 3.2-.947 3.751-2.618a10.93 10.93 0 0 0 .473-4.723l-8.16 1.235z" class="E"/><use href="#I" class="B"/><use href="#I" class="D M"/><use href="#J" class="B"/><use href="#J" class="D N"/><path d="M254.022 253.043c-.083.967.903.736 1.082-.64s-.243-4.685 0-7.04c-.051-2.701.051-5.376-.493-5.478a.58.58 0 0 0 0 .102l-.064 1.357c0 .198 0 .378-.032.589-.179 1.971-.288 5.817-.301 7.635.004 1.161-.06 2.321-.192 3.475zm-3.878 0a33.12 33.12 0 0 1-.186-3.449l-.3-7.591a5.32 5.32 0 0 1-.077-1.12v-.909-.057c-.365.128-.493 1.197-.576 2.56l.077 2.925c.243 2.348-.186 5.689 0 7.04s1.158 1.568 1.062.601z" class="B"/><path d="M249.779 253.114h.077c1.396-.489 2.917-.489 4.314 0 .049.01.1.002.144-.022s.078-.064.096-.111a.21.21 0 0 0 .001-.146c-.017-.047-.05-.087-.094-.112-1.493-.53-3.122-.53-4.615 0-.05.021-.09.061-.111.111a.21.21 0 0 0-.004.158c.018.036.045.066.079.088s.073.033.113.034zm-.249-2.151h.07a8.06 8.06 0 0 1 4.826 0c.052.016.109.011.158-.014s.086-.068.104-.12a.2.2 0 0 0 .011-.08c-.001-.027-.008-.054-.02-.078s-.029-.046-.049-.064-.044-.032-.07-.041c-1.665-.531-3.455-.531-5.12 0-.045.017-.083.049-.106.091s-.033.09-.024.137.033.09.069.121.083.048.131.048h.02zm4.966-2.003c.04 0 .078-.011.111-.032a.2.2 0 0 0 .075-.09.21.21 0 0 0 .004-.158c-.019-.051-.057-.093-.107-.117-1.637-.629-3.45-.629-5.088 0-.025.01-.048.025-.068.044s-.035.041-.046.066-.016.052-.016.08a.21.21 0 0 0 .015.079c.021.05.061.09.111.112a.21.21 0 0 0 .158.003s2.56-.992 4.761 0c.029.01.06.015.09.013zm.045-1.92a.2.2 0 0 0 .111-.032c.033-.022.059-.053.074-.09.012-.024.019-.05.021-.077s-.002-.055-.011-.08-.023-.049-.041-.07-.04-.036-.065-.048a6.41 6.41 0 0 0-2.589-.578 6.39 6.39 0 0 0-2.601.521c-.024.011-.046.028-.065.048a.21.21 0 0 0-.041.069c-.008.026-.012.053-.011.08s.009.053.021.078c.024.049.066.088.117.107a.21.21 0 0 0 .158-.005 6.08 6.08 0 0 1 2.422-.475 6.07 6.07 0 0 1 2.41.526c.027.018.058.027.09.026z" class="H"/><path d="M254.586 244.909c.046-.003.09-.02.125-.05a.21.21 0 0 0 .07-.115c.01-.045.005-.092-.014-.134s-.051-.076-.092-.098c-2.464-1.216-5.12-.051-5.229 0-.05.022-.089.063-.109.114s-.018.108.004.158.063.089.114.109.108.019.158-.003c0 0 2.592-1.133 4.883 0 .027.015.058.022.09.019z" class="L"/><use href="#K" class="B"/><use href="#K" class="D O"/><path d="M240.032 182.694l-.96-6.611s-5.581-.742-8.109-3.117a9.19 9.19 0 0 0 2.828 2.809 9.17 9.17 0 0 0 3.751 1.345l.986 5.971-.851 17.869 2.355-18.266z" class="C F"/><use href="#L" class="B"/><g class="F C"><use href="#L"/></g><path d="M224.045 165.024l4.358 5.402 2.912-5.031c-.121 0-3.84-6.099-3.84-6.099l-3.43 5.728z" class="X"/><path d="M232.858 130.368c-3.424-.051-5.261 1.485-7.776 5.427-2.138 3.36-7.098 11.405-8.493 13.831-1.575 2.739-1.799 3.84-.563 5.9 1.171 1.92 8.646 10.548 8.646 10.548a12.8 12.8 0 0 0 3.731-5.504l-4.358-7.29 8.377-12.384.436-10.528z" class="E"/><use href="#M" class="B"/><use href="#M" class="D O"/><use href="#N" class="B"/><g opacity=".75" class="D"><use href="#N"/></g><path d="M236.422 147.302s2.708 2.394 6.029 1.447c.93-.23 1.784-.696 2.48-1.353s1.211-1.483 1.495-2.398c0 0 .108 3.738-4.071 4.736a5.37 5.37 0 0 1-3.368-.234 5.38 5.38 0 0 1-2.565-2.198z" class="C K"/><path d="M232.147 110.618c-1.28.678-3.155 3.148-2.886 9.977.211 5.351 1.766 6.72 2.662 7.123s2.656.212 4.365 0l-.083 3.2s-3.13 5.28-1.37 7.45a14.32 14.32 0 0 0 6.893-3.968c1.92-1.92 1.92-3.514 1.92-3.514l.141-6.988s.973.96 2.707-.429c1.434-1.146 1.952-3.117.89-4.211-.279-.262-.615-.455-.981-.566a2.48 2.48 0 0 0-1.129-.075c-.377.061-.735.209-1.046.431s-.567.513-.748.85c0 0-1.92.083-2.24-3.469 0 0-2.848-.256-4.41-1.056-3.565-1.779-4.275-3.872-4.685-4.755z" class="X"/><path d="M238.976 133.242c-2.899 0-3.2-.813-2.88-2.164-.525.948-2.829 5.332-1.28 7.264a14.37 14.37 0 0 0 6.912-3.942 5.89 5.89 0 0 0 1.92-3.245c-.73 1.223-2.368 2.112-4.672 2.087z" class="E"/><path d="M236.288 127.674c2.451-.589 5.504-1.799 6.118-3.2-.338.902-.896 1.705-1.625 2.336-1.127.883-4.525 1.92-4.525 1.92l.032-1.056z" class="J"/><path d="M237.203 118.131c-.012.206.055.409.189.567a.8.8 0 0 0 .528.278c.199.029.402-.022.564-.142a.76.76 0 0 0 .3-.498.79.79 0 0 0-.717-.838.76.76 0 0 0-.864.633z" class="C"/><path d="M236.973 123.187l-2.733.672c.042.181.12.352.228.502a1.39 1.39 0 0 0 .405.374 1.38 1.38 0 0 0 1.069.161 1.43 1.43 0 0 0 .864-.644c.192-.32.252-.702.167-1.065z" class="J"/><path d="M236.928 123.974c-.18-.149-.406-.231-.64-.23-.268 0-.525.107-.715.296a1.01 1.01 0 0 0-.296.715.66.66 0 0 0 0 .154c.198.044.403.044.601 0 .241-.052.464-.166.648-.329s.323-.373.402-.606z" class="Q"/><path d="M230.502 116.294l1.46-.998c-.065-.096-.148-.178-.245-.241a.9.9 0 0 0-.319-.129.88.88 0 0 0-.343.004.87.87 0 0 0-.316.136c-.096.065-.179.148-.243.245s-.108.206-.13.32a.87.87 0 0 0 .002.345c.023.114.069.222.134.318zm7.104-.556l1.626.742a.8.8 0 0 0 .097-.323c.01-.113-.005-.227-.042-.335a.82.82 0 0 0-.175-.288.81.81 0 0 0-.277-.193c-.217-.097-.463-.11-.69-.037s-.419.228-.539.434zm-6.803 2.022a.79.79 0 0 0 .185.564c.133.156.321.255.526.274a.74.74 0 0 0 .296-.013c.098-.023.189-.066.269-.126a.75.75 0 0 0 .2-.22.76.76 0 0 0 .099-.281.8.8 0 0 0-.698-.838c-.1-.018-.202-.016-.301.007a.74.74 0 0 0-.576.633z" class="C"/><path d="M234.835 117.613l-.39 4.333-2.336-.852 2.726-3.481z" class="Q"/><path d="M258.157 161.024a20.4 20.4 0 0 1-1.472 2.125c-.421.605-1.05 1.033-1.767 1.203a22.29 22.29 0 0 0-4.332 1.018c-1.236.39-2.016.288-2.061.601-.051.41.166.883 1.28 1.12a10.85 10.85 0 0 0 2.47 0 15.96 15.96 0 0 1-3.385 3.015c-2.503 1.651-3.354 2.899-.749 4.48 1.92 1.158 5.216.844 9.792-3.424 2.201-2.156 4.196-4.513 5.958-7.04l-5.734-3.098z" class="X"/><path d="M263.68 164.806c7.366-9.184 7.488-10.739 5.318-13.952-12.889-19.084-12.844-18.924-19.289-20.288-2.803 4.826 0 9.53 2.336 12.16l9.382 11.61c-1.235 2.618-2.56 5.12-3.507 6.803 0 0 2.349 2.906 5.76 3.667z" class="E"/><use href="#O" class="B"/><use href="#O" class="D O"/><use href="#P" class="B"/><use href="#P" class="C F"/><path d="M245.037 156.243a3.38 3.38 0 0 1-1.92.551l.051-.429a2.81 2.81 0 0 0 1.472-.41c-.424-.331-.793-.726-1.094-1.171-.64-.96-1.6-7.546-.999-9.011.499-1.216 1.952-3.84 3.053-3.84h.032c1.107.045 2.349 2.835 2.746 4.102.473 1.511-1.063 7.987-1.767 8.89-.337.416-.737.779-1.184 1.075.416.308.911.492 1.427.531v.435h-.051c-.645-.068-1.258-.319-1.766-.723zm-2.074-10.323c-.55 1.344.384 7.712.96 8.608a5.12 5.12 0 0 0 1.133 1.171c.462-.289.874-.65 1.222-1.069.64-.844 2.132-7.11 1.696-8.499-.531-1.696-1.702-3.769-2.348-3.795-.672.019-1.997 1.971-2.663 3.584z" class="E"/><path d="M242.515 156.55a.64.64 0 0 0 .996.533c.105-.071.187-.171.235-.288a.63.63 0 0 0 .037-.369.64.64 0 0 0-.175-.328c-.09-.09-.204-.151-.328-.175a.64.64 0 0 0-.37.036c-.117.049-.217.131-.287.236a.64.64 0 0 0-.108.355zm3.719.16a.64.64 0 0 0 .107.356.65.65 0 0 0 .288.236.64.64 0 0 0 .697-.139c.09-.09.151-.204.175-.328a.64.64 0 0 0-.036-.37c-.049-.116-.131-.216-.236-.287a.64.64 0 0 0-.995.532z" class="I"/><use href="#Q" class="B"/><g class="F C"><use href="#Q"/></g><use href="#R" class="B"/><use href="#R" class="C F"/><path d="M232.691 152.493a2.56 2.56 0 0 1-.431 1.422c-.282.421-.681.749-1.149.943s-.983.244-1.479.146a2.56 2.56 0 0 1-2.012-2.012c-.098-.496-.048-1.011.146-1.479s.522-.867.943-1.149a2.56 2.56 0 0 1 3.232.319 2.56 2.56 0 0 1 .75 1.81z" class="E"/><path d="M230.15 153.939c.799 0 1.447-.647 1.447-1.446a1.45 1.45 0 0 0-1.447-1.447c-.798 0-1.446.648-1.446 1.447s.648 1.446 1.446 1.446z" class="G"/><path d="M175.405 206.259c-.119.322-.148.671-.086 1.008a1.92 1.92 0 0 0 .438.912c1.716 1.196 3.829 1.678 5.894 1.344 2.925-.377 4.512-1.28 5.683-2.265s2.81-2.362 4.135-2.656c1.056-.2 2.061-.609 2.957-1.204.39-.384.339-2.073.339-2.073l-19.36 4.934z" class="E"/><use href="#S" class="B"/><use href="#S" class="D M"/><use href="#T" class="B"/><use href="#T" class="D N"/><path d="M183.181 203.782c-2.08.832-1.197 1.216-.64 1.28s4.083-1.958 6.221-3.648 3.628-3.686 4.48-4.339c.327-.255.641-.526.94-.813l-.14-1.094c-.018-.107-.073-.204-.154-.276a.47.47 0 0 0-.294-.114c0 .268.044.518-.16.723-.184.136-.376.26-.576.371a2.94 2.94 0 0 0-.525.538c-.275.381-.576.743-.903 1.081-1.817 2.323-6.169 5.459-8.249 6.291z" class="B"/><path d="M182.714 204.8c.049 0 .097-.018.134-.051.038-.039.059-.09.059-.144s-.021-.106-.059-.144c-.491-.508-1.085-.904-1.742-1.163a4.96 4.96 0 0 0-2.066-.341.21.21 0 0 0-.14.077c-.035.043-.051.098-.046.153.003.028.011.054.024.078s.031.045.052.062a.2.2 0 0 0 .073.036.19.19 0 0 0 .082.003 4.57 4.57 0 0 1 1.865.315 4.56 4.56 0 0 1 1.578 1.042c.022.027.051.049.083.062s.068.019.103.015zm1.817-1.139c.047 0 .092-.016.128-.045.021-.017.039-.038.052-.061a.21.21 0 0 0 .024-.076c.003-.027.001-.054-.007-.08a.21.21 0 0 0-.037-.071 4.94 4.94 0 0 0-3.84-1.504.2.2 0 0 0-.135.075c-.034.042-.049.096-.044.149.002.027.01.053.023.077s.029.045.05.062.045.031.071.039a.24.24 0 0 0 .08.008c.637-.028 1.273.078 1.867.311a4.58 4.58 0 0 1 1.583 1.039c.02.029.049.051.082.065a.2.2 0 0 0 .103.012zm1.811-1.056a.2.2 0 0 0 .135-.045c.038-.039.06-.092.06-.147s-.022-.108-.06-.147c-.494-.512-1.093-.911-1.756-1.17s-1.374-.37-2.084-.328c-.055.006-.104.033-.138.076s-.051.097-.045.151.034.104.076.138.097.05.152.045a4.55 4.55 0 0 1 1.864.311c.593.232 1.131.586 1.579 1.039.025.032.059.057.097.071s.081.015.12.006zm1.684-1.21c.046.001.092-.015.128-.045.021-.016.038-.037.051-.061a.2.2 0 0 0 .024-.076c.003-.027.001-.054-.007-.08s-.02-.05-.036-.071a4.97 4.97 0 0 0-1.756-1.171 4.96 4.96 0 0 0-2.084-.333.21.21 0 0 0-.139.076c-.034.043-.05.097-.044.152s.033.104.076.138.097.05.151.044c.637-.027 1.272.079 1.865.311a4.58 4.58 0 0 1 1.579 1.039c.022.029.052.05.086.064s.07.018.106.013zm1.644-1.209c.047.001.093-.015.128-.045a.22.22 0 0 0 .054-.06c.013-.024.022-.05.026-.076s.001-.054-.006-.08a.21.21 0 0 0-.035-.072c-.533-.553-1.184-.978-1.905-1.242s-1.492-.36-2.255-.281a.21.21 0 0 0-.14.077c-.035.043-.051.098-.046.153s.034.102.076.135.095.05.148.044a4.7 4.7 0 0 1 2.053.256 4.68 4.68 0 0 1 1.742 1.114c.02.023.044.042.072.056a.21.21 0 0 0 .088.021z" class="H"/><path d="M207.04 211.418a9.27 9.27 0 0 0 .678 4.563c.296.577.776 1.039 1.363 1.315s1.249.349 1.882.208c1.376-.205 3.2-.941 3.744-2.611.499-1.515.661-3.121.474-4.704l-8.141 1.229z" class="E"/><use href="#U" class="B"/><use href="#U" class="D M"/><use href="#V" class="B"/><use href="#V" class="D N"/><path d="M213.235 210.726c-.089.967.896.736 1.075-.64s-.243-4.665 0-7.04c-.051-2.694.052-5.363-.492-5.465v.102l-.064 1.357v.582c-.186 1.965-.295 5.799-.301 7.616a32.79 32.79 0 0 1-.218 3.488zm-3.872 0c-.122-1.141-.184-2.288-.185-3.436l-.295-7.572c-.069-.369-.097-.744-.083-1.12v-.902-.058c-.365.128-.493 1.197-.57 2.56l.077 2.925c.243 2.343-.185 5.671 0 7.04s1.146 1.53 1.056.563z" class="B"/><path d="M209.005 210.797h.077c1.39-.486 2.904-.486 4.294 0 .052.019.109.016.159-.006s.09-.065.11-.116c.01-.025.015-.052.014-.079s-.007-.054-.018-.078-.028-.047-.048-.065-.044-.032-.07-.04a6.84 6.84 0 0 0-4.595 0c-.025.01-.049.024-.068.043s-.035.042-.046.067-.016.052-.017.079.005.054.016.08c.018.035.045.064.079.085s.073.03.113.03zm-.25-2.157h.064c1.569-.49 3.25-.49 4.819 0 .051.015.106.01.153-.014a.21.21 0 0 0 .103-.114.22.22 0 0 0 .012-.08.21.21 0 0 0-.021-.078c-.012-.025-.028-.046-.049-.064s-.044-.032-.07-.04a8.44 8.44 0 0 0-5.081 0c-.026.008-.05.022-.07.04s-.037.039-.049.064a.21.21 0 0 0-.021.078.22.22 0 0 0 .012.08c.016.039.044.071.079.094s.077.035.119.034zm4.947-2.01c.04.001.079-.01.112-.032a.2.2 0 0 0 .074-.089c.022-.05.024-.107.004-.159s-.057-.093-.106-.116c-1.63-.636-3.438-.648-5.076-.032-.024.01-.047.025-.066.044a.21.21 0 0 0-.044.067c-.01.025-.015.052-.015.079s.006.054.017.078.023.049.041.068.041.035.065.046a.21.21 0 0 0 .078.017c.027 0 .053-.005.078-.015 0 0 2.528-.992 4.749 0 .026.021.057.036.089.044zm.058-1.894c.039.001.077-.009.11-.03s.059-.05.076-.085c.012-.025.019-.051.02-.078a.2.2 0 0 0-.116-.197 6.4 6.4 0 0 0-5.172-.058.21.21 0 0 0-.106.117c-.02.051-.018.108.004.158.012.025.028.047.048.065s.044.032.07.041a.21.21 0 0 0 .079.011.21.21 0 0 0 .078-.021 6.14 6.14 0 0 1 2.416-.466c.828.01 1.646.188 2.403.524l.09.019z" class="H"/><path d="M213.792 202.611c.038.001.075-.009.108-.028s.06-.047.078-.081c.024-.05.028-.107.01-.16a.21.21 0 0 0-.106-.121c-2.452-1.21-5.12-.051-5.216 0-.049.022-.088.063-.107.113a.21.21 0 0 0 .004.156.22.22 0 0 0 .046.068c.019.019.043.035.069.045s.053.015.08.014a.2.2 0 0 0 .08-.019s2.56-1.132 4.864 0a.2.2 0 0 0 .09.013z" class="L"/><use href="#W" class="B"/><g class="C"><use href="#W" class="F"/><path d="M199.283 140.582l-.736-5.068s-4.8.07-7.315-2.298c0 0 .979 3.162 5.856 3.552l.691 4.211-.845 17.824 2.349-18.221z" class="F"/></g><path d="M193.338 88.96c-2.138-.096-5.024.198-6.599 2.067-1.875 2.227-2.387 3.667-4.102 10.24-1.133 4.352-3.002 14.016-1.376 15.578s5.696.985 5.696.985l6.381-28.87z" class="J"/><use href="#X" class="B"/><use href="#X" class="C K"/><path d="M203.654 88.582c2.458.237 8.039.858 9.978 1.242 1.69.691 1.28 1.856 1.28 3.891.166 6.995-2.611 21.6-2.611 21.6l1.958 13.683c-3.373 3.367-21.241 5.248-29.382-.14 0 0 1.382-19.975 2.937-29.933 1.108-7.13 3.674-9.997 6.279-10.106l9.561-.237z" class="B"/><path d="M201.408 102.304l6.886.275v1.325l-6.982-.294.096-1.306z" class="C F"/><path d="M203.629 102.394l.16-1.946h4.505l-.192 2.125-4.473-.179z" class="H"/><g class="E"><path d="M201.715 102.317c.109-2.247.352-3.36.531-3.501.075-.062.169-.096.266-.096s.191.034.266.096c.166.218.294 1.376.281 3.552l-1.344-.051z"/><path d="M202.24 102.118c0 .858-.064 2.496.237 2.522s.275-1.587.281-2.522h-.518z"/></g><path d="M207.494 88.992l-3.84-.41-6.63.166c-.896 1.965-1.856 4.806-.128 8.365 2.651-.864 5.1-2.255 7.2-4.09 2.195-1.997 3.098-3.206 3.398-4.032z" class="C K"/><g class="E"><path d="M206.899 67.744s1.92.211 2.637 1.626c.64 1.222.499 4.23-.218 7.52a30.24 30.24 0 0 1-1.868 6.202c-.304.565-.813.993-1.421 1.197V80.41l.064-2.707s-1.799-2.323-2.042-4.262c-.313-2.49.186-3.526.186-3.526l2.662-2.17z"/><path d="M204.467 72.205c.04 1.433-.346 2.847-1.11 4.06a7.24 7.24 0 0 1-3.179 2.758c-1.31.584-2.763.767-4.177.525s-2.723-.899-3.763-1.886a7.25 7.25 0 0 1-2.08-3.66c-.316-1.399-.209-2.86.306-4.198a7.24 7.24 0 0 1 2.589-3.32c1.172-.826 2.563-1.285 3.997-1.32 1.916-.048 3.774.666 5.164 1.986s2.201 3.138 2.253 5.054z"/></g><path d="M206.157 77.21c.435.256 1.049-.582 1.581-1.146s2.272-1.35 3.161.48-.736 4.358-2.105 4.806c-2.368.762-2.74-.755-2.74-.755l-.096 8.826c-1.632 2.125-5.03 4.922-8.32 5.965a7.55 7.55 0 0 1-.433-3.263 7.54 7.54 0 0 1 .997-3.137v-2.605a14.96 14.96 0 0 1-3.2.192c-1.748-.256-2.861-1.626-3.405-3.507-.877-3.027-1.223-5.478-.551-11.45.73-6.554 8.32-6.688 12.474-4.134.87.538.269 1.581.704 2.419-.308 1.283-.292 2.622.045 3.898a7.98 7.98 0 0 0 1.888 3.411z" class="J"/><path d="M198.208 86.4s3.891-.819 5.248-1.555a4.48 4.48 0 0 0 1.862-1.882 6.1 6.1 0 0 1-1.049 2.208c-.986 1.28-6.055 2.266-6.055 2.266l-.006-1.037z" class="P"/><path d="M199.04 76.301a.79.79 0 0 0 .513.69.78.78 0 0 0 .448.025c.149-.035.284-.114.388-.225s.174-.251.2-.401a.78.78 0 0 0-.775-.913.81.81 0 0 0-.774.826zm.819-2.957l1.677.896a1.01 1.01 0 0 0 .066-.747c-.075-.248-.243-.458-.469-.585a.93.93 0 0 0-.73-.056.93.93 0 0 0-.323.19.94.94 0 0 0-.221.301z" class="C"/><path d="M199.117 81.056l-2.56.998c.058.174.15.334.272.472s.269.249.435.328a1.36 1.36 0 0 0 .528.131c.183.008.366-.021.538-.086.341-.149.613-.422.76-.765a1.46 1.46 0 0 0 .027-1.078z" class="P"/><path d="M192.07 74.061l1.511-1.184a.93.93 0 0 0-.271-.255c-.107-.066-.226-.109-.35-.127s-.251-.01-.372.022a.92.92 0 0 0-.332.167c-.201.162-.332.395-.366.651a1.01 1.01 0 0 0 .18.725zm.487 2.099a.78.78 0 0 0 1.347.498c.105-.111.175-.251.202-.402s.008-.306-.053-.446a.78.78 0 0 0-.722-.469c-.105.002-.208.026-.304.068a.8.8 0 0 0-.254.18.79.79 0 0 0-.165.264c-.037.098-.055.202-.051.307z" class="C"/><path d="M196.531 75.36l-.217 4.698-2.458-.813 2.675-3.885z" class="P"/><path d="M189.99 64.64c.019-.055.053-.103.099-.139s.1-.059.157-.065c.09.003.176.037.244.096a10.83 10.83 0 0 0 1.619 1.024 5.59 5.59 0 0 1-.09-2.163c.071-.442.167-1.459.704-1.581.32-.077.64.186.858.403 2.233 1.984 5.049.96 7.68.973 2.195 0 4.864.832 5.913 2.938.48.966.589 1.99-.288 2.688a6.18 6.18 0 0 1-2.649 1.075c-4.346.877-10.189 2.56-13.53-1.453a3.84 3.84 0 0 1-.934-1.99 3.2 3.2 0 0 1 .211-1.779s0 .006.006-.026z" class="G"/><path d="M190.72 68.48a3.83 3.83 0 0 1-.934-1.99 3.19 3.19 0 0 1 .211-1.779c-.461 1.229-.205 3.2 2.611 4.333s6.336.429 8.25.218a5.96 5.96 0 0 1 3.392.64c-4.365.89-10.208 2.547-13.53-1.421z" class="I"/><path d="M211.347 111.258l-.973-9.14c-1.043-7.308 1.351-11.756 2.356-12.454 2.854.499 4.582.602 6.214 6.854.602 2.317.64 5.12.979 9.492.269 3.449.275 6.995.211 11.033-.038 2.906-1.28 3.463-4.915 3.648-3.008.154-12.467-.966-17.753-1.971-2.138-.403-5.274-1.235-6.932-1.683-1.209-.327-5.824-1.319-5.625-3.136.044-.254.146-.494.3-.701s.353-.374.583-.49c.46-.225.956-.366 1.466-.416 2.235-.32 4.504-.32 6.739 0 1.677.231 3.283.532 4.973.64s5.12-1.99 6.72-1.92l5.657.244z" class="J"/><use href="#Y" class="B"/><use href="#Y" class="C K"/><path d="M215.898 114.957s-.224-2.56-4.551-3.699l-5.657-.25c-1.626-.064-5.12 2.054-6.72 1.92l-4.973-.64c-2.235-.32-4.504-.32-6.739 0-.51.05-1.006.191-1.466.416-.23.115-.43.283-.583.49s-.256.447-.3.7c-.199 1.818 4.416 2.81 5.625 3.136l3.495.909c4.857-1.683 15.449-6.163 17.318-5.817 2.119.403 3.923 1.504 4.551 2.835z" class="P"/><path d="M209.408 111.482c-3.987.723-17.44 6.201-23.642 6.438-1.92-.499-2.176-1.459-2.848-4.026s2.183-5.497 4.02-5.76c18.38 0 24.32 2.509 24.32 2.509l.083.64s-.781.032-1.933.199z" class="J"/><path d="M211.264 110.643l.083.615-.806.076.064-.915.659.224zm-24.646-2.432c-2.119.499-3.508 2.925-3.508 2.925a5.52 5.52 0 0 1 1.78-2.886c.576.031 1.153.018 1.728-.039z" class="P"/><path d="M149.165 42.439a120.49 120.49 0 0 1-5.075 23.955h22.246c1.44-7.52 2.214-15.258 0-23.955h-17.171z" class="G"/><path d="M164.902 51.367c3.348.09 4.301 1.434 6.317 4.314s7.341 14.509 7.341 14.509.941 5.85-3.264 4.992c-1.382-.288-2.33-1.395-2.976-2.387l-4.8-7.533-2.618-13.894z" class="W"/><path d="M162.342 51.456c3.162-.794 4.557.979 5.613 2.912 1.69 3.091 2.701 9.408 2.842 20.96.096 7.424 2.675 16.403 3.136 23.443l1.03 18.829c-6.261-.814-12.572-1.188-18.886-1.12l6.265-65.024z" class="U"/><path d="M144.096 159.149s-1.92-12.999-1.107-20.615c.685-6.534 1.645-9.273 1.779-10.758 0 0 1.101-15.36.8-28.339-.141-6.163.173-12.954 4.557-20.224l.16-.288c.39 2.387 4.057 3.93 7.334 4.294 3.158.346 7.085-.279 11.783-1.875 1.043 6.163 2.233 17.92 3.443 30.72.595 6.259.493 11.52.595 15.546.141 5.459-.352 26.841-.352 26.841v.903c.032.998.275 1.689.973 3.27a19.23 19.23 0 0 0 3.597 5.536c.473.474 3.705 3.117 4.14 3.693 1.402 1.529-1.369 2.509-3.456 2.297-2.201-.217-5.632-.934-6.636-2.24-.679-.864-1.28-3.968-1.952-4.844-2.33-2.964-3.29-4.244-3.341-5.21-.083-1.754.493-2.47.678-3.469-.249-2.067-4.441-12.864-4.717-18.893a63 63 0 0 1 .5-7.968l-3.68-20.947-2.938 23.386c-.774 5.817-3.648 15.661-5.459 23.392-.55 1.998-.945 4.035-1.184 6.093l-.045.678c0 .858-.083 10.016-.358 11.955-.576 4.058-4.173 3.667-4.858.429-.582-2.758-.256-11.366-.275-12.416l.019-.947z" class="Q"/><path d="M144 159.091c-1.011.051-.218 3.943-.397 6.471-.185 2.7-1.005 4.704-1.184 6.924a8.91 8.91 0 0 0 1.031 5.632c.755 1.594 4.371 3.687 5.638 1.332 1.153-2.325 1.581-4.943 1.229-7.514l-.583-6.464c-.102-1.741 1.101-5.882-.211-6.093l-.045.685c-.441.954-4.902 1.754-5.491-.038l.013-.935z" class="G"/><path d="M166.163 159.917c-.269 1.28.167 4.717.167 4.717.595.926 1.504 1.607 2.56 1.92l.716-4.832-3.443-1.805z" class="I"/><path d="M168.883 166.534l4.243-1.548.909-3.84-4.736 2.598-.416 2.79z" class="C"/><path d="M172.973 155.29v-.903c.595.263 2.029 4.909 3.872 8.071 1.677 2.886 4.864 4.416 5.926 5.664 1.421 1.664-1.152 3.955-5.433 3.2-2.125-.384-5.364-1.626-6.272-3.021s-1.28-4-2.036-5.018-2.464-2.176-2.86-3.353a6.53 6.53 0 0 1-.103-3.29c.295-1.094.544-2.413.915-2.304l.058.819c.301.57 1.35 1.216 3.501 1.28 1.011-.013 1.997-.205 2.432-1.145z" class="G"/><use href="#Z" class="B"/><g class="C"><use href="#Z" opacity=".4"/><path d="M159.085 107.309l1.683-12.461a10.66 10.66 0 0 0 6.502-3.149s-.947 3.021-4.94 4.717l-2.253 10.931 1.645 17.543-2.637-17.581z" class="F"/></g><use href="#a" class="B"/><use href="#a" class="D O"/><path d="M162.387 49.511c1.184 0 1.319.198 2.343 1.562.608.819 4.448 7.149 4.448 7.149s-3.06-4.019-5.364-5.235c-.442-.259-.921-.449-1.42-.563l-.007-2.912z" class="L"/><path d="M154.88 52.327s3.302 8.672 4.051 14.56-1.83 22.317-2.931 34.151l-1.792 18.899c-2.289.007-4.574-.188-6.829-.582-3.885-.73-5.35-1.754-6.016-2.56l2.861-26.772c.89-7.04 4.685-14.01 4.685-14.01l-4.563-18.861s.23-3.2 3.2-4.07c2.854-.851 7.334-.755 7.334-.755z" class="H"/><g class="T"><path d="M157.696 85.837l-11.84-2.637-1.114 3.93c4.051 1.391 8.211 2.445 12.436 3.149l.518-4.442z"/><path d="M149.043 69.959l.903-5.696c.64-4.48.396-6.701-.282-8.122l-3.802 7.27 3.04 12.602a47.97 47.97 0 0 0-4.364 12.051c2.982-8.442 6.252-10.976 6.252-10.976l-1.747-7.13z"/></g><path d="M153.638 62.983l-.102-2.15c-.307-4.858-.448-9.248 1.19-9.6l.148.64c-1.204.256-.8 6.534-.64 8.896l.102 2.214h-.698z" class="B"/><g class="G"><path d="M148.147 31.078l2.56 2.093a1.56 1.56 0 0 0 .308-.547 1.55 1.55 0 0 0 .066-.623c-.02-.21-.083-.414-.185-.599s-.24-.348-.406-.477a1.71 1.71 0 0 0-2.343.154z"/><path d="M154.835 49.824c0-1.606-3.744-4.006-5.67-7.386s-.973-8.922 1.677-9.798l.102-.762c.151-.634.4-1.24.736-1.798.61-.952 1.415-1.764 2.361-2.383s2.013-1.03 3.13-1.207c8.378-1.222 12.224 2.029 13.767 5.613a8.63 8.63 0 0 1 .64 3.84c-.043.955-.397 1.87-1.008 2.605a4.38 4.38 0 0 1-2.378 1.465l-13.357 9.811z"/></g><path d="M166.445 30.899c1.645.717 3.2 3.2 3.2 10.24 0 5.952-1.85 7.462-2.771 7.904s-2.72.218-4.48-.051v3.424s1.28 1.28.851 2.099-2.163 1.491-4.8.64c-2.995-.941-3.68-2.938-3.68-2.938l-.058-7.488s-1.005 1.062-2.777-.493c-1.46-1.28-1.991-3.475-.89-4.678s2.509-1.28 3.782.045l.916-.486c1.625-.186 4.032-.461 5.76-1.35 4.518-2.259 4.979-4.755 4.947-6.867z" class="Q"/><path d="M154.835 38.663v3.309a1.55 1.55 0 0 0 1.139-.458 1.54 1.54 0 0 0 .342-.525 1.55 1.55 0 0 0 .106-.617c.002-.433-.162-.85-.456-1.167a1.71 1.71 0 0 0-1.131-.541z" class="G"/><path d="M166.598 39.123a.79.79 0 0 0 .029.324.78.78 0 0 0 .157.285c.072.083.159.151.257.199a.79.79 0 0 0 .909-.157.79.79 0 0 0 .177-.273.8.8 0 0 0 .052-.321.81.81 0 0 0-.044-.312.8.8 0 0 0-.16-.272c-.071-.079-.156-.143-.252-.189a.79.79 0 0 0-.305-.078c-.214-.002-.419.081-.573.229a.81.81 0 0 0-.247.565zm-6.297.352c0 .167.049.331.142.47a.85.85 0 0 0 1.302.14c.12-.117.203-.266.239-.429a.86.86 0 0 0-.038-.489.85.85 0 0 0-.768-.543.87.87 0 0 0-.877.851zm8.39-1.817l-2.035-.813c.045-.138.119-.266.216-.374a1.05 1.05 0 0 1 .347-.256 1.06 1.06 0 0 1 .422-.094 1.05 1.05 0 0 1 .423.084 1.13 1.13 0 0 1 .627 1.453z" class="C"/><path d="M164.672 38.483l-.102 4.877 2.624-.589-2.522-4.288z" class="J"/><path d="M161.587 44.352l2.56.794c-.034.176-.105.343-.208.49a1.28 1.28 0 0 1-.893.536 1.28 1.28 0 0 1-.531-.047c-.35-.123-.641-.374-.813-.703a1.46 1.46 0 0 1-.115-1.069z" class="P"/><path d="M163.002 46.17a1.36 1.36 0 0 0-.4-.947 1.35 1.35 0 0 0-.951-.391h-.102a1.42 1.42 0 0 0 .284.787c.171.228.406.4.676.493.158.054.326.073.493.058zm-.615 2.828c-1.843-.218-5.651-1.28-6.265-2.822a4.02 4.02 0 0 0 1.363 1.965c1.145.986 4.902 2.01 4.902 2.01v-1.152z" class="J"/><path d="M154.746 49.53c-.487-.096-.916.115-1.28.781l-1.28 2.08s-.448 4.672 0 5.83c.384 1.011 4.659 4.787 4.659 4.787s-1.114 4.198-1.152 5.574 2.56 6.605 2.873 9.28c0 0 .922-8.41.525-11.43-.771-4.906-2.225-9.68-4.32-14.182l-.025-2.72z" class="L"/><path d="M152.653 79.226h-.058v-.48c.568-.046 1.113-.248 1.575-.582a5.61 5.61 0 0 1-1.28-1.184c-.775-.998-2.464-8.134-1.92-9.798.435-1.395 1.804-4.48 3.027-4.518h.032c1.216 0 2.816 2.906 3.366 4.243.64 1.613-.422 8.87-1.107 9.926-.333.484-.736.915-1.197 1.28a2.95 2.95 0 0 0 1.613.448l.058.48a3.75 3.75 0 0 1-2.093-.64 3.84 3.84 0 0 1-2.016.826zm1.344-16.083c-.717 0-2.003 2.31-2.56 4.179-.48 1.53 1.145 8.435 1.862 9.363a5.5 5.5 0 0 0 1.351 1.178 5.55 5.55 0 0 0 1.241-1.28c.64-.986 1.671-8.006 1.063-9.485-.794-1.818-2.234-3.955-2.957-3.955z" class="E"/><path d="M157.44 78.784a.7.7 0 0 1-.043.272c-.031.087-.08.167-.143.235a.71.71 0 0 1-.489.227.7.7 0 0 1-.506-.186.69.69 0 0 1-.162-.222.71.71 0 0 1-.065-.267.7.7 0 0 1 1.181-.547.71.71 0 0 1 .227.489zm-4.128.173c.008.187-.058.369-.184.507s-.301.22-.488.229a.7.7 0 0 1-.507-.184c-.138-.126-.221-.302-.229-.489s.058-.369.184-.507.301-.22.488-.229a.7.7 0 0 1 .507.184c.138.126.221.302.229.488z" class="I"/><path d="M157.478 70.055h-.403c-.02-.002-.04-.007-.058-.017s-.034-.022-.047-.037-.023-.033-.029-.053-.008-.04-.007-.06c.107-.907.064-1.826-.128-2.72-.71-1.734-2.176-3.904-2.816-3.872s-1.92 2.31-2.483 4.096c-.112.907-.075 1.825.109 2.72.006.041-.004.083-.028.118s-.059.059-.1.068l-.403.058c-.042.005-.084-.005-.117-.031s-.056-.062-.062-.104c-.217-1.002-.246-2.035-.084-3.046.301-.954 1.716-4.538 3.136-4.602s3.136 3.392 3.514 4.32a8.19 8.19 0 0 1 .179 3.04c-.01.037-.033.07-.064.092s-.07.033-.109.03zm22.484-5.146l-18.202 6.419-2.675 24.416.403.429 17.299-6.458 3.578-24.371-.403-.435z" class="B"/><g class="C"><path d="M162.17 71.763l-2.682 24.41-.403-.429 2.675-24.416.41.435z" class="F"/><path opacity=".25" d="M180.365 65.344l-18.195 6.419-2.682 24.41 17.299-6.458 3.578-24.371z"/><g class="K"><path d="M174.886 69.76l.148-.73c.083-.403-.986-.192-2.388.474l-3.283.992c-1.401.64-2.72 1.152-2.803 1.555l-.154.723 8.48-3.014z"/></g></g><g class="G"><path d="M175.962 66.496c.057-.256-.359-.205-.941-.051l-1.05.358s.429-1.05-2.048-.378c-2.733.736-2.79 2.099-2.79 2.099-.418.184-.845.344-1.28.48-.903.294-1.005.467-1.082.723l-.128.461 9.274-3.264s-.007-.179.045-.429z"/><path d="M174.989 67.885c-.858.39-1.216.582-1.344 1.197l-.179.998L168.64 72l.326-1.382c.064-.346-.576-.352-1.414.038l.198-.87 7.514-2.79-.275.89z"/><path d="M175.136 69.76l.147-.723c.083-.403-.985-.192-2.387.474l-3.296 1.018c-1.402.64-2.72 1.152-2.803 1.555l-.154.723 8.493-3.046z"/></g><path d="M177.05 71.091l-13.3 5.043-2.131 20.717 13.479-5.203 1.952-20.557z" class="E"/><path d="M163.878 76.666l13.114-4.992c.569.736 1.358 1.272 2.253 1.53l-13.018 4.979c-.848-.397-1.638-.907-2.349-1.517z" fill="#f5f5f5"/><path d="M167.226 78.24a2.21 2.21 0 0 1-1.021.147c-.347-.032-.682-.146-.976-.333l-1.651-1.178c-.105-.062-.189-.152-.244-.26s-.078-.23-.067-.35.057-.236.131-.332.174-.169.288-.21l12.954-4.928.41.294-12.8 4.877c-.076.017-.144.057-.195.115a.37.37 0 0 0-.089.207.37.37 0 0 0 .05.22c.039.066.099.118.17.149l1.536 1.082c.177.113.378.182.587.202s.42-.01.616-.087l12.8-4.87.461.333-12.96 4.922z" class="I"/><path d="M180.179 73.318l-1.92 20.557-12.953 4.922a2.21 2.21 0 0 1-1.021.147c-.347-.032-.682-.146-.976-.333l-1.658-1.178a.71.71 0 0 1-.268-.27c-.063-.113-.094-.241-.09-.37l1.907-20.531a.7.7 0 0 0 .358.64l1.652 1.178c.294.186.629.3.976.333s.697-.018 1.02-.147l12.973-4.947z" class="E"/><path d="M166.208 78.387c-.35-.025-.687-.139-.979-.333l-1.651-1.178c-.114-.062-.208-.155-.271-.269a.69.69 0 0 1-.088-.371l-1.939 20.582c-.004.129.027.257.09.37a.71.71 0 0 0 .268.27l1.658 1.178c.291.191.626.305.973.333l1.939-20.582z" class="G"/><path d="M179.904 76.263c1.088.736 1.171 2.041 1.171 3.43s0 3.558-.896 4.736-2.63 2.861-3.75 2.304-1.043-4.538.275-5.978a22.67 22.67 0 0 1 3.021-2.643l.179-1.85zm-13.542 6.195c-1.291.211-2.605.241-3.904.09.6-.253 1.16-.591 1.664-1.005.279-.202.471-.503.538-.842a1.36 1.36 0 0 0-.18-.982c-.186-.237-.73.269-1.92.538-1.498.352-2.451.096-3.923.864a4.01 4.01 0 0 1-1.952.314c-1.12 0-2.631-.422-5.536-1.318-2.414-.82-4.778-1.782-7.079-2.88l4.41-12.832s2.56-8.55-.922-11.322c-4.07 0-5.26 1.92-6.508 5.574-1.14 3.296-4.973 18.701-5.184 21.037s.844 3.264 3.168 4.275 7.68 2.304 12.582 3.635a41.69 41.69 0 0 0 7.45 1.446c5.804.448 8.454 0 9.702-2.195 2.003-3.456.685-4.87-2.406-4.397z" class="Q"/><path d="M148.147 52.922c-2.425-.109-4.557-.23-6.144 2.63s-3.961 11.699-5.241 18.042-2.189 8.864.736 10.157 12.716 3.731 12.716 3.731-.358-3.987 2.343-6.938l-8.013-3.418 4.288-12.557s2.714-8.058-.685-11.648z" class="H"/><path d="M142.413 199.245c.122.321.154.671.092 1.009s-.216.654-.444.911c-1.718 1.191-3.831 1.67-5.895 1.337-2.924-.377-4.48-1.28-5.676-2.265s-2.816-2.362-4.135-2.65c-1.056-.202-2.061-.614-2.957-1.209-.396-.384-.339-2.074-.339-2.074l19.354 4.941z" class="E"/><use href="#b" class="B"/><use href="#b" class="D M"/><use href="#c" class="B"/><use href="#c" class="D N"/><path d="M134.643 196.768c2.08.832 1.191 1.222.64 1.28s-4.083-1.965-6.214-3.654c-2.227-1.76-3.635-3.687-4.48-4.333l-.935-.819.141-1.095a.47.47 0 0 1 .15-.275c.081-.071.184-.112.292-.115 0 .269-.039.518.166.723.183.135.373.259.57.371.197.158.375.339.531.538.271.384.573.746.902 1.081 1.805 2.33 6.157 5.466 8.237 6.298z" class="B"/><path d="M135.104 197.76c-.039-.001-.076-.013-.109-.035s-.058-.051-.074-.086-.023-.074-.019-.112.019-.075.042-.106c.495-.511 1.094-.91 1.757-1.17a4.97 4.97 0 0 1 2.083-.334c.054.008.102.036.136.079a.21.21 0 0 1 .043.151c-.002.027-.01.053-.023.077a.21.21 0 0 1-.05.061c-.021.016-.046.029-.071.036s-.053.009-.08.005c-.638-.026-1.274.081-1.868.315a4.6 4.6 0 0 0-1.581 1.042c-.022.028-.051.05-.083.063s-.068.018-.103.014zm-1.811-1.114c-.049.003-.097-.013-.135-.044-.038-.039-.059-.09-.059-.144s.021-.106.059-.144c.491-.508 1.085-.905 1.742-1.164a4.93 4.93 0 0 1 2.066-.34.21.21 0 0 1 .077.024c.024.013.045.03.062.051s.029.046.037.072.01.053.007.08a.2.2 0 0 1-.024.076c-.013.024-.031.045-.052.062s-.045.03-.071.037-.054.01-.08.007c-.637-.027-1.272.079-1.865.311a4.58 4.58 0 0 0-1.579 1.04c-.022.027-.05.048-.083.062s-.067.018-.102.014zm-1.818-1.056a.2.2 0 0 1-.128-.044c-.038-.039-.059-.09-.059-.144s.021-.106.059-.144a4.92 4.92 0 0 1 1.755-1.174c.663-.26 1.374-.372 2.085-.33.053.006.102.033.136.075a.2.2 0 0 1 .043.149c-.002.027-.01.053-.022.077a.19.19 0 0 1-.051.062c-.021.017-.045.03-.071.038s-.053.011-.08.008a4.6 4.6 0 0 0-1.867.311c-.594.233-1.133.587-1.582 1.04a.21.21 0 0 1-.097.072c-.039.013-.081.015-.121.004zm-1.683-1.209c-.047 0-.092-.015-.128-.045-.038-.038-.059-.09-.059-.144s.021-.106.059-.144a4.96 4.96 0 0 1 1.757-1.169c.662-.26 1.373-.374 2.083-.335.054.006.104.033.138.076s.05.097.044.151-.033.104-.075.138-.097.051-.152.045c-.638-.027-1.274.079-1.868.313a4.58 4.58 0 0 0-1.581 1.043c-.026.032-.06.055-.099.068a.21.21 0 0 1-.119.003zm-1.645-1.203c-.046-.003-.09-.018-.128-.045-.043-.035-.07-.086-.076-.141s.01-.11.044-.154c.532-.553 1.183-.977 1.904-1.24a5.02 5.02 0 0 1 2.256-.276c.048.012.09.041.118.082s.041.09.035.139-.028.094-.065.128-.083.052-.133.054c-.694-.068-1.395.019-2.052.256s-1.252.618-1.743 1.113c-.019.025-.043.046-.07.06s-.059.022-.09.024z" class="H"/><path d="M110.778 204.403c.083 1.991-.09 3.335-.679 4.563a2.92 2.92 0 0 1-1.362 1.317c-.587.276-1.249.349-1.883.207-1.376-.205-3.2-.941-3.737-2.612-.501-1.514-.663-3.12-.474-4.704l8.135 1.229z" class="E"/><use href="#d" class="B"/><use href="#d" class="D M"/><use href="#e" class="B"/><use href="#e" class="D N"/><path d="M104.589 203.712c.083.966-.903.736-1.082-.64s.243-4.666 0-7.008c.051-2.694-.051-5.363.499-5.466a.59.59 0 0 0 0 .103l.064 1.357a4.71 4.71 0 0 0 0 .582c.186 1.971.288 5.798.301 7.616a31.19 31.19 0 0 0 .218 3.456zm3.865 0a30.83 30.83 0 0 0 .186-3.437l.301-7.571a5.39 5.39 0 0 0 .077-1.12v-.902-.058c.364.128.492 1.197.576 2.56l-.077 2.918c-.243 2.343.179 5.671 0 7.04s-1.146 1.536-1.063.57z" class="B"/><path d="M108.8 203.782h-.077a6.59 6.59 0 0 0-4.301 0c-.025.011-.052.015-.079.015a.19.19 0 0 1-.078-.019.18.18 0 0 1-.065-.048c-.018-.02-.031-.043-.04-.069s-.015-.051-.015-.078.006-.053.017-.078a.2.2 0 0 1 .045-.065c.019-.018.043-.032.068-.042 1.489-.528 3.113-.528 4.602 0 .049.023.088.063.109.113a.21.21 0 0 1 .006.156.2.2 0 0 1-.079.086c-.034.021-.073.031-.113.029zm.269-2.137h-.071c-1.567-.486-3.245-.486-4.812 0-.052.016-.108.012-.157-.012s-.087-.065-.106-.116a.2.2 0 0 1-.011-.08c.001-.027.008-.054.02-.078s.029-.046.049-.064.044-.032.07-.041a8.46 8.46 0 0 1 5.088 0c.051.019.092.057.115.106s.025.106.007.157c-.015.038-.041.072-.076.095a.2.2 0 0 1-.116.033zm-4.947-2.029c-.041 0-.08-.011-.114-.033a.21.21 0 0 1-.083-.247c.019-.051.058-.093.107-.117a7.04 7.04 0 0 1 5.075 0c.025.009.048.024.068.042s.035.04.046.065a.21.21 0 0 1 .017.078c.001.027-.005.053-.016.078a.23.23 0 0 1-.043.068c-.019.02-.042.035-.067.046s-.052.016-.079.016-.054-.005-.079-.015c0 0-2.522-.992-4.749 0-.026.012-.055.019-.083.019zm-.052-1.856c-.039-.001-.077-.013-.11-.034a.2.2 0 0 1-.075-.088c-.023-.049-.025-.105-.007-.156s.055-.094.103-.119c.812-.369 1.692-.564 2.583-.572a6.39 6.39 0 0 1 2.594.521c.025.011.046.027.065.046a.18.18 0 0 1 .04.068c.009.025.013.052.012.078s-.009.053-.021.077a.21.21 0 0 1-.116.107c-.052.019-.109.017-.159-.005a6.08 6.08 0 0 0-2.415-.473c-.828.009-1.647.187-2.404.524a.15.15 0 0 1-.09.026z" class="H"/><path d="M104.026 195.603c-.038-.001-.075-.012-.106-.032s-.057-.049-.074-.083c-.013-.024-.021-.05-.023-.077s0-.054.009-.08.022-.05.04-.07a.19.19 0 0 1 .064-.048c2.458-1.216 5.12-.058 5.216 0 .05.022.089.063.109.114s.019.108-.003.158-.064.089-.115.109-.107.018-.157-.004c0 0-2.56-1.132-4.864 0-.031.013-.064.018-.096.013z" class="L"/><use href="#f" class="B"/><g class="C"><use href="#f" class="F"/><path d="M118.534 133.568l.96-6.592s5.562-.742 8.084-3.11a9.13 9.13 0 0 1-2.817 2.796c-1.133.715-2.408 1.171-3.737 1.338l-.986 5.958.852 17.824-2.356-18.214z" class="F"/></g><use href="#g" class="B"/><use href="#g" class="C K"/><path d="M130.074 98.56c-.244 2.707-.301 8-.301 8l1.766 13.677c-10.336 5.517-25.933 1.049-27.897-1.223.966-6.777 3.11-10.995 4.48-14.809l-2.56-11.52s4.48-3.706 4.051-11.226l6.112-.64 5.824.16 4.141.294a34.96 34.96 0 0 1 5.414 6.752c2.016 3.226 2.086 7.258-1.03 10.534z" class="B"/><g class="C"><path d="M125.574 85.626c-.544-1.614-1.315-3.142-2.291-4.538l-1.734-.128-5.824-.16-2.279.237c-.16.8 1.92 3.264 3.757 4.742s5.818 3.565 7.975 4c.675-1.278.817-2.771.396-4.154z" class="K"/><path d="M119.93 94.598l-6.887.275v1.325l6.983-.294-.096-1.306z" class="F"/></g><path d="M117.709 94.682l-.154-1.939h-4.512l.192 2.125 4.474-.186z" class="H"/><g class="E"><path d="M119.622 94.605c-.108-2.246-.352-3.354-.531-3.494-.073-.061-.166-.095-.262-.095a.41.41 0 0 0-.263.095c-.172.218-.3 1.376-.288 3.552l1.344-.058z"/><path d="M119.098 94.413c0 .858.064 2.496-.237 2.522s-.269-1.587-.282-2.522h.519z"/></g><g class="C"><path d="M114.451 77.139c0-1.037-1.453-3.2-2.777-5.606s-2.759-6.304 0-9.946 8.998-5.811 12.672-4.09 4.71 5.926 4.71 5.926l-14.605 13.715z"/><path d="M113.632 73.338c1.498 1.606 2.394 3.2.787 4.71a3.98 3.98 0 0 1-5.513-.291c-.703-.752-1.087-1.747-1.073-2.776a3.98 3.98 0 0 1 1.153-2.744c1.6-1.498 3.142-.499 4.646 1.101z"/></g><path d="M110.502 68.531c-.136-.213-.345-.368-.588-.435a2.16 2.16 0 0 0-.858-.134c-.352 0-1.011.243-.992.691s.902.595 1.28.576c.329-.005.657-.054.973-.147a6.45 6.45 0 0 1-.263 1.862 1.97 1.97 0 0 1-.518.717c-.152.118-.329.2-.518.24a1.28 1.28 0 0 1-.57-.009c-.211-.045-.122.262 0 .307.353.097.728.069 1.063-.081a1.57 1.57 0 0 0 .767-.739c.455-.8.288-1.722.48-2.56.045-.198-.121-.307-.256-.288zm-1.721.282c-.071 0-.243-.045-.282-.109s0-.096.058-.141c.162-.128.354-.213.558-.245s.413-.012.607.06a1.72 1.72 0 0 1 .32.102l.166.083.064.032h.038a2.09 2.09 0 0 1-.902.205 2.06 2.06 0 0 1-.608.013h-.019z" class="B"/><path d="M126.56 60.211c1.382.704 3.309 2.208 3.008 9.235-.23 5.485-2.234 8.013-3.2 8.499s-2.093.589-3.923.397v3.123s3.552 4.333 2.265 7.181c0 0-3.744-1.35-5.76-2.81-3.955-2.848-4.441-4.403-4.441-4.403l-.096-7.507s-1.223.896-3.13-.576c-1.574-1.216-2.214-3.386-1.12-4.64a2.48 2.48 0 0 1 2.317-.774 3.08 3.08 0 0 1 1.251.6c.367.293.661.665.861 1.089a.59.59 0 0 0 .403.365.45.45 0 0 0 .203-.043c.064-.03.119-.075.162-.13a1.06 1.06 0 0 0 .186-.371c.39-1.165.211-2.387.486-3.571.212-.928.618-1.8 1.19-2.56a8.5 8.5 0 0 1 5.466-3.2 11.4 11.4 0 0 1 3.872.096z" class="R"/><path d="M130.816 65.952l-.378-.038c-1.253-.153-2.522-.112-3.763.122-1.209.326-1.651.691-2.31.698s-1.146-.365-2.419-.685c-1.326-.225-2.678-.257-4.013-.096l-.403.045-3.975 1.338c-.184.249-.355.507-.512.774a2.33 2.33 0 0 1 .371.198l3.84-1.222.16.198a.83.83 0 0 1 .122.282 10.25 10.25 0 0 0 .416 1.92c.118.256.283.489.486.685a2.67 2.67 0 0 0 .256.205l.148.09a2.18 2.18 0 0 0 .448.192h.076.116.128l.396.051h.167.211c1.651 0 2.368-.704 2.803-1.434s.371-1.754 1.133-1.754h.141c.557.115.454 1.056.781 1.734.126.273.299.523.512.736.039.042.082.08.128.115l.064.058.07.051.064.038.07.045h.052.038c.202.105.417.183.64.23h.058a3.8 3.8 0 0 0 .8.07c.485.042.971-.063 1.396-.302a2.42 2.42 0 0 0 .984-1.036 10.85 10.85 0 0 0 .544-1.92.65.65 0 0 1 .154-.25c.17-.142.302-.325.384-.531.018-.13-.01-.263-.081-.374s-.177-.194-.303-.234zm-8.019 2.733a2.21 2.21 0 0 1-.64 1.018 2.56 2.56 0 0 1-1.818.582 2.02 2.02 0 0 1-1.702-.736l-.058-.07-.045-.07-.038-.07c-.013-.018-.024-.037-.032-.058v-.051c-.003-.015-.003-.03 0-.045l-.064-.064-.077-.211-.038-.128c0-.077-.039-.141-.051-.205v-.096c-.109-.506-.224-1.504.064-1.728a3.62 3.62 0 0 1 2.278-.358h.128c.189.018.377.046.563.083l.211.045c.184.044.366.097.544.16l.167.064a.9.9 0 0 1 .179.077h.032l.064.032c.137.064.259.155.358.269a2.02 2.02 0 0 1 .144.783c-.004.268-.062.533-.169.778zm7.174-.237a2.28 2.28 0 0 1-1.222 1.632c-.293.12-.606.18-.922.179-.341.039-.686-.01-1.003-.142a2.02 2.02 0 0 1-.808-.613l-.032-.045-.038-.058a.46.46 0 0 1-.045-.083s0-.058-.051-.09v-.045-.038a2.92 2.92 0 0 1-.109-.378c-.151-.507-.117-1.052.096-1.536.591-.448 1.301-.711 2.041-.755l.564-.038h.499.153c.103 0 .192 0 .282.038h.064.045.064.083l.134.051a1.27 1.27 0 0 1 .301.173c.231.243.039 1.242-.096 1.779v-.032z" class="G"/><path d="M121.491 67.872c.018.21-.046.418-.178.582s-.323.269-.532.295a.76.76 0 0 1-.304-.019.77.77 0 0 1-.273-.136.78.78 0 0 1-.197-.232c-.049-.09-.08-.189-.09-.291a.82.82 0 0 1 .71-.877c.102-.013.205-.006.303.021a.77.77 0 0 1 .272.137c.08.063.148.142.197.231a.76.76 0 0 1 .092.29z" class="C"/><path d="M121.382 73.12l2.759.698a1.4 1.4 0 0 1-.219.514c-.107.155-.244.286-.403.387s-.337.168-.523.198-.375.022-.558-.023c-.371-.101-.689-.342-.886-.673s-.258-.725-.17-1.1z" fill="#f0997a"/><path d="M128.422 65.421l-1.734-.429a.87.87 0 0 1 .138-.312.84.84 0 0 1 .25-.232.85.85 0 0 1 .662-.096.93.93 0 0 1 .684 1.069zm-7.955-.512l-1.619.762a.86.86 0 0 1-.096-.331.87.87 0 0 1 .042-.343.85.85 0 0 1 .174-.298.84.84 0 0 1 .277-.206.93.93 0 0 1 .694-.037.94.94 0 0 1 .528.453zm7.482 2.931c.018.209-.045.416-.176.58a.81.81 0 0 1-.528.297.77.77 0 0 1-.577-.159.76.76 0 0 1-.197-.233.77.77 0 0 1-.09-.292.81.81 0 0 1 .71-.87c.101-.014.205-.008.303.019a.75.75 0 0 1 .467.369.78.78 0 0 1 .088.291z" class="C"/><path d="M124.07 67.667l.295 4.352 2.323-.877-2.618-3.475zm-1.606 10.675c-1.92-.288-6.035-1.318-6.739-2.835a4.48 4.48 0 0 0 1.574 2.17c1.235.934 5.165 1.773 5.165 1.773v-1.107z" fill="#f0997a"/><path d="M129.101 63.59s-1.005-1.619-5.594-1.184c-2.522.268-4.956 1.085-7.129 2.394a10.24 10.24 0 0 0-3.335 3.309c-.181-.078-.37-.136-.563-.173-.421-.081-.856-.053-1.263.083s-.772.374-1.06.692a7.82 7.82 0 0 1-1.133-5.35c.493-3.2 3.661-5.402 7.181-6.899 4.16-1.766 8.717-1.312 10.547.41s2.304 6.554 2.349 6.72z" class="B"/><path d="M139.341 93.472l-18.483 6.522-2.727 24.8.41.441 17.574-6.56 3.635-24.761-.409-.442z" class="G"/><path d="M121.267 100.435l-2.726 24.8-.41-.441 2.727-24.8.409.441z" class="I"/><path d="M139.75 93.914l-18.483 6.521-2.726 24.8 17.574-6.56 3.635-24.761z" class="E"/><g class="K C"><path d="M134.182 98.419l.154-.736c.083-.41-.998-.198-2.426.474l-3.334 1.043c-1.421.672-2.765 1.171-2.848 1.581l-.154.736 8.608-3.098z"/></g><path d="M135.283 95.085c.051-.256-.371-.205-.96-.045l-1.062.358s.429-1.069-2.087-.384c-2.771.749-2.835 2.131-2.835 2.131a10.66 10.66 0 0 1-1.331.486c-.922.301-1.018.48-1.094.736l-.135.467 9.421-3.315.083-.435z" class="U"/><g class="L"><path d="M134.291 96.499c-.87.397-1.235.589-1.363 1.216a9.48 9.48 0 0 0-.179 1.018l-4.909 1.92.333-1.408c.07-.352-.589-.352-1.434.038l.199-.883 7.628-2.835-.275.934z"/><path d="M134.438 98.432l.148-.736c.089-.41-.999-.198-2.42.474l-3.334 1.03c-1.427.672-2.771 1.171-2.854 1.581l-.154.736 8.614-3.085z"/></g><path d="M125.53 111.296c-1.314.219-2.652.251-3.975.096a7.14 7.14 0 0 0 1.696-1.018 1.39 1.39 0 0 0 .545-.856c.068-.344.003-.701-.18-1-.192-.236-.742.269-1.92.551-1.523.352-2.49.096-3.987.877a4.03 4.03 0 0 1-1.984.313c-1.133.032-2.669-.429-5.626-1.331a50.05 50.05 0 0 1-6.054-2.413l4.48-10.771c-.711 1.44 4.589-11.302 1.126-14.31-4.134 0-6.4 1.011-8.224 5.811-1.28 3.302-6.624 18.88-6.835 21.248s.858 3.315 3.2 4.345 7.802 2.336 12.8 3.687c2.471.721 5.003 1.214 7.565 1.472 5.901.461 8.589-.032 9.862-2.234 1.984-3.507.621-4.947-2.489-4.467z" class="R"/><use href="#h" class="B"/><use href="#h" class="C K"/><path d="M52.237 66.598c3.424.096 4.39 1.466 6.458 4.41s9.075 14.08 9.075 14.08l9.933 3.84-1.28 5.798-12.71-2.56c-.561-.077-1.097-.283-1.566-.602s-.857-.741-1.135-1.235l-6.074-9.53-2.701-14.202z" class="W"/><path d="M49.619 66.688c3.2-.806 4.659.998 5.76 2.976 1.722 3.162 2.758 9.6 2.906 21.421.09 7.59 2.733 16.762 3.2 23.962l1.05 19.238a137.53 137.53 0 0 0-19.315-1.165l6.4-66.432z" class="U"/><path d="M30.976 176.749s-1.92-13.28-1.133-21.069c.698-6.682 1.677-9.478 1.818-10.995 0 0 1.126-15.68.819-28.96-.147-6.285.16-13.242 4.64-20.666l.16-.294c.397 2.432 4.147 4.013 7.494 4.384 3.2.358 7.245-.288 12.038-1.92 1.069 6.297 2.285 18.297 3.526 31.36.64 6.4.499 11.776.64 15.891.141 5.574-.365 27.43-.365 27.43v.922c0 1.018.282 1.728.992 3.341.896 2.081 2.141 3.994 3.68 5.657.48.487 3.782 3.2 4.23 3.776 1.434 1.562-1.395 2.56-3.526 2.349-2.253-.224-5.76-.96-6.79-2.291-.685-.883-1.28-4.051-1.99-4.954-2.381-3.027-3.366-4.332-3.411-5.324-.09-1.792.499-2.522.691-3.54-.256-2.112-4.544-13.152-4.826-19.308 0-2.724.173-5.446.518-8.148l-3.776-21.382-2.995 23.904c-.794 5.946-3.731 16-5.581 23.904-.566 2.041-.97 4.123-1.21 6.227l-.045.691c0 .877-.09 10.24-.371 12.224-.589 4.141-4.262 3.744-4.96.429-.595-2.816-.262-11.609-.282-12.685l.013-.953z" class="J"/><path d="M30.854 176.691c-1.03.051-.218 4.026-.403 6.605-.192 2.771-1.03 4.813-1.216 7.078a9.2 9.2 0 0 0 1.056 5.76c.774 1.626 4.48 3.77 5.76 1.364 1.182-2.376 1.627-5.05 1.28-7.68l-.602-6.612c-.102-1.779 1.126-6.009-.218-6.22l-.032.697c-.448.973-5.011 1.792-5.613-.038l-.013-.954z" class="G"/><path d="M53.523 177.536c-.275 1.28.173 4.819.173 4.819s.595 1.197 2.611 1.92l.73-4.947-3.514-1.792z" class="I"/><path d="M56.307 184.301l4.333-1.587.928-3.924-4.838 2.656-.422 2.855z" class="C"/><path d="M60.486 172.8v-.922c.602.276 2.074 5.024 3.955 8.25 1.715 2.95 4.973 4.518 6.061 5.76 1.446 1.702-1.184 4.045-5.555 3.258-2.17-.384-5.478-1.658-6.4-3.085s-1.318-4.083-2.08-5.12-2.522-2.221-2.925-3.424c-.321-1.093-.356-2.25-.102-3.36.307-1.12.557-2.471.941-2.362l.051.839c.314.588 1.382 1.241 3.578 1.28 1.024.044 2.035-.148 2.477-1.114z" class="G"/><path d="M49.088 154.925c-.253-3.37-.131-6.757.365-10.099l-3.162-21.056-2.515 23.148c-.384 3.104-6.138 36.621-6.138 36.621-2.95 1.754-6.746 1.197-9.216-.115 0-13.555.422-27.13.915-30.886a64.52 64.52 0 0 1 1.76-7.597l.294-27.277c-.019-7.507.55-12.525 1.978-15.898 1.111-2.453 2.428-4.808 3.936-7.04 0 0 1.094 3.699 9.786 3.706s9.651-2.189 9.651-2.189 2.56 8.883 3.392 22.311l1.05 20.569c.173 4.109.282 8.858.378 17.159.07 6.265.954 20.044.954 20.044S58.278 178.56 51.27 176l-2.182-21.075z" class="E"/><path d="M46.291 123.77L48 111.034c2.522-.26 4.874-1.392 6.65-3.2 0 0-.973 3.084-5.056 4.812l-2.304 11.175 1.683 17.92-2.682-17.971z" class="G"/><use href="#i" class="B"/><use href="#i" class="D O"/><path d="M41.997 67.578s3.373 8.864 4.141 14.88-1.869 24.198-2.278 34.969c-.301 7.847-1.043 19.143-1.043 19.143-2.392.226-4.804.142-7.174-.25-3.968-.749-5.197-1.395-7.456-2.874l2.918-27.366c.909-7.206 4.787-14.31 4.787-14.31l-4.659-19.258s.23-3.258 3.29-4.166c2.912-.864 7.475-.768 7.475-.768z" class="H"/><path d="M36.032 85.594l1.504-6.208c.864-3.917.736-6.195.429-7.904l-5.056 7.411 2.982 12.896a49.15 49.15 0 0 0-4.48 12.313c3.053-8.627 6.4-11.219 6.4-11.219l-1.779-7.29z" fill="#f5f5f5"/><path d="M41.856 64.723c-.493-.102-.928.115-1.331.794l-1.28 2.131s-.461 4.774 0 5.958c.39 1.03 4.762 4.89 4.762 4.89s-1.146 4.294-1.184 5.696 2.707 6.752 3.014 9.485c0 0 .864-8.595.461-11.68a54.54 54.54 0 0 0-4.41-14.496l-.032-2.778z" class="L"/><path d="M31.52 118.752c-.64-1.235-.64-2.131-1.651-3.251a3.55 3.55 0 0 1-.883-1.645c-.211-.994-.293-2.012-.243-3.027l-5.798.089c-.045 1.92-.307 4.698.058 6.752.928 5.21 1.958 7.418 4.134 8.026 3.494.96 4.435-.512 3.315-3.123-.482-1.086-.807-2.234-.966-3.411.369.469.8.887 1.28 1.241.243.197.551.296.863.276s.605-.158.82-.385c.141-.211-.448-.576-.928-1.542z" class="J"/><path d="M37.178 67.84s-3.75-.23-5.946 1.562-3.558 6.816-5.171 11.84-3.046 9.901-3.578 13.44c-.442 2.938.134 18.508.134 18.508 2.302.217 4.62-.195 6.707-1.19l1.568-16.64 6.285-17.05c1.152-3.395 1.152-7.075 0-10.47z" class="T"/><path d="M40.723 78.47l-.096-2.195c-.32-4.966-.467-9.459 1.216-9.818l.147.685c-1.229.262-.819 6.675-.64 9.088l.096 2.266-.723-.026z" class="B"/><path d="M39.725 95.072h-.045v-.493c.58-.046 1.136-.252 1.606-.595a6.01 6.01 0 0 1-1.331-1.184c-.794-1.024-2.522-8.32-1.99-10.016.448-1.421 1.85-4.563 3.098-4.614 1.242 0 2.874 2.97 3.437 4.339.678 1.645-.429 9.062-1.126 10.144a6.01 6.01 0 0 1-1.229 1.318c.497.305 1.069.464 1.651.461l.058.486a3.84 3.84 0 0 1-2.138-.64c-.577.444-1.266.719-1.99.794zm1.37-16.442c-.736 0-2.048 2.368-2.65 4.275-.486 1.562 1.178 8.621 1.92 9.6.392.474.859.88 1.382 1.203a5.71 5.71 0 0 0 1.28-1.318c.64-1.005 1.702-8.179 1.082-9.69-.787-1.875-2.278-4.07-3.014-4.07z" class="E"/><path d="M44.576 94.618c-.007.181-.082.353-.21.482s-.3.205-.481.213-.359-.052-.498-.169-.229-.282-.252-.462a.73.73 0 0 1 .691-.755c.191-.007.377.062.517.191a.72.72 0 0 1 .232.5zm-4.186.179c.013.099.004.2-.024.296a.72.72 0 0 1-.141.261.71.71 0 0 1-.235.182.74.74 0 0 1-.288.073c-.1.004-.2-.013-.293-.05s-.178-.092-.248-.163-.126-.156-.162-.249a.73.73 0 0 1-.048-.293c.008-.181.084-.352.212-.48a.72.72 0 0 1 .481-.21c.181-.007.358.054.496.171s.227.282.25.462z" class="I"/><path d="M44.653 85.696l-.41-.032c-.043-.003-.083-.023-.112-.055s-.044-.074-.042-.117a8.51 8.51 0 0 0-.122-2.778c-.73-1.766-2.227-3.987-2.88-3.962s-1.965 2.368-2.56 4.192a8.24 8.24 0 0 0 .109 2.784.16.16 0 0 1-.134.179l-.41.064c-.043.005-.087-.006-.122-.032s-.058-.065-.064-.108c-.221-1.02-.249-2.073-.083-3.104.307-.979 1.747-4.646 3.2-4.704s3.2 3.462 3.59 4.41a8.42 8.42 0 0 1 .179 3.11c-.002.038-.018.074-.043.102s-.06.046-.097.052zm39.078-5.856L65.139 86.4l-5.12 22.125.416.441 17.677-6.604 6.035-22.08-.416-.442z" class="B"/><g class="C"><path opacity=".35" d="M65.549 86.842l-5.114 22.124-.416-.441 5.12-22.125.41.442z"/><path opacity=".25" d="M84.147 80.282l-18.598 6.56-5.114 22.124 17.677-6.604 6.035-22.08z"/><g class="F"><path d="M75.347 97.869c.173.435 1.594 1.389 3.661 1.216l.346-1.28-4.006.064z"/></g><g class="K"><path d="M78.547 84.813l.154-.742c.09-.41-1.011-.192-2.438.48l-3.36 1.018c-1.427.672-2.784 1.178-2.867 1.587l-.154.742 8.666-3.085z"/></g></g><g class="G"><path d="M79.648 81.459c.058-.256-.371-.205-.96-.051l-1.075.365s.435-1.075-2.099-.384c-2.784.755-2.848 2.144-2.848 2.144a10.66 10.66 0 0 1-1.338.486c-.928.301-1.03.486-1.101.742l-.141.474 9.478-3.315.083-.461z"/><path d="M78.656 82.88c-.883.397-1.28.589-1.376 1.222l-.179 1.024-4.941 1.92.333-1.414c.064-.352-.582-.358-1.44.038l.205-.89 7.68-2.854-.282.954z"/><path d="M78.797 84.826l.154-.742c.083-.41-1.005-.198-2.432.48l-3.36 1.018c-1.427.672-2.784 1.178-2.867 1.587l-.154.742 8.659-3.085z"/></g><path d="M82.08 87.846l-.832 3.046c-.192.614-3.2 2.016-4.742 2.208-2.918.365-3.251.992-2.56 3.066.64 1.92 2.56 2.63 5.178 2.317a4.76 4.76 0 0 0 3.61-3.149c.851-2.445.39-5.05.73-6.47s-.64-1.862-1.382-1.018z" class="J"/><use href="#j" class="B"/><use href="#j" class="C V"/><use href="#k" class="B"/><use href="#k" opacity=".3" class="C"/><path d="M54.01 46.72c1.542 1.107 2.067 2.368 1.92 9.421-.154 5.939-2.086 7.411-3.059 7.859s-2.842.166-4.659-.141v4.23c.633.54 1.06 1.281 1.21 2.099.122.442-1.344 1.133-4.96.64a4.73 4.73 0 0 1-3.731-2.438V55.04s0-5.414 3.885-7.539a10.88 10.88 0 0 1 9.395-.781z" class="J"/><use href="#l" class="B"/><g class="C"><use href="#l" opacity=".4"/><path d="M48.262 54.605a.75.75 0 0 1-.194.54.75.75 0 0 1-.519.244c-.098.005-.197-.01-.289-.044a.75.75 0 0 1-.424-.386.75.75 0 0 1-.07-.284c-.008-.1.004-.2.035-.295s.081-.183.147-.259.145-.138.235-.182a.76.76 0 0 1 .287-.077c.203-.005.4.07.549.209s.236.331.245.534z"/></g><path d="M47.654 59.168l2.758.883a1.42 1.42 0 0 1-.678.869c-.165.092-.347.151-.535.172a1.42 1.42 0 0 1-.56-.049c-.376-.124-.688-.388-.872-.738s-.225-.758-.113-1.137z" class="P"/><path d="M54.746 52.391l-1.51-1.05a.88.88 0 0 1 .247-.269.89.89 0 0 1 .335-.146.88.88 0 0 1 .365.002c.12.026.234.077.333.15a.97.97 0 0 1 .377.61c.043.244-.01.496-.147.702zm-8.666-.09l1.517-1.056a.89.89 0 0 0-.248-.267c-.1-.071-.215-.12-.335-.144s-.245-.023-.364.004-.233.078-.332.151c-.199.147-.334.365-.379.609a.97.97 0 0 0 .142.703zm8.32 2.15a.75.75 0 0 1-1.265.541.75.75 0 0 1 .478-1.291.77.77 0 0 1 .787.749z" class="C"/><path d="M50.739 54.106l.122 4.525 2.368-.736-2.49-3.789zm-2.528 9.734c-1.92-.25-5.856-1.382-6.47-2.95.245.791.728 1.489 1.382 1.997 1.178 1.011 5.12 2.15 5.12 2.15l-.032-1.197z" class="P"/><use href="#m" class="B"/><use href="#m" class="C V"/><path d="M92.986 241.92c-.077-1.85 1.408-20.109 1.408-20.109l-8.858 5.856 1.568 15.815a1.61 1.61 0 0 0-.051.454c0 2.112 2.624 3.251 4.666 4.659 1.747 1.247 3.594 2.348 5.523 3.29 1.485.678 4.48.742 4.87-.128-2.483-1.728-6.099-4.32-8.077-6.291-.941-.954-.979-1.696-1.05-3.546z" class="S"/><path d="M106.349 254.022c.121.308.15.645.083.969s-.227.621-.461.855c-1.86 1.16-4.074 1.614-6.24 1.28-3.098-.364-4.774-1.235-6.01-2.182s-2.976-2.278-4.378-2.56a8.85 8.85 0 0 1-3.136-1.171c-.416-.365-.358-1.997-.358-1.997l20.499 4.806z" class="E"/><use href="#n" class="B"/><use href="#n" class="D M"/><use href="#o" class="B"/><use href="#o" class="D N"/><path d="M98.118 251.629c2.202.806 1.28 1.177.64 1.28s-4.326-1.92-6.586-3.527c-2.355-1.702-3.84-3.558-4.723-4.185-.326-.231-.672-.519-.986-.787l.147-1.056c.024-.107.084-.202.168-.27s.19-.107.299-.108c0 .262-.038.499.173.698.196.13.399.25.608.358a3.39 3.39 0 0 1 .563.518c.287.375.606.724.954 1.044 1.926 2.208 6.541 5.235 8.742 6.035z" class="B"/><path d="M98.605 252.595a.25.25 0 0 1-.134-.045c-.022-.015-.041-.034-.055-.057s-.023-.049-.026-.076 0-.054.008-.08.022-.049.041-.068a5.52 5.52 0 0 1 4.032-1.453.2.2 0 0 1 .075.024c.023.012.043.029.059.05s.029.044.036.069.009.052.006.078-.011.051-.023.074-.03.043-.051.06-.044.028-.069.035a.2.2 0 0 1-.077.007 5.12 5.12 0 0 0-3.648 1.28c-.019.029-.045.053-.075.071s-.063.028-.098.031zm-1.92-1.075c-.049.001-.096-.015-.134-.045-.022-.014-.041-.033-.055-.056s-.023-.048-.026-.074 0-.053.008-.078.022-.048.041-.067c.54-.5 1.176-.886 1.869-1.135a5.49 5.49 0 0 1 2.163-.318c.028.001.054.007.079.019s.047.028.065.048.031.045.04.07.011.054.008.081-.011.054-.025.078-.032.045-.055.062-.047.029-.074.036a.19.19 0 0 1-.082.003 5.12 5.12 0 0 0-3.648 1.28c-.021.027-.047.049-.077.066s-.062.027-.096.03zm-1.92-1.024c-.05-.002-.099-.018-.141-.045a.19.19 0 0 1-.061-.141c0-.026.005-.052.016-.076s.026-.046.045-.064c.541-.499 1.177-.884 1.869-1.133s1.428-.355 2.163-.314a.2.2 0 0 1 .079.019c.025.012.047.028.065.048s.032.045.04.07a.22.22 0 0 1 .009.081.2.2 0 0 1-.027.076c-.014.024-.033.044-.055.06a.2.2 0 0 1-.074.034.22.22 0 0 1-.081.003 5.11 5.11 0 0 0-3.654 1.28c-.019.033-.047.06-.081.078s-.072.027-.111.024zm-1.779-1.165c-.05-.002-.099-.017-.141-.045-.019-.018-.033-.04-.043-.064s-.015-.05-.015-.076a.2.2 0 0 1 .058-.141 5.54 5.54 0 0 1 4.038-1.453c.026.003.051.011.074.024a.19.19 0 0 1 .059.05c.016.021.028.044.036.069s.009.052.007.078a.18.18 0 0 1-.024.074c-.013.023-.03.043-.05.059s-.044.029-.069.036-.052.01-.078.007a5.12 5.12 0 0 0-3.654 1.28c-.02.034-.049.062-.084.08s-.075.026-.114.022zm-1.748-1.171c-.047 0-.094-.013-.134-.038a.19.19 0 0 1-.048-.064c-.011-.025-.017-.05-.017-.077s.006-.053.017-.078.027-.046.048-.063c.851-.986 2.784-1.632 4.403-1.472.028.002.054.009.079.021a.2.2 0 0 1 .104.122c.008.026.011.054.009.081a.21.21 0 0 1-.084.134c-.044.032-.099.046-.153.039-1.459-.141-3.264.448-4.019 1.325a.25.25 0 0 1-.094.058c-.035.012-.073.016-.11.012z" class="H"/><path d="M75.872 228.307l-8.96-.16c.134 5.978 1.082 12.621 1.242 18.234 0 1.062 0 8.217.371 10.387.595 3.27 4.48 2.829 4.678.87s-.25-10.304-.237-11.168c0-3.596 1.658-9.676 2.56-16.14-.006-.32.301-1.716.346-2.023z" class="S"/><path d="M75.053 259.002c.09 1.92-.102 3.2-.723 4.403s-1.99 1.664-3.45 1.465-3.386-.902-3.974-2.515a9.63 9.63 0 0 1-.506-4.544l8.653 1.191z" class="E"/><use href="#p" class="B"/><use href="#p" class="D M"/><use href="#q" class="B"/><use href="#q" class="D N"/><path d="M68.48 258.336c.096.934-.954.71-1.146-.602s.262-4.48 0-6.764c.058-2.599-.058-5.178.525-5.274v.096l.064 1.312a3.4 3.4 0 0 0 .032.563c.192 1.92.307 5.594.314 7.347a28.37 28.37 0 0 0 .211 3.322zm4.102 0a28.44 28.44 0 0 0 .198-3.322l.314-7.308a4.03 4.03 0 0 0 .083-1.076v-.87-.064c.384.128.518 1.158.64 2.451l-.083 2.823c-.256 2.259.192 5.472 0 6.784s-1.242 1.516-1.152.582z" class="B"/><path d="M72.96 258.4c-.027.006-.056.006-.083 0-1.488-.464-3.082-.464-4.57 0-.053.02-.111.019-.163-.002s-.094-.062-.118-.113a.19.19 0 0 1-.013-.079c.001-.027.008-.054.02-.078s.029-.045.05-.062.045-.03.071-.037c1.59-.512 3.3-.512 4.89 0 .026.008.049.021.069.038a.19.19 0 0 1 .048.063c.011.024.018.05.019.077a.19.19 0 0 1-.014.078.23.23 0 0 1-.087.085c-.036.02-.077.031-.118.03zm.275-2.067h-.077c-1.674-.476-3.446-.476-5.12 0a.23.23 0 0 1-.163-.01c-.051-.023-.091-.066-.113-.118-.009-.026-.012-.053-.01-.08s.011-.053.024-.077a.18.18 0 0 1 .053-.06.2.2 0 0 1 .073-.033 9.78 9.78 0 0 1 5.402 0c.026.007.05.02.072.037a.19.19 0 0 1 .073.139c.002.027-.001.055-.01.08a.21.21 0 0 1-.084.093c-.037.022-.079.031-.121.029zm-5.267-1.952a.24.24 0 0 1-.114-.032.23.23 0 0 1-.084-.083c-.01-.025-.016-.052-.016-.079a.2.2 0 0 1 .059-.145.2.2 0 0 1 .066-.045 8.18 8.18 0 0 1 5.395 0 .19.19 0 0 1 .12.1c.012.024.018.051.018.077a.19.19 0 0 1-.016.079c-.025.05-.068.089-.12.109s-.11.02-.162 0c0 0-2.688-.954-5.05 0l-.096.019zm-.045-1.824c-.04 0-.08-.01-.115-.031s-.064-.049-.083-.084a.19.19 0 0 1-.029-.084c-.003-.03.002-.06.013-.087a.19.19 0 0 1 .052-.072c.023-.019.05-.032.079-.039 1.757-.724 3.726-.745 5.498-.058.025.009.048.023.068.042s.034.041.044.066.014.052.012.078-.009.053-.022.077a.22.22 0 0 1-.287.096 7.04 7.04 0 0 0-5.12.057c-.033.021-.07.034-.109.039z" class="H"/><path d="M67.872 250.502c-.039.001-.077-.009-.111-.028a.22.22 0 0 1-.081-.08c-.013-.024-.02-.05-.023-.077s.002-.054.011-.079.023-.049.042-.068.041-.035.066-.045c2.611-1.165 5.427-.051 5.549 0 .025.009.048.023.068.041s.035.041.045.066.015.051.015.078-.007.053-.018.077c-.026.051-.071.089-.124.107s-.112.014-.163-.011c-.032 0-2.752-1.088-5.171 0-.032.013-.067.02-.102.019z" class="L"/><use href="#r" class="B"/><use href="#r" class="D O"/><path d="M82.15 190.63l.922-6.361s5.37-.717 7.808-3.002c-.697 1.09-1.626 2.012-2.72 2.702s-2.326 1.131-3.61 1.292l-.954 5.76-.064 17.92-1.382-18.311z" class="C F"/><path d="M99.379 168.243l-4.198 5.197-2.803-4.838c.115 0 3.699-5.869 3.699-5.869l3.302 5.51z" class="S"/><path d="M85.939 135.411c3.296-.051 6.944-.141 10.131 3.642 2.464 2.937 9.14 12.045 10.484 14.374 1.516 2.637 1.728 3.706.537 5.677s-8.32 10.15-8.32 10.15a12.24 12.24 0 0 1-3.59-5.292l4.198-7.04-8.064-11.911-5.376-9.6z" class="G"/><use href="#s" class="B"/><use href="#s" class="D O"/><use href="#t" class="B"/><use href="#t" opacity=".75" class="D"/><path d="M85.197 136.659c-1.37 1.107-5.03 1.427-7.571.403a65.84 65.84 0 0 0 7.776 7.335c.805-2.529.733-5.255-.205-7.738z" class="E"/><g class="C"><path d="M79.002 118.4a7.22 7.22 0 0 0 1.215 4.016 7.23 7.23 0 0 0 3.241 2.664c1.32.548 2.773.692 4.175.414s2.69-.966 3.701-1.976 1.7-2.298 1.979-3.7.137-2.855-.41-4.175-1.473-2.45-2.661-3.244-2.586-1.218-4.015-1.218c-1.915 0-3.752.76-5.107 2.114s-2.117 3.19-2.119 5.105zm-5.261 5.12l1.638 6.4a2.5 2.5 0 0 0 1.44 1.158l-.083-3.872-2.995-3.686z"/><path d="M75.206 115.654c-.409-.048-.823-.002-1.211.135s-.74.359-1.029.653c-.966.985-.429 4.07.774 7.091l2.202.256-.736-8.135z"/></g><path d="M76.608 123.789c-.442.262-1.075-.589-1.619-1.159s-2.323-1.35-3.2.525.781 4.423 2.182 4.864c2.419.755 2.778-.793 2.778-.793l.179 8.96c2.556 2.999 5.398 5.743 8.486 8.192.826-2.087.826-5.876-.64-8.685v-2.637a15.18 15.18 0 0 0 3.258.166c1.773-.268 2.893-1.67 3.43-3.596.864-3.085 1.19-5.581.461-11.655-.806-6.656-8.55-6.726-12.73-4.096s-2.586 9.914-2.586 9.914z" class="S"/><g class="C"><path d="M91.795 115.002c-1.459 1.184-2.413 1.817-5.235 1.92a12.63 12.63 0 0 1-5.6-1.082 3.64 3.64 0 0 1-.832 1.83 5.65 5.65 0 0 1-1.978 1.28c-.154 1.197-.147 2.733-.224 3.936 0 .41 0 2.56-.986 1.92a4.89 4.89 0 0 1-.845-.94 13.57 13.57 0 0 0-1.107-1.236c-.762-.691.218-6.976.218-6.976-.263-.553-.353-1.172-.258-1.778a3.05 3.05 0 0 1 .789-1.614c1.043-1.152 2.502-2.56 7.238-1.996 3.379.403 7.04 1.452 10.029 0 .435 1.696-.166 3.884-1.21 4.736z"/><path d="M75.213 116.141l-2.675-1.434c.088-.178.212-.336.363-.465a1.48 1.48 0 0 1 .516-.286 1.49 1.49 0 0 1 .586-.061c.198.019.389.077.564.172a1.6 1.6 0 0 1 .646 2.074z"/></g><path d="M84.774 133.056s-3.968-.794-5.35-1.536a4.56 4.56 0 0 1-1.92-1.92 6.33 6.33 0 0 0 1.088 2.24c1.018 1.28 6.182 2.246 6.182 2.246v-1.03z" class="Y"/><path d="M84.032 122.771a.85.85 0 0 1-.162.462c-.098.135-.233.238-.389.297s-.326.07-.488.033a.85.85 0 0 1-.594-1.164.85.85 0 0 1 .782-.517.87.87 0 0 1 .608.27c.159.166.247.389.243.619zm-.832-2.88l-1.76.967a1.05 1.05 0 0 1 .416-1.396.97.97 0 0 1 .764-.074.98.98 0 0 1 .342.192c.1.087.181.192.238.311z" class="C"/><path d="M83.379 127.731l2.88 1.075c-.062.194-.164.373-.297.527s-.296.278-.479.367-.382.141-.585.151a1.52 1.52 0 0 1-.597-.091 1.6 1.6 0 0 1-.922-2.029z" class="Y"/><path d="M91.219 120.538l-1.619-1.236c.075-.108.171-.201.283-.271a.97.97 0 0 1 .367-.137.96.96 0 0 1 .392.019.95.95 0 0 1 .352.172c.216.167.36.411.401.682a1.07 1.07 0 0 1-.177.771zm-.531 2.144c-.006.161-.06.318-.154.449a.82.82 0 0 1-.377.29c-.151.058-.316.07-.474.034a.82.82 0 0 1-.414-.233c-.112-.116-.188-.264-.217-.423a.83.83 0 0 1 .811-.975.84.84 0 0 1 .591.257.84.84 0 0 1 .177.277c.04.103.06.213.057.324z" class="C"/><path d="M86.624 121.542l.282 5.184 2.707-.921-2.989-4.263z" class="Y"/><use href="#u" class="B"/><use href="#u" class="C F"/><path d="M73.83 162.086h-.051v-.416c.497-.04.973-.217 1.376-.512-.431-.284-.815-.634-1.139-1.036-.678-.871-2.157-7.104-1.702-8.557.384-1.216 1.581-3.904 2.643-3.949 1.062 0 2.458 2.56 2.938 3.712.576 1.408-.365 7.744-.96 8.672a5.21 5.21 0 0 1-1.056 1.126c.424.264.915.399 1.414.391l.051.416a3.25 3.25 0 0 1-1.83-.531 3.34 3.34 0 0 1-1.683.684zm1.171-14.048c-.64 0-1.747 2.016-2.259 3.655-.422 1.331.998 7.366 1.626 8.173.325.404.714.752 1.152 1.03.42-.316.787-.696 1.088-1.126.55-.858 1.459-6.989.928-8.282-.627-1.574-1.901-3.45-2.534-3.45z" class="E"/><path d="M77.978 161.702a.64.64 0 0 1-.082.369c-.064.112-.16.201-.275.258a.65.65 0 0 1-.373.058c-.127-.019-.246-.075-.341-.162s-.161-.201-.19-.327a.64.64 0 0 1 .261-.672c.106-.073.232-.112.36-.112a.63.63 0 0 1 .435.169.64.64 0 0 1 .205.419zm-3.578.148a.64.64 0 0 1-.357.626.64.64 0 0 1-.373.058c-.127-.019-.246-.075-.341-.162a.64.64 0 0 1 .071-.999c.106-.073.232-.112.36-.112a.64.64 0 0 1 .64.589z" class="I"/><use href="#v" class="B"/><g class="F C"><use href="#v"/></g><use href="#w" class="B"/><use href="#w" class="C F"/><path d="M90.63 159.75c1.35 0 2.445-1.094 2.445-2.444s-1.095-2.445-2.445-2.445-2.445 1.094-2.445 2.445 1.095 2.444 2.445 2.444z" class="E"/><path d="M90.63 158.694a1.39 1.39 0 0 0 1.389-1.388 1.39 1.39 0 0 0-1.389-1.389 1.39 1.39 0 0 0-1.389 1.389 1.39 1.39 0 0 0 1.389 1.388z" class="G"/><path d="M76.87 176.512v20.48c.01.072-.001.146-.03.212s-.076.124-.136.166l-.922.544c-.049.009-.099.009-.147 0-.093-.004-.183-.03-.262-.077L52.16 184.461c-.173-.115-.317-.268-.42-.448a1.33 1.33 0 0 1-.175-.589v-20.48a.43.43 0 0 1 .033-.214c.029-.067.075-.126.133-.17h.038l.87-.506c.047-.026.1-.039.154-.038a.59.59 0 0 1 .269.077l12.16 7.04 1.44.832 2.15 1.235h.058l7.386 4.262a1.01 1.01 0 0 1 .122.084c.12.103.222.227.301.364.116.181.182.388.192.602z" class="B"/><path opacity=".5" d="M76.698 175.923l-.896.525a1.13 1.13 0 0 0-.09-.134c-.062-.084-.133-.162-.211-.231l-.122-.089-7.386-4.256-2.189-1.28-.883-.506-12.749-7.328c-.056-.039-.121-.064-.189-.074a.46.46 0 0 0-.202.016l.87-.505c.047-.026.1-.039.154-.039a.52.52 0 0 1 .269.077l12.16 7.04 1.44.832 2.15 1.235h.058l7.386 4.263c.043.025.083.052.122.083a1.41 1.41 0 0 1 .307.371z" class="D"/><g class="B"><path d="M51.571 162.97v20.48a1.33 1.33 0 0 0 .176.593 1.34 1.34 0 0 0 .425.45l23.277 13.44c.054.032.115.049.177.049s.124-.016.178-.047a.36.36 0 0 0 .13-.131.35.35 0 0 0 .046-.178v-20.589a1.21 1.21 0 0 0-.179-.589c-.102-.181-.247-.335-.422-.448l-7.386-4.262-2.189-1.28-13.632-7.834c-.056-.039-.121-.064-.189-.074a.46.46 0 0 0-.202.016.43.43 0 0 0-.164.172c-.037.071-.054.151-.048.232z"/><path d="M75.801 176.448c-.027-.047-.057-.092-.089-.134a.71.71 0 0 1 .089.134z"/></g><path d="M75.75 197.92l.928-.538c.055-.046.099-.105.127-.172s.039-.14.033-.212v-20.48c-.008-.208-.07-.411-.179-.588l-.896.524c.108.178.167.381.173.589V197.6c.003.065-.014.13-.046.187a.34.34 0 0 1-.139.133z" class="C F"/><path d="M57.427 164.48c4.973-20.326 7.526-26.56 13.568-26.483 1.766 2.105-.096 8.665-1.28 11.853 0 0-5.344 13.056-6.336 17.715-.87 4.096-1.856 9.241-1.792 12.761a2.56 2.56 0 0 0 .691 1.677c1.133 1.229 1.139 2.221 1.869 3.578.576 1.069 1.21 1.465 1.03 1.702-.236.255-.56.412-.907.438s-.69-.08-.962-.297c-.531-.386-1.007-.842-1.414-1.357a15.86 15.86 0 0 0 1.107 4.672l1.28.73s-.384 1.312-3.437.435c-3.45-.986-4.685-1.414-5.05-7.264a45.66 45.66 0 0 1-.064-6.47c.518-5.556.896-10.432 1.696-13.69z" class="S"/><path d="M71.142 136.352s-4.64.166-6.099 2.4c-1.69 2.56-3.162 7.174-5.997 17.28s-3.699 17.44-3.84 23.117c0 0 3.552 1.657 6.829-.231 0 0 1.453-8.774 2.739-13.44s5.414-14.784 5.414-14.784 3.251-7.334.954-14.342z" class="G"/><use href="#x" class="B"/><g class="O D"><use href="#x"/></g><g class="G"><path d="M77.299 193.382c.275.173.397-.352.461-1.12v-1.42s1.088.972 1.35-2.317c.294-3.616-1.325-4.275-1.325-4.275v-1.792c0-1.191-.25-1.485-.525-1.684l-.41-.204v12.563s.166.077.448.249z"/><path d="M75.968 191.597c0-1.075-.102-1.715-.794-2.138l-1.126-.64-.205-6.662 1.53.998c.39.231.64-1.133.595-1.529l.934.422.109 10.291-1.043-.742z"/><path d="M73.722 190.95l.813.493c.454.269.64-1.113.448-3.091l.192-4.403c-.205-1.978-.237-3.789-.691-4.058l-.813-.493.051 11.552z"/></g><use href="#y" class="B"/><g class="F C"><use href="#y"/></g><path d="M193.152 232.198H171.27l-.409-13.1h-21.722l-.409 13.1h-21.844l-.435 13.997h21.837l-.41 13.095h24.244l-.41-13.101h21.837l-.397-13.991z" class="B"/><path opacity=".13" d="M171.712 246.189h21.837v9.011h-21.555l-.282-9.011zm-23.424.006l-.282 9.005h-21.555v-9.005h21.837z" class="C"/><defs ><path id="B" d="M236.557 266.95c18.323 0 33.177-8.576 33.177-19.155s-14.854-19.155-33.177-19.155-33.178 8.576-33.178 19.155 14.854 19.155 33.178 19.155z"/><path id="C" d="M287.93 168.083c-.64-4.301 1.177-13.67 4.825-19.91s10.067-11.347 15.303-10.375c4.876.909 5.267 7.079.224 11.936S292.41 163.77 290.95 171.11l-.838 6.464-2.182-9.491z"/><path id="D" d="M32.672 166.637s1.786-9.146-.442-17.383-6.906-14.419-12.397-16.64-11.667 1.517-6.771 6.976 14.458 12.468 15.174 27.328l4.435-.281z"/><path id="E" d="M269.574 78.822c-.499 1.715-3.449 13.792-3.033 18.042.317 2.181.906 4.314 1.753 6.349 1.28 3.027 2.132.32 2.848-1.466a22.67 22.67 0 0 0 1.197-5.165c.237-2.278-.678-9.216-.326-17.344-.133-.188-.301-.347-.496-.47s-.411-.205-.637-.244a1.75 1.75 0 0 0-1.306.298z"/><path id="F" d="M269.44 74.944c-1.171.998.109 3.878.109 3.878.836-.182 1.71-.033 2.438.416 0 0 2.33-.998 2.336-2.72 0-1.574-1.67-1.069-2.854-1.28s-1.863-1.133-2.029-.294z"/><path id="G" d="M234.33 237.062a.47.47 0 0 1 .292.12c.08.072.133.17.149.277.096.467.192 1.824.384 2.592.303 1.35.4 2.737.288 4.115-.16.871-2.169 1.472-3.456 1.959-1.512.66-2.915 1.547-4.16 2.63-1.799 1.346-3.947 2.146-6.189 2.304-2.259 0-4.806-.749-5.395-1.798-.717-1.28-.153-2.048 3.2-3.603.64-.295 2.867-1.613 3.629-2.093 2.054-1.28 4.09-3.098 5.037-5.389a1.28 1.28 0 0 1 .48-.698 1.04 1.04 0 0 1 .64-.057c.561.078 1.108.242 1.619.486.448.211 1.088.461 1.075 1.037-.007.202-.051.402-.128.589-.038.115-.07.275.032.339s.231 0 .314-.083c.331-.338.635-.702.909-1.088a2.82 2.82 0 0 1 .531-.538c.197-.112.387-.236.569-.371.218-.205.173-.461.18-.73z"/><path id="H" d="M227.84 248.755l1.83-1.363s-3.942 2.4-5.536 1.28a1.43 1.43 0 0 1-.512-1.83c0-.269-2.508-1.434-3.507-1.556l-.64.346c-3.353 1.555-3.923 2.31-3.2 3.603.589 1.05 2.432 1.869 5.357 1.869 1.882.026 4.819-1.21 6.208-2.349z"/><path id="I" d="M254.611 239.91c.544.103.442 2.778.493 5.479.058 2.893.794 4.16.858 6.534.083 2.714-.18 3.891-1.28 5.421s-4.583 2.778-5.984.294c-1.146-2.022-.986-4.128-.596-6.79.384-2.248.653-4.515.807-6.79.096-2.016.147-3.968.64-4.148v.973c0 .295-.045 1.312.262 1.357.047-.249.075-.502.083-.755a.89.89 0 0 1 .218-.64 1.01 1.01 0 0 1 .64-.211c.555-.059 1.112-.089 1.67-.09.281.001.561.018.839.051a2.32 2.32 0 0 1 .691.167c.063.028.12.07.166.122s.081.112.103.178a.87.87 0 0 1 0 .314c-.023.185-.023.372 0 .557 0 .077.057.179.141.166s.096-.083.102-.147c.038-.326 0-.563.045-.941v-.589c0-.172.096-.339.102-.512z"/><path id="J" d="M255.917 251.149c0 .39.083 2.982-.64 3.373s-1.018-1.632-1.018-1.632-1.709-.717-4.397.153c.09.423-.441 1.754-1.12 1.395s-.64-3.321-.64-3.36c-.364 2.56-.48 4.596.64 6.56 1.402 2.484 4.884 1.229 5.984-.294s1.364-2.707 1.28-5.421c-.051-.269-.07-.525-.089-.774z"/><path id="K" d="M251.206 157.517a38.12 38.12 0 0 1 2.925 10.969c1.063 13.767.487 33.524.487 33.524.121 1.44 1.036 4.704 1.644 11.033.73 7.482-.179 32.826-.179 32.826s-4.48 2.662-7.955-.371l-4.986-42.24c-.819-6.49-3.11-20.532-3.11-20.532l-2.675 20.762s.249 5.843.077 9.6L236 239.846s-6.144 2.08-8.89-.876l-.748-36.308c-.18-10.361 0-29.241 1.683-40.108l23.161-5.037z"/><path id="L" d="M243.962 147.418c1.11.083 2.227.038 3.328-.135a5.5 5.5 0 0 0 2.227-.848 5.48 5.48 0 0 0 1.657-1.712 5.55 5.55 0 0 1 .679-1.209c.486-.532 1.28-.685 1.92-1.031a4.11 4.11 0 0 0 1.355-1.295c.345-.531.562-1.135.635-1.764.126-1.251-.079-2.514-.595-3.661-.467-1.165-1.408-2.227-1.971-3.353a15.44 15.44 0 0 1-2.042-6.548c-.179-2.246-.102-4.569-.179-6.835-.083-2.56-.141-6.157-3.232-8.96-.765-.691-1.737-1.112-2.765-1.197-1.28-2.342-3.84-3.372-5.977-3.737a16.63 16.63 0 0 0-5.421.089 9.27 9.27 0 0 0-4.832 2.311 6.81 6.81 0 0 0-2.061 4.582c-.049 1.405.433 2.776 1.35 3.84-.45.41-.768.945-.915 1.536-.16 1.28.173 2.797 2.336 3.623l3.149 2.924a31.73 31.73 0 0 0-.992 6.298l.128 4.09c.339 4.057 1.402 8.864 5.075 11.347a9.26 9.26 0 0 0 3.539 1.401 9.05 9.05 0 0 0 1.556.18c.646-.007 1.356.032 2.048.064z"/><path id="M" d="M233.075 130.214c-2.477-.128-4.013.384-5.504 1.831s-9.171 14.323-9.171 14.323.365 2.298 6.848 5.76l7.072-8.288.755-13.626z"/><path id="N" d="M228.48 147.571c.243 2.714.307 8.026.307 8.026-.985 6.937-1.536 13.76-1.536 13.76 10.362 5.536 25.773 1.011 27.738-1.28-.973-6.797-3.117-11.027-4.519-14.855l2.599-11.564s-4.48-3.719-4.071-11.264l-6.124-.64-5.844.166-4.153.294c-2.082 2.022-3.905 4.295-5.427 6.765-2.036 3.277-2.112 7.322 1.03 10.592z"/><path id="O" d="M248.96 130.406c3.533.16 6.131.64 8.614 3.693 2.656 3.239 8.813 12.16 8.813 12.16s-1.651 5.082-8.281 6.791l-8.352-10.727s-3.034-6.003-.794-11.917z"/><path id="P" d="M244.282 129.92c1.094.237 1.388 4.838 1.126 10.419-.045.922-.109 1.651-.09 2.016h.64c0-.333.032-1.049.09-1.92.275-4.409.307-10.816-1.613-11.11-.255-.064-.518-.088-.781-.071v.64l.628.026z"/><path id="Q" d="M242.451 148.627h.365c.038-.003.073-.021.098-.05s.038-.065.036-.103a7.54 7.54 0 0 1 .109-2.471c.64-1.568 1.978-3.539 2.56-3.513s1.741 2.099 2.253 3.718a7.4 7.4 0 0 1-.102 2.47c-.004.038.006.076.028.107s.056.052.093.06l.365.057c.038.004.076-.007.106-.031s.049-.059.054-.097c.199-.906.225-1.842.077-2.758-.275-.87-1.555-4.122-2.848-4.179s-2.842 3.078-3.2 3.923c-.227.901-.281 1.837-.16 2.758.007.037.029.069.06.089s.07.028.106.02z"/><path id="R" d="M236.237 129.088c-.979.134-4.007 1.626-5.44 6.118s-1.344 11.52-1.28 13.504.179 3.45.179 3.45h.922l-.205-3.45c-.045-1.26.115-10.297 1.209-13.152 1.312-3.398 2.797-4.71 4.615-5.574v-.896z"/><path id="S" d="M193.594 194.797c.108.003.212.043.294.115a.47.47 0 0 1 .154.275l.377 2.56c.302 1.345.4 2.728.288 4.103-.16.864-2.163 1.465-3.443 1.958-1.509.654-2.908 1.537-4.147 2.618a11.73 11.73 0 0 1-6.176 2.297c-2.253 0-4.794-.742-5.376-1.792-.723-1.28-.16-2.041 3.2-3.59.64-.295 2.861-1.613 3.616-2.087 2.048-1.28 4.083-3.091 5.024-5.376.076-.28.245-.526.48-.697a1.08 1.08 0 0 1 .64-.058 5.42 5.42 0 0 1 1.606.487c.455.211 1.088.46 1.082 1.036a2.11 2.11 0 0 1-.128.583c-.039.115-.071.275.032.345s.224 0 .313-.089c.327-.339.628-.7.903-1.082.151-.2.328-.381.525-.537a5.14 5.14 0 0 0 .576-.372c.204-.179.153-.428.16-.697z"/><path id="T" d="M187.117 206.451l1.824-1.363s-3.936 2.387-5.523 1.28a1.43 1.43 0 0 1-.603-.815c-.094-.336-.062-.695.091-1.009 0-.269-2.503-1.434-3.501-1.549l-.64.346c-3.347 1.549-3.911 2.297-3.2 3.59.582 1.05 2.419 1.863 5.337 1.863 1.908.025 4.839-1.21 6.215-2.343z"/><path id="U" d="M213.818 197.632c.544.102.441 2.771.492 5.466.058 2.88.788 4.147.858 6.515.083 2.701-.179 3.878-1.28 5.401s-4.563 2.772-5.965.295c-1.139-2.016-.985-4.115-.595-6.765l.806-6.778c.09-2.009.148-3.955.64-4.134v.966c0 .288-.044 1.312.263 1.357.053-.248.081-.501.083-.755-.008-.116.007-.232.045-.342s.096-.211.173-.298c.183-.142.408-.216.64-.211a14.55 14.55 0 0 1 1.67-.09c.276-.001.551.014.826.045.238.019.472.077.691.173a.49.49 0 0 1 .17.12c.047.052.083.114.105.181.019.101.019.205 0 .307a2.36 2.36 0 0 0 0 .557c0 .076.058.179.141.172.031-.011.059-.032.078-.06s.03-.06.031-.093c.032-.327 0-.563.038-.941v-.582c0-.173.083-.333.09-.506z"/><path id="V" d="M215.117 208.838c0 .391.089 2.97-.64 3.36s-1.011-1.619-1.011-1.619-1.709-.717-4.391.147c.09.423-.441 1.748-1.113 1.389s-.64-3.309-.64-3.347c-.365 2.56-.48 4.582.64 6.541 1.401 2.477 4.87 1.222 5.964-.295s1.364-2.7 1.28-5.401l-.089-.775z"/><path id="W" d="M210.426 115.475a38.01 38.01 0 0 1 2.912 10.944c1.062 13.722.486 33.421.486 33.421.122 1.434 1.03 4.691 1.645 11.002.723 7.456-.186 32.729-.186 32.729s-4.48 2.663-7.929-.365l-4.973-42.156c-.813-6.471-3.098-20.48-3.098-20.48l-2.669 20.71s.244 5.818.071 9.6l-1.421 26.682s-6.131 2.073-8.87-.871l-.743-36.205c-.179-10.329 0-29.158 1.677-39.993l23.098-5.018z"/><path id="X" d="M194.419 88.819c-2.342-.378-6.547-.41-8.646 2.925s-5.971 15.046-5.971 15.046a11.68 11.68 0 0 0 7.436 1.344c4.308-.614 7.181-19.315 7.181-19.315z"/><path id="Y" d="M211.994 89.555c2.515-.077 4.249.518 5.324 2.24s1.92 3.2 2.605 8.109c.954 6.899 1.075 10.163 1.075 10.163s-5.465 2.234-10.054 0l-1.024-9.197s-.749-7.251 2.074-11.315z"/><path id="Z" d="M161.818 137.792a44.76 44.76 0 0 1 .358-9.882l-3.091-20.601-2.464 22.656c-.352 3.04-6.003 35.84-6.003 35.84-2.893 1.709-6.605 1.165-9.018-.115 0-13.261.416-26.548.896-30.221a62.21 62.21 0 0 1 1.722-7.469l.288-26.688c-.02-7.341.537-12.262 1.92-15.565 1.086-2.398 2.37-4.702 3.84-6.886 0 0 1.075 3.622 9.6 3.635s9.446-2.15 9.446-2.15 2.49 8.698 3.322 21.836l1.017 20.122c.173 4.019.282 8.666.371 16.794.058 6.182.941 19.622.941 19.622s-4.153 2.182-11.008-.301c0 .013-1.715-15.334-2.137-20.627z"/><path id="a" d="M155.104 52.326l-4.006.422c-2.656.64-3.84 1.824-4.128 4.179-.496 2.541-.448 5.159.14 7.68l3.085 11.43s-5.171 6.733-6.105 18.298c9.452 6.163 23.942 2.842 27.859-.883-.333-3.526-2.56-13.21-2.867-16.358 0 0 .204-4.909.595-7.04 2.989-3.264 2.605-6.4 1.28-8.902-2.477-4.646-6.221-8.73-7.424-8.723l-8.429-.102z"/><path id="b" d="M124.224 187.782a.46.46 0 0 0-.442.391l-.384 2.56a13.69 13.69 0 0 0-.288 4.102c.167.871 2.17 1.472 3.45 1.959 1.506.66 2.904 1.542 4.147 2.617 1.793 1.343 3.935 2.141 6.17 2.298 2.259 0 4.8-.743 5.382-1.792.717-1.28.154-2.042-3.2-3.591-.64-.294-2.854-1.612-3.609-2.086-2.055-1.28-4.084-3.091-5.031-5.376a1.28 1.28 0 0 0-.48-.698c-.202-.085-.426-.105-.64-.057a5.42 5.42 0 0 0-1.613.486c-.448.211-1.088.461-1.075 1.037.008.2.051.398.128.582.039.116.071.276-.032.346s-.23 0-.313-.09c-.33-.335-.632-.697-.903-1.081-.155-.199-.334-.38-.531-.538-.197-.112-.387-.236-.57-.371-.23-.179-.153-.429-.166-.698z"/><path id="c" d="M130.707 199.437l-1.824-1.363s3.93 2.393 5.523 1.28a1.42 1.42 0 0 0 .512-1.818c0-.275 2.503-1.44 3.495-1.555l.64.345c3.347 1.549 3.91 2.298 3.2 3.591-.583 1.049-2.426 1.862-5.338 1.862-1.875.026-4.832-1.209-6.208-2.342z"/><path id="d" d="M104.006 190.624c-.55.096-.448 2.765-.499 5.459-.051 2.88-.787 4.147-.857 6.515-.077 2.701.185 3.885 1.28 5.402s4.569 2.771 5.964.294c1.146-2.016.986-4.115.602-6.764-.383-2.242-.652-4.502-.806-6.772-.096-2.009-.154-3.961-.64-4.134v.96c0 .32.044 1.28-.263 1.357-.047-.249-.075-.502-.083-.755.014-.233-.061-.462-.211-.64a1.03 1.03 0 0 0-.64-.212 14.81 14.81 0 0 0-1.671-.089c-.275 0-.556 0-.832.045-.238.018-.472.077-.691.172-.063.029-.12.071-.166.122s-.081.113-.103.179a.99.99 0 0 0 0 .307c.023.185.023.372 0 .557 0 .083-.057.179-.14.173s-.096-.09-.103-.154c-.038-.32 0-.563-.038-.934v-.589c0-.173-.096-.333-.103-.499z"/><path id="e" d="M102.701 201.824c0 .39-.083 2.976.64 3.366s1.011-1.625 1.011-1.625 1.709-.717 4.384.147c-.09.429.442 1.747 1.12 1.389s.64-3.309.64-3.347c.358 2.56.474 4.582-.64 6.54-1.395 2.477-4.87 1.229-5.965-.294s-1.357-2.701-1.28-5.402c.051-.275.064-.524.09-.774z"/><path id="f" d="M107.398 108.467a37.95 37.95 0 0 0-2.918 10.938c-1.056 13.721-.486 33.421-.486 33.421-.122 1.433-1.031 4.691-1.639 11.001-.723 7.463.179 32.73.179 32.73s4.48 2.662 7.936-.365l4.967-42.157c.819-6.47 3.097-20.48 3.097-20.48l2.676 20.704s-.25 5.824-.077 9.6l1.427 26.675s6.125 2.074 8.864-.87l.742-36.205c.186-10.329 0-29.158-1.67-39.993l-23.098-4.999z"/><path id="g" d="M125.69 81.28c3.334.32 4.48 1.178 5.76 3.802s4.672 14.4 4.672 14.4l-8.628 3.264-1.804-21.466z"/><path id="h" d="M110.675 81.318c-2.765-.154-6.803-.243-9.133 5.12s-4.723 13.12-4.723 13.12a15.92 15.92 0 0 0 9.159 3.2l4.102-10.771s2.029-7.507.595-10.669z"/><path id="i" d="M42.24 67.578l-4.096.435c-2.714.64-3.942 1.862-4.218 4.269-.509 2.596-.461 5.27.141 7.846l3.155 11.686-4.39 11.226c9.658 6.298 21.574 3.84 25.6 0-.333-3.603-1.613-6.957-1.92-10.176 0 0 .211-5.018.608-7.194 3.059-3.334 2.669-6.522 1.28-9.094-2.56-4.749-6.349-8.922-7.584-8.915l-8.576-.083z"/><path id="j" d="M45.766 40.845h1.069c2.897 0 5.676 1.151 7.725 3.2s3.2 4.828 3.2 7.725v11.232c0 1.91-.758 3.742-2.108 5.093s-3.181 2.111-5.092 2.113H34.842V51.77c0-2.897 1.151-5.676 3.2-7.725s4.828-3.2 7.725-3.2z"/><path id="k" d="M38.957 66.381h6.829v8.32a6.51 6.51 0 0 1-6.509 6.509h-.32V66.381z"/><path id="l" d="M40.73 55.04s3.539-6.323 8.691-7.091 6.291 1.818 6.291 1.818-.64-5.843-6.291-5.696c-7.77.186-8.691 6.138-8.691 10.97z"/><path id="m" d="M50.643 64.64l-2.426-.794c0 .209-.083.41-.23.559s-.348.233-.557.235h-3.795c-.382-.001-.761-.077-1.114-.224s-.673-.362-.943-.633a2.91 2.91 0 0 1-.848-2.061L38.31 64.64h-3.469v4.589a2.84 2.84 0 0 0 .828 2.011 2.84 2.84 0 0 0 2.007.837h10.464a6.92 6.92 0 0 0 4.886-2.04 6.92 6.92 0 0 0 2.013-4.898v-.499h-4.397z"/><path id="n" d="M87.085 242.957a.49.49 0 0 0-.298.109c-.085.068-.144.163-.169.268l-.403 2.496a12.24 12.24 0 0 0-.307 3.962c.173.832 2.298 1.414 3.648 1.888 1.58.625 3.061 1.477 4.397 2.528 1.939 1.308 4.193 2.075 6.528 2.221 2.387 0 5.075-.723 5.696-1.735.762-1.248.16-1.971-3.379-3.468-.64-.282-3.027-1.549-3.84-2.01-2.17-1.248-4.32-2.982-5.318-5.19-.09-.276-.27-.513-.512-.672a1.2 1.2 0 0 0-.691-.058 6.45 6.45 0 0 0-1.702.467c-.474.211-1.152.448-1.139 1.005.014.194.059.384.134.563.045.115.077.263 0 .333s-.243 0-.333-.09a8.12 8.12 0 0 1-.954-1.043 3.31 3.31 0 0 0-.563-.518 6.25 6.25 0 0 1-.608-.359c-.23-.198-.173-.454-.186-.697z"/><path id="o" d="M93.952 254.208c-.617-.47-1.258-.908-1.92-1.312 0 0 4.166 2.31 5.85 1.28 1.082-.672.563-1.491.538-1.754s2.65-1.388 3.706-1.504l.691.333c3.539 1.498 4.141 2.221 3.379 3.469-.64 1.011-2.56 1.798-5.651 1.798a13.43 13.43 0 0 1-6.592-2.31z"/><path id="p" d="M67.84 245.696c-.582.096-.467 2.675-.525 5.274-.058 2.784-.838 4-.909 6.284-.083 2.612.192 3.751 1.357 5.216s4.858 2.676 6.342.288c1.216-1.952 1.05-3.974.64-6.534-.405-2.161-.689-4.342-.851-6.534-.102-1.92-.16-3.84-.698-3.994v.934c0 .295.051 1.28-.275 1.28a3.92 3.92 0 0 1-.09-.729c.007-.111-.01-.222-.05-.326s-.101-.198-.181-.276c-.199-.138-.436-.209-.678-.205l-1.773-.089c-.294 0-.589 0-.883.045-.252.019-.5.075-.736.166-.067.025-.127.064-.177.115s-.088.112-.111.179c-.016.098-.016.197 0 .295a1.68 1.68 0 0 1 0 .537c0 .077-.058.173-.147.16s-.102-.083-.109-.14c-.038-.314 0-.544-.045-.909v-.563c0-.167-.102-.308-.102-.474z"/><path id="q" d="M66.464 256.512c0 .378-.09 2.867.698 3.245s1.075-1.568 1.075-1.568c1.534-.426 3.16-.377 4.666.141-.096.416.467 1.689 1.184 1.344s.698-3.2.698-3.2c.384 2.451.506 4.416-.64 6.31-1.485 2.387-5.178 1.178-6.342-.288s-1.44-2.605-1.357-5.216c-.026-.282-.006-.531.019-.768z"/><path id="r" d="M71.398 166.4c-1.459 3.36-2.408 6.919-2.816 10.56-1.018 13.242-1.53 32.474-1.53 32.474-.122 1.388-.998 4.531-1.587 10.624-.698 7.193 1.242 31.36 1.242 31.36s4.307 2.56 7.68-.352l4.8-40.692c.787-6.246 2.989-19.756 2.989-19.756l1.664 20.678s-.237 5.619-.07 9.254c.192 4.224 2.259 25.063 2.259 25.063s5.92 2.003 8.563-.839l.717-34.944c.173-9.971-.346-28.563-.698-38.694L71.398 166.4z"/><path id="s" d="M85.76 135.264c5.12-.435 7.36.288 9.318 2.362 1.37 1.452 9.76 12.665 9.76 12.665s-.352 2.215-6.585 5.536l-6.842-7.987-5.651-12.576z"/><path id="t" d="M77.741 135.501c-1.158.281-5.286.281-8.006 1.248-1.478.525-1.811 2.368-1.99 4.48-.39 4.525.314 13.011.314 13.011L68 175.891c3.75 2.727 19.155 4.115 27.046-1.645l-.966-29.792c0-4.012-2.227-8.832-8.384-9.19l-7.955.237z"/><path id="u" d="M76.282 136.07c-1.05.224-1.338 4.66-1.082 10.029.045.883.102 1.587.083 1.92h-.595c0-.32 0-1.011-.083-1.875-.269-4.25-.301-10.413 1.549-10.694a2.62 2.62 0 0 1 .749-.071v.64l-.621.051z"/><path id="v" d="M78.042 154.074h-.352a.15.15 0 0 1-.092-.05c-.024-.027-.036-.062-.036-.098.104-.791.067-1.595-.109-2.374-.64-1.51-1.92-3.411-2.458-3.386s-1.677 2.023-2.17 3.584a7.12 7.12 0 0 0 .096 2.375.14.14 0 0 1-.025.103c-.022.03-.054.05-.09.057l-.346.051c-.036.006-.074-.003-.104-.025s-.05-.054-.056-.09a7.1 7.1 0 0 1-.07-2.663c.262-.832 1.498-3.968 2.739-4.019s2.733 2.963 3.066 3.776a7.04 7.04 0 0 1 .154 2.65c-.008.032-.026.061-.053.081s-.06.03-.094.028z"/><path id="w" d="M84.774 134.784c.947.128 3.84 1.562 5.235 5.888s1.28 11.104 1.28 12.998-.173 3.316-.173 3.316h-.678l.122-3.623c.096-5.325-.237-9.869-1.28-12.608-1.28-3.277-2.72-4.326-4.48-5.158l-.026-.813z"/><path id="x" d="M72.467 136.102c-3.437.359-6.528.25-8.23 3.437-1.92 3.597-6.202 16.64-6.202 16.64 1.152 1.27 2.548 2.295 4.105 3.013s3.243 1.115 4.957 1.166l4.134-11.577s2.726-7.693 1.235-12.679z"/><path id="y" d="M193.152 241.21H171.27l-.409-13.101h-21.722l-.409 13.101h-21.844l-.435 4.985v9.005h21.837l-.41 4.09v9.011h24.244v-9.011l-.41-4.09h21.837v-9.011l-.397-4.979z"/></defs></svg>