<svg width="50" height="51" viewBox="0 0 50 51" fill="none" xmlns="http://www.w3.org/2000/svg">
<path d="M44.166 17.8939H33.022V14.2121C33.022 13.7878 32.6811 13.4545 32.2644 13.4545H31.075C31.3705 12.7197 31.5296 11.9393 31.5296 11.1363C31.5296 7.78026 28.8023 5.04541 25.4538 5.04541C22.1054 5.04541 19.3781 7.78026 19.3781 11.1363C19.3781 11.9393 19.5372 12.7197 19.8326 13.4545H18.6432C18.2266 13.4545 17.8857 13.7878 17.8857 14.2121V17.8939H6.74171C4.52959 17.8939 2.72656 19.6893 2.72656 21.909V43.1287C2.72656 45.3484 4.52959 47.1515 6.74171 47.1515H44.166C46.3781 47.1515 48.1811 45.3484 48.1811 43.1287V21.909C48.1811 19.6893 46.3781 17.8939 44.166 17.8939ZM35.0599 22.6136C38.3326 22.6136 40.9917 25.2803 40.9917 28.5606C40.9917 31.8409 38.3326 34.5075 35.0599 34.5075C31.7872 34.5075 29.1205 31.8409 29.1205 28.5606C29.1205 25.2803 31.7872 22.6136 35.0599 22.6136ZM15.0826 22.6136C17.8402 22.6136 20.0902 24.8636 20.0902 27.6363C20.0902 30.4015 17.8402 32.6515 15.0826 32.6515C12.3175 32.6515 10.0675 30.4015 10.0675 27.6363C10.0675 24.8636 12.3175 22.6136 15.0826 22.6136ZM21.5902 42.4242H8.56747C8.1508 42.4242 7.8099 42.0909 7.8099 41.6666C7.8099 37.6515 11.075 34.3787 15.0826 34.3787C19.0902 34.3787 22.3478 37.6515 22.3478 41.6666C22.3478 42.0909 22.0069 42.4242 21.5902 42.4242ZM22.6735 11.1363C22.6735 9.60602 23.9235 8.35602 25.4538 8.35602C26.9841 8.35602 28.2341 9.60602 28.2341 11.1363C28.2341 12.6742 26.9841 13.9242 25.4538 13.9242C23.9235 13.9242 22.6735 12.6742 22.6735 11.1363ZM42.3402 42.4242H27.7796C27.3554 42.4242 27.022 42.0909 27.022 41.6666C27.022 41.25 27.3554 40.909 27.7796 40.909H42.3402C42.7569 40.909 43.0978 41.25 43.0978 41.6666C43.0978 42.0909 42.7569 42.4242 42.3402 42.4242ZM42.3402 38.7727H27.7796C27.3554 38.7727 27.022 38.4318 27.022 38.0151C27.022 37.5984 27.3554 37.2575 27.7796 37.2575H42.3402C42.7569 37.2575 43.0978 37.5984 43.0978 38.0151C43.0978 38.4318 42.7569 38.7727 42.3402 38.7727Z" fill="#0059A0"/>
<path d="M39.4737 28.5606C39.4737 26.1136 37.4889 24.1288 35.0571 24.1288C32.6177 24.1288 30.6328 26.1136 30.6328 28.5606C30.6328 31.0076 32.6177 32.9924 35.0571 32.9924C37.4889 32.9924 39.4737 31.0076 39.4737 28.5606ZM34.2995 30.4318V29.3182H33.1858C32.7692 29.3182 32.4283 28.9773 32.4283 28.5606C32.4283 28.1439 32.7692 27.803 33.1858 27.803H34.2995V26.6894C34.2995 26.2727 34.6328 25.9318 35.0571 25.9318C35.4737 25.9318 35.8146 26.2727 35.8146 26.6894V27.803H36.9207C37.3374 27.803 37.6783 28.1439 37.6783 28.5606C37.6783 28.9773 37.3374 29.3182 36.9207 29.3182H35.8146V30.4318C35.8146 30.8485 35.4737 31.1894 35.0571 31.1894C34.6328 31.1894 34.2995 30.8485 34.2995 30.4318Z" fill="#0059A0"/>
</svg>
