<svg width="24" height="25" viewBox="0 0 24 25" fill="none" xmlns="http://www.w3.org/2000/svg">
<mask id="mask0_988_34980" style="mask-type:alpha" maskUnits="userSpaceOnUse" x="0" y="0" width="24" height="25">
<rect y="0.5" width="24" height="24" fill="#D9D9D9"/>
</mask>
<g mask="url(#mask0_988_34980)">
<path d="M18.95 22.5C16.8667 22.5 14.8083 22.0458 12.775 21.1375C10.7417 20.2292 8.89167 18.9417 7.225 17.275C5.55833 15.6083 4.27083 13.7583 3.3625 11.725C2.45417 9.69167 2 7.63333 2 5.55C2 5.25 2.1 5 2.3 4.8C2.5 4.6 2.75 4.5 3.05 4.5H7.1C7.33333 4.5 7.54167 4.57917 7.725 4.7375C7.90833 4.89583 8.01667 5.08333 8.05 5.3L8.7 8.8C8.73333 9.06667 8.725 9.29167 8.675 9.475C8.625 9.65833 8.53333 9.81667 8.4 9.95L5.975 12.4C6.30833 13.0167 6.70417 13.6125 7.1625 14.1875C7.62083 14.7625 8.125 15.3167 8.675 15.85C9.19167 16.3667 9.73333 16.8458 10.3 17.2875C10.8667 17.7292 11.4667 18.1333 12.1 18.5L14.45 16.15C14.6 16 14.7958 15.8875 15.0375 15.8125C15.2792 15.7375 15.5167 15.7167 15.75 15.75L19.2 16.45C19.4333 16.5167 19.625 16.6375 19.775 16.8125C19.925 16.9875 20 17.1833 20 17.4V21.45C20 21.75 19.9 22 19.7 22.2C19.5 22.4 19.25 22.5 18.95 22.5ZM5.025 10.5L6.675 8.85L6.25 6.5H4.025C4.10833 7.18333 4.225 7.85833 4.375 8.525C4.525 9.19167 4.74167 9.85 5.025 10.5ZM13.975 19.45C14.625 19.7333 15.2875 19.9583 15.9625 20.125C16.6375 20.2917 17.3167 20.4 18 20.45V18.25L15.65 17.775L13.975 19.45ZM17 12.5C15.6167 12.5 14.4375 12.0125 13.4625 11.0375C12.4875 10.0625 12 8.88333 12 7.5C12 6.11667 12.4875 4.9375 13.4625 3.9625C14.4375 2.9875 15.6167 2.5 17 2.5C18.3833 2.5 19.5625 2.9875 20.5375 3.9625C21.5125 4.9375 22 6.11667 22 7.5C22 8.88333 21.5125 10.0625 20.5375 11.0375C19.5625 12.0125 18.3833 12.5 17 12.5ZM16.5 10.5H17.5V6.5H16.5V10.5ZM17 5.5C17.1333 5.5 17.25 5.45 17.35 5.35C17.45 5.25 17.5 5.13333 17.5 5C17.5 4.86667 17.45 4.75 17.35 4.65C17.25 4.55 17.1333 4.5 17 4.5C16.8667 4.5 16.75 4.55 16.65 4.65C16.55 4.75 16.5 4.86667 16.5 5C16.5 5.13333 16.55 5.25 16.65 5.35C16.75 5.45 16.8667 5.5 17 5.5Z" fill="#0059A0"/>
</g>
</svg>
