<svg width="36" height="36" viewBox="0 0 36 36" fill="none" xmlns="http://www.w3.org/2000/svg">
<rect width="36" height="36" rx="8" fill="#318AD1"/>
<g clip-path="url(#clip0_988_33467)">
<path fill-rule="evenodd" clip-rule="evenodd" d="M18 5.39488L18.727 4.87417C18.6442 4.7587 18.535 4.66462 18.4086 4.59972C18.2822 4.53483 18.1421 4.50098 18 4.50098C17.8579 4.50098 17.7178 4.53483 17.5913 4.59972C17.4649 4.66462 17.3558 4.7587 17.2729 4.87417L18 5.39488ZM18 5.39488L17.2729 4.87417L17.269 4.87802L17.2594 4.8896L17.2285 4.93588C17.0472 5.19031 16.8698 5.44749 16.6963 5.70731C16.2605 6.35679 15.8412 7.01722 15.4388 7.68795C14.9649 8.46563 14.5373 9.2706 14.1583 10.0987C13.8188 10.8605 13.5218 11.7013 13.5218 12.4091C13.5218 13.626 13.9847 14.8005 14.8198 15.6703C15.6548 16.5401 16.8004 17.0396 18 17.0396C19.1995 17.0396 20.3432 16.542 21.1802 15.6703C22.0172 14.7986 22.4781 13.626 22.4781 12.411C22.4781 11.7013 22.1811 10.8605 21.8417 10.0967C21.4626 9.26867 21.035 8.4637 20.5611 7.68602C19.9986 6.7482 19.4016 5.83151 18.7714 4.93781L18.7405 4.8896L18.7309 4.87802L18.729 4.8761L18 5.39681V5.39488ZM4.49998 14.3589V23.4733C4.50019 24.4962 4.90671 25.4771 5.63012 26.2003L9.85562 30.4258V31.5H16.2835V25.9573C16.2837 25.395 16.173 24.8382 15.9579 24.3187C15.7428 23.7992 15.4275 23.3271 15.03 22.9295L12.2567 20.1562L12.249 20.1485C11.9436 19.8944 11.5519 19.768 11.1556 19.7954C10.7593 19.8229 10.3888 20.0022 10.1214 20.296C9.85398 20.5898 9.71017 20.9754 9.71994 21.3725C9.7297 21.7697 9.89229 22.1477 10.1738 22.428L11.9481 24.2023C12.0402 24.2913 12.1137 24.3977 12.1642 24.5153C12.2148 24.633 12.2414 24.7595 12.2425 24.8875C12.2436 25.0156 12.2192 25.1425 12.1707 25.2611C12.1222 25.3796 12.0506 25.4872 11.9601 25.5778C11.8695 25.6683 11.7619 25.7399 11.6434 25.7884C11.5249 25.8369 11.3979 25.8613 11.2698 25.8602C11.1418 25.859 11.0153 25.8324 10.8976 25.7819C10.78 25.7314 10.6736 25.6579 10.5846 25.5658L8.81033 23.7915C8.16485 23.1453 7.80004 22.2708 7.79499 21.3574C7.78994 20.4441 8.14504 19.5655 8.78333 18.9122V14.357C8.78333 13.7887 8.55759 13.2437 8.15577 12.8419C7.75394 12.4401 7.20895 12.2143 6.64069 12.2143C6.07243 12.2143 5.52744 12.4401 5.12561 12.8419C4.72379 13.2437 4.49805 13.7887 4.49805 14.357L4.49998 14.3589ZM31.5 23.4733V14.3589C31.5 13.7906 31.2742 13.2456 30.8724 12.8438C30.4706 12.442 29.9256 12.2162 29.3573 12.2162C28.7891 12.2162 28.2441 12.442 27.8423 12.8438C27.4404 13.2456 27.2147 13.7906 27.2147 14.3589V18.9122C27.8542 19.5657 28.21 20.4451 28.2049 21.3594C28.1999 22.2736 27.8343 23.149 27.1877 23.7954L25.4134 25.5677C25.2315 25.7434 24.988 25.8406 24.7351 25.8384C24.4823 25.8362 24.2404 25.7348 24.0617 25.556C23.8829 25.3772 23.7815 25.1354 23.7793 24.8825C23.7771 24.6297 23.8743 24.3861 24.0499 24.2042L25.8242 22.43C26.1106 22.1506 26.2774 21.7709 26.2891 21.3709C26.3009 20.9709 26.1569 20.5821 25.8874 20.2863C25.6179 19.9905 25.2441 19.811 24.8447 19.7857C24.4454 19.7603 24.0519 19.8911 23.7471 20.1504L23.7394 20.1581L20.97 22.9275C20.5722 23.3254 20.2568 23.7978 20.0417 24.3177C19.8266 24.8375 19.716 25.3947 19.7164 25.9573V31.5H26.1424V30.4277L30.3679 26.2003C30.7264 25.8424 31.011 25.4173 31.2052 24.9494C31.3995 24.4815 31.4996 23.9799 31.5 23.4733Z" fill="white"/>
</g>
<defs>
<clipPath id="clip0_988_33467">
<rect width="27" height="27" fill="white" transform="translate(4.5 4.5)"/>
</clipPath>
</defs>
</svg>
