<svg width="24" height="25" viewBox="0 0 24 25" fill="none" xmlns="http://www.w3.org/2000/svg">
<g clip-path="url(#clip0_988_29613)">
<path d="M22 13.1667C21.9123 13.1672 21.8253 13.1504 21.7441 13.1172C21.6629 13.084 21.589 13.0351 21.5267 12.9733L12 3.44001L2.47335 12.9733C2.34582 13.0826 2.18177 13.1396 2.01398 13.1331C1.8462 13.1267 1.68704 13.0571 1.56831 12.9384C1.44958 12.8197 1.38002 12.6605 1.37354 12.4927C1.36706 12.3249 1.42413 12.1609 1.53335 12.0333L11.5334 2.03334C11.6583 1.90917 11.8272 1.83948 12.0034 1.83948C12.1795 1.83948 12.3484 1.90917 12.4734 2.03334L22.4734 12.0333C22.5651 12.1269 22.6272 12.2455 22.6519 12.3742C22.6767 12.5029 22.6629 12.636 22.6124 12.7569C22.5619 12.8779 22.4769 12.9812 22.368 13.0541C22.2591 13.127 22.1311 13.1661 22 13.1667Z" fill="white"/>
<path d="M12 5.69336L4 13.72V21.8334C4 22.187 4.14048 22.5261 4.39052 22.7762C4.64057 23.0262 4.97971 23.1667 5.33333 23.1667H10V16.5H14V23.1667H18.6667C19.0203 23.1667 19.3594 23.0262 19.6095 22.7762C19.8595 22.5261 20 22.187 20 21.8334V13.6734L12 5.69336Z" fill="white"/>
</g>
<defs>
<clipPath id="clip0_988_29613">
<rect width="24" height="24" fill="white" transform="translate(0 0.5)"/>
</clipPath>
</defs>
</svg>
