<svg width="36" height="36" viewBox="0 0 36 36" fill="none" xmlns="http://www.w3.org/2000/svg">
<rect width="36" height="36" rx="8" fill="#318AD1"/>
<path d="M27.8178 18.9082C27.8191 18.2284 27.6298 17.5619 27.2712 16.9844C26.9126 16.4069 26.3992 15.9417 25.7893 15.6415C25.1794 15.3413 24.4975 15.2182 23.8212 15.2863C23.1449 15.3544 22.5012 15.6109 21.9634 16.0266C21.4256 16.4423 21.0152 17.0006 20.7789 17.638C20.5426 18.2753 20.4898 18.9662 20.6267 19.632C20.7635 20.2979 21.0844 20.912 21.5529 21.4045C22.0214 21.897 22.6187 22.2482 23.2768 22.4182V23.4491C23.2768 24.6566 22.7971 25.8148 21.9433 26.6687C21.0894 27.5225 19.9312 28.0022 18.7237 28.0022C17.5161 28.0022 16.358 27.5225 15.5041 26.6687C14.6502 25.8148 14.1705 24.6566 14.1705 23.4491C14.2161 22.365 14.4811 21.3015 14.9494 20.3227C15.4177 19.3439 16.0796 18.4703 16.895 17.7545H16.7723C17.6402 17.1883 18.3559 16.4178 18.8566 15.5105C19.3573 14.6033 19.6277 13.587 19.6441 12.5509V8.89361C19.6441 8.17102 19.3571 7.47802 18.8461 6.96707C18.3352 6.45612 17.6422 6.16907 16.9196 6.16907H15.545C15.3042 6.16907 15.0732 6.26475 14.9029 6.43507C14.7325 6.60538 14.6369 6.83638 14.6369 7.07725C14.6369 7.31811 14.7325 7.54911 14.9029 7.71943C15.0732 7.88975 15.3042 7.98543 15.545 7.98543H16.895C17.1359 7.98543 17.3669 8.08111 17.5372 8.25143C17.7075 8.42175 17.8032 8.65275 17.8032 8.89361V12.5509C17.8032 13.751 17.3282 14.9023 16.4819 15.7531C15.6356 16.604 14.4869 17.0853 13.2869 17.0918C12.6905 17.095 12.0994 16.9808 11.5472 16.7555C10.9951 16.5303 10.4927 16.1986 10.0687 15.7792C9.64479 15.3598 9.3076 14.861 9.07643 14.3113C8.84525 13.7616 8.72461 13.1718 8.7214 12.5754V8.89361C8.7214 8.65275 8.81708 8.42175 8.9874 8.25143C9.15771 8.08111 9.38871 7.98543 9.62958 7.98543H10.9059C11.1468 7.98543 11.3778 7.88975 11.5481 7.71943C11.7184 7.54911 11.8141 7.31811 11.8141 7.07725C11.8141 6.83638 11.7184 6.60538 11.5481 6.43507C11.3778 6.26475 11.1468 6.16907 10.9059 6.16907H9.62958C8.91552 6.18194 8.23507 6.47466 7.73469 6.98422C7.23431 7.49378 6.95401 8.17944 6.95412 8.89361V12.5509C6.95147 13.5716 7.1956 14.5779 7.66572 15.4839C8.13584 16.39 8.81802 17.169 9.65412 17.7545C10.4651 18.4724 11.1224 19.3471 11.5864 20.3257C12.0504 21.3044 12.3116 22.3668 12.3541 23.4491C12.3541 24.2855 12.5189 25.1138 12.839 25.8866C13.1591 26.6594 13.6283 27.3615 14.2197 27.953C14.8112 28.5445 15.5134 29.0137 16.2861 29.3338C17.0589 29.6539 17.8872 29.8186 18.7237 29.8186C19.5601 29.8186 20.3884 29.6539 21.1612 29.3338C21.934 29.0137 22.6361 28.5445 23.2276 27.953C23.8191 27.3615 24.2883 26.6594 24.6084 25.8866C24.9285 25.1138 25.0932 24.2855 25.0932 23.4491V22.4182C25.8718 22.2171 26.5616 21.7635 27.0547 21.1283C27.5478 20.4931 27.8161 19.7123 27.8178 18.9082ZM24.1359 20.7245C23.7767 20.7245 23.4255 20.618 23.1268 20.4184C22.8281 20.2188 22.5953 19.9351 22.4578 19.6033C22.3204 19.2714 22.2844 18.9061 22.3545 18.5538C22.4246 18.2015 22.5976 17.8778 22.8516 17.6238C23.1056 17.3698 23.4292 17.1968 23.7816 17.1267C24.1339 17.0566 24.4991 17.0926 24.831 17.2301C25.1629 17.3675 25.4466 17.6003 25.6462 17.899C25.8458 18.1977 25.9523 18.5489 25.9523 18.9082C25.9523 19.1467 25.9053 19.3829 25.814 19.6033C25.7228 19.8236 25.589 20.0239 25.4203 20.1925C25.2516 20.3612 25.0514 20.495 24.831 20.5863C24.6107 20.6775 24.3745 20.7245 24.1359 20.7245Z" fill="white"/>
</svg>
