<svg width="14" height="15" viewBox="0 0 14 15" fill="none" xmlns="http://www.w3.org/2000/svg">
<path d="M6.42959 1.66663H5.26292C5.10821 1.66663 4.95984 1.72808 4.85044 1.83748C4.74104 1.94688 4.67959 2.09525 4.67959 2.24996C4.67959 2.40467 4.74104 2.55304 4.85044 2.66244C4.95984 2.77183 5.10821 2.83329 5.26292 2.83329V3.99996H4.57225C4.64096 3.81304 4.67726 3.61576 4.67959 3.41663C4.67957 3.03141 4.55245 2.65695 4.31793 2.35134C4.08342 2.04573 3.75462 1.82604 3.38252 1.72633C3.01043 1.62663 2.61584 1.65249 2.25993 1.7999C1.90403 1.9473 1.60671 2.20802 1.41409 2.54163C1.37518 2.60799 1.34978 2.6814 1.33936 2.75762C1.32894 2.83384 1.3337 2.91137 1.35336 2.98574C1.37302 3.06012 1.40721 3.12987 1.45394 3.19098C1.50067 3.25209 1.55902 3.30336 1.62564 3.34182C1.69227 3.38029 1.76584 3.40519 1.84213 3.41511C1.91842 3.42503 1.99591 3.41975 2.07016 3.3996C2.1444 3.37944 2.21392 3.3448 2.27472 3.29767C2.33552 3.25053 2.3864 3.19184 2.42442 3.12496C2.47562 3.03628 2.54925 2.96265 2.63793 2.91145C2.7266 2.86025 2.82719 2.8333 2.92959 2.83329C3.0843 2.83329 3.23267 2.89475 3.34206 3.00415C3.45146 3.11354 3.51292 3.26192 3.51292 3.41663C3.51292 3.57134 3.45146 3.71971 3.34206 3.8291C3.23267 3.9385 3.0843 3.99996 2.92959 3.99996C2.77488 3.99996 2.6265 4.06142 2.51711 4.17081C2.40771 4.28021 2.34625 4.42858 2.34625 4.58329C2.34625 4.738 2.40771 4.88638 2.51711 4.99577C2.6265 5.10517 2.77488 5.16663 2.92959 5.16663C3.0843 5.16663 3.23267 5.22808 3.34206 5.33748C3.45146 5.44688 3.51292 5.59525 3.51292 5.74996C3.51292 5.90467 3.45146 6.05304 3.34206 6.16244C3.23267 6.27183 3.0843 6.33329 2.92959 6.33329C2.82719 6.33329 2.7266 6.30633 2.63793 6.25514C2.54925 6.20394 2.47562 6.1303 2.42442 6.04163C2.3864 5.97475 2.33552 5.91605 2.27472 5.86892C2.21392 5.82179 2.1444 5.78714 2.07016 5.76699C1.99591 5.74683 1.91842 5.74156 1.84213 5.75147C1.76584 5.76139 1.69227 5.7863 1.62564 5.82476C1.55902 5.86323 1.50067 5.91449 1.45394 5.9756C1.40721 6.03672 1.37302 6.10647 1.35336 6.18084C1.3337 6.25522 1.32894 6.33274 1.33936 6.40897C1.34978 6.48519 1.37518 6.55859 1.41409 6.62496C1.60671 6.95856 1.90403 7.21928 2.25993 7.36669C2.61584 7.5141 3.01043 7.53995 3.38252 7.44025C3.75462 7.34055 4.08342 7.12085 4.31793 6.81524C4.55245 6.50963 4.67957 6.13518 4.67959 5.74996C4.67726 5.55082 4.64096 5.35355 4.57225 5.16663H5.26292V6.91663C5.26292 7.07134 5.32438 7.21971 5.43377 7.3291C5.54317 7.4385 5.69154 7.49996 5.84625 7.49996C6.00096 7.49996 6.14934 7.4385 6.25873 7.3291C6.36813 7.21971 6.42959 7.07134 6.42959 6.91663V2.83329C6.5843 2.83329 6.73267 2.77183 6.84206 2.66244C6.95146 2.55304 7.01292 2.40467 7.01292 2.24996C7.01292 2.09525 6.95146 1.94688 6.84206 1.83748C6.73267 1.72808 6.5843 1.66663 6.42959 1.66663ZM8.17959 4.58329H8.76292C8.91763 4.58329 9.066 4.64475 9.1754 4.75415C9.28479 4.86354 9.34625 5.01192 9.34625 5.16663V5.74996C9.34625 5.90467 9.40771 6.05304 9.51711 6.16244C9.6265 6.27183 9.77488 6.33329 9.92959 6.33329C10.0843 6.33329 10.2327 6.27183 10.3421 6.16244C10.4515 6.05304 10.5129 5.90467 10.5129 5.74996V5.16663C10.5125 4.70264 10.3279 4.25779 9.99984 3.9297C9.67176 3.60161 9.22691 3.41709 8.76292 3.41663H8.17959C8.02488 3.41663 7.8765 3.47808 7.76711 3.58748C7.65771 3.69688 7.59625 3.84525 7.59625 3.99996C7.59625 4.15467 7.65771 4.30304 7.76711 4.41244C7.8765 4.52183 8.02488 4.58329 8.17959 4.58329ZM5.84625 9.83329H5.26292C5.10821 9.83329 4.95984 9.77183 4.85044 9.66244C4.74104 9.55304 4.67959 9.40467 4.67959 9.24996V8.66663C4.67959 8.51192 4.61813 8.36354 4.50873 8.25415C4.39934 8.14475 4.25096 8.08329 4.09625 8.08329C3.94154 8.08329 3.79317 8.14475 3.68377 8.25415C3.57438 8.36354 3.51292 8.51192 3.51292 8.66663V9.24996C3.51338 9.71395 3.69791 10.1588 4.02599 10.4869C4.35408 10.815 4.79893 10.9995 5.26292 11H5.84625C6.00096 11 6.14934 10.9385 6.25873 10.8291C6.36813 10.7197 6.42959 10.5713 6.42959 10.4166C6.42959 10.2619 6.36813 10.1135 6.25873 10.0041C6.14934 9.89475 6.00096 9.83329 5.84625 9.83329ZM12.2629 9.24996C12.4176 9.24996 12.566 9.1885 12.6754 9.0791C12.7848 8.96971 12.8463 8.82134 12.8463 8.66663C12.8463 8.51192 12.7848 8.36354 12.6754 8.25415C12.566 8.14475 12.4176 8.08329 12.2629 8.08329H10.5129V7.79163C10.5129 7.63692 10.4515 7.48854 10.3421 7.37915C10.2327 7.26975 10.0843 7.20829 9.92959 7.20829C9.77488 7.20829 9.6265 7.26975 9.51711 7.37915C9.40771 7.48854 9.34625 7.63692 9.34625 7.79163V8.08329H7.59625C7.44154 8.08329 7.29317 8.14475 7.18377 8.25415C7.07438 8.36354 7.01292 8.51192 7.01292 8.66663C7.01292 8.82134 7.07438 8.96971 7.18377 9.0791C7.29317 9.1885 7.44154 9.24996 7.59625 9.24996H10.6203C10.4889 9.78628 10.2453 10.2887 9.90567 10.724C9.76672 10.544 9.64375 10.3521 9.53817 10.1506C9.50461 10.0802 9.45726 10.0172 9.39891 9.96534C9.34057 9.91351 9.27242 9.87392 9.1985 9.8489C9.12458 9.82389 9.04639 9.81396 8.96856 9.81971C8.89073 9.82546 8.81485 9.84676 8.7454 9.88236C8.67596 9.91796 8.61436 9.96714 8.56426 10.027C8.51416 10.0868 8.47658 10.1561 8.45374 10.2307C8.43089 10.3053 8.42325 10.3838 8.43127 10.4614C8.43929 10.539 8.4628 10.6143 8.50042 10.6826C8.65776 10.9862 8.84538 11.2731 9.06042 11.539C8.63716 11.8466 8.15564 12.0647 7.64525 12.18C7.4941 12.2131 7.36226 12.3048 7.27874 12.435C7.19521 12.5653 7.16685 12.7233 7.19988 12.8745C7.23291 13.0257 7.32463 13.1575 7.45487 13.241C7.5851 13.3245 7.74318 13.3529 7.89434 13.3199C8.62648 13.1586 9.31317 12.8353 9.90392 12.3737C10.4998 12.8355 11.1911 13.1587 11.9275 13.3199C12.0787 13.3531 12.2368 13.325 12.3672 13.2416C12.4976 13.1583 12.5896 13.0265 12.6228 12.8754C12.6561 12.7242 12.628 12.5661 12.5446 12.4357C12.4612 12.3053 12.3295 12.2133 12.1783 12.18C11.6648 12.0663 11.1795 11.85 10.7515 11.5442C11.2909 10.8803 11.6546 10.0913 11.8091 9.24996H12.2629Z" fill="#787878"/>
</svg>
