<svg width="80" height="80" viewBox="0 0 80 80" fill="none" xmlns="http://www.w3.org/2000/svg">
<g filter="url(#filter0_d_1632_7689)">
<path d="M24 32C24 23.1634 31.1634 16 40 16C48.8366 16 56 23.1634 56 32C56 40.8366 48.8366 48 40 48C31.1634 48 24 40.8366 24 32Z" fill="#318AD1" shape-rendering="crispEdges"/>
<path fill-rule="evenodd" clip-rule="evenodd" d="M40 24.5C36.7783 24.5 34.1667 27.1117 34.1667 30.3334C34.1667 31.9101 34.8776 33.3984 36.0769 34.9556C37.0895 36.2705 38.3856 37.5561 39.7769 38.9361C39.851 39.0096 39.9254 39.0834 40 39.1575C40.0746 39.0834 40.149 39.0096 40.2231 38.9361C41.6144 37.5561 42.9105 36.2705 43.9231 34.9556C45.1224 33.3984 45.8333 31.9101 45.8333 30.3334C45.8333 27.1117 43.2217 24.5 40 24.5ZM32.5 30.3334C32.5 26.1912 35.8579 22.8334 40 22.8334C44.1421 22.8334 47.5 26.1912 47.5 30.3334C47.5 32.4385 46.5443 34.2836 45.2436 35.9726C44.1566 37.3839 42.7654 38.763 41.3757 40.1408C41.1128 40.4014 40.85 40.6619 40.5893 40.9226C40.2638 41.2481 39.7362 41.2481 39.4107 40.9226C39.15 40.6619 38.8872 40.4014 38.6243 40.1407C37.2346 38.763 35.8434 37.3839 34.7564 35.9726C33.4557 34.2836 32.5 32.4385 32.5 30.3334ZM40 28.6667C39.0795 28.6667 38.3333 29.4129 38.3333 30.3334C38.3333 31.2538 39.0795 32 40 32C40.9205 32 41.6667 31.2538 41.6667 30.3334C41.6667 29.4129 40.9205 28.6667 40 28.6667ZM36.6667 30.3334C36.6667 28.4924 38.1591 27 40 27C41.8409 27 43.3333 28.4924 43.3333 30.3334C43.3333 32.1743 41.8409 33.6667 40 33.6667C38.1591 33.6667 36.6667 32.1743 36.6667 30.3334Z" fill="white"/>
</g>
<defs>
<filter id="filter0_d_1632_7689" x="0" y="0" width="80" height="80" filterUnits="userSpaceOnUse" color-interpolation-filters="sRGB">
<feFlood flood-opacity="0" result="BackgroundImageFix"/>
<feColorMatrix in="SourceAlpha" type="matrix" values="0 0 0 0 0 0 0 0 0 0 0 0 0 0 0 0 0 0 127 0" result="hardAlpha"/>
<feOffset dy="8"/>
<feGaussianBlur stdDeviation="12"/>
<feComposite in2="hardAlpha" operator="out"/>
<feColorMatrix type="matrix" values="0 0 0 0 0 0 0 0 0 0 0 0 0 0 0 0 0 0 0.08 0"/>
<feBlend mode="normal" in2="BackgroundImageFix" result="effect1_dropShadow_1632_7689"/>
<feBlend mode="normal" in="SourceGraphic" in2="effect1_dropShadow_1632_7689" result="shape"/>
</filter>
</defs>
</svg>
