<svg width="30" height="30" viewBox="0 0 30 30" fill="none" xmlns="http://www.w3.org/2000/svg">
<path d="M15 26.6562C14.7083 26.6562 14.4167 26.6042 14.125 26.5C13.8333 26.3958 13.5729 26.2396 13.3438 26.0312C11.9896 24.7812 10.7917 23.5625 9.75 22.375C8.70833 21.1875 7.83875 20.0367 7.14125 18.9225C6.44375 17.8083 5.9125 16.7354 5.5475 15.7037C5.1825 14.6721 5 13.6875 5 12.75C5 9.625 6.00542 7.13542 8.01625 5.28125C10.0271 3.42708 12.355 2.5 15 2.5C17.645 2.5 19.9733 3.42708 21.985 5.28125C23.9967 7.13542 25.0017 9.625 25 12.75C25 13.6875 24.8179 14.6721 24.4538 15.7037C24.0896 16.7354 23.5583 17.8083 22.86 18.9225C22.1617 20.0367 21.2917 21.1875 20.25 22.375C19.2083 23.5625 18.0104 24.7812 16.6562 26.0312C16.4271 26.2396 16.1667 26.3958 15.875 26.5C15.5833 26.6042 15.2917 26.6562 15 26.6562ZM15 15C15.6875 15 16.2762 14.7554 16.7663 14.2663C17.2563 13.7771 17.5008 13.1883 17.5 12.5C17.4992 11.8117 17.2546 11.2233 16.7663 10.735C16.2779 10.2467 15.6892 10.0017 15 10C14.3108 9.99833 13.7225 10.2433 13.235 10.735C12.7475 11.2267 12.5025 11.815 12.5 12.5C12.4975 13.185 12.7425 13.7738 13.235 14.2663C13.7275 14.7587 14.3158 15.0033 15 15Z" fill="#318AD1"/>
</svg>
