<svg width="36" height="37" viewBox="0 0 36 37" fill="none" xmlns="http://www.w3.org/2000/svg">
<path d="M33.7686 18.5L35.7581 14.9659C35.9972 14.5407 36.0623 14.0353 35.9389 13.5609C35.8156 13.0864 35.5139 12.6817 35.1003 12.4358L31.6583 10.3909V6.31604C31.6583 5.8248 31.4685 5.35368 31.1305 5.00632C30.7925 4.65896 30.3342 4.46381 29.8562 4.46381H25.8934L23.9057 0.927914C23.6656 0.5036 23.2726 0.193517 22.8118 0.0647769C22.5832 0.00108983 22.3446 -0.0153322 22.1098 0.0164627C21.875 0.0482576 21.6487 0.127637 21.444 0.25L18.002 2.29486L14.5599 0.248147C14.146 0.00253788 13.6541 -0.0640211 13.1925 0.0631117C12.7308 0.190244 12.3372 0.500656 12.0983 0.926062L10.1087 4.46381H6.14589C5.66794 4.46381 5.20957 4.65896 4.87161 5.00632C4.53365 5.35368 4.34378 5.8248 4.34378 6.31604V10.3891L0.901757 12.4339C0.696375 12.5554 0.51636 12.7173 0.372054 12.9104C0.227749 13.1036 0.121997 13.3241 0.0608744 13.5594C-0.000247952 13.7947 -0.015536 14.0401 0.0158886 14.2815C0.0473131 14.5228 0.124831 14.7554 0.243988 14.9659L2.23351 18.5L0.243988 22.034C0.00608978 22.4596 -0.0584559 22.9646 0.0644234 23.4389C0.187303 23.9132 0.487641 24.3184 0.899955 24.566L4.34198 26.6109V30.6839C4.34198 31.1751 4.53184 31.6463 4.86981 31.9936C5.20777 32.341 5.66614 32.5361 6.14409 32.5361H10.1087L12.0983 36.0739C12.2578 36.3542 12.4856 36.587 12.7592 36.7494C13.0329 36.9118 13.3429 36.9981 13.6589 37C13.9724 37 14.2842 36.9148 14.5617 36.75L18.0002 34.7051L21.4422 36.75C21.856 36.9952 22.3475 37.0618 22.809 36.935C23.2705 36.8083 23.6642 36.4986 23.9039 36.0739L25.8916 32.5361H29.8544C30.3324 32.5361 30.7907 32.341 31.1287 31.9936C31.4667 31.6463 31.6565 31.1751 31.6565 30.6839V26.6109L35.0985 24.566C35.3036 24.4442 35.4832 24.2821 35.6273 24.0889C35.7713 23.8957 35.8769 23.6753 35.938 23.4401C35.9991 23.205 36.0145 22.9598 35.9833 22.7185C35.9521 22.4772 35.875 22.2446 35.7563 22.034L33.7686 18.5ZM13.4949 9.22033C14.212 9.22057 14.8997 9.51362 15.4067 10.035C15.9136 10.5564 16.1983 11.2634 16.198 12.0005C16.1978 12.7376 15.9127 13.4444 15.4054 13.9655C14.8981 14.4865 14.2102 14.7791 13.4931 14.7789C12.7759 14.7786 12.0882 14.4856 11.5813 13.9642C11.0743 13.4428 10.7897 12.7358 10.7899 11.9987C10.7902 11.2616 11.0753 10.5547 11.5826 10.0337C12.0898 9.51266 12.7777 9.22008 13.4949 9.22033ZM14.0355 27.0017L11.1521 24.7809L21.9648 9.96307L24.8482 12.1839L14.0355 27.0017ZM22.5054 27.7426C22.1503 27.7425 21.7987 27.6704 21.4707 27.5307C21.1427 27.3909 20.8446 27.1861 20.5936 26.9279C20.3426 26.6697 20.1435 26.3633 20.0077 26.026C19.872 25.6888 19.8021 25.3274 19.8023 24.9624C19.8024 24.5974 19.8724 24.236 20.0084 23.8989C20.1444 23.5617 20.3437 23.2554 20.5949 22.9974C20.8461 22.7394 21.1442 22.5348 21.4724 22.3953C21.8005 22.2557 22.1521 22.1839 22.5072 22.184C23.2244 22.1843 23.9121 22.4773 24.419 22.9987C24.926 23.5201 25.2106 24.2271 25.2104 24.9642C25.2101 25.7013 24.925 26.4082 24.4177 26.9292C23.9105 27.4502 23.2226 27.7428 22.5054 27.7426Z" fill="#A8D9FF"/>
</svg>
