<svg width="37" height="29" viewBox="0 0 37 29" fill="none" xmlns="http://www.w3.org/2000/svg">
<path fill-rule="evenodd" clip-rule="evenodd" d="M0 25.0455C0 27.2284 1.77071 29 3.959 29H33.041C35.2293 29 37 27.2284 37 25.0455V19.6831C37.0003 19.3934 36.9049 19.1118 36.7286 18.8816C36.5524 18.6515 36.305 18.4856 36.0248 18.4097C35.1647 18.1761 34.4056 17.6668 33.8644 16.9602C33.3232 16.2537 33.03 15.3892 33.03 14.5C33.03 13.6108 33.3232 12.7463 33.8644 12.0398C34.4056 11.3332 35.1647 10.8239 36.0248 10.5903C36.305 10.5144 36.5524 10.3485 36.7286 10.1184C36.9049 9.88822 37.0003 9.60655 37 9.31691V3.95455C37 1.77164 35.2293 0 33.041 0H3.959C1.77071 0 0 1.77164 0 3.95455V9.30637C0.000351383 9.59739 0.0972428 9.88013 0.275563 10.1105C0.453883 10.3408 0.703606 10.5058 0.985786 10.5797C1.85496 10.8065 2.62426 11.3142 3.17331 12.0236C3.72237 12.7329 4.0202 13.6038 4.0202 14.5C4.0202 15.3962 3.72237 16.2671 3.17331 16.9764C2.62426 17.6858 1.85496 18.1935 0.985786 18.4203C0.703606 18.4942 0.453883 18.6592 0.275563 18.8895C0.0972428 19.1199 0.000351383 19.4026 0 19.6936L0 25.0455ZM13.1139 22.2562L26.3281 9.07436C26.6231 8.76267 26.7846 8.34861 26.7785 7.92005C26.7724 7.49149 26.5992 7.08216 26.2956 6.77892C25.9919 6.47568 25.5818 6.3024 25.1522 6.29585C24.7226 6.28929 24.3073 6.44998 23.9945 6.74382L10.7802 19.9256C10.6193 20.0768 10.4905 20.2586 10.4013 20.4603C10.3121 20.662 10.2644 20.8796 10.261 21.1C10.2576 21.3204 10.2987 21.5393 10.3816 21.7437C10.4646 21.948 10.5878 22.1337 10.744 22.2897C10.9002 22.4456 11.0861 22.5688 11.2909 22.6518C11.4957 22.7347 11.715 22.7759 11.936 22.7728C12.157 22.7696 12.3751 22.7223 12.5774 22.6336C12.7797 22.5448 12.9622 22.4165 13.1139 22.2562ZM10.6269 9.22727C10.6269 8.52807 10.9054 7.8575 11.401 7.36308C11.8966 6.86867 12.5689 6.59091 13.2698 6.59091C13.9707 6.59091 14.6429 6.86867 15.1386 7.36308C15.6342 7.8575 15.9126 8.52807 15.9126 9.22727C15.9126 9.92648 15.6342 10.597 15.1386 11.0915C14.6429 11.5859 13.9707 11.8636 13.2698 11.8636C12.5689 11.8636 11.8966 11.5859 11.401 11.0915C10.9054 10.597 10.6269 9.92648 10.6269 9.22727ZM21.1984 19.7727C21.1984 19.0735 21.4768 18.403 21.9724 17.9085C22.4681 17.4141 23.1403 17.1364 23.8412 17.1364C24.5421 17.1364 25.2144 17.4141 25.71 17.9085C26.2056 18.403 26.4841 19.0735 26.4841 19.7727C26.4841 20.4719 26.2056 21.1425 25.71 21.6369C25.2144 22.1313 24.5421 22.4091 23.8412 22.4091C23.1403 22.4091 22.4681 22.1313 21.9724 21.6369C21.4768 21.1425 21.1984 20.4719 21.1984 19.7727Z" fill="#A8D9FF"/>
</svg>
