<svg width="24" height="25" viewBox="0 0 24 25" fill="none" xmlns="http://www.w3.org/2000/svg">
<path d="M3.95 23V20.6667H20.05V23H3.95ZM3.95 18.9167L2.48375 9.55417C2.44542 9.55417 2.4021 9.55922 2.3538 9.56933C2.3055 9.57945 2.26257 9.58411 2.225 9.58333C1.74584 9.58333 1.33874 9.413 1.0037 9.07234C0.668669 8.73167 0.500769 8.31867 0.500003 7.83334C0.499236 7.348 0.667136 6.935 1.0037 6.59434C1.34027 6.25367 1.74737 6.08334 2.225 6.08334C2.70263 6.08334 3.11012 6.25367 3.44745 6.59434C3.78478 6.935 3.9523 7.348 3.95 7.83334C3.95 7.96945 3.93543 8.09584 3.9063 8.2125C3.87717 8.32917 3.84382 8.43611 3.80625 8.53334L7.4 10.1667L10.9937 5.17917C10.7829 5.02361 10.6104 4.81945 10.4762 4.56667C10.3421 4.31389 10.275 4.04167 10.275 3.75C10.275 3.26389 10.4429 2.8505 10.7787 2.50984C11.1145 2.16917 11.5216 1.99922 12 2C12.4784 2.00078 12.8859 2.17111 13.2224 2.511C13.559 2.85089 13.7265 3.26389 13.725 3.75C13.725 4.04167 13.6579 4.31389 13.5237 4.56667C13.3896 4.81945 13.2171 5.02361 13.0062 5.17917L16.6 10.1667L20.1937 8.53334C20.1554 8.43611 20.1217 8.32917 20.0925 8.2125C20.0634 8.09584 20.0492 7.96945 20.05 7.83334C20.05 7.34722 20.2179 6.93384 20.5537 6.59317C20.8895 6.2525 21.2966 6.08256 21.775 6.08334C22.2534 6.08411 22.6609 6.25445 22.9974 6.59434C23.334 6.93422 23.5015 7.34722 23.5 7.83334C23.4985 8.31945 23.3309 8.73283 22.9974 9.0735C22.6639 9.41417 22.2565 9.58411 21.775 9.58333C21.7367 9.58333 21.6937 9.57867 21.6462 9.56933C21.5987 9.56 21.5553 9.55495 21.5162 9.55417L20.05 18.9167H3.95Z" fill="#0059A0"/>
</svg>
