<svg width="38" height="28" viewBox="0 0 38 28" fill="none" xmlns="http://www.w3.org/2000/svg">
<path d="M1.71849 16.3188C1.23159 16.3188 0.823733 16.1513 0.494929 15.8165C0.166126 15.4817 0.00115158 15.0658 5.92581e-06 14.5687C-0.00113973 14.0717 0.163835 13.6564 0.494929 13.3228C0.826024 12.9891 1.23388 12.8211 1.71849 12.8187H7.73319C8.22009 12.8187 8.62852 12.9867 8.95847 13.3228C9.28841 13.6587 9.45282 14.0741 9.45167 14.5687C9.45053 15.0634 9.28555 15.4793 8.95675 15.8165C8.62794 16.1537 8.22009 16.3211 7.73319 16.3188H1.71849ZM10.7405 28C9.30846 28 8.0912 27.4896 7.08875 26.4688C6.08631 25.4479 5.58508 24.2083 5.58508 22.75H3.43698C2.86415 22.75 2.40588 22.5312 2.06219 22.0938C1.71849 21.6562 1.61825 21.1604 1.76145 20.6062L2.14811 18.9438H7.51838C8.72132 18.9438 9.73809 18.5208 10.5687 17.675C11.3993 16.8292 11.8146 15.7937 11.8146 14.5687C11.8146 14.1896 11.7716 13.8396 11.6857 13.5188C11.5998 13.1979 11.4852 12.8771 11.342 12.5563H12.9746C14.1775 12.5563 15.1943 12.1333 16.0249 11.2875C16.8555 10.4417 17.2708 9.40625 17.2708 8.18125C17.2708 6.95625 16.8555 5.92083 16.0249 5.075C15.1943 4.22917 14.1775 3.80625 12.9746 3.80625H6.44432L6.7021 2.75625C6.87394 1.93958 7.26805 1.27633 7.88441 0.7665C8.50078 0.256667 9.22369 0.00116667 10.0531 0H27.4958C28.0686 0 28.5268 0.21875 28.8705 0.65625C29.2142 1.09375 29.3145 1.58958 29.1713 2.14375L28.0543 7H31.3624C31.9065 7 32.4221 7.12425 32.909 7.37275C33.3959 7.62125 33.7969 7.96367 34.1119 8.4L37.3341 12.7312C37.6491 13.1396 37.8496 13.5847 37.9356 14.0665C38.0215 14.5483 38.0215 15.0366 37.9356 15.5312L36.7756 21.35C36.6897 21.7583 36.4892 22.0938 36.1741 22.3562C35.8591 22.6187 35.501 22.75 35.1001 22.75H33.0808C33.0808 24.2083 32.5796 25.4479 31.5772 26.4688C30.5747 27.4896 29.3575 28 27.9254 28C26.4933 28 25.2761 27.4896 24.2736 26.4688C23.2712 25.4479 22.7699 24.2083 22.7699 22.75H15.896C15.896 24.2083 15.3948 25.4479 14.3923 26.4688C13.3899 27.4896 12.1726 28 10.7405 28ZM5.15546 9.93125C4.66856 9.93125 4.2607 9.76325 3.9319 9.42725C3.6031 9.09125 3.43812 8.67592 3.43698 8.18125C3.43583 7.68658 3.6008 7.27125 3.9319 6.93525C4.26299 6.59925 4.67085 6.43125 5.15546 6.43125H12.8886C13.3755 6.43125 13.784 6.59925 14.1139 6.93525C14.4439 7.27125 14.6083 7.68658 14.6071 8.18125C14.606 8.67592 14.441 9.09183 14.1122 9.429C13.7834 9.76617 13.3755 9.93358 12.8886 9.93125H5.15546ZM10.7405 24.5C11.2274 24.5 11.6359 24.332 11.9658 23.996C12.2958 23.66 12.4602 23.2447 12.459 22.75C12.4579 22.2553 12.2929 21.84 11.9641 21.504C11.6353 21.168 11.2274 21 10.7405 21C10.2536 21 9.84578 21.168 9.51697 21.504C9.18817 21.84 9.0232 22.2553 9.02205 22.75C9.0209 23.2447 9.18588 23.6606 9.51697 23.9977C9.84807 24.3349 10.2559 24.5023 10.7405 24.5ZM27.9254 24.5C28.4123 24.5 28.8207 24.332 29.1507 23.996C29.4806 23.66 29.645 23.2447 29.6439 22.75C29.6427 22.2553 29.4777 21.84 29.1489 21.504C28.8201 21.168 28.4123 21 27.9254 21C27.4385 21 27.0306 21.168 26.7018 21.504C26.373 21.84 26.208 22.2553 26.2069 22.75C26.2058 23.2447 26.3707 23.6606 26.7018 23.9977C27.0329 24.3349 27.4408 24.5023 27.9254 24.5ZM26.078 15.75H34.3697L34.5415 14.8313L31.3624 10.5H27.281L26.078 15.75Z" fill="#A8D9FF"/>
</svg>
