<svg width="34" height="39" viewBox="0 0 34 39" fill="none" xmlns="http://www.w3.org/2000/svg">
<path d="M30.3385 22.62L27.4615 16.9C27.2145 16.5006 26.8682 16.1712 26.4559 15.9435C26.0436 15.7158 25.5793 15.5975 25.1077 15.6H8.89231C8.42069 15.5975 7.95638 15.7158 7.54411 15.9435C7.13183 16.1712 6.7855 16.5006 6.53846 16.9L3.66154 22.62L0.418461 25.6152C0.286668 25.7367 0.181488 25.8839 0.109489 26.0477C0.0374902 26.2114 0.000217997 26.3881 0 26.5668V37.7C0 38.0448 0.137774 38.3754 0.383014 38.6192C0.628254 38.863 0.960871 39 1.30769 39H6.53846C7.06154 39 7.84615 38.48 7.84615 37.96V36.4H26.1538V37.7C26.1538 38.22 26.6769 39 27.2 39H32.6923C33.0391 39 33.3717 38.863 33.617 38.6192C33.8622 38.3754 34 38.0448 34 37.7V26.5668C33.9998 26.3881 33.9625 26.2114 33.8905 26.0477C33.8185 25.8839 33.7133 25.7367 33.5815 25.6152L30.3385 22.62ZM9.15385 18.2H24.8462L27.4615 23.4H6.53846L9.15385 18.2ZM10.4615 30.16C10.4615 30.68 9.67692 31.2 9.15385 31.2H3.66154C3.13846 31.2 2.61538 30.42 2.61538 29.9V27.04C2.87692 26.26 3.4 25.74 4.18462 26L9.41538 27.04C9.93846 27.04 10.4615 27.82 10.4615 28.34V30.16ZM31.3846 29.9C31.3846 30.42 30.8615 31.2 30.3385 31.2H24.8462C24.3231 31.2 23.5385 30.68 23.5385 30.16V28.34C23.5385 27.82 24.0615 27.04 24.5846 27.04L29.8154 26C30.6 25.74 31.1231 26.26 31.3846 27.04V29.9ZM18.3077 10.4H15.6923L13.0769 0H20.9231L18.3077 10.4ZM0.261539 4.68L7.06154 0.78L9.93846 11.18L7.84615 12.22L0.261539 4.68ZM26.9385 0.78L33.7385 4.68L26.1538 12.48L23.8 11.18L26.9385 0.78Z" fill="#A8D9FF"/>
</svg>
