<svg width="37" height="37" viewBox="0 0 37 37" fill="none" xmlns="http://www.w3.org/2000/svg">
<path d="M16.65 27.75H20.35V16.65H16.65V27.75ZM18.5 12.95C19.0242 12.95 19.4638 12.7724 19.819 12.4172C20.1742 12.062 20.3512 11.6229 20.35 11.1C20.3488 10.5771 20.1712 10.138 19.8172 9.7828C19.4632 9.4276 19.0242 9.25 18.5 9.25C17.9758 9.25 17.5368 9.4276 17.1828 9.7828C16.8288 10.138 16.6512 10.5771 16.65 11.1C16.6488 11.6229 16.8264 12.0626 17.1828 12.419C17.5392 12.7755 17.9783 12.9525 18.5 12.95ZM18.5 37C15.9408 37 13.5358 36.5141 11.285 35.5422C9.03416 34.5703 7.07625 33.2525 5.41125 31.5887C3.74625 29.925 2.42843 27.9671 1.4578 25.715C0.487169 23.4629 0.00123567 21.0579 2.34177e-06 18.5C-0.00123099 15.9421 0.484702 13.5371 1.4578 11.285C2.4309 9.03293 3.74872 7.07502 5.41125 5.41125C7.07378 3.74748 9.0317 2.42967 11.285 1.4578C13.5383 0.485933 15.9433 0 18.5 0C21.0567 0 23.4617 0.485933 25.715 1.4578C27.9683 2.42967 29.9262 3.74748 31.5887 5.41125C33.2513 7.07502 34.5697 9.03293 35.544 11.285C36.5184 13.5371 37.0037 15.9421 37 18.5C36.9963 21.0579 36.5103 23.4629 35.5422 25.715C34.574 27.9671 33.2562 29.925 31.5887 31.5887C29.9213 33.2525 27.9633 34.5709 25.715 35.544C23.4666 36.5171 21.0616 37.0025 18.5 37Z" fill="#A8D9FF"/>
</svg>
