<svg width="44" height="44" viewBox="0 0 44 44" fill="none" xmlns="http://www.w3.org/2000/svg">
<path fill-rule="evenodd" clip-rule="evenodd" d="M39.6744 14.2169C39.6744 11.578 39.6744 10.2567 39.0474 9.30945C38.7759 8.89882 38.4269 8.54628 38.0205 8.27195C37.2 7.71749 36.0967 7.64795 34.0856 7.64043C34.0918 8.18925 34.0943 8.75937 34.093 9.35079V11.8675H35.9535C36.3236 11.8675 36.6785 12.016 36.9402 12.2803C37.2018 12.5447 37.3488 12.9032 37.3488 13.2771C37.3488 13.651 37.2018 14.0095 36.9402 14.2739C36.6785 14.5382 36.3236 14.6867 35.9535 14.6867H34.093V17.506H35.9535C36.3236 17.506 36.6785 17.6545 36.9402 17.9189C37.2018 18.1833 37.3488 18.5418 37.3488 18.9157C37.3488 19.2895 37.2018 19.6481 36.9402 19.9124C36.6785 20.1768 36.3236 20.3253 35.9535 20.3253H34.093V23.1446H35.9535C36.3236 23.1446 36.6785 23.2931 36.9402 23.5575C37.2018 23.8218 37.3488 24.1804 37.3488 24.5542C37.3488 24.9281 37.2018 25.2866 36.9402 25.551C36.6785 25.8153 36.3236 25.9639 35.9535 25.9639H34.093V38.1807H31.3023V9.51807C31.3023 5.9733 31.3023 4.2028 30.2121 3.1014C29.1219 2 27.3693 2 23.8605 2H20.1395C16.6307 2 14.8781 2 13.7879 3.1014C12.6977 4.2028 12.6977 5.9733 12.6977 9.51807V38.1807H9.90698V25.9639H8.04651C7.67644 25.9639 7.32153 25.8153 7.05985 25.551C6.79817 25.2866 6.65116 24.9281 6.65116 24.5542C6.65116 24.1804 6.79817 23.8218 7.05985 23.5575C7.32153 23.2931 7.67644 23.1446 8.04651 23.1446H9.90698V20.3253H8.04651C7.67644 20.3253 7.32153 20.1768 7.05985 19.9124C6.79817 19.6481 6.65116 19.2895 6.65116 18.9157C6.65116 18.5418 6.79817 18.1833 7.05985 17.9189C7.32153 17.6545 7.67644 17.506 8.04651 17.506H9.90698V14.6867H8.04651C7.67644 14.6867 7.32153 14.5382 7.05985 14.2739C6.79817 14.0095 6.65116 13.651 6.65116 13.2771C6.65116 12.9032 6.79817 12.5447 7.05985 12.2803C7.32153 12.016 7.67644 11.8675 8.04651 11.8675H9.90698V9.34892C9.90574 8.76 9.90822 8.18988 9.91442 7.63855C7.90326 7.64795 6.8 7.71749 5.97953 8.27195C5.57308 8.54628 5.2241 8.89882 4.95256 9.30945C4.32558 10.2567 4.32558 11.578 4.32558 14.2169V38.1807H3.39535C3.02528 38.1807 2.67037 38.3292 2.40869 38.5936C2.14701 38.858 2 39.2165 2 39.5904C2 39.9642 2.14701 40.3228 2.40869 40.5871C2.67037 40.8515 3.02528 41 3.39535 41H40.6047C40.9747 41 41.3296 40.8515 41.5913 40.5871C41.853 40.3228 42 39.9642 42 39.5904C42 39.2165 41.853 38.858 41.5913 38.5936C41.3296 38.3292 40.9747 38.1807 40.6047 38.1807H39.6744V14.2169ZM22 6.22892C22.3701 6.22892 22.725 6.37743 22.9867 6.64179C23.2483 6.90615 23.3953 7.26469 23.3953 7.63855V9.98795H25.7209C26.091 9.98795 26.4459 10.1365 26.7076 10.4008C26.9693 10.6652 27.1163 11.0237 27.1163 11.3976C27.1163 11.7714 26.9693 12.13 26.7076 12.3944C26.4459 12.6587 26.091 12.8072 25.7209 12.8072H23.3953V15.1566C23.3953 15.5305 23.2483 15.889 22.9867 16.1534C22.725 16.4177 22.3701 16.5663 22 16.5663C21.6299 16.5663 21.275 16.4177 21.0133 16.1534C20.7517 15.889 20.6047 15.5305 20.6047 15.1566V12.8072H18.2791C17.909 12.8072 17.5541 12.6587 17.2924 12.3944C17.0307 12.13 16.8837 11.7714 16.8837 11.3976C16.8837 11.0237 17.0307 10.6652 17.2924 10.4008C17.5541 10.1365 17.909 9.98795 18.2791 9.98795H20.6047V7.63855C20.6047 7.26469 20.7517 6.90615 21.0133 6.64179C21.275 6.37743 21.6299 6.22892 22 6.22892ZM16.8837 20.7952C16.8837 20.4213 17.0307 20.0628 17.2924 19.7984C17.5541 19.5341 17.909 19.3855 18.2791 19.3855H25.7209C26.091 19.3855 26.4459 19.5341 26.7076 19.7984C26.9693 20.0628 27.1163 20.4213 27.1163 20.7952C27.1163 21.169 26.9693 21.5276 26.7076 21.7919C26.4459 22.0563 26.091 22.2048 25.7209 22.2048H18.2791C17.909 22.2048 17.5541 22.0563 17.2924 21.7919C17.0307 21.5276 16.8837 21.169 16.8837 20.7952ZM16.8837 26.4337C16.8837 26.0599 17.0307 25.7013 17.2924 25.437C17.5541 25.1726 17.909 25.0241 18.2791 25.0241H25.7209C26.091 25.0241 26.4459 25.1726 26.7076 25.437C26.9693 25.7013 27.1163 26.0599 27.1163 26.4337C27.1163 26.8076 26.9693 27.1661 26.7076 27.4305C26.4459 27.6949 26.091 27.8434 25.7209 27.8434H18.2791C17.909 27.8434 17.5541 27.6949 17.2924 27.4305C17.0307 27.1661 16.8837 26.8076 16.8837 26.4337ZM22 32.5422C22.3701 32.5422 22.725 32.6907 22.9867 32.955C23.2483 33.2194 23.3953 33.5779 23.3953 33.9518V38.1807H20.6047V33.9518C20.6047 33.5779 20.7517 33.2194 21.0133 32.955C21.275 32.6907 21.6299 32.5422 22 32.5422Z" fill="#A8D9FF"/>
</svg>
