<svg width="44" height="44" viewBox="0 0 44 44" fill="none" xmlns="http://www.w3.org/2000/svg">
<path d="M3.14062 22C3.14062 11.5853 11.5831 3.14282 21.9978 3.14282C32.4124 3.14282 40.8549 11.5853 40.8549 22C40.8549 32.4146 32.4124 40.8571 21.9978 40.8571C11.5831 40.8571 3.14062 32.4146 3.14062 22ZM22.448 23.3703C24.7847 23.9454 25.4848 24.7075 25.4848 25.9945C25.4848 27.3318 24.5851 28.3438 22.448 28.5065V23.3703ZM21.0361 20.4843C19.0372 19.9838 18.2868 19.147 18.2868 18.0093C18.2868 16.8716 19.2368 15.8353 21.0368 15.6105L21.0361 20.4843ZM22.448 20.8214V15.6105C24.0477 15.8101 25.1721 16.7223 25.3347 18.2977H27.9338C27.8341 15.4613 25.572 13.5865 22.448 13.3359V11.2247H21.0361V13.3359C17.8869 13.574 15.6382 15.4228 15.6382 18.2223C15.6382 20.7585 17.3503 22.1838 20.5238 22.9208L21.0361 23.0458V28.4939C19.0246 28.2818 18.0747 27.2069 17.85 25.7447H15.2634C15.3498 28.7438 17.8626 30.5305 21.0361 30.7685V32.8672H22.448V30.7685C25.6348 30.543 28.1342 28.8066 28.1342 25.7447C28.1342 23.0835 26.3349 21.7336 23.0483 20.9715L22.448 20.8214Z" fill="#A8D9FF"/>
</svg>
