<svg width="26" height="27" viewBox="0 0 26 27" fill="none" xmlns="http://www.w3.org/2000/svg">
<path d="M22.4777 13.5L23.6737 11.433C23.8174 11.1843 23.8565 10.8887 23.7823 10.6112C23.7082 10.3337 23.5269 10.097 23.2782 9.95316L21.2091 8.75716V6.37382C21.2091 6.08651 21.0949 5.81096 20.8918 5.60779C20.6886 5.40463 20.4131 5.29049 20.1257 5.29049H17.7435L16.5486 3.22241C16.4043 2.97423 16.168 2.79287 15.891 2.71757C15.7536 2.68032 15.6102 2.67072 15.469 2.68932C15.3279 2.70791 15.1918 2.75434 15.0687 2.82591L12.9996 4.02191L10.9304 2.82482C10.6816 2.68117 10.3859 2.64224 10.1084 2.7166C9.83085 2.79096 9.59424 2.97251 9.45057 3.22132L8.25457 5.29049H5.87232C5.58501 5.29049 5.30946 5.40463 5.10629 5.60779C4.90313 5.81096 4.78899 6.08651 4.78899 6.37382V8.75607L2.71982 9.95208C2.59636 10.0231 2.48814 10.1178 2.40139 10.2308C2.31465 10.3437 2.25107 10.4727 2.21433 10.6104C2.17759 10.748 2.16839 10.8915 2.18729 11.0327C2.20618 11.1738 2.25278 11.3099 2.32441 11.433L3.52041 13.5L2.32441 15.567C2.1814 15.8159 2.14259 16.1113 2.21646 16.3887C2.29033 16.6661 2.47088 16.9031 2.71874 17.0479L4.78791 18.2439V20.6262C4.78791 20.9135 4.90204 21.189 5.10521 21.3922C5.30837 21.5954 5.58392 21.7095 5.87124 21.7095H8.25457L9.45057 23.7787C9.54648 23.9426 9.68342 24.0788 9.84792 24.1737C10.0124 24.2687 10.1988 24.3192 10.3887 24.3203C10.5772 24.3203 10.7647 24.2705 10.9315 24.1741L12.9985 22.9781L15.0677 24.1741C15.3164 24.3175 15.6119 24.3565 15.8893 24.2823C16.1667 24.2082 16.4034 24.0271 16.5475 23.7787L17.7424 21.7095H20.1247C20.412 21.7095 20.6875 21.5954 20.8907 21.3922C21.0939 21.189 21.208 20.9135 21.208 20.6262V18.2439L23.2772 17.0479C23.4004 16.9767 23.5084 16.8819 23.595 16.7689C23.6816 16.6559 23.7451 16.5269 23.7818 16.3894C23.8185 16.2519 23.8278 16.1084 23.809 15.9673C23.7903 15.8262 23.7439 15.6902 23.6726 15.567L22.4777 13.5ZM10.2902 8.07249C10.7213 8.07263 11.1347 8.24403 11.4394 8.54898C11.7442 8.85393 11.9153 9.26745 11.9152 9.69858C11.915 10.1297 11.7436 10.5431 11.4387 10.8478C11.1337 11.1526 10.7202 11.3237 10.2891 11.3236C9.85795 11.3234 9.44455 11.152 9.1398 10.8471C8.83505 10.5421 8.66393 10.1286 8.66407 9.69749C8.66422 9.26637 8.83562 8.85297 9.14057 8.54822C9.44552 8.24347 9.85904 8.07235 10.2902 8.07249ZM10.6152 18.4725L8.88182 17.1736L15.3818 8.50691L17.1152 9.80583L10.6152 18.4725ZM15.7068 18.9058C15.4934 18.9058 15.282 18.8636 15.0848 18.7819C14.8876 18.7001 14.7084 18.5803 14.5575 18.4293C14.4067 18.2783 14.287 18.0991 14.2054 17.9019C14.1237 17.7046 14.0818 17.4932 14.0818 17.2797C14.0819 17.0663 14.124 16.8549 14.2058 16.6577C14.2875 16.4605 14.4073 16.2814 14.5583 16.1305C14.7093 15.9796 14.8885 15.8599 15.0858 15.7783C15.283 15.6966 15.4944 15.6547 15.7079 15.6547C16.139 15.6549 16.5524 15.8263 16.8572 16.1312C17.1619 16.4362 17.333 16.8497 17.3329 17.2808C17.3328 17.7119 17.1614 18.1254 16.8564 18.4301C16.5515 18.7348 16.1379 18.906 15.7068 18.9058Z" fill="black"/>
</svg>
