<svg width="300" height="300" viewBox="0 0 300 300" fill="none" xmlns="http://www.w3.org/2000/svg">
<path d="M152.13 289.008C231.222 289.008 295.338 256.184 295.338 215.694C295.338 175.204 231.222 142.38 152.13 142.38C73.0384 142.38 8.922 175.204 8.922 215.694C8.922 256.184 73.0384 289.008 152.13 289.008Z" fill="#FAFAFA"/>
<path d="M233.772 263.022C255.321 263.022 272.79 252.231 272.79 238.92C272.79 225.609 255.321 214.818 233.772 214.818C212.223 214.818 194.754 225.609 194.754 238.92C194.754 252.231 212.223 263.022 233.772 263.022Z" fill="#E0E0E0"/>
<path d="M141.15 195.672L116.148 181.242C115.733 181.029 115.273 180.918 114.807 180.918C114.341 180.918 113.881 181.029 113.466 181.242L30.6 229.092C30.4376 229.146 30.2964 229.25 30.1963 229.389C30.0963 229.528 30.0424 229.695 30.0424 229.866C30.0424 230.037 30.0963 230.204 30.1963 230.343C30.2964 230.482 30.4376 230.586 30.6 230.64L55.596 245.076C56.0124 245.284 56.4715 245.392 56.937 245.392C57.4025 245.392 57.8616 245.284 58.278 245.076L65.664 240.81L133.758 201.6L141.156 197.25C141.323 197.196 141.469 197.09 141.572 196.948C141.675 196.806 141.731 196.635 141.73 196.459C141.729 196.283 141.673 196.112 141.568 195.971C141.464 195.829 141.318 195.725 141.15 195.672Z" fill="#E0E0E0"/>
<path d="M253.542 229.956L249.678 227.904C249.678 227.904 250.056 209.04 253.968 194.43C257.976 179.472 269.64 162.948 280.662 169.14C291.684 175.332 272.094 188.058 266.202 200.34C260.31 212.622 253.542 229.956 253.542 229.956Z" fill="#318AD1"/>
<path opacity="0.15" d="M253.542 229.956L249.678 227.904C249.678 227.904 250.056 209.04 253.968 194.43C257.976 179.472 269.64 162.948 280.662 169.14C291.684 175.332 272.094 188.058 266.202 200.34C260.31 212.622 253.542 229.956 253.542 229.956Z" fill="black"/>
<path d="M253.032 225.48C252.981 225.478 252.93 225.467 252.884 225.446C252.837 225.425 252.795 225.395 252.76 225.357C252.725 225.32 252.697 225.276 252.679 225.228C252.661 225.18 252.652 225.129 252.654 225.078C253.482 195.804 266.28 177.93 276.99 171.522C277.079 171.469 277.186 171.453 277.286 171.478C277.387 171.504 277.474 171.568 277.527 171.657C277.58 171.746 277.596 171.853 277.571 171.953C277.545 172.054 277.481 172.141 277.392 172.194C266.85 178.5 254.256 196.14 253.434 225.096C253.433 225.148 253.422 225.199 253.401 225.246C253.381 225.294 253.351 225.336 253.313 225.372C253.276 225.408 253.232 225.436 253.184 225.454C253.135 225.473 253.084 225.482 253.032 225.48Z" fill="white"/>
<path d="M255.288 230.856L251.838 229.086C251.838 229.086 252.264 219.822 259.362 207.75C265.662 197.028 278.43 188.628 283.794 191.622C287.958 193.938 288.918 199.014 284.928 202.392C280.938 205.77 262.518 212.856 255.288 230.856Z" fill="#318AD1"/>
<path d="M253.902 227.898C254.502 228.018 254.712 226.536 254.832 226.158C255.06 225.45 255.3 224.754 255.564 224.058C256.081 222.704 256.668 221.379 257.322 220.086C258.582 217.6 260.058 215.229 261.732 213C263.297 210.914 265.003 208.937 266.838 207.084C268.494 205.418 270.236 203.839 272.058 202.356C273.582 201.108 275.166 199.926 276.792 198.816C277.992 198 279.192 197.22 280.446 196.488C281.1 196.104 281.754 195.726 282.432 195.378L282.624 195.282C282.731 195.229 282.814 195.136 282.852 195.023C282.891 194.91 282.884 194.786 282.831 194.679C282.778 194.572 282.685 194.489 282.572 194.451C282.459 194.412 282.335 194.419 282.228 194.472C281.808 194.676 281.406 194.904 281.028 195.132C279.972 195.732 278.94 196.332 277.926 197.004C276.422 197.976 274.954 199.004 273.522 200.088C271.746 201.432 270.04 202.858 268.404 204.366C266.539 206.074 264.784 207.897 263.148 209.826C261.375 211.905 259.77 214.122 258.348 216.456C256.836 218.926 255.57 221.538 254.568 224.256C254.38 224.78 254.2 225.302 254.028 225.822C253.776 226.341 253.623 226.903 253.578 227.478C253.585 227.569 253.618 227.657 253.672 227.731C253.726 227.805 253.799 227.863 253.884 227.898H253.902Z" fill="white"/>
<path d="M58.104 213.504C58.104 213.504 58.2 201.738 53.574 192C48.948 182.262 41.712 175.674 34.374 174.168C27.036 172.662 20.268 178.722 27.588 184.368C34.908 190.014 48.354 196.548 52.65 214.836L58.104 213.504Z" fill="#318AD1"/>
<path opacity="0.15" d="M58.104 213.504C58.104 213.504 58.2 201.738 53.574 192C48.948 182.262 41.712 175.674 34.374 174.168C27.036 172.662 20.268 178.722 27.588 184.368C34.908 190.014 48.354 196.548 52.65 214.836L58.104 213.504Z" fill="black"/>
<path d="M55.044 211.47C54.9674 211.47 54.8937 211.441 54.838 211.389C54.7822 211.336 54.7486 211.264 54.744 211.188C53.616 192.354 38.1 180.108 30.432 178.02C30.3558 177.999 30.2911 177.949 30.2518 177.88C30.2124 177.812 30.2017 177.73 30.222 177.654C30.2431 177.576 30.294 177.51 30.3636 177.47C30.4333 177.429 30.516 177.418 30.594 177.438C38.394 179.568 54.198 192.018 55.344 211.152C55.3459 211.231 55.3178 211.307 55.2655 211.366C55.2132 211.425 55.1405 211.462 55.062 211.47H55.044Z" fill="white"/>
<path d="M59.052 229.656C60.5384 227.78 61.5358 225.565 61.9547 223.209C62.3736 220.852 62.2008 218.429 61.452 216.156C61.0164 214.783 60.3196 213.508 59.4 212.4C58.662 211.53 57.6 211.08 56.736 210.354C54.876 208.812 52.716 207.174 52.044 204.726C51.504 202.776 51.618 200.928 50.538 199.098C49.9016 197.952 48.8883 197.062 47.67 196.578C46.08 195.978 44.328 196.374 42.648 196.578C40.248 196.848 38.448 196.02 36.372 194.916C34.086 193.716 31.416 192.768 28.938 193.506C28.1321 193.745 27.3853 194.15 26.7461 194.696C26.1069 195.242 25.5896 195.916 25.2275 196.675C24.8655 197.433 24.6669 198.259 24.6446 199.099C24.6223 199.94 24.7767 200.775 25.098 201.552C25.65 202.896 26.67 203.988 27.42 205.236C28.17 206.484 28.566 207.912 28.02 209.274C27.6 210.282 26.82 211.074 26.508 212.1C25.62 214.8 26.118 217.2 28.8 218.592C31.602 220.026 36 218.946 37.404 222.468C37.932 223.806 37.95 225.288 38.238 226.698C38.8291 229.536 40.479 232.042 42.852 233.706C46.074 235.944 50.448 235.398 53.79 233.838C55.8432 232.869 57.6442 231.437 59.052 229.656Z" fill="#318AD1"/>
<path d="M33.792 212.616C33.8576 212.627 33.925 212.617 33.984 212.586C36.3472 211.673 38.8833 211.293 41.4103 211.476C43.9374 211.659 46.3927 212.398 48.6 213.642C48.6756 213.682 48.7642 213.691 48.8463 213.667C48.9284 213.642 48.9973 213.586 49.038 213.51C49.0591 213.473 49.0725 213.432 49.0776 213.39C49.0826 213.348 49.0792 213.305 49.0674 213.264C49.0557 213.224 49.0359 213.186 49.0092 213.152C48.9825 213.119 48.9494 213.092 48.912 213.072C46.6187 211.784 44.0685 211.02 41.4448 210.836C38.8211 210.651 36.1891 211.05 33.738 212.004C33.6804 212.036 33.6337 212.084 33.6042 212.143C33.5747 212.202 33.5638 212.268 33.573 212.333C33.5821 212.398 33.6108 212.459 33.6553 212.507C33.6997 212.556 33.7579 212.589 33.822 212.604L33.792 212.616Z" fill="white"/>
<path d="M54.744 229.758C54.6654 229.76 54.5894 229.73 54.5322 229.677C54.4749 229.623 54.4411 229.548 54.438 229.47C53.88 215.91 40.266 201.57 31.14 197.67C31.1032 197.655 31.0697 197.633 31.0415 197.604C31.0134 197.576 30.9911 197.543 30.976 197.506C30.9609 197.469 30.9533 197.43 30.9537 197.39C30.954 197.35 30.9623 197.311 30.978 197.274C31.0109 197.2 31.0716 197.142 31.1469 197.113C31.2222 197.084 31.306 197.086 31.38 197.118C40.65 201.09 54.474 215.67 55.044 229.458C55.0456 229.498 55.0393 229.538 55.0254 229.576C55.0115 229.614 54.9903 229.648 54.9629 229.678C54.9356 229.707 54.9028 229.731 54.8662 229.748C54.8297 229.765 54.7902 229.774 54.75 229.776L54.744 229.758Z" fill="white"/>
<path d="M129.888 36L61.9799 75.192C61.3075 75.631 60.7486 76.2231 60.3492 76.9198C59.9497 77.6165 59.7211 78.3979 59.6819 79.2V239.118C59.6819 240.582 60.7139 241.176 61.9799 240.438L129.888 201.234C130.556 200.796 131.112 200.207 131.511 199.515C131.91 198.823 132.141 198.048 132.186 197.25V37.308C132.186 35.844 131.154 35.244 129.888 36ZM128.88 185.4C128.88 186.654 127.998 187.452 126.912 188.076L64.7279 223.992C63.6479 224.592 62.7599 224.112 62.7599 222.852V89.862C62.7602 89.1744 62.9417 88.499 63.2861 87.9038C63.6306 87.3086 64.1258 86.8148 64.7219 86.472L126.906 50.55C127.105 50.4341 127.332 50.3728 127.563 50.3723C127.794 50.3717 128.02 50.4319 128.22 50.5469C128.421 50.6618 128.587 50.8274 128.703 51.0271C128.818 51.2267 128.88 51.4533 128.88 51.684V185.4Z" fill="#455A64"/>
<path d="M128.88 185.4C128.88 186.654 127.998 187.452 126.912 188.076L64.7279 223.992C63.6479 224.592 62.7599 224.112 62.7599 222.852V89.8619C62.7602 89.1742 62.9417 88.4988 63.2861 87.9036C63.6306 87.3085 64.1258 86.8146 64.722 86.4719L126.906 50.5499C127.105 50.4339 127.332 50.3726 127.563 50.3721C127.794 50.3715 128.02 50.4317 128.22 50.5467C128.421 50.6616 128.587 50.8273 128.703 51.0269C128.818 51.2265 128.88 51.4531 128.88 51.6839V185.4Z" fill="#263238"/>
<path d="M64.7279 223.992L126.912 188.088C127.348 187.852 127.752 187.559 128.112 187.218L62.7599 150.414V222.852C62.7599 224.112 63.6479 224.616 64.7279 223.992Z" fill="#37474F"/>
<path d="M123.846 183.066V52.3201L64.722 86.4721C64.1258 86.8148 63.6306 87.3087 63.2861 87.9038C62.9417 88.499 62.7602 89.1744 62.7599 89.8621V219.876L121.878 185.742C122.964 185.118 123.846 184.32 123.846 183.066Z" fill="#318AD1"/>
<path d="M61.692 240.6C61.0062 240.889 60.2659 241.026 59.5221 241.001C58.7784 240.976 58.0488 240.79 57.384 240.456L54.756 238.938C54.0853 238.504 53.527 237.917 53.1266 237.225C52.7261 236.534 52.495 235.758 52.452 234.96V74.9999C52.4671 74.4071 52.6018 73.8234 52.848 73.2839C52.932 73.0979 53.022 72.9179 53.124 72.7319L60.324 76.9319C60.1726 77.2024 60.0403 77.4831 59.928 77.7719C59.7532 78.2263 59.6578 78.7073 59.646 79.1939V239.118C59.682 240.468 60.558 241.08 61.692 240.6Z" fill="#263238"/>
<path d="M97.962 208.38C99.432 208.38 99.588 210.03 99.588 210.738C99.5001 212.157 99.0843 213.535 98.3732 214.766C97.6621 215.997 96.6751 217.045 95.49 217.83C95.0144 218.132 94.4687 218.306 93.906 218.334C92.436 218.334 92.28 216.684 92.28 215.976C92.3685 214.557 92.784 213.179 93.4938 211.947C94.2037 210.716 95.1887 209.665 96.372 208.878C96.8515 208.581 97.3985 208.409 97.962 208.38Z" fill="#318AD1"/>
<path d="M95.8859 58.146C96.4859 57.786 97.0079 58.0739 97.0079 58.7939C96.9862 59.1832 96.8733 59.5619 96.6784 59.8995C96.4835 60.2372 96.2121 60.5244 95.8859 60.738C95.2859 61.092 94.7579 60.804 94.7579 60.09C94.7785 59.6997 94.8915 59.32 95.0876 58.982C95.2837 58.644 95.5573 58.3574 95.8859 58.146Z" fill="#263238"/>
<path d="M88.638 67.62C89.19 67.302 89.634 67.56 89.634 68.22C89.6157 68.5652 89.5159 68.9013 89.3428 69.2006C89.1697 69.4999 88.9281 69.7539 88.638 69.942C88.086 70.26 87.642 70.002 87.642 69.342C87.6612 68.9969 87.7614 68.6612 87.9344 68.3621C88.1075 68.0629 88.3485 67.8087 88.638 67.62Z" fill="#263238"/>
<path d="M91.968 65.6519L103.122 59.2139C103.722 58.8599 104.226 59.1119 104.226 59.7719C104.197 60.1425 104.082 60.5013 103.89 60.8199C103.699 61.1385 103.436 61.4083 103.122 61.6079L91.968 68.0459C91.368 68.3999 90.864 68.1479 90.864 67.4879C90.8932 67.1173 91.0081 66.7585 91.1997 66.4399C91.3913 66.1212 91.6543 65.8515 91.968 65.6519Z" fill="#263238"/>
<path d="M132.162 36.942C131.994 35.742 131.04 35.316 129.894 35.982L61.974 75.192C61.2944 75.6139 60.7361 76.2052 60.354 76.908L53.154 72.708C53.5421 72.0108 54.1018 71.4243 54.78 71.004L122.658 31.8C123.37 31.4389 124.157 31.2507 124.956 31.2507C125.755 31.2507 126.542 31.4389 127.254 31.8L129.894 33.312C130.509 33.7201 131.03 34.2552 131.421 34.8813C131.812 35.5075 132.065 36.2101 132.162 36.942Z" fill="#37474F"/>
<path d="M114.348 41.7962C113.996 41.9845 113.604 42.0864 113.204 42.0937C112.805 42.101 112.409 42.0135 112.05 41.8382C111.93 41.7869 111.826 41.7041 111.749 41.5985C111.671 41.4929 111.624 41.3684 111.612 41.2382C111.612 41.0702 111.612 40.4462 111.612 40.2722C111.631 40.1225 111.689 39.9803 111.779 39.8594C111.87 39.7385 111.99 39.643 112.128 39.5822L119.406 35.3822C119.76 35.1953 120.153 35.0941 120.553 35.0869C120.953 35.0796 121.35 35.1663 121.71 35.3402C121.828 35.3939 121.93 35.4775 122.006 35.5828C122.082 35.688 122.129 35.8112 122.142 35.9402C122.142 36.1142 122.142 36.7622 122.142 36.9302C122.123 37.0808 122.066 37.224 121.975 37.346C121.885 37.4679 121.765 37.5644 121.626 37.6262L114.348 41.7962Z" fill="#318AD1"/>
<path opacity="0.25" d="M114.348 41.7962C113.996 41.9845 113.604 42.0864 113.204 42.0937C112.805 42.101 112.409 42.0135 112.05 41.8382C111.93 41.7869 111.826 41.7041 111.749 41.5985C111.671 41.4929 111.624 41.3684 111.612 41.2382C111.612 41.0702 111.612 40.4462 111.612 40.2722C111.631 40.1225 111.689 39.9803 111.779 39.8594C111.87 39.7385 111.99 39.643 112.128 39.5822L119.406 35.3822C119.76 35.1953 120.153 35.0941 120.553 35.0869C120.953 35.0796 121.35 35.1663 121.71 35.3402C121.828 35.3939 121.93 35.4775 122.006 35.5828C122.082 35.688 122.129 35.8112 122.142 35.9402C122.142 36.1142 122.142 36.7622 122.142 36.9302C122.123 37.0808 122.066 37.224 121.975 37.346C121.885 37.4679 121.765 37.5644 121.626 37.6262L114.348 41.7962Z" fill="black"/>
<path d="M114.348 40.842L121.626 36.642C122.286 36.258 122.316 35.664 121.704 35.31C121.343 35.1361 120.947 35.0493 120.547 35.0566C120.147 35.0639 119.754 35.165 119.4 35.352L112.122 39.552C111.468 39.93 111.432 40.524 112.05 40.878C112.409 41.0527 112.804 41.1405 113.203 41.1343C113.602 41.128 113.995 41.0279 114.348 40.842Z" fill="#318AD1"/>
<path opacity="0.3" d="M114.348 40.842L121.626 36.642C122.286 36.258 122.316 35.664 121.704 35.31C121.343 35.1361 120.947 35.0493 120.547 35.0566C120.147 35.0639 119.754 35.165 119.4 35.352L112.122 39.552C111.468 39.93 111.432 40.524 112.05 40.878C112.409 41.0527 112.804 41.1405 113.203 41.1343C113.602 41.128 113.995 41.0279 114.348 40.842Z" fill="black"/>
<path d="M56.9999 99.102C56.9857 98.7027 56.8772 98.3124 56.6832 97.9631C56.4893 97.6137 56.2154 97.3152 55.8839 97.092C55.7754 97.0118 55.6467 96.9632 55.5123 96.9516C55.3778 96.9399 55.2427 96.9657 55.1219 97.026C54.9839 97.11 54.4319 97.416 54.2879 97.506C54.1674 97.5973 54.0726 97.7182 54.0127 97.857C53.9528 97.9958 53.9298 98.1477 53.9459 98.298V116.13C53.9604 116.529 54.0685 116.918 54.2613 117.267C54.4541 117.617 54.7263 117.915 55.0559 118.14C55.1644 118.213 55.2898 118.257 55.4201 118.267C55.5504 118.278 55.6812 118.255 55.7999 118.2C55.9559 118.122 56.5139 117.798 56.6639 117.708C56.7844 117.617 56.8793 117.496 56.9392 117.357C56.9991 117.218 57.0221 117.066 57.0059 116.916L56.9999 99.102Z" fill="#318AD1"/>
<path opacity="0.3" d="M56.9999 99.102C56.9857 98.7027 56.8772 98.3124 56.6832 97.9631C56.4893 97.6137 56.2154 97.3152 55.8839 97.092C55.7754 97.0118 55.6467 96.9632 55.5123 96.9516C55.3778 96.9399 55.2427 96.9657 55.1219 97.026C54.9839 97.11 54.4319 97.416 54.2879 97.506C54.1674 97.5973 54.0726 97.7182 54.0127 97.857C53.9528 97.9958 53.9298 98.1477 53.9459 98.298V116.13C53.9604 116.529 54.0685 116.918 54.2613 117.267C54.4541 117.617 54.7263 117.915 55.0559 118.14C55.1644 118.213 55.2898 118.257 55.4201 118.267C55.5504 118.278 55.6812 118.255 55.7999 118.2C55.9559 118.122 56.5139 117.798 56.6639 117.708C56.7844 117.617 56.8793 117.496 56.9392 117.357C56.9991 117.218 57.0221 117.066 57.0059 116.916L56.9999 99.102Z" fill="black"/>
<path d="M56.1721 99.6001V117.432C56.1721 118.188 55.6741 118.512 55.0561 118.158C54.7265 117.934 54.4543 117.635 54.2614 117.285C54.0686 116.936 53.9606 116.547 53.9461 116.148V98.2981C53.9461 97.5361 54.4441 97.2121 55.0561 97.5661C55.3901 97.7923 55.6654 98.0948 55.8595 98.4484C56.0535 98.8021 56.1607 99.1968 56.1721 99.6001Z" fill="#318AD1"/>
<path opacity="0.4" d="M56.1721 99.6001V117.432C56.1721 118.188 55.6741 118.512 55.0561 118.158C54.7265 117.934 54.4543 117.635 54.2614 117.285C54.0686 116.936 53.9606 116.547 53.9461 116.148V98.2981C53.9461 97.5361 54.4441 97.2121 55.0561 97.5661C55.3901 97.7923 55.6654 98.0948 55.8595 98.4484C56.0535 98.8021 56.1607 99.1968 56.1721 99.6001Z" fill="black"/>
<path d="M56.9999 123C56.9857 122.601 56.8772 122.21 56.6832 121.861C56.4893 121.512 56.2154 121.213 55.8839 120.99C55.7754 120.91 55.6467 120.861 55.5123 120.85C55.3778 120.838 55.2427 120.864 55.1219 120.924C54.9839 121.008 54.4319 121.314 54.2879 121.404C54.1674 121.495 54.0726 121.616 54.0127 121.755C53.9528 121.894 53.9298 122.046 53.9459 122.196V130.596C53.9614 130.994 54.0698 131.382 54.2626 131.73C54.4554 132.078 54.7271 132.376 55.0559 132.6C55.1608 132.678 55.2846 132.726 55.4143 132.739C55.5441 132.753 55.6751 132.732 55.7939 132.678C55.9499 132.6 56.5079 132.276 56.6579 132.186C56.778 132.096 56.8725 131.976 56.9325 131.838C56.9924 131.7 57.0156 131.549 56.9999 131.4V123Z" fill="#318AD1"/>
<path opacity="0.3" d="M56.9999 123C56.9857 122.601 56.8772 122.21 56.6832 121.861C56.4893 121.512 56.2154 121.213 55.8839 120.99C55.7754 120.91 55.6467 120.861 55.5123 120.85C55.3778 120.838 55.2427 120.864 55.1219 120.924C54.9839 121.008 54.4319 121.314 54.2879 121.404C54.1674 121.495 54.0726 121.616 54.0127 121.755C53.9528 121.894 53.9298 122.046 53.9459 122.196V130.596C53.9614 130.994 54.0698 131.382 54.2626 131.73C54.4554 132.078 54.7271 132.376 55.0559 132.6C55.1608 132.678 55.2846 132.726 55.4143 132.739C55.5441 132.753 55.6751 132.732 55.7939 132.678C55.9499 132.6 56.5079 132.276 56.6579 132.186C56.778 132.096 56.8725 131.976 56.9325 131.838C56.9924 131.7 57.0156 131.549 56.9999 131.4V123Z" fill="black"/>
<path d="M56.1721 123.45V131.85C56.1721 132.606 55.6741 132.936 55.0561 132.576C54.7265 132.351 54.4543 132.052 54.2614 131.703C54.0686 131.354 53.9606 130.965 53.9461 130.566V122.166C53.9461 121.41 54.4441 121.08 55.0561 121.434C55.387 121.659 55.6603 121.959 55.8542 122.309C56.048 122.659 56.1569 123.05 56.1721 123.45Z" fill="#318AD1"/>
<path opacity="0.4" d="M56.1721 123.45V131.85C56.1721 132.606 55.6741 132.936 55.0561 132.576C54.7265 132.351 54.4543 132.052 54.2614 131.703C54.0686 131.354 53.9606 130.965 53.9461 130.566V122.166C53.9461 121.41 54.4441 121.08 55.0561 121.434C55.387 121.659 55.6603 121.959 55.8542 122.309C56.048 122.659 56.1569 123.05 56.1721 123.45Z" fill="black"/>
<path d="M76.884 108.114C76.9437 108.405 77.0239 108.692 77.124 108.972C77.514 110.028 78.216 111.024 78.156 112.152C78.09 113.424 77.088 114.408 76.32 115.422C75.3219 116.763 74.6567 118.321 74.3792 119.97C74.1017 121.618 74.2199 123.308 74.724 124.902C75.4617 126.843 76.485 128.663 77.76 130.302L80.658 134.412C81.5343 135.563 82.6526 136.507 83.934 137.178C86.4242 138.585 89.2027 139.406 92.058 139.578C96.7514 139.895 101.42 138.671 105.354 136.092C109.524 133.332 107.688 126.252 111.954 123.666C117.114 120.546 119.574 109.71 113.25 105.186C113.25 105.186 114.27 98.55 112.398 96.858C110.532 95.2969 108.224 94.3609 105.798 94.182C102.45 93.834 99.096 94.488 95.754 94.476C92.3137 94.4649 88.8763 94.6793 85.464 95.118C84.264 95.28 82.572 95.718 81.924 96.888C81.741 97.3468 81.6911 97.848 81.78 98.334C81.7707 99.1049 81.4952 99.8489 81 100.44C80.256 101.34 79.2 101.946 78.408 102.792C77.7545 103.497 77.276 104.347 77.0113 105.271C76.7465 106.196 76.7029 107.17 76.884 108.114Z" fill="#263238"/>
<path d="M110.184 117.69C115.584 117.84 116.286 118.992 121.122 123.78C125.142 127.758 138.462 140.052 138.462 140.052L154.422 144.3L150.654 154.038C150.654 154.038 147.054 153.888 139.854 153.882C135.432 153.882 133.896 152.892 129.444 149.922C127.176 148.404 114.378 140.028 114.378 140.028L110.184 117.69Z" fill="#E6E6E6"/>
<path d="M172.08 124.608L142.83 134.916L134.766 169.716L135.42 170.412L163.23 160.038L172.728 125.304L172.08 124.608Z" fill="#318AD1"/>
<path opacity="0.35" d="M143.478 135.612L135.42 170.412L134.766 169.716L142.83 134.916L143.478 135.612Z" fill="black"/>
<path opacity="0.25" d="M172.728 125.304L143.478 135.612L135.42 170.412L163.23 160.038L172.728 125.304Z" fill="black"/>
<g opacity="0.2">
<path d="M158.88 152.958C159.15 153.642 161.394 155.148 164.64 154.878L165.186 152.874L158.88 152.958Z" fill="black"/>
</g>
<g opacity="0.1">
<path d="M163.92 132.432L164.16 131.262C164.292 130.62 162.576 130.956 160.326 132.018L155.046 133.614C152.796 134.676 150.672 135.468 150.534 136.11L150.294 137.274L163.92 132.432Z" fill="black"/>
</g>
<path d="M165.66 127.152C165.744 126.75 165.06 126.834 164.142 127.08L162.456 127.65C162.456 127.65 163.146 125.958 159.156 127.05C154.77 128.25 154.674 130.428 154.674 130.428C153.988 130.726 153.285 130.982 152.568 131.196C151.11 131.67 150.954 131.952 150.834 132.36L150.618 133.098L165.528 127.854C165.528 127.854 165.6 127.554 165.66 127.152Z" fill="#37474F"/>
<path d="M164.088 129.39C162.708 129.99 162.138 130.32 161.928 131.316C161.694 132.45 161.646 132.924 161.646 132.924L153.882 135.984C153.882 135.984 154.302 134.31 154.404 133.752C154.506 133.194 153.48 133.194 152.136 133.812L152.454 132.42L164.532 127.938L164.088 129.39Z" fill="#37474F"/>
<path d="M164.316 132.45C164.316 132.45 164.43 131.928 164.562 131.28C164.694 130.632 162.978 130.974 160.728 132.036L155.448 133.632C153.198 134.694 151.068 135.486 150.936 136.128L150.696 137.328L164.316 132.45Z" fill="#37474F"/>
<path d="M169.476 137.208C169.476 137.208 168.438 141.024 168.162 142.008C167.886 142.992 163.098 145.182 160.704 145.482C156.12 146.052 155.598 147.042 156.696 150.282C157.716 153.282 160.698 154.422 164.838 153.936C166.782 153.708 169.464 151.986 170.52 148.98C171.864 145.14 171.12 141.042 171.678 138.78C172.236 136.518 170.64 135.87 169.476 137.208Z" fill="#FFA8A7"/>
<path d="M124.152 189.684L121.05 191.484L119.748 192.234L102.684 202.08L100.356 203.4L96.426 205.668L97.626 193.422L99.918 169.71V169.464L100.026 168.402L103.026 137.4L104.34 123.834L104.802 118.968L104.958 117.396H105.042C106.432 117.009 107.9 117.009 109.29 117.396C109.6 117.49 109.901 117.61 110.19 117.756C111.99 118.65 113.19 120.39 114.186 122.22C114.431 122.666 114.651 123.124 114.846 123.594C115.586 125.372 116.156 127.217 116.55 129.102C117.336 132.582 118.35 136.14 118.752 141.75C118.815 143.194 118.739 144.641 118.524 146.07C118.254 149.852 118.208 153.647 118.386 157.434C118.89 166.014 121.05 169.902 124.152 189.684Z" fill="#E0E0E0"/>
<path d="M119.748 192.222L102.684 202.068L100.356 203.4L96.426 205.668L93.72 207.228L77.292 216.708C77.466 210.108 77.544 202.95 77.388 196.188C77.34 193.926 77.322 191.616 77.418 189.252C77.73 181.044 79.29 172.242 84.882 162.978L85.14 162.51C85.8 166.428 91.8 168.972 97.2 169.572L97.8 169.626C98.478 169.692 99.18 169.722 99.906 169.722H100.362C104.928 169.68 110.334 168.606 116.562 166.5C117.162 169.98 117.762 174.546 118.404 179.886C118.692 182.286 118.984 184.844 119.28 187.56C119.4 189.078 119.586 190.632 119.748 192.222Z" fill="#FFA8A7"/>
<path d="M121.05 191.472L119.748 192.222L102.684 202.068L100.356 203.4L96.426 205.668L93.72 207.228L77.292 216.708L75.492 217.746C75.582 210.642 75.642 203.682 75.636 199.314C75.636 195.252 75.726 191.64 75.948 188.436C76.386 182.112 77.298 177.354 78.822 173.754C80.6102 169.814 82.7256 166.031 85.146 162.444C85.146 162.444 86.646 167.508 97.866 168.306H97.938C98.598 168.354 99.294 168.384 100.026 168.396H100.878C114.846 168.396 116.388 164.874 116.388 164.874C117.753 170.053 118.832 175.303 119.622 180.6C119.918 182.472 120.204 184.472 120.48 186.6C120.684 188.16 120.876 189.78 121.05 191.472Z" fill="#318AD1"/>
<path opacity="0.4" d="M121.05 191.472L119.748 192.222L102.684 202.068L100.356 203.4L96.426 205.668L93.72 207.228L77.292 216.708L75.492 217.746C75.582 210.642 75.642 203.682 75.636 199.314C75.636 195.252 75.726 191.64 75.948 188.436C76.386 182.112 77.298 177.354 78.822 173.754C80.6102 169.814 82.7256 166.031 85.146 162.444C85.146 162.444 86.646 167.508 97.866 168.306H97.938C98.598 168.354 99.294 168.384 100.026 168.396H100.878C114.846 168.396 116.388 164.874 116.388 164.874C117.753 170.053 118.832 175.303 119.622 180.6C119.918 182.472 120.204 184.472 120.48 186.6C120.684 188.16 120.876 189.78 121.05 191.472Z" fill="black"/>
<path opacity="0.2" d="M113.04 183.51C113.04 183.51 111.48 188.466 104.916 191.244L104.604 192.762L102.684 202.068L100.356 203.4L101.748 193.134L102.348 188.67C106.405 188.249 110.187 186.424 113.04 183.51Z" fill="black"/>
<path d="M93.078 118.83L86.478 119.526C82.11 120.594 80.136 122.526 79.686 126.384C79.476 128.184 78.39 132.984 79.914 138.984C81.294 144.432 84.978 157.764 84.978 157.764C84.978 157.764 76.5 168.828 74.964 187.8C90.48 197.928 114.282 192.486 120.72 186.366C120.18 180.57 116.478 164.664 116.016 159.498C116.016 159.498 116.358 151.428 117 147.93C121.908 142.572 121.284 137.448 119.082 133.314C115.014 125.682 108.882 118.974 106.896 118.98L93.078 118.83Z" fill="#318AD1"/>
<path opacity="0.7" d="M93.078 118.83L86.478 119.526C82.11 120.594 80.136 122.526 79.686 126.384C79.476 128.184 78.39 132.984 79.914 138.984C81.294 144.432 84.978 157.764 84.978 157.764C84.978 157.764 76.5 168.828 74.964 187.8C90.48 197.928 114.282 192.486 120.72 186.366C120.18 180.57 116.478 164.664 116.016 159.498C116.016 159.498 116.358 151.428 117 147.93C121.908 142.572 121.284 137.448 119.082 133.314C115.014 125.682 108.882 118.974 106.896 118.98L93.078 118.83Z" fill="white"/>
<path d="M98.796 160.14C98.796 160.26 98.796 160.368 98.796 160.458V160.614C98.7999 160.664 98.7999 160.714 98.796 160.764C98.568 163.164 98.298 165.714 98.01 168.312C98.01 168.312 98.01 168.312 98.01 168.348C97.968 168.768 97.92 169.188 97.872 169.614C96.99 177.444 95.94 185.814 95.13 193.434C94.932 195.282 94.752 197.082 94.59 198.834C94.338 201.456 94.068 204.33 93.792 207.234L77.364 216.714L75.564 217.752L70.974 220.398C71.898 211.308 74.052 190.248 75.252 180.744C75.39 179.67 75.57 178.596 75.774 177.528L75.936 176.748L76.008 176.43C76.086 176.07 76.164 175.722 76.248 175.368C76.332 175.014 76.41 174.714 76.488 174.396C76.674 173.67 76.872 172.956 77.088 172.26C77.19 171.924 77.286 171.588 77.394 171.258C77.502 170.928 77.592 170.598 77.7 170.274C77.916 169.626 78.126 168.99 78.348 168.372C78.3454 168.36 78.3454 168.348 78.348 168.336C78.45 168.042 78.558 167.736 78.666 167.46C78.81 167.052 78.96 166.656 79.11 166.26L79.29 165.786C79.38 165.57 79.458 165.36 79.542 165.15C79.836 164.412 80.142 163.71 80.412 163.056C80.472 162.912 80.538 162.768 80.598 162.63C80.658 162.492 80.754 162.288 80.826 162.12C81.006 161.7 81.186 161.31 81.36 160.92C81.432 160.752 81.51 160.59 81.582 160.434C81.654 160.278 81.756 160.074 81.834 159.906L81.948 159.666L82.068 159.432C82.0758 159.401 82.0902 159.373 82.11 159.348C82.1264 159.304 82.1464 159.262 82.17 159.222C82.1845 159.195 82.1966 159.167 82.206 159.138C82.2559 159.053 82.3001 158.965 82.338 158.874L82.74 158.094C82.74 158.052 82.782 158.022 82.794 157.986L82.95 157.698L77.958 136.998L75.474 126.714V126.546C75.588 125.634 76.35 121.332 80.742 120.024C83.2216 119.384 85.7615 119.006 88.32 118.896C89.304 118.836 90.192 118.812 90.918 118.794H92.064H92.754C92.7556 118.808 92.7556 118.822 92.754 118.836C92.79 118.926 92.892 119.196 93.048 119.616C93.0649 119.686 93.089 119.755 93.12 119.82C93.1206 119.83 93.1206 119.84 93.12 119.85C94.2 122.814 97.23 131.442 98.736 138.936C99 140.232 99.216 141.498 99.372 142.698C99.822 146.448 99.492 152.724 98.796 160.14Z" fill="#FAFAFA"/>
<path d="M83.112 147.786C83.112 147.786 83.712 144.828 84.594 138.438C85.62 131.07 85.254 127.428 84.144 125.1L77.886 137.034L82.878 157.734C82.878 157.734 77.748 167.13 75.678 177.534C80.586 163.668 85.956 159.534 85.956 159.534L83.112 147.786Z" fill="#E6E6E6"/>
<path d="M105.036 114.21C106.98 114.21 107.208 114.534 108.882 116.778C109.878 118.116 116.184 128.526 116.184 128.526C116.184 128.526 111.168 121.926 107.382 119.922C106.653 119.495 105.864 119.179 105.042 118.986L105.036 114.21Z" fill="#EBEBEB"/>
<path d="M90.66 136.332C90.66 135.732 90.6 134.436 90.498 132.804C90 124.8 89.76 117.6 92.46 117L92.694 118.104C90.726 118.53 91.374 128.832 91.62 132.708C91.728 134.376 91.812 135.708 91.782 136.356L90.66 136.332Z" fill="#318AD1"/>
<path d="M81.66 83.9279L85.86 87.3659C86.0883 87.1046 86.2609 86.7994 86.3671 86.469C86.4734 86.1387 86.5111 85.7901 86.478 85.4446C86.4448 85.0992 86.3415 84.7642 86.1744 84.46C86.0073 84.1559 85.7798 83.8891 85.506 83.6759C84.9538 83.2193 84.2479 82.991 83.5329 83.0379C82.8179 83.0847 82.1479 83.4031 81.66 83.9279Z" fill="#263238"/>
<path d="M92.628 114.72C92.628 112.086 86.49 108.12 83.322 102.582C80.154 97.044 81.738 87.936 86.082 86.538C86.118 86.538 86.238 85.368 86.256 85.284C86.4962 84.2272 86.9012 83.2148 87.456 82.284C89.226 79.236 92.976 76.884 96.456 76.392C110.214 74.388 116.538 79.734 119.064 85.614C119.883 87.592 120.248 89.7283 120.132 91.866C120.061 93.4359 119.479 94.9396 118.473 96.1476C117.468 97.3555 116.095 98.2013 114.564 98.556L92.628 114.72Z" fill="#263238"/>
<path d="M111.714 83.646C114.408 84.846 116.97 88.944 116.928 100.476C116.892 110.256 113.892 112.728 112.38 113.454C110.868 114.18 107.91 113.808 105.036 113.37V118.986C105.036 118.986 107.19 121.104 106.434 122.436C105.678 123.768 102.888 124.896 98.55 123.534C93.636 121.992 92.514 118.734 92.514 118.734L92.4 106.41C92.4 106.41 90.75 108.144 87.84 105.6C85.44 103.494 84.576 99.888 86.382 97.908C88.188 95.928 90.504 95.772 92.592 97.986L94.092 97.194C96.768 96.882 100.692 96.432 103.584 94.974C111 91.2 111.768 87.108 111.714 83.646Z" fill="#FFA8A7"/>
<path d="M92.634 96.39L92.67 101.79C93.0168 101.799 93.3618 101.737 93.6838 101.608C94.0058 101.479 94.298 101.286 94.5424 101.04C94.7869 100.793 94.9784 100.5 95.1053 100.177C95.2321 99.8542 95.2916 99.5087 95.28 99.162C95.2735 98.4503 94.9964 97.7678 94.5049 97.253C94.0135 96.7381 93.3446 96.4296 92.634 96.39Z" fill="#263238"/>
<path d="M111.966 97.1579C111.969 97.4117 112.045 97.6591 112.187 97.8695C112.329 98.0799 112.53 98.244 112.764 98.3415C112.998 98.439 113.256 98.4657 113.505 98.4181C113.754 98.3705 113.984 98.2508 114.166 98.0738C114.348 97.8969 114.474 97.6704 114.528 97.4226C114.582 97.1747 114.563 96.9164 114.471 96.6796C114.38 96.4428 114.222 96.238 114.015 96.0905C113.809 95.943 113.564 95.8594 113.31 95.85C113.135 95.846 112.962 95.8768 112.799 95.9407C112.637 96.0046 112.489 96.1002 112.364 96.2219C112.238 96.3437 112.139 96.4892 112.071 96.6499C112.002 96.8106 111.967 96.9833 111.966 97.1579Z" fill="black"/>
<path d="M101.616 97.7339C101.605 97.9199 101.632 98.1062 101.693 98.282C101.755 98.4579 101.851 98.6198 101.975 98.7586C102.099 98.8974 102.25 99.0103 102.418 99.0908C102.586 99.1714 102.768 99.218 102.954 99.2279C103.143 99.2295 103.33 99.1938 103.505 99.1228C103.68 99.0518 103.839 98.947 103.974 98.8143C104.108 98.6816 104.215 98.5237 104.288 98.3496C104.361 98.1755 104.399 97.9887 104.4 97.7999C104.406 97.6171 104.376 97.4349 104.311 97.2638C104.247 97.0926 104.149 96.9359 104.024 96.8024C103.899 96.669 103.749 96.5615 103.582 96.4861C103.416 96.4107 103.236 96.3688 103.053 96.3629C102.87 96.357 102.688 96.3872 102.517 96.4517C102.346 96.5161 102.189 96.6137 102.055 96.7388C101.922 96.8639 101.815 97.014 101.739 97.1806C101.664 97.3473 101.622 97.5271 101.616 97.7099V97.7339Z" fill="black"/>
<path d="M115.398 94.7399L112.056 93.4139C112.133 93.1891 112.256 92.9826 112.417 92.8074C112.578 92.6322 112.773 92.4921 112.99 92.3958C113.208 92.2995 113.443 92.2491 113.68 92.2477C113.918 92.2464 114.154 92.2941 114.372 92.3879C114.812 92.5732 115.164 92.9208 115.356 93.3586C115.547 93.7965 115.562 94.2911 115.398 94.7399Z" fill="black"/>
<path d="M108.798 96.1019L108.63 104.106L112.932 103.152L108.798 96.1019Z" fill="#F28F8F"/>
<path d="M103.728 105.738L107.928 107.04C107.867 107.326 107.748 107.597 107.577 107.835C107.407 108.073 107.19 108.274 106.939 108.425C106.688 108.576 106.409 108.673 106.119 108.712C105.828 108.75 105.533 108.728 105.252 108.648C104.676 108.448 104.197 108.035 103.914 107.495C103.631 106.954 103.564 106.326 103.728 105.738Z" fill="#B16668"/>
<path d="M106.05 108.72C106.045 108.136 105.81 107.577 105.395 107.166C104.98 106.755 104.42 106.524 103.836 106.524C103.778 106.521 103.72 106.521 103.662 106.524C103.684 106.993 103.845 107.444 104.127 107.82C104.408 108.195 104.796 108.478 105.24 108.63C105.501 108.716 105.777 108.747 106.05 108.72Z" fill="#F28F8F"/>
<path d="M105.036 113.4C102.006 113.04 95.76 111.3 94.746 108.762C95.1522 110.036 95.9319 111.158 96.984 111.984C98.868 113.604 105.036 115.29 105.036 115.29V113.4Z" fill="#F28F8F"/>
<path d="M92.484 114.24C91.692 114.078 90.99 114.426 90.342 115.518C89.694 116.61 88.272 118.938 88.272 118.938C88.272 118.938 87.534 126.612 88.272 128.538C88.908 130.194 95.922 136.404 95.922 136.404C95.922 136.404 94.092 143.298 94.026 145.56C93.96 147.822 98.226 156.408 98.742 160.8C98.742 160.8 100.26 147 99.606 142.026C98.478 133.404 94.434 122.268 92.526 118.728L92.484 114.24Z" fill="#EBEBEB"/>
<path d="M96.774 142.8C96.3059 141.686 95.7543 140.609 95.124 139.578C94.128 137.928 92.898 136.344 91.788 135.936C91.6197 135.869 91.441 135.833 91.26 135.828H91.2C91.0172 135.838 90.8381 135.883 90.672 135.96C89.796 136.35 88.872 137.544 88.122 138.918C87.3539 140.298 86.721 141.748 86.232 143.25C85.944 144.18 86.07 146.154 86.412 148.41C87.084 152.79 88.578 158.262 89.412 159.342C90.0233 160.097 90.7455 160.754 91.554 161.292C91.0589 161.619 90.5248 161.884 89.964 162.078C89.6468 162.194 89.3116 162.253 88.974 162.252V163.038H89.07C89.4267 163.032 89.7805 162.974 90.12 162.864C90.9064 162.609 91.6491 162.234 92.322 161.754C93.0323 162.177 93.8033 162.489 94.608 162.678C94.9869 162.769 95.3787 162.793 95.766 162.75L95.67 161.97C95.334 161.998 94.9956 161.972 94.668 161.892C94.0908 161.741 93.5345 161.52 93.012 161.232C93.7735 160.626 94.4407 159.91 94.992 159.108C95.46 158.394 96.036 155.934 96.468 153.108C96.732 151.422 96.948 149.61 97.068 147.96C97.2 145.656 97.14 143.682 96.774 142.8ZM94.296 158.676C93.7331 159.488 93.0421 160.203 92.25 160.794C91.4085 160.274 90.6585 159.62 90.03 158.856C89.25 157.842 87.81 152.502 87.162 148.29C86.832 146.16 86.712 144.318 86.976 143.49C87.4653 141.97 88.1128 140.506 88.908 139.122C89.736 137.694 90.618 136.644 91.23 136.62C91.956 136.62 93.132 137.934 94.23 139.62C94.452 139.95 94.662 140.31 94.866 140.67C95.3136 141.445 95.7143 142.247 96.066 143.07C96.396 143.886 96.432 145.728 96.282 147.87C96.198 149.07 96.066 150.324 95.898 151.572C95.442 154.83 94.8 157.884 94.296 158.658V158.676Z" fill="#455A64"/>
<path d="M96.84 162.288C96.8493 162.517 96.7905 162.744 96.671 162.939C96.5514 163.135 96.3765 163.29 96.1684 163.386C95.9603 163.483 95.7284 163.515 95.502 163.479C95.2756 163.443 95.0649 163.341 94.8966 163.185C94.7284 163.03 94.6101 162.827 94.5567 162.605C94.5034 162.382 94.5174 162.148 94.597 161.933C94.6766 161.718 94.8182 161.532 95.0039 161.397C95.1896 161.263 95.4109 161.186 95.64 161.178C95.9462 161.167 96.2444 161.277 96.4693 161.485C96.6942 161.693 96.8275 161.982 96.84 162.288Z" fill="#263238"/>
<path d="M90.114 162.6C90.1245 162.829 90.0667 163.056 89.9479 163.253C89.8291 163.449 89.6547 163.606 89.4468 163.703C89.2388 163.8 89.0067 163.833 88.78 163.797C88.5532 163.762 88.342 163.661 88.1732 163.505C88.0043 163.35 87.8854 163.148 87.8315 162.925C87.7777 162.702 87.7913 162.468 87.8707 162.253C87.9501 162.037 88.0916 161.85 88.2773 161.716C88.4631 161.581 88.6847 161.504 88.914 161.496C89.0653 161.489 89.2164 161.513 89.3586 161.565C89.5009 161.617 89.6314 161.697 89.7429 161.799C89.8544 161.902 89.9445 162.025 90.0082 162.163C90.0718 162.3 90.1078 162.449 90.114 162.6Z" fill="#263238"/>
<path d="M96.972 147.948L96.306 147.9C96.2381 147.894 96.1752 147.862 96.1305 147.81C96.0857 147.759 96.0626 147.692 96.066 147.624C96.204 145.422 96.132 143.802 95.862 143.154C94.698 140.31 92.262 136.746 91.236 136.788C90.21 136.83 88.086 140.592 87.162 143.52C86.952 144.192 87.018 145.812 87.336 147.996C87.3465 148.063 87.3303 148.131 87.2911 148.186C87.2518 148.241 87.1925 148.278 87.126 148.29L86.466 148.392C86.3968 148.4 86.3271 148.381 86.272 148.339C86.2169 148.296 86.181 148.233 86.172 148.164C85.806 145.716 85.764 144.036 86.04 143.166C86.532 141.594 88.854 135.708 91.188 135.612C93.522 135.516 96.336 141.18 96.96 142.71C97.302 143.55 97.404 145.23 97.248 147.696C97.2434 147.765 97.2121 147.83 97.1607 147.877C97.1092 147.924 97.0416 147.95 96.972 147.948Z" fill="#318AD1"/>
<path d="M82.584 119.946C78.192 119.874 76.164 121.356 73.38 125.082C71.172 128.04 62.58 144.024 59.73 148.692L44.214 140.4C41.076 138.234 40.062 134.814 38.076 132.816C36.09 130.818 34.032 130.416 31.848 128.766C29.664 127.116 28.776 125.832 28.146 127.374C27.516 128.916 29.946 131.412 30.408 132.03C30.87 132.648 33.306 134.022 30.144 134.07C26.982 134.118 20.724 130.842 19.2 130.26C17.676 129.678 17.766 131.496 18.516 132.66C19.266 133.824 19.23 137.112 20.496 139.014C21.834 141.03 22.566 141.906 25.548 143.214C28.32 144.414 34.14 144.894 37.086 146.736C40.032 148.578 47.334 155.07 51.774 158.964C57.42 163.914 61.314 164.82 64.458 161.85C67.512 158.652 70.608 154.902 72.12 153C76.194 147.87 82.638 136.2 82.638 136.2C82.638 136.2 85.428 130.2 82.584 119.946Z" fill="#FFA8A7"/>
<path d="M83.19 119.508C76.722 119.508 74.79 121.848 71.478 127.254C68.166 132.66 59.67 148.134 59.67 148.134L47.436 141.726C47.436 141.726 45.234 146.574 42.894 151.572C42.894 151.572 49.818 157.572 53.094 160.41C56.37 163.248 60.714 165.474 64.74 162C69.042 158.292 82.992 139.026 82.992 139.026C86.304 133.014 85.566 123.9 83.19 119.508Z" fill="#F0F0F0"/>
<path d="M59.67 148.134C61.668 150.486 64.086 153.132 63.978 155.214C63.978 155.214 65.346 153.366 60.54 146.556L59.67 148.134Z" fill="#E0E0E0"/>
<path d="M36.528 90.4321L31.524 93.3001L31.542 87.5521L27.798 85.3921L19.068 90.4321V100.512L10.338 105.552V115.632L14.082 117.792L19.068 114.912V120.678L22.812 122.838L31.542 117.792V107.712L40.272 102.672V92.5921L36.528 90.4321Z" fill="#318AD1"/>
<path d="M14.082 107.712V117.792L22.812 112.752V122.838L31.542 117.792V107.712L40.272 102.672V92.5921L31.512 97.6501L31.542 87.5521L22.812 92.5921V102.672L14.082 107.712Z" fill="#318AD1"/>
<g opacity="0.2">
<path d="M14.082 117.792L10.338 115.632V105.552L14.082 107.712V117.792Z" fill="black"/>
<path d="M22.812 92.5921L19.068 90.4321V100.512L22.812 102.672V92.5921Z" fill="black"/>
<path d="M22.812 122.838L19.068 120.678V114.912L22.812 112.752V122.838Z" fill="black"/>
</g>
<g opacity="0.5">
<path d="M22.812 102.672L19.068 100.512L10.338 105.552L14.082 107.712L22.812 102.672Z" fill="white"/>
<path d="M31.542 87.5521L27.798 85.3921L19.068 90.4321L22.812 92.5921L31.542 87.5521Z" fill="white"/>
<path d="M40.272 92.5921L36.528 90.4321L31.524 93.3001L31.512 97.6501L40.272 92.5921Z" fill="white"/>
</g>
<path d="M180.12 70.2001C179.962 70.0628 179.791 69.9402 179.61 69.8341C178.974 69.4561 176.094 67.8001 175.944 67.7101C174.42 66.7381 172.008 66.9541 169.86 68.0401C166.782 69.5941 164.22 72.8761 162.264 78.3421C162.264 78.3421 160.284 76.9201 159.642 76.5421C158.052 75.6721 156.192 76.0921 154.098 77.4541C151.74 78.9901 150.132 80.9821 148.662 83.9941V84.0481C147.388 86.6056 146.692 89.4117 146.622 92.2681C146.622 98.5861 149.208 101.598 152.574 103.86C153.534 104.508 156.072 105.87 156.324 106.038C158.355 107.379 160.602 108.362 162.966 108.942L166.284 109.716L169.602 105.114C172.018 101.721 174.235 98.191 176.244 94.5421C179.61 88.3921 182.244 82.3681 182.196 76.0741C182.148 73.3801 181.374 71.4001 180.12 70.2001Z" fill="#318AD1"/>
<path opacity="0.3" d="M180.12 70.2001C179.962 70.0628 179.791 69.9402 179.61 69.8341C178.974 69.4561 176.094 67.8001 175.944 67.7101C174.42 66.7381 172.008 66.9541 169.86 68.0401C166.782 69.5941 164.22 72.8761 162.264 78.3421C162.264 78.3421 160.284 76.9201 159.642 76.5421C158.052 75.6721 156.192 76.0921 154.098 77.4541C151.74 78.9901 150.132 80.9821 148.662 83.9941V84.0481C147.388 86.6056 146.692 89.4117 146.622 92.2681C146.622 98.5861 149.208 101.598 152.574 103.86C153.534 104.508 156.072 105.87 156.324 106.038C158.355 107.379 160.602 108.362 162.966 108.942L166.284 109.716L169.602 105.114C172.018 101.721 174.235 98.191 176.244 94.5421C179.61 88.3921 182.244 82.3681 182.196 76.0741C182.148 73.3801 181.374 71.4001 180.12 70.2001Z" fill="black"/>
<path d="M180.12 70.2001C179.962 70.0628 179.791 69.9402 179.61 69.8341C178.974 69.4561 176.094 67.8001 175.944 67.7101C174.42 66.7381 172.008 66.9541 169.86 68.0401C166.782 69.5941 164.22 72.8761 162.264 78.3421C162.264 78.3421 160.284 76.9201 159.642 76.5421C158.052 75.6721 156.192 76.0921 154.098 77.4541C151.74 78.9901 150.132 80.9821 148.662 83.9941V84.0481C148.596 84.1801 148.542 84.3121 148.482 84.4441L173.682 98.9761C174.576 97.5241 175.446 96.0541 176.274 94.5421C179.64 88.3921 182.274 82.3681 182.226 76.0741C182.148 73.3801 181.374 71.4001 180.12 70.2001Z" fill="#318AD1"/>
<path opacity="0.15" d="M180.12 70.2001C179.962 70.0628 179.791 69.9402 179.61 69.8341C178.974 69.4561 176.094 67.8001 175.944 67.7101C174.42 66.7381 172.008 66.9541 169.86 68.0401C166.782 69.5941 164.22 72.8761 162.264 78.3421C162.264 78.3421 160.284 76.9201 159.642 76.5421C158.052 75.6721 156.192 76.0921 154.098 77.4541C151.74 78.9901 150.132 80.9821 148.662 83.9941V84.0481C148.596 84.1801 148.542 84.3121 148.482 84.4441L173.682 98.9761C174.576 97.5241 175.446 96.0541 176.274 94.5421C179.64 88.3921 182.274 82.3681 182.226 76.0741C182.148 73.3801 181.374 71.4001 180.12 70.2001Z" fill="black"/>
<path d="M162.246 78.318L165.618 82.716L171.054 76.284L164.91 72.738C163.816 74.4924 162.922 76.3641 162.246 78.318Z" fill="#318AD1"/>
<path opacity="0.3" d="M162.246 78.318L165.618 82.716L171.054 76.284L164.91 72.738C163.816 74.4924 162.922 76.3641 162.246 78.318Z" fill="black"/>
<path d="M180.12 70.2001C178.65 68.8861 175.974 69.0001 173.61 70.2001C170.388 71.8321 167.724 75.3541 165.732 81.3181C163.74 77.6581 161.076 77.5441 157.854 79.6381C155.49 81.1741 153.882 83.1661 152.418 86.1781L152.388 86.2321C151.119 88.7931 150.425 91.6006 150.354 94.4581C150.354 100.776 152.946 103.788 156.306 106.05C158.337 107.391 160.584 108.374 162.948 108.954L166.266 109.728L169.584 105.126C172 101.733 174.217 98.203 176.226 94.5541C179.592 88.4041 182.226 82.3801 182.178 76.0861C182.148 73.3801 181.374 71.4001 180.12 70.2001Z" fill="#318AD1"/>
<g opacity="0.07">
<path d="M177.288 69.6C178.213 69.5577 179.122 69.8494 179.85 70.422C179.863 70.4479 179.881 70.4705 179.904 70.488C181.14 71.616 181.83 73.62 181.836 76.116C181.836 82.686 178.836 89.064 175.926 94.428C173.932 98.065 171.729 101.583 169.326 104.964L166.14 109.398L163.038 108.672C160.709 108.1 158.495 107.134 156.492 105.816C153.492 103.776 150.66 101.016 150.684 94.488C150.748 91.6807 151.421 88.9209 152.658 86.4V86.346C154.134 83.316 155.724 81.402 157.98 79.938C159.028 79.1608 160.278 78.7024 161.58 78.618C163.104 78.618 164.358 79.56 165.414 81.498C165.44 81.5499 165.481 81.5932 165.531 81.623C165.581 81.6528 165.638 81.6677 165.696 81.666H165.726C165.788 81.6602 165.847 81.6368 165.896 81.5985C165.945 81.5602 165.982 81.5087 166.002 81.45C167.904 75.756 170.43 72.18 173.718 70.518C174.816 69.9429 176.031 69.6288 177.27 69.6M177.27 69.282C175.981 69.3086 174.716 69.633 173.574 70.23C170.352 71.862 167.688 75.384 165.696 81.348C164.544 79.224 163.164 78.294 161.58 78.294C160.221 78.3834 158.915 78.8602 157.818 79.668C155.454 81.204 153.846 83.196 152.382 86.208L152.352 86.262C151.083 88.823 150.389 91.6305 150.318 94.488C150.318 100.806 152.91 103.818 156.27 106.08C158.301 107.421 160.548 108.404 162.912 108.984L166.23 109.758L169.548 105.156C171.964 101.763 174.181 98.2329 176.19 94.584C179.556 88.434 182.19 82.41 182.142 76.116C182.142 73.41 181.356 71.4 180.102 70.248C179.31 69.6029 178.309 69.2718 177.288 69.318L177.27 69.282Z" fill="black"/>
</g>
<path d="M179.754 87.2101L173.298 90.9421L170.898 82.2121C170.864 82.0801 170.786 81.9636 170.677 81.8818C170.568 81.8 170.434 81.7578 170.298 81.7621C170.158 81.7593 170.021 81.8058 169.911 81.8935C169.802 81.9812 169.726 82.1046 169.698 82.2421L165.96 99.3181L162.816 90.7141C162.81 90.555 162.74 90.4049 162.623 90.2969C162.506 90.1889 162.351 90.1318 162.192 90.1381C162.033 90.1445 161.883 90.2138 161.775 90.3308C161.667 90.4479 161.61 90.603 161.616 90.7621L159.492 98.3041L152.388 102.408C152.622 102.748 152.874 103.074 153.144 103.386L160.344 99.2401C160.483 99.1594 160.586 99.0284 160.632 98.8741L162.306 92.9221L165.528 101.718C165.571 101.841 165.653 101.947 165.761 102.02C165.869 102.092 165.998 102.127 166.128 102.12C166.261 102.113 166.388 102.063 166.489 101.976C166.59 101.889 166.66 101.771 166.686 101.64L170.346 84.9481L172.278 92.0341C172.301 92.1253 172.345 92.2098 172.407 92.2808C172.468 92.3518 172.546 92.4074 172.633 92.443C172.72 92.4786 172.814 92.4933 172.907 92.4858C173.001 92.4784 173.092 92.449 173.172 92.4001L178.908 89.0941C179.238 88.4641 179.502 87.8401 179.754 87.2101Z" fill="white"/>
<path d="M206.85 247.674C206.604 248.487 206.583 249.352 206.79 250.176C207.03 250.68 208.53 252.336 211.59 252.936C214.65 253.536 218.856 252.936 220.668 252.828C222.48 252.72 228.168 253.428 229.974 253.656C232.818 254.04 235.002 253.416 236.064 252.39C236.236 252.184 236.363 251.944 236.436 251.685C236.509 251.427 236.528 251.156 236.49 250.89C236.484 250.205 236.383 249.525 236.19 248.868L206.85 247.674Z" fill="#263238"/>
<path d="M235.722 245.892C235.776 246.126 235.83 246.366 235.878 246.606C236.155 247.813 236.242 249.056 236.136 250.29C235.77 251.19 234.768 251.688 233.958 251.94C231.816 252.624 230.19 252.54 227.82 252.066C225.436 251.719 223.028 251.57 220.62 251.622C218.754 251.748 216.186 252.108 214.32 251.934C212.733 251.868 211.167 251.548 209.682 250.986C208.44 250.458 207.168 249.786 206.862 248.49C206.496 245.79 207.63 244.602 208.908 243.846C210.186 243.09 212.004 243.15 213.948 243.024C215.706 242.904 216.99 242.904 218.556 242.784C219.91 242.718 221.255 242.531 222.576 242.226C223.776 241.854 224.976 240.348 225.468 240.294C225.468 240.294 233.298 240.234 234.042 240.294C234.906 240.366 235.17 243.042 235.278 243.624C235.362 244.08 235.38 244.572 235.5 245.01C235.578 245.304 235.65 245.598 235.722 245.892Z" fill="#37474F"/>
<path d="M211.596 251.574C211.35 249.63 210.996 245.418 214.596 242.982H215.046C213.429 242.514 211.713 242.514 210.096 242.982C207.234 243.744 205.962 246.06 206.676 248.508C206.688 248.484 207.324 250.854 211.596 251.574Z" fill="#FAFAFA"/>
<path d="M222.042 242.364C220.884 243.39 220.482 245.724 220.482 245.724C220.332 246.6 218.748 246.732 218.898 245.886C219.14 244.723 219.607 243.618 220.272 242.634C220.815 242.348 221.438 242.252 222.042 242.364Z" fill="#FAFAFA"/>
<path d="M218.796 242.766C217.923 243.621 217.352 244.737 217.17 245.946C217.008 246.786 215.688 246.774 215.784 245.946C215.784 245.946 215.934 243.876 217.17 242.91C217.409 242.757 217.682 242.664 217.965 242.638C218.248 242.613 218.533 242.657 218.796 242.766Z" fill="#FAFAFA"/>
<path d="M234.282 234.6C234.282 234.6 234.072 239.634 233.796 241.284C233.628 242.268 232.338 243.3 229.128 243.192C226.872 243.114 225.096 243.3 225.186 241.536L225.384 236.394L234.282 234.6Z" fill="#FFA8A7"/>
<path d="M239.316 222.708C239.202 224.082 239.016 225.324 239.58 226.836C240.384 229.008 242.088 230.004 243.09 230.856C244.144 231.9 245.117 233.023 246 234.216C246.984 235.416 247.242 236.13 248.718 237.438C249.454 238.004 250.323 238.37 251.243 238.499C252.162 238.629 253.099 238.517 253.962 238.176C255.24 237.63 255.684 237.198 255.606 235.236C255.528 233.274 249.276 232.608 249.276 232.608L239.316 222.708Z" fill="#263238"/>
<path d="M254.796 229.392C255.33 229.584 255.462 230.55 255.546 232.47C255.606 233.922 256.248 236.07 254.142 236.964C252.444 237.702 249.732 237.21 248.586 235.842C247.158 234.132 246.186 232.626 244.146 230.544C242.346 228.744 240.546 228.144 239.748 224.514C239.238 222.186 239.64 221.226 241.284 220.56C243.546 219.642 247.092 222.636 248.868 223.11C250.392 223.512 254.262 229.2 254.796 229.392Z" fill="#37474F"/>
<path d="M248.868 223.11L248.568 223.008C247.556 223.046 246.572 223.347 245.713 223.883C244.854 224.419 244.151 225.17 243.672 226.062C243.372 226.692 244.272 227.184 244.872 226.692C246.132 224.292 248.724 223.776 249.762 223.662C249.506 223.417 249.202 223.228 248.868 223.11Z" fill="#FAFAFA"/>
<path d="M250.326 224.202C249.376 224.291 248.463 224.614 247.67 225.143C246.876 225.672 246.226 226.39 245.778 227.232C245.478 227.832 246.408 228.354 246.978 227.832C247.406 227.081 247.993 226.433 248.698 225.932C249.402 225.432 250.208 225.091 251.058 224.934C250.8 224.694 250.56 224.436 250.326 224.202Z" fill="#FAFAFA"/>
<path d="M255.102 225.924L254.796 229.974C254.796 229.974 252.222 231.852 248.532 230.13C248.424 229.908 248.112 226.284 248.112 226.284L255.102 225.924Z" fill="#FFA8A7"/>
<path d="M240.786 227.184C240.786 227.184 240.96 222.882 247.074 222.288L247.428 222.474C246.732 221.395 245.665 220.61 244.428 220.266C242.4 219.744 240.792 220.266 239.724 221.55C238.656 222.834 239.73 226.35 240.786 227.184Z" fill="#FAFAFA"/>
<path d="M256.884 198.948C256.008 191.862 255.684 187.914 255.684 187.914C255.684 187.914 255.51 177.936 256.116 168.714C256.38 164.67 256.518 160.194 256.602 156.114C256.714 151.621 256.356 147.129 255.534 142.71C255.534 142.71 224.16 136.47 223.77 147.978C223.296 161.778 223.356 185.364 222.822 194.37C222.528 199.428 223.038 203.622 223.356 213.45C223.614 221.598 223.536 241.65 223.536 241.65C226.992 246.396 235.152 242.778 235.152 242.778C235.152 242.778 237.672 214.62 238.044 208.8C238.44 202.542 237.78 199.374 237.78 199.374L241.014 170.22C241.014 170.22 241.26 179.574 241.536 184.62C241.812 189.666 242.55 192.768 243.864 202.182C245.004 210.354 247.428 231.21 247.428 231.21C251.628 233.694 255.684 231.21 255.684 231.21C255.684 231.21 257.76 206.034 256.884 198.948Z" fill="#455A64"/>
<path d="M252.6 158.682C252.6 158.682 248.67 163.698 243.6 165.852C243.6 165.852 241.404 183.486 241.422 183.138L240.852 165.39C240.852 165.39 248.4 162.054 252.6 158.682Z" fill="#37474F"/>
<path d="M252.492 102C255.87 101.244 259.692 103.656 262.236 109.038C264.696 114.186 271.416 127.188 271.578 130.83C271.752 134.604 254.964 146.052 255.378 145.83C255.51 145.764 252.48 137.172 252.48 137.172L260.634 130.422L256.2 121.29L252.492 102Z" fill="#FFA8A7"/>
<path d="M250.716 101.19C253.56 100.842 258.714 101.916 260.682 105.336C263.538 110.286 266.142 116.01 269.46 123.408C269.46 123.408 267 128.736 259.92 129.24L255.678 121.8L250.716 101.19Z" fill="#37474F"/>
<path d="M236.4 96.7319L236.892 107.232L247.296 106.674L246.978 94.476L236.4 96.7319Z" fill="#FFA8A7"/>
<path d="M257.514 106.476C256.638 103.614 253.614 101.256 249.792 101.142C248.94 101.142 247.152 101.142 247.152 101.142C246.72 102.912 241.302 103.542 236.67 102.48C235.272 102.852 229.47 104.28 228.27 104.64C224.94 105.744 223.914 109.14 223.398 120C223.398 120 223.5 141.408 223.398 151.626C229.254 154.716 238.302 154.332 244.74 153.678C254.856 152.658 256.362 148.992 256.362 148.992C255.936 143.034 256.194 140.79 256.362 134.91C256.488 130.488 257.76 125.814 258.162 120.804C258.756 113.358 258.108 108.444 257.514 106.476Z" fill="#318AD1"/>
<path d="M234.774 98.7239C232.374 98.5559 229.374 100.47 228.6 104.568L230.556 104.046L234.774 98.7239Z" fill="#318AD1"/>
<path opacity="0.3" d="M234.774 98.7239C232.374 98.5559 229.374 100.47 228.6 104.568L230.556 104.046L234.774 98.7239Z" fill="black"/>
<path d="M236.532 99.5999C238.332 100.2 243.582 100.116 245.34 99.5999C247.098 99.0839 247.08 98.3039 247.08 98.3039V97.4219C248.094 97.419 249.084 97.7269 249.918 98.3039C251.04 99.2159 252.972 102.504 252.918 104.082C252.864 105.66 249.492 109.824 242.988 109.722C236.484 109.62 232.83 107.214 231.708 105.63L230.58 104.04C230.58 104.04 232.122 100.872 233.64 99.5399C234.418 98.7855 235.416 98.298 236.49 98.1479L236.532 99.5999Z" fill="#318AD1"/>
<path opacity="0.2" d="M236.532 99.5999C238.332 100.2 243.582 100.116 245.34 99.5999C247.098 99.0839 247.08 98.3039 247.08 98.3039V97.4219C248.094 97.419 249.084 97.7269 249.918 98.3039C251.04 99.2159 252.972 102.504 252.918 104.082C252.864 105.66 249.492 109.824 242.988 109.722C236.484 109.62 232.83 107.214 231.708 105.63L230.58 104.04C230.58 104.04 232.122 100.872 233.64 99.5399C234.418 98.7855 235.416 98.298 236.49 98.1479L236.532 99.5999Z" fill="black"/>
<path d="M229.398 83.856C229.398 83.856 226.92 87.618 227.202 87.984C227.484 88.35 229.308 88.692 229.308 88.692L229.398 83.856Z" fill="#F28F8F"/>
<path d="M236.286 73.4399C231.27 74.5019 229.266 75.9719 228.954 84.5459C228.654 92.8859 229.704 95.6339 230.796 96.7559C231.534 97.5119 235.644 97.6499 237.714 97.0739C240.306 96.3599 246.168 94.2839 248.91 90.0959C252.138 85.1639 252.984 78.4799 249.51 75.7379C244.668 71.8799 238.332 73.0079 236.286 73.4399Z" fill="#FFA8A7"/>
<path d="M230.796 96.7499C231.396 97.3499 234.27 97.5779 236.43 97.3139L236.4 96.0719C234.61 96.7321 232.691 96.9643 230.796 96.7499Z" fill="#F28F8F"/>
<path d="M228.288 76.6619C229.538 77.5578 231.088 77.9303 232.608 77.6999C232.578 78.3722 232.758 79.037 233.124 79.6019C233.633 80.3722 234.405 80.9309 235.296 81.1739C234.747 82.2503 234.455 83.4396 234.444 84.6479C234.41 85.0272 234.492 85.4078 234.678 85.7399C234.736 85.8606 234.826 85.9625 234.939 86.0338C235.052 86.1052 235.183 86.143 235.317 86.143C235.451 86.143 235.582 86.1052 235.695 86.0338C235.808 85.9625 235.898 85.8606 235.956 85.7399C236.238 85.1016 236.592 84.4977 237.012 83.9399C237.556 83.2891 238.321 82.8618 239.16 82.7399C242.31 82.3979 242.706 86.5199 241.446 88.2299C239.382 91.0259 237.63 89.1299 237.63 89.1299C237.55 90.4406 237.749 91.7534 238.214 92.9812C238.68 94.2091 239.401 95.324 240.33 96.2519C242.569 96.9117 244.942 96.9717 247.212 96.4259C250.008 92.5799 251.766 90.7079 253.26 87.3899C256.416 80.3639 254.892 75.9539 252.45 74.0939C251.97 70.8599 249.42 69.4079 246.51 68.7419C242.166 67.7399 238.11 70.3199 233.802 69.3419C233.095 69.1939 232.396 69.0097 231.708 68.7899C231.443 68.6656 231.141 68.6463 230.862 68.7359C230.708 68.8385 230.587 68.9841 230.514 69.1548C230.442 69.3254 230.421 69.5135 230.454 69.6959C230.508 70.5239 231.348 71.4419 231.774 71.8859C230.833 71.972 229.885 71.9174 228.96 71.7239C228.639 71.6638 228.309 71.6638 227.988 71.7239C227.636 71.8675 227.338 72.119 227.137 72.4424C226.937 72.7658 226.844 73.1444 226.872 73.5239C226.876 74.1169 227.003 74.7025 227.247 75.243C227.491 75.7835 227.846 76.2669 228.288 76.6619Z" fill="#263238"/>
<path d="M252.528 75.1379L255.528 73.3379C255.289 72.9401 254.902 72.6534 254.452 72.5409C254.002 72.4284 253.526 72.4992 253.128 72.7379C252.73 72.9766 252.443 73.3636 252.331 73.8137C252.218 74.2638 252.289 74.7401 252.528 75.1379Z" fill="#263238"/>
<path d="M213.432 122.4C212.752 119.728 212.096 117.052 211.464 114.372C210.864 111.906 209.94 109.05 210.786 106.53C211.267 105.429 211.871 104.387 212.586 103.422C213.205 102.405 213.727 101.332 214.146 100.218C214.356 99.678 214.548 99.126 214.746 98.58C214.944 98.034 215.226 97.722 215.094 97.2C214.656 95.49 212.448 97.734 211.998 98.436C211.798 98.8045 211.565 99.1539 211.302 99.48C211.014 99.786 210.312 100.17 209.976 99.72C209.864 99.5394 209.802 99.3324 209.796 99.12C209.568 96.486 210.516 94.128 211.302 91.668C211.426 91.345 211.501 91.0052 211.524 90.66C211.538 90.4876 211.515 90.3142 211.456 90.1516C211.397 89.989 211.303 89.8411 211.182 89.718C210.986 89.5679 210.755 89.4722 210.51 89.4406C210.266 89.409 210.017 89.4426 209.79 89.538C209.346 89.688 208.962 89.97 208.518 90.108C208.074 90.246 207.744 90.246 207.354 90.348C206.429 90.5542 205.538 90.8916 204.708 91.35C203.268 92.196 202.632 93.432 202.254 95.004C201.8 96.9349 201.646 98.9242 201.798 100.902C201.9 102.216 202.134 103.512 202.296 104.808L202.836 109.146C203.202 112.038 203.31 126.486 203.808 129.36C204.306 132.234 205.266 134.16 207.54 135.114C210.84 136.458 216.174 130.386 219.204 127.242L213.432 122.4Z" fill="#FFA8A7"/>
<path d="M212.226 120.762C210.102 122.352 207.456 124.998 206.922 127.65C206.922 127.65 206.394 122.88 212.226 118.65V120.762Z" fill="#F28F8F"/>
<path d="M228.102 104.706C226.062 104.898 222.702 104.97 219.282 108.648C215.316 112.944 209.202 121.416 209.202 121.416C209.202 121.416 210 128.16 216.492 130.578C216.492 130.578 225.93 121.578 227.958 117.702C229.986 113.826 230.442 107.4 228.102 104.706Z" fill="#37474F"/>
<path d="M225.384 90.4499L222.804 89.0639L224.286 87.7979L218.928 85.2899L221.268 83.9339L215.496 80.8619L218.928 83.8919L216.138 85.2899L222.432 88.0139L220.878 89.5679L225.384 90.4499Z" fill="#318AD1"/>
<path d="M226.698 87.0479L225.018 85.4399L225.936 84.7619L224.46 83.0099L225.876 82.5299L225.384 80.3099L226.38 82.7039L225.384 83.1359L226.98 84.8879L225.9 85.6559L226.698 87.0479Z" fill="#318AD1"/>
<path d="M225.72 92.9879L222.552 95.4599L221.382 93.7379L218.61 95.2439L217.476 93.1139L213.186 94.2119L218.148 91.8359L219.57 93.7979L221.874 92.5619L222.834 94.2119L225.72 92.9879Z" fill="#318AD1"/>
<path d="M203.694 137.226C203.79 137.146 203.915 137.107 204.039 137.118C204.164 137.13 204.279 137.19 204.36 137.286C204.973 137.975 205.77 138.475 206.657 138.728C207.545 138.981 208.485 138.976 209.37 138.714C209.43 138.693 209.494 138.684 209.558 138.688C209.622 138.692 209.684 138.709 209.741 138.738C209.799 138.767 209.849 138.807 209.89 138.856C209.932 138.905 209.962 138.962 209.981 139.023C210 139.084 210.006 139.148 209.999 139.212C209.992 139.276 209.972 139.337 209.941 139.393C209.91 139.449 209.867 139.498 209.817 139.537C209.766 139.576 209.708 139.604 209.646 139.62C208.585 139.934 207.457 139.938 206.394 139.632C205.331 139.326 204.377 138.722 203.646 137.892C203.605 137.845 203.573 137.791 203.554 137.732C203.534 137.673 203.526 137.611 203.53 137.549C203.535 137.487 203.552 137.426 203.58 137.371C203.608 137.316 203.647 137.266 203.694 137.226Z" fill="#E0E0E0"/>
<path d="M204.174 140.4C204.258 140.33 204.364 140.291 204.474 140.291C204.584 140.291 204.69 140.33 204.774 140.4C205.262 140.753 205.822 140.995 206.414 141.109C207.006 141.223 207.615 141.206 208.2 141.06C208.324 141.037 208.452 141.064 208.556 141.135C208.661 141.205 208.733 141.314 208.758 141.438C208.77 141.499 208.77 141.561 208.758 141.622C208.746 141.683 208.722 141.74 208.687 141.792C208.653 141.843 208.608 141.887 208.556 141.921C208.505 141.955 208.447 141.978 208.386 141.99C207.663 142.158 206.912 142.165 206.186 142.01C205.461 141.856 204.778 141.544 204.186 141.096C204.139 141.056 204.1 141.006 204.072 140.951C204.043 140.895 204.027 140.835 204.022 140.773C204.018 140.711 204.026 140.649 204.046 140.59C204.065 140.531 204.097 140.477 204.138 140.43C204.149 140.418 204.161 140.408 204.174 140.4Z" fill="#E0E0E0"/>
<path d="M263.088 104.034C263.033 104.063 262.972 104.08 262.91 104.085C262.848 104.09 262.785 104.083 262.726 104.063C262.666 104.043 262.612 104.012 262.565 103.971C262.518 103.93 262.479 103.88 262.452 103.824C262.014 103.012 261.355 102.341 260.551 101.889C259.747 101.436 258.831 101.221 257.91 101.268C257.848 101.272 257.785 101.263 257.727 101.242C257.668 101.222 257.613 101.19 257.567 101.148C257.473 101.064 257.416 100.947 257.409 100.821C257.402 100.695 257.445 100.572 257.529 100.478C257.613 100.384 257.73 100.327 257.856 100.32C258.962 100.262 260.061 100.521 261.025 101.066C261.989 101.611 262.778 102.42 263.298 103.398C263.353 103.51 263.361 103.64 263.322 103.759C263.283 103.877 263.199 103.976 263.088 104.034Z" fill="#E0E0E0"/>
<path d="M263.352 100.854C263.251 100.907 263.135 100.921 263.025 100.895C262.914 100.868 262.817 100.803 262.752 100.71C262.365 100.257 261.884 99.8935 261.344 99.643C260.804 99.3924 260.216 99.2611 259.62 99.2579C259.558 99.2555 259.496 99.2409 259.44 99.2149C259.383 99.1889 259.332 99.152 259.29 99.1063C259.248 99.0607 259.215 99.0071 259.193 98.9487C259.171 98.8903 259.162 98.8282 259.164 98.7659C259.166 98.7037 259.181 98.6425 259.207 98.5859C259.233 98.5293 259.27 98.4784 259.315 98.436C259.361 98.3937 259.415 98.3607 259.473 98.3391C259.532 98.3175 259.594 98.3075 259.656 98.3099C260.396 98.3173 261.125 98.4866 261.793 98.8058C262.46 99.1251 263.05 99.5866 263.52 100.158C263.588 100.259 263.613 100.383 263.59 100.503C263.568 100.623 263.5 100.73 263.4 100.8L263.352 100.854Z" fill="#E0E0E0"/>
<path d="M271.74 135.438C271.68 135.328 271.666 135.199 271.7 135.079C271.735 134.958 271.816 134.857 271.926 134.796C272.716 134.321 273.355 133.631 273.768 132.807C274.181 131.982 274.352 131.057 274.26 130.14C274.252 130.078 274.257 130.015 274.275 129.955C274.292 129.895 274.321 129.839 274.36 129.79C274.399 129.742 274.448 129.701 274.502 129.672C274.557 129.642 274.618 129.624 274.68 129.618C274.805 129.605 274.93 129.641 275.028 129.72C275.126 129.799 275.188 129.913 275.202 130.038C275.309 131.135 275.102 132.24 274.606 133.225C274.111 134.209 273.345 135.033 272.4 135.6C272.346 135.634 272.286 135.656 272.224 135.666C272.161 135.676 272.097 135.673 272.036 135.658C271.974 135.643 271.916 135.616 271.865 135.578C271.815 135.54 271.772 135.493 271.74 135.438Z" fill="#E0E0E0"/>
<path d="M274.926 135.552C274.872 135.454 274.854 135.341 274.875 135.231C274.896 135.122 274.954 135.023 275.04 134.952C275.475 134.545 275.817 134.048 276.042 133.496C276.267 132.944 276.369 132.349 276.342 131.754C276.342 131.628 276.392 131.508 276.481 131.419C276.57 131.33 276.69 131.28 276.816 131.28C276.942 131.28 277.062 131.33 277.151 131.419C277.24 131.508 277.29 131.628 277.29 131.754C277.316 132.493 277.181 133.228 276.895 133.91C276.609 134.591 276.179 135.203 275.634 135.702C275.585 135.741 275.529 135.769 275.469 135.786C275.409 135.803 275.347 135.808 275.285 135.801C275.223 135.794 275.163 135.774 275.109 135.744C275.054 135.714 275.007 135.673 274.968 135.624L274.926 135.552Z" fill="#E0E0E0"/>
<path d="M219.732 192.6C219.844 192.657 219.929 192.755 219.97 192.874C220.01 192.993 220.002 193.123 219.948 193.236C219.568 194.076 219.435 195.007 219.565 195.919C219.694 196.832 220.081 197.689 220.68 198.39C220.761 198.487 220.801 198.611 220.791 198.737C220.781 198.863 220.721 198.979 220.626 199.062C220.531 199.143 220.408 199.184 220.283 199.175C220.158 199.166 220.042 199.108 219.96 199.014C219.241 198.17 218.777 197.139 218.624 196.041C218.471 194.943 218.635 193.824 219.096 192.816C219.153 192.704 219.251 192.618 219.37 192.578C219.489 192.538 219.619 192.546 219.732 192.6Z" fill="#E0E0E0"/>
<path d="M217.044 194.31C217.146 194.358 217.228 194.442 217.274 194.545C217.321 194.649 217.328 194.765 217.296 194.874C217.17 195.457 217.172 196.06 217.301 196.642C217.431 197.224 217.685 197.771 218.046 198.246C218.117 198.349 218.144 198.476 218.123 198.599C218.102 198.722 218.033 198.832 217.932 198.906C217.829 198.978 217.702 199.007 217.578 198.985C217.455 198.964 217.344 198.894 217.272 198.792C216.827 198.199 216.517 197.515 216.364 196.79C216.21 196.065 216.217 195.314 216.384 194.592C216.402 194.532 216.433 194.476 216.473 194.427C216.513 194.379 216.563 194.339 216.618 194.31C216.674 194.281 216.735 194.263 216.798 194.258C216.861 194.253 216.924 194.26 216.984 194.28L217.044 194.31Z" fill="#E0E0E0"/>
<path d="M184.47 27.8701C184.44 27.3106 184.279 26.7661 183.998 26.2811C183.718 25.7961 183.326 25.3846 182.856 25.0801L181.548 24.3181C181.048 24.0678 180.496 23.9375 179.937 23.9375C179.378 23.9375 178.826 24.0678 178.326 24.3181L147.936 41.8801C147.466 42.1853 147.075 42.597 146.795 43.0818C146.514 43.5666 146.352 44.1108 146.322 44.6701V60.3841C146.353 60.9432 146.515 61.4872 146.795 61.972C147.076 62.4567 147.467 62.8685 147.936 63.1741L149.25 63.9301C149.749 64.1845 150.301 64.3172 150.861 64.3172C151.421 64.3172 151.973 64.1845 152.472 63.9301L182.856 46.3741C183.326 46.0696 183.718 45.658 183.998 45.1731C184.279 44.6881 184.44 44.1436 184.47 43.5841V27.8701Z" fill="#318AD1"/>
<path opacity="0.5" d="M184.47 27.8701C184.44 27.3106 184.279 26.7661 183.998 26.2811C183.718 25.7961 183.326 25.3846 182.856 25.0801L181.548 24.3181C181.048 24.0678 180.496 23.9375 179.937 23.9375C179.378 23.9375 178.826 24.0678 178.326 24.3181L147.936 41.8801C147.466 42.1853 147.075 42.597 146.795 43.0818C146.514 43.5666 146.352 44.1108 146.322 44.6701V60.3841C146.353 60.9432 146.515 61.4872 146.795 61.972C147.076 62.4567 147.467 62.8685 147.936 63.1741L149.25 63.9301C149.749 64.1845 150.301 64.3172 150.861 64.3172C151.421 64.3172 151.973 64.1845 152.472 63.9301L182.856 46.3741C183.326 46.0696 183.718 45.658 183.998 45.1731C184.279 44.6881 184.44 44.1436 184.47 43.5841V27.8701Z" fill="white"/>
<path opacity="0.2" d="M146.322 60.3841C146.353 60.9432 146.515 61.4872 146.795 61.972C147.076 62.4567 147.467 62.8685 147.936 63.1741L149.25 63.9301C149.704 64.1588 150.201 64.2888 150.709 64.3116C151.217 64.3343 151.723 64.2493 152.196 64.0621C151.434 64.3501 150.858 63.9241 150.858 63.0001V47.2861C150.877 46.7243 151.041 46.1768 151.332 45.6961L146.796 43.0801C146.504 43.5605 146.341 44.1081 146.322 44.6701V60.3841Z" fill="black"/>
<path opacity="0.3" d="M184.416 27.4141C184.23 26.7301 183.606 26.5081 182.862 26.9401L152.472 44.4961C151.994 44.7896 151.6 45.2033 151.332 45.6961L146.802 43.0801C147.07 42.5889 147.461 42.1755 147.936 41.8801L178.32 24.3241C178.819 24.0697 179.371 23.937 179.931 23.937C180.491 23.937 181.043 24.0697 181.542 24.3241L182.862 25.0801C183.265 25.3438 183.611 25.6867 183.878 26.0878C184.145 26.489 184.328 26.9402 184.416 27.4141Z" fill="white"/>
<path d="M150.864 52.3682L146.334 49.7522L140.874 55.0082C140.792 55.0909 140.73 55.1911 140.692 55.3014C140.654 55.4117 140.642 55.5291 140.657 55.6447C140.671 55.7604 140.712 55.8712 140.775 55.9688C140.839 56.0664 140.924 56.1483 141.024 56.2082L145.482 58.8002C145.667 58.8968 145.874 58.9404 146.082 58.9262L150.882 58.0082V52.3682H150.864Z" fill="#318AD1"/>
<path opacity="0.5" d="M150.864 52.3682L146.334 49.7522L140.874 55.0082C140.792 55.0909 140.73 55.1911 140.692 55.3014C140.654 55.4117 140.642 55.5291 140.657 55.6447C140.671 55.7604 140.712 55.8712 140.775 55.9688C140.839 56.0664 140.924 56.1483 141.024 56.2082L145.482 58.8002C145.667 58.8968 145.874 58.9404 146.082 58.9262L150.882 58.0082V52.3682H150.864Z" fill="white"/>
<path opacity="0.3" d="M145.482 58.8001L143.082 57.4261L142.8 57.2401L141.516 56.4961L141.36 56.4001L141.018 56.2021C140.918 56.1422 140.833 56.0603 140.769 55.9627C140.706 55.8651 140.665 55.7542 140.651 55.6386C140.636 55.523 140.648 55.4056 140.686 55.2953C140.724 55.185 140.786 55.0848 140.868 55.0021L146.328 49.7461L150.864 52.3681L145.404 57.6001C145.317 57.6771 145.249 57.7729 145.205 57.8802C145.161 57.9875 145.142 58.1034 145.15 58.2192C145.157 58.3349 145.191 58.4474 145.249 58.5481C145.306 58.6487 145.386 58.7349 145.482 58.8001Z" fill="white"/>
<path d="M159.738 47.5381C159.111 47.9458 158.589 48.4958 158.215 49.1432C157.841 49.7907 157.625 50.5173 157.584 51.2641C157.584 52.6321 158.55 53.1901 159.738 52.5061C160.364 52.098 160.885 51.5478 161.258 50.9003C161.632 50.2529 161.847 49.5264 161.886 48.7801C161.886 47.4001 160.926 46.8541 159.738 47.5381Z" fill="white"/>
<path d="M167.664 42.9542C167.038 43.3622 166.517 43.9124 166.144 44.5599C165.77 45.2074 165.555 45.9339 165.516 46.6802C165.516 48.0482 166.476 48.6062 167.664 47.9162C168.289 47.5087 168.81 46.9595 169.183 46.3131C169.556 45.6667 169.772 44.9415 169.812 44.1962C169.8 42.8222 168.852 42.2642 167.664 42.9542Z" fill="white"/>
<path d="M175.59 38.3642C174.965 38.7733 174.445 39.3237 174.072 39.971C173.698 40.6182 173.483 41.3442 173.442 42.0902C173.442 43.4642 174.402 44.0162 175.59 43.3322C176.218 42.9238 176.74 42.3729 177.114 41.7244C177.489 41.0758 177.704 40.348 177.744 39.6002C177.744 38.2382 176.778 37.6802 175.59 38.3642Z" fill="white"/>
<path d="M242.964 58.6742L240.786 54.6002L242.538 49.5422V46.4282L237.174 49.5242V52.6202L239.478 56.6162C239.516 56.6759 239.57 56.7237 239.634 56.7542L242.964 58.6742Z" fill="#318AD1"/>
<path opacity="0.2" d="M242.964 58.6742L240.786 54.6002L242.538 49.5422V46.4282L237.174 49.5242V52.6202L239.478 56.6162C239.516 56.6759 239.57 56.7237 239.634 56.7542L242.964 58.6742Z" fill="black"/>
<path d="M259.254 26.2683C259.224 25.7104 259.063 25.1674 258.784 24.6836C258.504 24.1998 258.114 23.7889 257.646 23.4843L256.338 22.7283C255.84 22.4739 255.289 22.3413 254.73 22.3413C254.171 22.3413 253.62 22.4739 253.122 22.7283L222.804 40.2423C222.338 40.5506 221.95 40.9632 221.671 41.4475C221.391 41.9318 221.229 42.4744 221.196 43.0323V58.7103C221.226 59.2682 221.387 59.8112 221.666 60.295C221.946 60.7788 222.336 61.1898 222.804 61.4943L224.112 62.2503C224.611 62.4996 225.162 62.6294 225.72 62.6294C226.278 62.6294 226.829 62.4996 227.328 62.2503L240.528 54.5703L242.832 58.5543C242.865 58.6076 242.913 58.6505 242.969 58.6783C243.025 58.706 243.088 58.7173 243.151 58.7111C243.213 58.7048 243.273 58.6812 243.322 58.6429C243.372 58.6046 243.41 58.5531 243.432 58.4943L245.868 51.4803L257.616 44.7303C258.084 44.4258 258.474 44.0148 258.754 43.531C259.033 43.0472 259.194 42.5042 259.224 41.9463L259.254 26.2683Z" fill="#318AD1"/>
<path d="M230.28 46.0681L254.52 32.0701C255.24 31.6561 255.822 31.9501 255.822 32.7301C255.789 33.1662 255.654 33.5884 255.428 33.9626C255.202 34.3369 254.891 34.6525 254.52 34.8841L230.28 48.8821C229.566 49.2961 228.984 49.0021 228.984 48.2221C229.016 47.7867 229.15 47.365 229.376 46.9909C229.601 46.6168 229.91 46.3007 230.28 46.0681Z" fill="white"/>
<path d="M230.28 52.302L254.52 38.31C255.24 37.896 255.822 38.19 255.822 38.964C255.79 39.4011 255.656 39.8246 255.429 40.1999C255.203 40.5752 254.892 40.8919 254.52 41.124L230.28 55.116C229.566 55.536 228.984 55.236 228.984 54.462C229.015 54.0256 229.149 53.6027 229.374 53.2274C229.599 52.8522 229.91 52.5352 230.28 52.302Z" fill="white"/>
<path opacity="0.2" d="M221.196 58.7101C221.226 59.2681 221.387 59.811 221.666 60.2948C221.946 60.7787 222.336 61.1896 222.804 61.4941L224.112 62.2501C224.565 62.478 225.061 62.6075 225.568 62.6303C226.074 62.653 226.58 62.5685 227.052 62.3821C226.296 62.6641 225.72 62.2381 225.72 61.3201V45.6421C225.739 45.083 225.9 44.5379 226.188 44.0581L221.664 41.4421C221.376 41.9241 221.215 42.4711 221.196 43.0321V58.7101Z" fill="black"/>
<path opacity="0.2" d="M259.2 25.8C259.014 25.116 258.39 24.9 257.646 25.326L227.328 42.846C226.851 43.139 226.459 43.553 226.194 44.046L221.67 41.436C221.939 40.9456 222.329 40.5324 222.804 40.236L253.116 22.716C253.616 22.4658 254.168 22.3354 254.727 22.3354C255.286 22.3354 255.838 22.4658 256.338 22.716L257.646 23.472C258.05 23.7338 258.396 24.0753 258.663 24.4756C258.93 24.8759 259.113 25.3266 259.2 25.8Z" fill="white"/>
</svg>
