<svg width="26" height="26" viewBox="0 0 26 26" fill="none" xmlns="http://www.w3.org/2000/svg">
<path d="M14.0833 13C14.6816 13 15.1667 12.515 15.1667 11.9167C15.1667 11.3184 14.6816 10.8334 14.0833 10.8334C13.485 10.8334 13 11.3184 13 11.9167C13 12.515 13.485 13 14.0833 13Z" fill="white"/>
<path d="M12.4587 8.66671C12.7578 8.66671 13.0003 8.42419 13.0003 8.12504C13.0003 7.82589 12.7578 7.58337 12.4587 7.58337C12.1595 7.58337 11.917 7.82589 11.917 8.12504C11.917 8.42419 12.1595 8.66671 12.4587 8.66671Z" fill="white"/>
<path d="M13.5417 6.49996C13.8408 6.49996 14.0833 6.25745 14.0833 5.95829C14.0833 5.65914 13.8408 5.41663 13.5417 5.41663C13.2425 5.41663 13 5.65914 13 5.95829C13 6.25745 13.2425 6.49996 13.5417 6.49996Z" fill="white"/>
<path d="M5.41699 0V2.16667H7.58366V20.5833C7.58366 22.0199 8.15434 23.3977 9.17016 24.4135C10.186 25.4293 11.5637 26 13.0003 26C14.4369 26 15.8147 25.4293 16.8305 24.4135C17.8463 23.3977 18.417 22.0199 18.417 20.5833V2.16667H20.5837V0H5.41699ZM16.2503 2.16667V16.25H13.0003C13.0003 15.9627 12.8862 15.6871 12.683 15.484C12.4799 15.2808 12.2043 15.1667 11.917 15.1667C11.6297 15.1667 11.3541 15.2808 11.151 15.484C10.9478 15.6871 10.8337 15.9627 10.8337 16.25H9.75033V2.16667H16.2503Z" fill="white"/>
</svg>
