<svg width="27" height="27" viewBox="0 0 27 27" fill="none" xmlns="http://www.w3.org/2000/svg">
<path fill-rule="evenodd" clip-rule="evenodd" d="M23.5271 6.62513C23.9063 7.19213 23.9063 7.983 23.9063 9.5625V23.9063H24.4688C24.6925 23.9063 24.9071 23.9951 25.0654 24.1534C25.2236 24.3116 25.3125 24.5262 25.3125 24.75C25.3125 24.9738 25.2236 25.1884 25.0654 25.3466C24.9071 25.5049 24.6925 25.5938 24.4688 25.5938H1.96875C1.74497 25.5938 1.53036 25.5049 1.37213 25.3466C1.21389 25.1884 1.125 24.9738 1.125 24.75C1.125 24.5262 1.21389 24.3116 1.37213 24.1534C1.53036 23.9951 1.74497 23.9063 1.96875 23.9063H2.53125V9.5625C2.53125 7.983 2.53125 7.19213 2.91038 6.62513C3.07458 6.37934 3.28559 6.16833 3.53138 6.00413C4.0275 5.67225 4.69463 5.63063 5.91075 5.62613C5.907 5.95463 5.9055 6.29588 5.90625 6.64988V8.15625H4.78125C4.55747 8.15625 4.34286 8.24515 4.18463 8.40338C4.0264 8.56161 3.9375 8.77622 3.9375 9C3.9375 9.22378 4.0264 9.43839 4.18463 9.59662C4.34286 9.75486 4.55747 9.84375 4.78125 9.84375H5.90625V11.5313H4.78125C4.55747 11.5313 4.34286 11.6201 4.18463 11.7784C4.0264 11.9366 3.9375 12.1512 3.9375 12.375C3.9375 12.5988 4.0264 12.8134 4.18463 12.9716C4.34286 13.1299 4.55747 13.2188 4.78125 13.2188H5.90625V14.9063H4.78125C4.55747 14.9063 4.34286 14.9951 4.18463 15.1534C4.0264 15.3116 3.9375 15.5262 3.9375 15.75C3.9375 15.9738 4.0264 16.1884 4.18463 16.3466C4.34286 16.5049 4.55747 16.5938 4.78125 16.5938H5.90625V23.9063H7.59375V6.75C7.59375 4.62825 7.59375 3.5685 8.253 2.90925C8.91225 2.25 9.972 2.25 12.0938 2.25H14.3438C16.4655 2.25 17.5253 2.25 18.1845 2.90925C18.8438 3.5685 18.8438 4.62825 18.8438 6.75V23.9063H20.5313V16.5938H21.6563C21.88 16.5938 22.0946 16.5049 22.2529 16.3466C22.4111 16.1884 22.5 15.9738 22.5 15.75C22.5 15.5262 22.4111 15.3116 22.2529 15.1534C22.0946 14.9951 21.88 14.9063 21.6563 14.9063H20.5313V13.2188H21.6563C21.88 13.2188 22.0946 13.1299 22.2529 12.9716C22.4111 12.8134 22.5 12.5988 22.5 12.375C22.5 12.1512 22.4111 11.9366 22.2529 11.7784C22.0946 11.6201 21.88 11.5313 21.6563 11.5313H20.5313V9.84375H21.6563C21.88 9.84375 22.0946 9.75486 22.2529 9.59662C22.4111 9.43839 22.5 9.22378 22.5 9C22.5 8.77622 22.4111 8.56161 22.2529 8.40338C22.0946 8.24515 21.88 8.15625 21.6563 8.15625H20.5313V6.64875C20.532 6.29625 20.5305 5.955 20.5268 5.625C21.7429 5.63063 22.41 5.67225 22.9061 6.00413C23.1519 6.16833 23.3629 6.37934 23.5271 6.62513ZM14.0625 21.375C14.0625 21.1512 13.9736 20.9366 13.8154 20.7784C13.6571 20.6201 13.4425 20.5313 13.2188 20.5313C12.995 20.5313 12.7804 20.6201 12.6221 20.7784C12.4639 20.9366 12.375 21.1512 12.375 21.375V23.9063H14.0625V21.375ZM10.125 16.875C10.125 16.6512 10.2139 16.4366 10.3721 16.2784C10.5304 16.1201 10.745 16.0313 10.9688 16.0313H15.4688C15.6925 16.0313 15.9071 16.1201 16.0654 16.2784C16.2236 16.4366 16.3125 16.6512 16.3125 16.875C16.3125 17.0988 16.2236 17.3134 16.0654 17.4716C15.9071 17.6299 15.6925 17.7188 15.4688 17.7188H10.9688C10.745 17.7188 10.5304 17.6299 10.3721 17.4716C10.2139 17.3134 10.125 17.0988 10.125 16.875ZM10.9688 12.6563C10.745 12.6563 10.5304 12.7451 10.3721 12.9034C10.2139 13.0616 10.125 13.2762 10.125 13.5C10.125 13.7238 10.2139 13.9384 10.3721 14.0966C10.5304 14.2549 10.745 14.3438 10.9688 14.3438H15.4688C15.6925 14.3438 15.9071 14.2549 16.0654 14.0966C16.2236 13.9384 16.3125 13.7238 16.3125 13.5C16.3125 13.2762 16.2236 13.0616 16.0654 12.9034C15.9071 12.7451 15.6925 12.6563 15.4688 12.6563H10.9688ZM10.4063 7.875C10.4063 7.05449 10.7322 6.26758 11.3124 5.68739C11.8926 5.1072 12.6795 4.78125 13.5 4.78125C14.3205 4.78125 15.1074 5.1072 15.6876 5.68739C16.2678 6.26758 16.5938 7.05449 16.5938 7.875C16.5938 8.69551 16.2678 9.48242 15.6876 10.0626C15.1074 10.6428 14.3205 10.9688 13.5 10.9688C12.6795 10.9688 11.8926 10.6428 11.3124 10.0626C10.7322 9.48242 10.4063 8.69551 10.4063 7.875ZM12.0938 7.875C12.0938 7.50204 12.2419 7.14435 12.5056 6.88063C12.7694 6.61691 13.127 6.46875 13.5 6.46875C13.873 6.46875 14.2306 6.61691 14.4944 6.88063C14.7581 7.14435 14.9063 7.50204 14.9063 7.875C14.9063 8.24796 14.7581 8.60565 14.4944 8.86937C14.2306 9.13309 13.873 9.28125 13.5 9.28125C13.127 9.28125 12.7694 9.13309 12.5056 8.86937C12.2419 8.60565 12.0938 8.24796 12.0938 7.875Z" fill="white"/>
</svg>
