<svg width="27" height="27" viewBox="0 0 27 27" fill="none" xmlns="http://www.w3.org/2000/svg">
<path d="M4.5 24.75C3.88125 24.75 3.35175 24.5299 2.9115 24.0896C2.47125 23.6494 2.25075 23.1195 2.25 22.5V9C2.25 8.38125 2.4705 7.85175 2.9115 7.4115C3.3525 6.97125 3.882 6.75075 4.5 6.75H9V4.5C9 3.88125 9.2205 3.35175 9.6615 2.9115C10.1025 2.47125 10.632 2.25075 11.25 2.25H15.75C16.3687 2.25 16.8986 2.4705 17.3396 2.9115C17.7806 3.3525 18.0007 3.882 18 4.5V6.75H22.5C23.1187 6.75 23.6486 6.9705 24.0896 7.4115C24.5306 7.8525 24.7507 8.382 24.75 9V22.5C24.75 23.1187 24.5299 23.6486 24.0896 24.0896C23.6494 24.5306 23.1195 24.7507 22.5 24.75H4.5ZM11.25 6.75H15.75V4.5H11.25V6.75ZM12.375 16.875V19.125C12.375 19.4438 12.483 19.7111 12.699 19.9271C12.915 20.1431 13.182 20.2507 13.5 20.25C13.818 20.2493 14.0854 20.1413 14.3021 19.926C14.5189 19.7108 14.6265 19.4438 14.625 19.125V16.875H16.875C17.1938 16.875 17.4611 16.767 17.6771 16.551C17.8931 16.335 18.0007 16.068 18 15.75C17.9993 15.432 17.8912 15.165 17.676 14.949C17.4607 14.733 17.1938 14.625 16.875 14.625H14.625V12.375C14.625 12.0562 14.517 11.7893 14.301 11.574C14.085 11.3588 13.818 11.2507 13.5 11.25C13.182 11.2493 12.915 11.3573 12.699 11.574C12.483 11.7908 12.375 12.0577 12.375 12.375V14.625H10.125C9.80625 14.625 9.53925 14.733 9.324 14.949C9.10875 15.165 9.00075 15.432 9 15.75C8.99925 16.068 9.10725 16.3354 9.324 16.5521C9.54075 16.7689 9.80775 16.8765 10.125 16.875H12.375Z" fill="white"/>
</svg>
