<svg width="27" height="27" viewBox="0 0 27 27" fill="none" xmlns="http://www.w3.org/2000/svg">
<path d="M24.5925 14.04L21.5438 9C21.3474 8.65994 21.0655 8.37718 20.7261 8.17982C20.3866 7.98246 20.0014 7.87737 19.6088 7.875H16.875V5.625C16.875 5.32663 16.7565 5.04048 16.5455 4.82951C16.3345 4.61853 16.0484 4.5 15.75 4.5H4.5C3.90326 4.5 3.33097 4.73705 2.90901 5.15901C2.48705 5.58097 2.25 6.15326 2.25 6.75V18C2.2504 18.3946 2.35456 18.7821 2.55202 19.1237C2.74948 19.4653 3.0333 19.749 3.375 19.9462C3.33472 20.9905 3.71093 22.0081 4.42088 22.775C5.13082 23.5419 6.11634 23.9953 7.16063 24.0356C8.20492 24.0759 9.22244 23.6997 9.98934 22.9897C10.7562 22.2798 11.2097 21.2943 11.25 20.25H14.7375C14.8619 21.1913 15.3241 22.0553 16.0381 22.6811C16.7522 23.307 17.6693 23.652 18.6188 23.652C19.5682 23.652 20.4853 23.307 21.1994 22.6811C21.9134 22.0553 22.3756 21.1913 22.5 20.25C23.0967 20.25 23.669 20.0129 24.091 19.591C24.5129 19.169 24.75 18.5967 24.75 18V14.625C24.7482 14.4198 24.694 14.2184 24.5925 14.04ZM7.3125 21.375C6.97874 21.375 6.65248 21.276 6.37498 21.0906C6.09747 20.9052 5.88118 20.6416 5.75345 20.3333C5.62573 20.0249 5.59231 19.6856 5.65743 19.3583C5.72254 19.0309 5.88326 18.7303 6.11926 18.4943C6.35526 18.2583 6.65594 18.0975 6.98329 18.0324C7.31063 17.9673 7.64993 18.0007 7.95828 18.1285C8.26663 18.2562 8.53018 18.4725 8.71561 18.75C8.90103 19.0275 9 19.3537 9 19.6875C9 20.1351 8.82221 20.5643 8.50574 20.8807C8.18928 21.1972 7.76005 21.375 7.3125 21.375ZM13.5 12.375H11.25V14.625H9V12.375H6.75V10.125H9V7.875H11.25V10.125H13.5V12.375ZM18.5625 21.375C18.2287 21.375 17.9025 21.276 17.625 21.0906C17.3475 20.9052 17.1312 20.6416 17.0035 20.3333C16.8757 20.0249 16.8423 19.6856 16.9074 19.3583C16.9725 19.0309 17.1333 18.7303 17.3693 18.4943C17.6053 18.2583 17.9059 18.0975 18.2333 18.0324C18.5606 17.9673 18.8999 18.0007 19.2083 18.1285C19.5166 18.2562 19.7802 18.4725 19.9656 18.75C20.151 19.0275 20.25 19.3537 20.25 19.6875C20.25 20.1351 20.0722 20.5643 19.7557 20.8807C19.4393 21.1972 19.0101 21.375 18.5625 21.375ZM16.875 13.5V10.125H19.6088L21.6338 13.5H16.875Z" fill="white"/>
</svg>
