<svg width="26" height="26" viewBox="0 0 26 26" fill="none" xmlns="http://www.w3.org/2000/svg">
<path d="M21.7876 23.0166C23.6019 21.303 24.7516 18.8956 24.7516 16.2086C24.7516 12.8981 23.0128 9.91215 20.3092 8.23515L23.3383 2.99209L22.8625 2.71787L23.6096 1.41868L21.6511 0.288086L20.9024 1.58524L20.4015 1.29599L12.9549 14.1952L13.6053 14.5706L12.6819 16.168L14.3183 17.1129L15.2421 15.5147L15.8917 15.8901L19.0231 10.4671C19.9886 11.0822 20.7835 11.9308 21.3345 12.9344C21.8854 13.9379 22.1745 15.0642 22.1752 16.209C22.1752 19.9628 19.1193 23.017 15.3652 23.017H9.87838V25.5946H25.3232V23.017L21.7876 23.0166ZM8.07747 3.19521V1.14893H8.32934L8.32569 0.65818H6.03078L6.03444 1.14893H6.305V3.19521H4.59266V1.14893H4.84372L4.84088 0.65818H2.54394L2.54841 1.14893H2.81897V3.19521H0.304688V13.4453H10.5702V3.19521H8.07747ZM9.70084 12.5776H1.17284V4.06296H2.81856V10.6117C2.81856 11.1073 3.22359 11.5099 3.71231 11.5099C4.20184 11.5079 4.59225 11.1065 4.59225 10.6117V4.06296H6.30459V10.6117C6.30459 11.1073 6.71003 11.5099 7.19875 11.5099C7.68828 11.5079 8.07869 11.1065 8.07788 10.6117V4.06296H9.70084V12.5776Z" fill="white"/>
</svg>
