<svg width="26" height="26" viewBox="0 0 26 26" fill="none" xmlns="http://www.w3.org/2000/svg">
<mask id="mask0_988_33502" style="mask-type:luminance" maskUnits="userSpaceOnUse" x="3" y="0" width="20" height="26">
<path d="M7.04134 3.79163C7.04134 3.36065 7.21255 2.94732 7.51729 2.64258C7.82204 2.33783 8.23536 2.16663 8.66634 2.16663H17.333C17.5464 2.16663 17.7577 2.20866 17.9549 2.29032C18.152 2.37199 18.3312 2.49168 18.4821 2.64258C18.633 2.79347 18.7526 2.97261 18.8343 3.16977C18.916 3.36692 18.958 3.57823 18.958 3.79163C18.958 4.00502 18.916 4.21633 18.8343 4.41349C18.7526 4.61064 18.633 4.78978 18.4821 4.94067C18.3312 5.09157 18.152 5.21127 17.9549 5.29293C17.7577 5.37459 17.5464 5.41663 17.333 5.41663H8.66634C8.23536 5.41663 7.82204 5.24542 7.51729 4.94067C7.21255 4.63593 7.04134 4.2226 7.04134 3.79163ZM7.09551 9.27329C7.24774 9.08398 7.44049 8.93121 7.65956 8.82622C7.87863 8.72123 8.11845 8.6667 8.36138 8.66663H17.6369C17.88 8.66653 18.12 8.72099 18.3393 8.82599C18.5586 8.93098 18.7515 9.08384 18.9038 9.27329L21.3078 12.2649C21.5397 12.5536 21.666 12.9129 21.6658 13.2833V22.2083C21.6658 22.6393 21.4946 23.0526 21.1898 23.3573C20.8851 23.6621 20.4718 23.8333 20.0408 23.8333H5.95801C5.52703 23.8333 5.11371 23.6621 4.80896 23.3573C4.50421 23.0526 4.33301 22.6393 4.33301 22.2083V13.2833C4.33283 12.9129 4.45915 12.5536 4.69105 12.2649L7.09551 9.27329Z" fill="white" stroke="white" stroke-width="2.66667" stroke-linejoin="round"/>
<path d="M9.75 16.25H16.25M13 13V19.5" stroke="black" stroke-width="2.66667" stroke-linecap="round" stroke-linejoin="round"/>
</mask>
<g mask="url(#mask0_988_33502)">
<path d="M0 0H26V26H0V0Z" fill="white"/>
</g>
</svg>
