<svg width="20" height="20" viewBox="0 0 20 20" fill="none" xmlns="http://www.w3.org/2000/svg">
<g id="fluent:eye-20-filled">
<g id="Group">
<path id="Vector" d="M3.55813 11.6578C4.23449 8.26865 7.06194 5.86054 10.2424 5.86054C13.4219 5.86054 16.2494 8.26865 16.9267 11.6578C16.9536 11.7923 17.0305 11.9101 17.1406 11.9854C17.2507 12.0607 17.385 12.0873 17.5139 12.0593C17.6427 12.0313 17.7557 11.9511 17.8278 11.8362C17.9 11.7213 17.9255 11.5812 17.8986 11.4467C17.1281 7.59185 13.9049 4.82568 10.2424 4.82568C6.57995 4.82568 3.3568 7.59185 2.58622 11.4467C2.5594 11.5812 2.58486 11.7213 2.65703 11.8362C2.72919 11.9511 2.84214 12.0313 2.97102 12.0593C3.0999 12.0873 3.23416 12.0607 3.34427 11.9854C3.45437 11.9101 3.5313 11.7923 3.55813 11.6578ZM10.2325 7.93025C11.1531 7.93025 12.036 8.31185 12.6869 8.99111C13.3379 9.67037 13.7036 10.5916 13.7036 11.5522C13.7036 12.5129 13.3379 13.4341 12.6869 14.1134C12.036 14.7926 11.1531 15.1742 10.2325 15.1742C9.31193 15.1742 8.42905 14.7926 7.7781 14.1134C7.12714 13.4341 6.76144 12.5129 6.76144 11.5522C6.76144 10.5916 7.12714 9.67037 7.7781 8.99111C8.42905 8.31185 9.31193 7.93025 10.2325 7.93025Z" fill="#6A707C"/>
</g>
</g>
</svg>
