<svg width="34" height="35" viewBox="0 0 34 35" fill="none" xmlns="http://www.w3.org/2000/svg">
<path d="M21.585 3.13501C21.5207 3.08345 21.4468 3.04511 21.3676 3.02222C21.2884 2.99932 21.2055 2.99232 21.1236 3.00162C21.0417 3.01091 20.9624 3.03632 20.8903 3.07637C20.8183 3.11643 20.7549 3.17035 20.7037 3.23501L14.95 10.5H11.7612L18.745 1.68251C19.0006 1.35972 19.3175 1.09061 19.6774 0.890661C20.0373 0.690712 20.4332 0.563861 20.8423 0.517398C21.2514 0.470935 21.6657 0.505776 22.0613 0.619918C22.4569 0.734061 22.826 0.925255 23.1475 1.18251L29.5813 6.33626C30.1896 6.8237 30.5938 7.52089 30.7145 8.29101C30.8352 9.06113 30.6637 9.84856 30.2337 10.4988H26.9662L28.1 9.18376C28.1549 9.12016 28.1964 9.04614 28.222 8.96613C28.2477 8.88613 28.2569 8.80177 28.2492 8.71811C28.2415 8.63444 28.217 8.55319 28.1772 8.47921C28.1374 8.40522 28.0831 8.34002 28.0175 8.28751L24.8875 5.78001L21.1775 10.5H17.9975L22.935 4.21751L21.585 3.13501ZM4.5 6.75001C3.50544 6.75001 2.55161 7.1451 1.84835 7.84836C1.14509 8.55162 0.75 9.50545 0.75 10.5V28.625C0.75 30.1169 1.34263 31.5476 2.39752 32.6025C3.45242 33.6574 4.88316 34.25 6.375 34.25H27.625C29.1168 34.25 30.5476 33.6574 31.6025 32.6025C32.6574 31.5476 33.25 30.1169 33.25 28.625V17.375C33.25 15.8832 32.6574 14.4524 31.6025 13.3975C30.5476 12.3426 29.1168 11.75 27.625 11.75H4.5C4.16848 11.75 3.85054 11.6183 3.61612 11.3839C3.3817 11.1495 3.25 10.8315 3.25 10.5C3.25 10.1685 3.3817 9.85055 3.61612 9.61613C3.85054 9.38171 4.16848 9.25001 4.5 9.25001H10.225L12.22 6.75001H4.5ZM23.25 21.75H27C27.3315 21.75 27.6495 21.8817 27.8839 22.1161C28.1183 22.3505 28.25 22.6685 28.25 23C28.25 23.3315 28.1183 23.6495 27.8839 23.8839C27.6495 24.1183 27.3315 24.25 27 24.25H23.25C22.9185 24.25 22.6005 24.1183 22.3661 23.8839C22.1317 23.6495 22 23.3315 22 23C22 22.6685 22.1317 22.3505 22.3661 22.1161C22.6005 21.8817 22.9185 21.75 23.25 21.75Z" fill="white"/>
</svg>
