<svg width="18" height="23" viewBox="0 0 18 23" fill="none" xmlns="http://www.w3.org/2000/svg">
<path d="M6 11L8 13L12.5 8.49999M17 11.5C17 16.4084 11.646 19.9784 9.69799 21.1149C9.4766 21.244 9.3659 21.3086 9.20968 21.3421C9.08844 21.3681 8.91156 21.3681 8.79032 21.3421C8.6341 21.3086 8.5234 21.244 8.30201 21.1149C6.35396 19.9784 1 16.4084 1 11.5V6.71759C1 5.91808 1 5.51833 1.13076 5.1747C1.24627 4.87113 1.43398 4.60027 1.67766 4.38552C1.9535 4.14243 2.3278 4.00207 3.0764 3.72134L8.4382 1.71067C8.6461 1.63271 8.75005 1.59373 8.85698 1.57827C8.95184 1.56457 9.04816 1.56457 9.14302 1.57827C9.24995 1.59373 9.3539 1.63271 9.5618 1.71067L14.9236 3.72134C15.6722 4.00207 16.0465 4.14243 16.3223 4.38552C16.566 4.60027 16.7537 4.87113 16.8692 5.1747C17 5.51833 17 5.91808 17 6.71759V11.5Z" stroke="#0059A0" stroke-width="2" stroke-linecap="round" stroke-linejoin="round"/>
</svg>
