<svg width="14" height="15" viewBox="0 0 14 15" fill="none" xmlns="http://www.w3.org/2000/svg">
<path d="M5.83301 5.92493L5.17676 7.49993H6.48926L5.83301 5.92493Z" fill="#787878"/>
<path fill-rule="evenodd" clip-rule="evenodd" d="M11.0832 4.87496L8.1665 1.66663H4.08317C3.77375 1.66663 3.47701 1.78954 3.25821 2.00833C3.03942 2.22713 2.9165 2.52387 2.9165 2.83329V12.1666C2.9165 12.476 3.03942 12.7728 3.25821 12.9916C3.47701 13.2104 3.77375 13.3333 4.08317 13.3333H9.9165C10.2259 13.3333 10.5227 13.2104 10.7415 12.9916C10.9603 12.7728 11.0832 12.476 11.0832 12.1666V4.87496ZM5.83317 4.87496C5.89074 4.87495 5.94702 4.89198 5.99492 4.9239C6.04283 4.95582 6.08022 5.00121 6.10238 5.05433L7.56071 8.55433C7.59049 8.62573 7.59069 8.70604 7.56127 8.77758C7.53184 8.84913 7.47519 8.90605 7.4038 8.93583C7.3324 8.96562 7.25209 8.96582 7.18055 8.93639C7.109 8.90696 7.05208 8.85032 7.0223 8.77892L6.73238 8.08329H4.93396L4.64405 8.77892C4.61426 8.85032 4.55734 8.90696 4.48579 8.93639C4.41425 8.96582 4.33394 8.96562 4.26255 8.93583C4.19115 8.90605 4.1345 8.84913 4.10508 8.77758C4.07565 8.70604 4.07585 8.62573 4.10563 8.55433L5.56396 5.05433C5.58613 5.00121 5.62351 4.95582 5.67142 4.9239C5.71933 4.89198 5.7756 4.87495 5.83317 4.87496ZM4.37484 9.83329C4.29748 9.83329 4.2233 9.86402 4.1686 9.91872C4.1139 9.97342 4.08317 10.0476 4.08317 10.125C4.08317 10.2023 4.1139 10.2765 4.1686 10.3312C4.2233 10.3859 4.29748 10.4166 4.37484 10.4166H9.62484C9.70219 10.4166 9.77638 10.3859 9.83108 10.3312C9.88578 10.2765 9.9165 10.2023 9.9165 10.125C9.9165 10.0476 9.88578 9.97342 9.83108 9.91872C9.77638 9.86402 9.70219 9.83329 9.62484 9.83329H4.37484ZM4.08317 11.2916C4.08317 11.2143 4.1139 11.1401 4.1686 11.0854C4.2233 11.0307 4.29748 11 4.37484 11H7.87484C7.95219 11 8.02638 11.0307 8.08108 11.0854C8.13578 11.1401 8.1665 11.2143 8.1665 11.2916C8.1665 11.369 8.13578 11.4432 8.08108 11.4979C8.02638 11.5526 7.95219 11.5833 7.87484 11.5833H4.37484C4.29748 11.5833 4.2233 11.5526 4.1686 11.4979C4.1139 11.4432 4.08317 11.369 4.08317 11.2916ZM9.0415 6.91663C9.0415 6.83927 9.01078 6.76508 8.95608 6.71039C8.90138 6.65569 8.82719 6.62496 8.74984 6.62496C8.67248 6.62496 8.5983 6.65569 8.5436 6.71039C8.4889 6.76508 8.45817 6.83927 8.45817 6.91663V7.49996H7.87484C7.79748 7.49996 7.7233 7.53069 7.6686 7.58539C7.6139 7.64008 7.58317 7.71427 7.58317 7.79163C7.58317 7.86898 7.6139 7.94317 7.6686 7.99787C7.7233 8.05256 7.79748 8.08329 7.87484 8.08329H8.45817V8.66663C8.45817 8.74398 8.4889 8.81817 8.5436 8.87287C8.5983 8.92756 8.67248 8.95829 8.74984 8.95829C8.82719 8.95829 8.90138 8.92756 8.95608 8.87287C9.01078 8.81817 9.0415 8.74398 9.0415 8.66663V8.08329H9.62484C9.70219 8.08329 9.77638 8.05256 9.83108 7.99787C9.88578 7.94317 9.9165 7.86898 9.9165 7.79163C9.9165 7.71427 9.88578 7.64008 9.83108 7.58539C9.77638 7.53069 9.70219 7.49996 9.62484 7.49996H9.0415V6.91663ZM8.1665 2.54163L10.2082 4.87496H8.45817C8.38082 4.87496 8.30663 4.84423 8.25193 4.78953C8.19723 4.73483 8.1665 4.66065 8.1665 4.58329V2.54163Z" fill="#787878"/>
<path fill-rule="evenodd" clip-rule="evenodd" d="M7.56071 8.55404C7.56907 8.57427 7.5751 8.59488 7.5788 8.61529C7.44489 8.56713 7.32475 8.48704 7.2288 8.38196C7.21207 8.38546 7.19555 8.39061 7.17921 8.39742C7.10795 8.4272 7.05142 8.48403 7.022 8.55543C6.99258 8.62684 6.99269 8.707 7.0223 8.77833L6.73238 8.08329H4.93396L4.64405 8.77863C4.61352 8.84887 4.5566 8.90429 4.48556 8.93292C4.41453 8.96154 4.33508 8.96108 4.26438 8.93163C4.19368 8.90218 4.13741 8.8461 4.1077 8.77551C4.078 8.70492 4.07726 8.62547 4.10563 8.55433L4.39525 7.859L5.56396 5.05433C5.58612 5.0012 5.6235 4.9558 5.67141 4.92387C5.71931 4.89194 5.7756 4.8749 5.83317 4.8749C5.89074 4.8749 5.94703 4.89194 5.99493 4.92387C6.04284 4.9558 6.08023 5.0012 6.10238 5.05433L6.37159 5.70008V5.70067L7.02784 7.27567L7.56071 8.55404ZM7.53825 6.98371L6.6408 4.83004C6.57433 4.67062 6.46218 4.53444 6.31846 4.43865C6.17474 4.34286 6.00589 4.29174 5.83317 4.29174C5.66045 4.29174 5.4916 4.34286 5.34788 4.43865C5.20416 4.53444 5.09201 4.67062 5.02555 4.83004L3.56721 8.33004C3.52531 8.43033 3.50246 8.53755 3.49984 8.64621V2.83329C3.49984 2.67858 3.5613 2.53021 3.67069 2.42081C3.78009 2.31142 3.92846 2.24996 4.08317 2.24996H7.66134C7.61117 2.33688 7.58317 2.43663 7.58317 2.54163V4.58329C7.58317 4.81536 7.67536 5.03792 7.83945 5.20201C8.00355 5.36611 8.22611 5.45829 8.45817 5.45829H10.2082C10.3106 5.45829 10.4112 5.43133 10.4998 5.38013V7.79163C10.4998 7.55956 10.4076 7.337 10.2436 7.17291C10.0795 7.00881 9.8569 6.91663 9.62484 6.91663C9.62484 6.68456 9.53265 6.462 9.36856 6.29791C9.20446 6.13381 8.9819 6.04163 8.74984 6.04163C8.51777 6.04163 8.29521 6.13381 8.13112 6.29791C7.96702 6.462 7.87484 6.68456 7.87484 6.91663C7.75932 6.91655 7.64492 6.93935 7.53825 6.98371ZM7.76284 7.52242C7.70063 7.54835 7.64932 7.59504 7.61763 7.65453C7.58595 7.71402 7.57585 7.78264 7.58905 7.84874C7.60225 7.91484 7.63793 7.97432 7.69003 8.01708C7.74213 8.05984 7.80744 8.08324 7.87484 8.08329H8.45817V8.66663C8.45817 8.74398 8.4889 8.81817 8.5436 8.87287C8.5983 8.92756 8.67248 8.95829 8.74984 8.95829C8.82719 8.95829 8.90138 8.92756 8.95608 8.87287C9.01078 8.81817 9.0415 8.74398 9.0415 8.66663V8.08329H9.62484C9.70219 8.08329 9.77638 8.05256 9.83108 7.99787C9.88578 7.94317 9.9165 7.86898 9.9165 7.79163C9.9165 7.71427 9.88578 7.64008 9.83108 7.58539C9.77638 7.53069 9.70219 7.49996 9.62484 7.49996H9.0415V6.91663C9.0415 6.83927 9.01078 6.76508 8.95608 6.71039C8.90138 6.65569 8.82719 6.62496 8.74984 6.62496C8.67248 6.62496 8.5983 6.65569 8.5436 6.71039C8.4889 6.76508 8.45817 6.83927 8.45817 6.91663V7.49996H7.87484C7.83629 7.49995 7.79842 7.50759 7.76284 7.52242ZM8.02038 9.1505C8.04371 9.1855 8.06938 9.21865 8.09738 9.24996H7.94367C7.97167 9.21846 7.99724 9.18531 8.02038 9.1505ZM6.4833 9.00321C6.52238 9.09625 6.57517 9.17879 6.63875 9.24996L6.4833 9.00321ZM6.63875 9.24996H5.027C5.09059 9.17879 5.14367 9.09625 5.18217 9.00321L5.32275 8.66663H6.34359L6.4833 9.00321M3.89067 9.39579C3.77315 9.31777 3.67623 9.2125 3.60818 9.08894C3.54013 8.96538 3.50296 8.82719 3.49984 8.68617V10.125C3.49984 9.82075 3.6553 9.55242 3.89067 9.39579ZM3.72267 10.7086C3.57918 10.5482 3.49984 10.3402 3.49984 10.125V11.2916C3.49984 11.0676 3.58442 10.8635 3.72267 10.7086ZM9.402 9.25025C9.54055 9.09567 9.62484 8.89092 9.62484 8.66692C9.8569 8.66692 10.0795 8.57473 10.2436 8.41064C10.4076 8.24654 10.4998 8.02369 10.4998 7.79163V10.1253C10.4998 9.89319 10.4076 9.67063 10.2436 9.50653C10.0795 9.34244 9.8569 9.25025 9.62484 9.25025H9.402ZM8.69996 11.0003H9.62484C9.8569 11.0003 10.0795 10.9081 10.2436 10.744C10.4076 10.5799 10.4998 10.3573 10.4998 10.1253V12.1669C10.4998 12.3216 10.4384 12.47 10.329 12.5794C10.2196 12.6888 10.0712 12.7503 9.9165 12.7503H4.08317C3.92846 12.7503 3.78009 12.6888 3.67069 12.5794C3.5613 12.47 3.49984 12.3216 3.49984 12.1669V11.2922C3.49999 11.5242 3.59225 11.7466 3.75633 11.9106C3.9204 12.0745 4.14287 12.1666 4.37484 12.1666H7.87484C8.01486 12.1667 8.15285 12.1332 8.27723 12.0688C8.4016 12.0045 8.50873 11.9113 8.5896 11.797C8.67047 11.6827 8.72273 11.5506 8.74198 11.412C8.76124 11.2733 8.74693 11.132 8.70025 11M7.876 10.4166H9.62484C9.70219 10.4166 9.77638 10.3859 9.83108 10.3312C9.88578 10.2765 9.9165 10.2023 9.9165 10.125C9.9165 10.0476 9.88578 9.97342 9.83108 9.91872C9.77638 9.86402 9.70219 9.83329 9.62484 9.83329H4.37484C4.29748 9.83329 4.2233 9.86402 4.1686 9.91872C4.1139 9.97342 4.08317 10.0476 4.08317 10.125C4.08317 10.2023 4.1139 10.2765 4.1686 10.3312C4.2233 10.3859 4.29748 10.4166 4.37484 10.4166H7.876ZM11.0832 4.87496V12.1666C11.0832 12.476 10.9603 12.7728 10.7415 12.9916C10.5227 13.2104 10.2259 13.3333 9.9165 13.3333H4.08317C3.77375 13.3333 3.47701 13.2104 3.25821 12.9916C3.03942 12.7728 2.9165 12.476 2.9165 12.1666V2.83329C2.9165 2.52387 3.03942 2.22713 3.25821 2.00833C3.47701 1.78954 3.77375 1.66663 4.08317 1.66663H8.1665L11.0832 4.87496ZM8.1665 2.54163L10.2082 4.87496H8.45817C8.38082 4.87496 8.30663 4.84423 8.25193 4.78953C8.19723 4.73483 8.1665 4.66065 8.1665 4.58329V2.54163ZM6.48942 7.49996H5.17692L5.83317 5.92496L6.48942 7.49996ZM4.37484 11C4.29748 11 4.2233 11.0307 4.1686 11.0854C4.1139 11.1401 4.08317 11.2143 4.08317 11.2916C4.08317 11.369 4.1139 11.4432 4.1686 11.4979C4.2233 11.5526 4.29748 11.5833 4.37484 11.5833H7.87484C7.95219 11.5833 8.02638 11.5526 8.08108 11.4979C8.13578 11.4432 8.1665 11.369 8.1665 11.2916C8.1665 11.2143 8.13578 11.1401 8.08108 11.0854C8.02638 11.0307 7.95219 11 7.87484 11H4.37484Z" fill="#787878"/>
</svg>
