<svg width="18" height="18" viewBox="0 0 18 18" fill="none" xmlns="http://www.w3.org/2000/svg">
<g clip-path="url(#clip0_988_27948)">
<path fill-rule="evenodd" clip-rule="evenodd" d="M7.5 0.75C3.77208 0.75 0.75 3.77208 0.75 7.5C0.75 11.2279 3.77208 14.25 7.5 14.25C9.09376 14.25 10.5585 13.6976 11.7133 12.7739L15.9697 17.0303C16.2626 17.3232 16.7374 17.3232 17.0303 17.0303C17.3232 16.7374 17.3232 16.2626 17.0303 15.9697L12.7739 11.7133C13.6976 10.5585 14.25 9.09376 14.25 7.5C14.25 3.77208 11.2279 0.75 7.5 0.75ZM2.25 7.5C2.25 4.60051 4.60051 2.25 7.5 2.25C10.3995 2.25 12.75 4.60051 12.75 7.5C12.75 10.3995 10.3995 12.75 7.5 12.75C4.60051 12.75 2.25 10.3995 2.25 7.5Z" fill="black" fill-opacity="0.5"/>
</g>
<defs>
<clipPath id="clip0_988_27948">
<rect width="18" height="18" fill="white"/>
</clipPath>
</defs>
</svg>
