<svg width="50" height="50" viewBox="0 0 50 50" fill="none" xmlns="http://www.w3.org/2000/svg">
<rect width="50" height="50" rx="8" fill="#318AD1"/>
<path d="M36.6666 16.0551C37.2786 14.3622 35.6381 12.7217 33.9452 13.3351L13.2548 20.818C11.5562 21.4328 11.3508 23.7505 12.9133 24.6557L19.5178 28.4793L25.4154 22.5817C25.6826 22.3237 26.0405 22.1809 26.4119 22.1841C26.7834 22.1873 27.1387 22.3363 27.4013 22.599C27.664 22.8616 27.813 23.217 27.8162 23.5884C27.8194 23.9598 27.6767 24.3177 27.4186 24.5849L21.521 30.4825L25.346 37.087C26.2498 38.6495 28.5675 38.4427 29.1823 36.7456L36.6666 16.0551Z" fill="white"/>
</svg>
