<svg width="24" height="25" viewBox="0 0 24 25" fill="none" xmlns="http://www.w3.org/2000/svg">
<mask id="mask0_1632_17535" style="mask-type:alpha" maskUnits="userSpaceOnUse" x="0" y="0" width="24" height="25">
<rect y="0.5" width="24" height="24" fill="#D9D9D9"/>
</mask>
<g mask="url(#mask0_1632_17535)">
<path d="M5 21.5C4.44772 21.5 4 21.0523 4 20.5C4 19.9477 4.44772 19.5 5 19.5H15C15.5523 19.5 16 19.9477 16 20.5C16 21.0523 15.5523 21.5 15 21.5H5ZM9.65 16.65L4 11L6.1 8.85L11.8 14.5L9.65 16.65ZM16 10.3L10.35 4.6L12.5 2.5L18.15 8.15L16 10.3ZM21.3 19.8C20.9134 20.1866 20.2866 20.1866 19.9 19.8L7.55 7.45L8.95 6.05L21.3 18.4C21.6866 18.7866 21.6866 19.4134 21.3 19.8Z" fill="#0059A0"/>
</g>
</svg>
