<svg xmlns="http://www.w3.org/2000/svg" width="320" height="320" fill="none"><path fill="#F0F0F0" d="M160 293.843c84.566 0 153.12-38.261 153.12-85.459S244.566 122.925 160 122.925 6.88 161.186 6.88 208.384 75.434 293.843 160 293.843"/><path fill="#E0E0E0" d="M159.994 190.33c18.323 0 33.177-8.577 33.177-19.156s-14.854-19.155-33.177-19.155c-18.324 0-33.178 8.576-33.178 19.155s14.854 19.156 33.178 19.156"/><path fill="#E0E0E0" d="M200.826 222.746c18.323 0 33.177-8.576 33.177-19.156s-14.854-19.155-33.177-19.155c-18.324 0-33.178 8.576-33.178 19.155s14.854 19.156 33.178 19.156M236.557 266.95c18.323 0 33.177-8.576 33.177-19.155s-14.854-19.155-33.177-19.155c-18.324 0-33.178 8.576-33.178 19.155s14.854 19.155 33.178 19.155M267.181 210.957c18.323 0 33.177-8.576 33.177-19.155s-14.854-19.156-33.177-19.156c-18.324 0-33.178 8.576-33.178 19.156s14.854 19.155 33.178 19.155M52.806 210.957c18.324 0 33.178-8.576 33.178-19.155s-14.854-19.156-33.178-19.156-33.177 8.576-33.177 19.156 14.854 19.155 33.177 19.155"/><path fill="#E0E0E0" d="M116.608 221.274c18.323 0 33.178-8.576 33.178-19.156s-14.855-19.155-33.178-19.155c-18.324 0-33.178 8.576-33.178 19.155s14.854 19.156 33.178 19.156M81.42 270.835c18.324 0 33.178-8.576 33.178-19.155s-14.854-19.155-33.177-19.155c-18.324 0-33.178 8.576-33.178 19.155s14.854 19.155 33.178 19.155M144.691 270.24l.307-9.958a1.507 1.507 0 0 0-1.516-1.568H124.8a1.53 1.53 0 0 1-1.097-.458 1.5 1.5 0 0 1-.426-1.11l.537-17.14a1.627 1.627 0 0 1 1.62-1.568h18.7a1.637 1.637 0 0 0 1.62-1.568l.307-9.964a1.64 1.64 0 0 1 1.625-1.568h24.666a1.638 1.638 0 0 1 1.626 1.568l.307 9.958a1.634 1.634 0 0 0 1.619 1.574h18.746a1.63 1.63 0 0 1 1.619 1.568l.486 17.14a1.514 1.514 0 0 1-1.523 1.568h-18.714a1.51 1.51 0 0 0-1.418.97 1.5 1.5 0 0 0-.098.598l.307 9.958a1.515 1.515 0 0 1-1.523 1.574h-27.578a1.5 1.5 0 0 1-1.095-.462 1.5 1.5 0 0 1-.422-1.112"/><path fill="#318AD1" d="M287.93 168.083c-.64-4.301 1.177-13.67 4.825-19.91s10.067-11.347 15.303-10.375c4.876.909 5.267 7.079.224 11.936S292.41 163.77 290.95 171.11l-.838 6.464z"/><path fill="#000" d="M287.93 168.083c-.64-4.301 1.177-13.67 4.825-19.91s10.067-11.347 15.303-10.375c4.876.909 5.267 7.079.224 11.936S292.41 163.77 290.95 171.11l-.838 6.464z" opacity=".15"/><path fill="#fff" d="M288.474 174.016a.314.314 0 0 0 .249-.294c.73-15.104 10.88-28.8 17.587-32.461a.31.31 0 0 0 .18-.19.32.32 0 0 0-.021-.261.319.319 0 0 0-.466-.106c-6.848 3.75-17.171 17.651-17.92 32.986a.3.3 0 0 0 .017.123.32.32 0 0 0 .284.209z"/><path fill="#318AD1" d="M288.378 186.714c.332-2.516 2.707-6.938 7.001-10.938 4.749-4.416 11.194-7.04 12.32-10.138 1.351-3.68-1.997-6.483-7.328-5.011s-13.785 10.253-13.651 21.645z"/><path fill="#fff" d="M286.957 184.32a.32.32 0 0 0 .237-.25c2.662-13.235 11.616-19.059 16-20.288a.345.345 0 0 0 .201-.154.33.33 0 0 0-.245-.494.3.3 0 0 0-.129.008c-4.819 1.357-13.709 7.258-16.423 20.775a.3.3 0 0 0 .045.239.305.305 0 0 0 .205.132q.05.029.109.032"/><path fill="#318AD1" d="M32.672 166.637s1.786-9.146-.442-17.383c-2.227-8.236-6.905-14.419-12.396-16.64s-11.668 1.517-6.772 6.976c4.896 5.46 14.458 12.468 15.175 27.328z"/><path fill="#000" d="M32.672 166.637s1.786-9.146-.442-17.383c-2.227-8.236-6.905-14.419-12.396-16.64s-11.668 1.517-6.772 6.976c4.896 5.46 14.458 12.468 15.175 27.328z" opacity=".15"/><path fill="#fff" d="M31.744 163.84h.064a.3.3 0 0 0 .12-.032.307.307 0 0 0 .169-.307c-1.281-16.506-10.695-26.183-15.47-28.999a.32.32 0 0 0-.237-.034.317.317 0 0 0-.083.578c4.679 2.752 13.869 12.263 15.162 28.506a.31.31 0 0 0 .275.288"/><path fill="#318AD1" d="M7.77 154.419c.128 1.242 1.126 2.189 2.08 2.983.953.793 1.99 1.664 2.252 2.88.525 2.451-2.38 4.716-1.753 7.142a3.9 3.9 0 0 0 2.054 2.285q1.176.578 2.407 1.03.595.18 1.21.288a5.63 5.63 0 0 1 3.295 1.479c1.344 1.452 1.171 3.686 1.651 5.612a8.2 8.2 0 0 0 4.404 5.261c1.779.851 4.704 1.338 5.452.672.57-.505.09-2.745.301-3.481a30.7 30.7 0 0 0 1.095-5.76c.047-.89.202-1.772.46-2.624.314-.948.64-1.92.928-2.848s.832-1.767.8-2.919a11 11 0 0 0-.736-3.2q-.525-1.548-1.081-3.072a15.5 15.5 0 0 0-1.62-3.481 8.18 8.18 0 0 0-5.49-3.456c-1.825-.269-3.84.153-5.588-.512-1.747-.666-3.251-1.658-5.069-2.132a6.504 6.504 0 0 0-5.613.948 3.44 3.44 0 0 0-1.44 2.905"/><path fill="#fff" d="M30.79 178.938a.3.3 0 0 0 .203-.074.28.28 0 0 0 .092-.195c.94-17.568-15.36-25.447-19.418-26.451a.287.287 0 0 0-.339.204.28.28 0 0 0 .205.34c3.987.985 19.917 8.684 18.995 25.881a.27.27 0 0 0 .155.27q.051.024.107.025"/><path fill="#fff" d="M14.522 164.595a.26.26 0 0 0 .166-.032 14.9 14.9 0 0 1 12.653.506.29.29 0 0 0 .377-.128.284.284 0 0 0-.128-.378 15.442 15.442 0 0 0-13.158-.493.278.278 0 0 0 .09.525"/><path fill="#E6E6E6" d="M258.906 76.314c-1.645 3.654-7.565 17.644-7.565 17.644l7.565 5.818c.64-.94 4.588-12.486 4.588-12.486l2.976-15.834c-3.808.102-6.048 1.504-7.564 4.858"/><path fill="#263238" d="M264.198 177.792c-.14.096-.473.48-1.062 1.024a21 21 0 0 1-1.92 1.466 35 35 0 0 1-4.218 2.643c-1.74.96-3.308 1.542-5.388 2.483a1.65 1.65 0 0 0-.583.384 1.2 1.2 0 0 0-.256.518 2.15 2.15 0 0 0 .871 2.08 5.7 5.7 0 0 0 2.176.928c1.768.497 3.632.552 5.427.16a15.4 15.4 0 0 0 4.358-2.016 9.8 9.8 0 0 1 3.731-1.6c1.165-.166 2.605-.115 3.616-.812 1.127-.775.679-2.432.359-3.84-.346-1.556-.429-3.924-1.133-3.872l-.058.64c-.057.672-1.683.979-2.944.979-1.043 0-3.014-.269-3.008-.762zM282.374 186.394l-.096-.826c-.3 0-.435.339-.556 1.069a15.8 15.8 0 0 1-1.46 4.48 22 22 0 0 1-3.315 5.03q-.945.961-1.76 2.035c-.345.64-.467 2.311.115 2.695 2.144 1.433 5.402 1.472 7.68.8a4.44 4.44 0 0 0 3.348-3.763c.371-2.1.569-3.392 1.638-4.98.39-.582 1.024-1.049 1.28-1.702.474-1.165.09-2.477-.211-3.642-.263-1.004-.551-2.105-.896-2.016v.64c-.41.461-1.856.909-3.143.96-.793.007-2.63-.147-2.624-.78"/><path fill="#37474F" d="M288.122 111.021c.108 5.337 1.235 40.614 1.235 40.614a78 78 0 0 1 .704 8.691c.147 7.04-.275 25.312-.275 25.312-.455 2.976-8.237 2.452-8.96 1.076 0 0-1.92-26.106-2.816-33.088a40271 40271 0 0 0-3.303-25.991l-1.99 19.565c.08 2.284.028 4.57-.154 6.848-.224 3.2-1.28 24.768-1.28 24.768 0 1.184-7.744 2.528-8.819-.23 0 0-.563-29.645-.64-32.608-.064-3.373.403-35.316.403-35.316z"/><path fill="#263238" d="M274.08 120.166a17.8 17.8 0 0 1-5.997-3.84s.954 2.791 4.877 5.12l-.256 24.32 1.978-18.118z"/><path fill="#455A64" d="M279.27 70.758c.999.237 4.16 1.088 6.727 1.997a7.14 7.14 0 0 1 3.238 2.477c1.863 2.72.186 8.768-1.19 20.16.109 7.354.32 16.499.32 16.499-3.386 2.464-19.162 4.135-26.279-1.062 0 0-.236-27.603.237-31.194.896-6.867 3.591-8.704 9.139-9.03z"/><path fill="#318AD1" d="M269.574 78.822c-.499 1.716-3.449 13.792-3.033 18.042a26.4 26.4 0 0 0 1.753 6.349c1.28 3.027 2.132.32 2.848-1.466a22.7 22.7 0 0 0 1.197-5.165c.237-2.278-.678-9.216-.326-17.344a1.746 1.746 0 0 0-2.439-.416"/><path fill="#000" d="M269.574 78.822c-.499 1.716-3.449 13.792-3.033 18.042a26.4 26.4 0 0 0 1.753 6.349c1.28 3.027 2.132.32 2.848-1.466a22.7 22.7 0 0 0 1.197-5.165c.237-2.278-.678-9.216-.326-17.344a1.746 1.746 0 0 0-2.439-.416" opacity=".2"/><path fill="#318AD1" d="M269.44 74.944c-1.171.998.109 3.878.109 3.878a3.3 3.3 0 0 1 2.438.416s2.33-.998 2.336-2.72c0-1.574-1.67-1.068-2.854-1.28-1.184-.21-1.863-1.132-2.029-.294"/><path fill="#000" d="M269.44 74.944c-1.171.998.109 3.878.109 3.878a3.3 3.3 0 0 1 2.438.416s2.33-.998 2.336-2.72c0-1.574-1.67-1.068-2.854-1.28-1.184-.21-1.863-1.132-2.029-.294" opacity=".2"/><path fill="#000" d="M269.574 78.822c.192-.678 1.108-.64 1.844-.844.414-.163.761-.46.985-.845.378-.64 0-1.735-.531-1.85 1.139.083 2.477-.173 2.477 1.235 0 1.722-2.336 2.72-2.336 2.72a3.3 3.3 0 0 0-2.439-.416" opacity=".2"/><path fill="#263238" d="M277.562 54.003a7.424 7.424 0 1 1-14.843-.352 7.424 7.424 0 0 1 14.843.352M282.842 59.411s-1.338 5.62-1.837 6.535a2.56 2.56 0 0 1-1.511 1.158l.18-3.974zM281.53 51.277a2.78 2.78 0 0 1 2.284.864c.967 1.037.34 4.192-.972 7.27l-2.272.205z"/><path fill="#FFBDA7" d="M279.891 59.603c.448.282 1.12-.576 1.696-1.152s2.419-1.331 3.283.64-.908 4.531-2.361 4.947c-2.503.717-2.835-.883-2.835-.883l-.423 10.131c-1.773 2.163-5.939 2.285-8 1.863-1.651-.333-1.677-1.504-.051-3.296l.077-2.906c-1.109.15-2.231.183-3.347.096-1.818-.326-2.938-1.792-3.437-3.782-.768-3.04-.954-6.432-.192-11.987.941-6.823 8.96-6.701 13.177-3.892 4.218 2.81 2.413 10.221 2.413 10.221"/><path fill="#263238" d="M279.872 60.365c.23 0 1.133-1.415 1.715-1.92.8-.691-.057-7.175-.057-7.175a3.14 3.14 0 0 0-.455-3.494c-1.587-1.83-3.673-2.368-6.054-2.31-.871 0-1.728.096-2.599.108a9.5 9.5 0 0 1-3.046-.524c-1.331-.43-2.618-1.005-3.981-1.325a1.32 1.32 0 0 0-1.28.166 1.19 1.19 0 0 0-.211.98c.103.791.434 1.536.954 2.143a5.8 5.8 0 0 0-1.408-.07 1.92 1.92 0 0 0-1.28.595 1.8 1.8 0 0 0-.218 1.888 3.2 3.2 0 0 0 1.37 1.415c1.128.65 2.457.86 3.731.588a2.61 2.61 0 0 0 1.574 1.447 8.32 8.32 0 0 0 6.739-.064q.351.525.768.998a5.1 5.1 0 0 0 1.05.794q.272.16.563.281.33.08.64.218c.237.18.211.64.256.954.122.812.224 1.632.378 2.444a3.84 3.84 0 0 0 .544 1.677.43.43 0 0 0 .307.186"/><path fill="#263238" d="m281.51 51.782 2.784-1.408a1.52 1.52 0 0 0-1.468-.896 1.5 1.5 0 0 0-.586.154 1.645 1.645 0 0 0-.73 2.15"/><path fill="#F1A288" d="M271.277 68.922s4.089-.724 5.536-1.447a4.7 4.7 0 0 0 2.016-1.92 6.5 6.5 0 0 1-1.178 2.272c-1.069 1.28-6.4 2.24-6.4 2.24z"/><path fill="#000" d="M272.64 58.605a.82.82 0 1 0 .774-.89.83.83 0 0 0-.774.89M273.178 55.533l1.792.87a1.05 1.05 0 0 0-.48-1.37.98.98 0 0 0-.763-.03.975.975 0 0 0-.549.53M264.73 56.32l1.92-.64a.96.96 0 0 0-.862-.693 1.042 1.042 0 0 0-1.058 1.332M265.658 58.374a.82.82 0 0 0 .458.778.82.82 0 1 0 .438-1.552.84.84 0 0 0-.896.774"/><path fill="#F1A288" d="m270.074 57.907-.295 4.909-2.56-.883zM272.845 63.654l-3.2.877a1.63 1.63 0 0 0 .746 1.043 1.65 1.65 0 0 0 1.27.186 1.74 1.74 0 0 0 1.184-2.106"/><path fill="#F28F8F" d="M272.851 64.467a1.5 1.5 0 0 0-.441-.077 1.526 1.526 0 0 0-1.511 1.376h.058c.227.051.463.051.691 0a1.73 1.73 0 0 0 1.203-1.299"/><path fill="#37474F" d="M271.251 75.123c2.266-.473 7.616-2.56 8.135-5.19l.07-1.44c.877 0 1.28.985 1.715 2.387.179 3.706-3.725 7.085-7.648 7.994a6.8 6.8 0 0 0-.864-2.432 3.3 3.3 0 0 0-1.408-1.319"/><path fill="#FAFAFA" d="M279.366 70.4s-1.67 8.39-2.4 14.08c-.729 5.69-.582 21.696-.198 31.872.282 7.411 1.389 21.12 1.389 21.12s1.83.371 6.246-.358a17.3 17.3 0 0 0 6.464-2.215s-.697-20.825-1.222-28.096c-.487-6.701-.467-10.393-.467-10.393l1.58-15.303s-.121-9.6-3.11-10.022c-3.098-.48-8.282-.685-8.282-.685"/><path fill="#318AD1" d="M282.24 84.134a20 20 0 0 1 .096-2.067c.294-4.691-.134-11.475-1.715-11.814l-.141.64c1.158.25 1.338 8.851 1.197 11.13-.064.979-.115 1.753-.096 2.143z"/><path fill="#FFBDA7" d="M287.738 120.96c.819-1.395.864-2.432 2.099-3.68a4.1 4.1 0 0 0 1.113-1.862c.301-1.143.451-2.32.448-3.501l7.168.333a45 45 0 0 1-.876 7.929c-1.37 5.971-2.65 8.461-5.255 9.101-4.102.928-5.12-.838-3.673-3.802a14.8 14.8 0 0 0 1.318-3.91 7.3 7.3 0 0 1-1.53 1.363 1.44 1.44 0 0 1-1.952-.211c-.179-.288.493-.685 1.14-1.76"/><path fill="#F0F0F0" d="M286.438 71.04s3.546-.051 5.536 1.74c1.991 1.793 3.066 6.58 4.346 11.386 1.28 4.807 2.432 9.472 2.771 12.8.288 2.79-.173 17.28-.173 17.28s-4.921 1.044-8.044-.64l.256-16.294-5.159-16.365a15.4 15.4 0 0 1 .467-9.907"/><path fill="#EBEBEB" d="M279.482 67.629c.467-.09.896.153 1.28.8a241 241 0 0 0 1.216 2.003s.428 4.48 0 5.626c-.372.972-2.861 5.561-2.861 5.561s.166 4.48.205 5.76-2.56 6.88-2.823 9.46c0 0-.128-10.484.25-13.396.64-5.062 1.51-11.405 2.637-13.485z"/><path fill="#455A64" d="M281.261 98.925a3.55 3.55 0 0 1-2.023.589l.058-.461a2.84 2.84 0 0 0 1.555-.429 5.7 5.7 0 0 1-1.158-1.248c-.64-1.024-1.703-8.02-1.063-9.6.525-1.28 2.074-4.096 3.245-4.096h.032c1.178.051 2.496 3.014 2.919 4.365.505 1.6-1.127 8.486-1.876 9.453a5.5 5.5 0 0 1-1.28 1.139c.444.325.969.52 1.517.563v.467h-.057a3.7 3.7 0 0 1-1.869-.742m-2.221-10.95c-.589 1.427.41 8.198 1.024 9.151.33.475.734.895 1.197 1.242.487-.305.92-.69 1.28-1.14.691-.889 2.259-7.558 1.798-9.03-.563-1.804-1.805-4.006-2.496-4.032-.665 0-2.073 2.068-2.803 3.808"/><path fill="#263238" d="M278.586 99.258a.677.677 0 0 0 1.131.541.679.679 0 1 0-1.131-.541M282.534 99.424a.7.7 0 0 0 .092.389.7.7 0 0 0 .293.272.69.69 0 0 0 .757-.108.685.685 0 1 0-1.142-.553"/><path fill="#318AD1" d="M278.515 90.829h.391a.153.153 0 0 0 .14-.16 7.8 7.8 0 0 1 .116-2.624c.684-1.67 2.105-3.763 2.72-3.738.614.026 1.849 2.234 2.393 3.955a8 8 0 0 1-.115 2.618.16.16 0 0 0 .026.11.16.16 0 0 0 .096.063l.39.057q.062.008.113-.028a.16.16 0 0 0 .06-.1 7.9 7.9 0 0 0 .077-2.937c-.288-.922-1.652-4.384-3.021-4.442-1.37-.057-3.027 3.277-3.392 4.173a7.8 7.8 0 0 0-.173 2.931.154.154 0 0 0 .179.122"/><path fill="#FAFAFA" d="M271.264 69.293c-.64.051-.883.896-2.291 1.28-2.624.78-4.679 1.088-5.76 2.509-1.76 2.348-1.415 4.268-1.856 16.16s-.583 45.753-.583 45.753a9.1 9.1 0 0 0 4.013.813s-.102-37.37.147-45.78c.25-8.409 1.524-12.498 3.341-15.27a10.25 10.25 0 0 1 2.899-4.934z"/><path fill="#EBEBEB" d="M268.294 74.79c-1.817 2.772-3.091 6.868-3.34 15.27a275 275 0 0 0-.084 4.097s-1.497-7.616-1.228-9.235c.268-1.62 2.016-4.973 2.016-4.973-.221-2.7.292-5.408 1.484-7.84a5.4 5.4 0 0 1 .928-1.216 9 9 0 0 1 1.133-.768 4.1 4.1 0 0 1 2.061-.832v.582a10.2 10.2 0 0 0-2.97 4.915"/><path fill="#37474F" d="M271.251 69.875a7.6 7.6 0 0 0-1.971 1.69 6.49 6.49 0 0 0-.736 6.515 5.5 5.5 0 0 1 1.165-1.971c.417-.46.949-.801 1.542-.986-.723-.768-.441-2.112-.051-3.296z"/><path fill="#318AD1" d="m243.469 86.214 20.729 7.316 5.703 24.665-.461.493-19.712-7.36-6.726-24.62z"/><path fill="#000" d="m263.731 94.022 5.709 24.666.461-.493-5.703-24.665z" opacity=".35"/><path fill="#000" d="m243.002 86.707 20.729 7.315 5.709 24.666-19.712-7.36z" opacity=".25"/><path fill="#000" d="M252.8 106.317c-.192.48-1.779 1.549-4.077 1.357l-.403-1.434z" opacity=".2"/><path fill="#000" d="m249.248 91.763-.173-.832c-.089-.454 1.127-.217 2.72.538l3.744 1.133c1.594.755 3.098 1.312 3.2 1.772l.173.826z" opacity=".1"/><path fill="#37474F" d="M248.019 88.02c-.064-.289.41-.225 1.075-.052l1.191.41s-.487-1.204 2.342-.436c3.104.839 3.2 2.394 3.2 2.394q.712.313 1.453.544c1.03.333 1.146.538 1.229.826l.153.524-10.566-3.718s-.019-.192-.077-.493"/><path fill="#37474F" d="M249.126 89.6c.98.442 1.389.64 1.53 1.363.166.807.205 1.14.205 1.14l5.504 2.169s-.301-1.184-.371-1.574.64-.404 1.606.038l-.23-.986-8.551-3.2z"/><path fill="#37474F" d="m248.96 91.776-.173-.826c-.096-.46 1.12-.217 2.72.532l3.738 1.132c1.593.756 3.104 1.28 3.2 1.773l.166.826z"/><path fill="#FFBDA7" d="M245.312 95.149s.73 2.7.922 3.385 3.59 2.253 5.292 2.464c3.252.404 3.616 1.114 2.836 3.418-.724 2.131-2.836 2.931-5.76 2.56a5.31 5.31 0 0 1-4.026-3.514c-.947-2.72-.435-5.625-.813-7.212-.377-1.588.717-2.048 1.549-1.101"/><path fill="#FFA8A7" d="M228.742 235.981c.071-1.92-1.331-20.896-1.331-20.896l9.229 6.694c-1.92 11.309-2.298 13.971-2.33 15.821q.058.233.052.474c0 2.195-2.49 3.379-4.423 4.844a36 36 0 0 1-5.229 3.418c-1.401.704-4.256.768-4.608-.134 2.349-1.799 5.76-4.48 7.642-6.541.896-.979.934-1.754.998-3.68"/><path fill="#455A64" d="M216.09 248.563a1.88 1.88 0 0 0 .352 1.92 8.09 8.09 0 0 0 5.913 1.344c2.931-.377 4.519-1.28 5.696-2.272 1.178-.992 2.816-2.368 4.141-2.662a7.95 7.95 0 0 0 2.97-1.21c.39-.377.339-2.073.339-2.073z"/><path fill="#318AD1" d="M234.33 237.062a.47.47 0 0 1 .441.397c.096.467.192 1.824.384 2.592.303 1.35.4 2.737.288 4.115-.16.871-2.169 1.472-3.456 1.959a16.2 16.2 0 0 0-4.16 2.63 11.7 11.7 0 0 1-6.189 2.304c-2.259 0-4.806-.749-5.395-1.798-.717-1.28-.153-2.048 3.2-3.603.64-.295 2.867-1.613 3.629-2.093 2.054-1.28 4.09-3.098 5.037-5.389a1.28 1.28 0 0 1 .48-.698 1.04 1.04 0 0 1 .64-.057 5.5 5.5 0 0 1 1.619.486c.448.211 1.088.461 1.075 1.037a1.7 1.7 0 0 1-.128.589c-.038.115-.07.275.032.339s.231 0 .314-.083q.497-.508.909-1.088.229-.304.531-.538.296-.168.569-.371c.218-.205.173-.461.18-.73"/><path fill="#fff" d="M234.33 237.062a.47.47 0 0 1 .441.397c.096.467.192 1.824.384 2.592.303 1.35.4 2.737.288 4.115-.16.871-2.169 1.472-3.456 1.959a16.2 16.2 0 0 0-4.16 2.63 11.7 11.7 0 0 1-6.189 2.304c-2.259 0-4.806-.749-5.395-1.798-.717-1.28-.153-2.048 3.2-3.603.64-.295 2.867-1.613 3.629-2.093 2.054-1.28 4.09-3.098 5.037-5.389a1.28 1.28 0 0 1 .48-.698 1.04 1.04 0 0 1 .64-.057 5.5 5.5 0 0 1 1.619.486c.448.211 1.088.461 1.075 1.037a1.7 1.7 0 0 1-.128.589c-.038.115-.07.275.032.339s.231 0 .314-.083q.497-.508.909-1.088.229-.304.531-.538.296-.168.569-.371c.218-.205.173-.461.18-.73" opacity=".9"/><path fill="#318AD1" d="M227.84 248.755c.589-.48 1.21-.947 1.83-1.363 0 0-3.942 2.4-5.536 1.28a1.43 1.43 0 0 1-.512-1.83c0-.269-2.508-1.434-3.507-1.556-.281.154-.512.282-.64.346-3.353 1.555-3.923 2.31-3.2 3.603.589 1.05 2.432 1.869 5.357 1.869 1.882.026 4.819-1.21 6.208-2.349"/><path fill="#fff" d="M227.84 248.755c.589-.48 1.21-.947 1.83-1.363 0 0-3.942 2.4-5.536 1.28a1.43 1.43 0 0 1-.512-1.83c0-.269-2.508-1.434-3.507-1.556-.281.154-.512.282-.64.346-3.353 1.555-3.923 2.31-3.2 3.603.589 1.05 2.432 1.869 5.357 1.869 1.882.026 4.819-1.21 6.208-2.349" opacity=".8"/><path fill="#318AD1" d="M223.885 246.074c-2.087.838-1.197 1.228-.64 1.312.557.083 4.096-1.972 6.233-3.661 2.138-1.69 3.642-3.699 4.48-4.352.308-.243.64-.538.941-.813-.057-.461-.102-.883-.147-1.101a.46.46 0 0 0-.15-.277.46.46 0 0 0-.292-.12c0 .269.039.525-.166.73a6 6 0 0 1-.57.371q-.301.234-.531.538-.41.58-.909 1.088a27.1 27.1 0 0 1-8.249 6.285"/><path fill="#FAFAFA" d="M223.418 247.078a.2.2 0 0 0 .134-.051.21.21 0 0 0 0-.288 4.93 4.93 0 0 0-3.84-1.504.2.2 0 0 0-.077.024.22.22 0 0 0-.098.123.21.21 0 0 0 .068.219.216.216 0 0 0 .152.044 4.6 4.6 0 0 1 3.456 1.357q.036.046.091.068a.2.2 0 0 0 .114.008M225.235 245.958a.24.24 0 0 0 .135-.044.2.2 0 0 0 .046-.068.2.2 0 0 0 .016-.08.2.2 0 0 0-.016-.08.2.2 0 0 0-.046-.067 4.99 4.99 0 0 0-3.84-1.504.207.207 0 0 0-.036.402q.04.012.08.008a4.59 4.59 0 0 1 3.456 1.357.207.207 0 0 0 .205.076M227.059 244.896a.2.2 0 0 0 .128-.045.2.2 0 0 0 .06-.147.2.2 0 0 0-.06-.147 4.96 4.96 0 0 0-3.84-1.504.21.21 0 0 0-.185.23.203.203 0 0 0 .23.179 4.6 4.6 0 0 1 3.456 1.357.19.19 0 0 0 .211.077M228.742 243.686a.22.22 0 0 0 .135-.051.21.21 0 0 0 0-.288 4.95 4.95 0 0 0-3.84-1.504.2.2 0 0 0-.138.074.192.192 0 0 0-.041.15.2.2 0 0 0 .021.078.195.195 0 0 0 .203.108 4.6 4.6 0 0 1 3.456 1.357.208.208 0 0 0 .204.076M230.4 242.477a.23.23 0 0 0 .107-.036.22.22 0 0 0 .059-.303 5.077 5.077 0 0 0-4.172-1.524.2.2 0 0 0-.079.021.2.2 0 0 0-.101.123.2.2 0 0 0-.006.08.212.212 0 0 0 .23.186 4.7 4.7 0 0 1 3.802 1.37.21.21 0 0 0 .16.083"/><path fill="#FFA8A7" d="m246.56 221.843 9.312-.166c-.134 6.214-1.126 13.113-1.28 18.95-.032 1.095 0 8.531-.384 10.791-.64 3.392-4.653 2.937-4.87.902s.262-10.707.249-11.603c0-3.744-1.721-10.055-2.637-16.775-.051-.326-.345-1.779-.39-2.099"/><path fill="#455A64" d="M247.814 253.734c-.083 1.997.09 3.341.679 4.576a2.934 2.934 0 0 0 3.257 1.53c1.376-.211 3.2-.947 3.751-2.618.502-1.52.663-3.133.473-4.723z"/><path fill="#318AD1" d="M254.611 239.91c.544.103.442 2.778.493 5.479.058 2.893.794 4.16.858 6.534.083 2.714-.18 3.891-1.28 5.421s-4.583 2.778-5.984.294c-1.146-2.022-.986-4.128-.596-6.79.384-2.248.653-4.515.807-6.79.096-2.016.147-3.968.64-4.148v.973c0 .295-.045 1.312.262 1.357q.07-.375.083-.755a.9.9 0 0 1 .218-.64c.183-.142.409-.216.64-.211a16 16 0 0 1 1.67-.09q.422.001.839.051c.237.02.471.076.691.167q.096.043.166.122a.5.5 0 0 1 .103.178.9.9 0 0 1 0 .314 2.3 2.3 0 0 0 0 .557c0 .077.057.179.141.166s.096-.083.102-.147c.038-.326 0-.563.045-.941v-.589c0-.172.096-.339.102-.512"/><path fill="#fff" d="M254.611 239.91c.544.103.442 2.778.493 5.479.058 2.893.794 4.16.858 6.534.083 2.714-.18 3.891-1.28 5.421s-4.583 2.778-5.984.294c-1.146-2.022-.986-4.128-.596-6.79.384-2.248.653-4.515.807-6.79.096-2.016.147-3.968.64-4.148v.973c0 .295-.045 1.312.262 1.357q.07-.375.083-.755a.9.9 0 0 1 .218-.64c.183-.142.409-.216.64-.211a16 16 0 0 1 1.67-.09q.422.001.839.051c.237.02.471.076.691.167q.096.043.166.122a.5.5 0 0 1 .103.178.9.9 0 0 1 0 .314 2.3 2.3 0 0 0 0 .557c0 .077.057.179.141.166s.096-.083.102-.147c.038-.326 0-.563.045-.941v-.589c0-.172.096-.339.102-.512" opacity=".9"/><path fill="#318AD1" d="M255.917 251.149c0 .39.083 2.982-.64 3.373-.723.39-1.018-1.632-1.018-1.632s-1.709-.717-4.397.153c.09.423-.441 1.754-1.12 1.395-.678-.358-.64-3.321-.64-3.36-.364 2.56-.48 4.596.64 6.56 1.402 2.484 4.884 1.229 5.984-.294 1.101-1.523 1.364-2.707 1.28-5.421-.051-.269-.07-.525-.089-.774"/><path fill="#fff" d="M255.917 251.149c0 .39.083 2.982-.64 3.373-.723.39-1.018-1.632-1.018-1.632s-1.709-.717-4.397.153c.09.423-.441 1.754-1.12 1.395-.678-.358-.64-3.321-.64-3.36-.364 2.56-.48 4.596.64 6.56 1.402 2.484 4.884 1.229 5.984-.294 1.101-1.523 1.364-2.707 1.28-5.421-.051-.269-.07-.525-.089-.774" opacity=".8"/><path fill="#318AD1" d="M254.022 253.043c-.083.967.903.736 1.082-.64s-.243-4.685 0-7.04c-.051-2.701.051-5.376-.493-5.478a1 1 0 0 0 0 .102l-.064 1.357c0 .198 0 .378-.032.589-.179 1.971-.288 5.817-.301 7.635a30 30 0 0 1-.192 3.475M250.144 253.043a33 33 0 0 1-.186-3.449c0-1.805-.115-5.607-.3-7.591a5.3 5.3 0 0 1-.077-1.12v-.9660000000000001c-.365.128-.493 1.197-.576 2.56 0 .781 0 1.747.077 2.925.243 2.348-.186 5.689 0 7.04.185 1.35 1.158 1.568 1.062.601"/><path fill="#FAFAFA" d="M249.779 253.114h.077a6.53 6.53 0 0 1 4.314 0 .212.212 0 0 0 .241-.279.2.2 0 0 0-.094-.112 6.9 6.9 0 0 0-4.615 0 .21.21 0 0 0-.115.269.2.2 0 0 0 .079.088.23.23 0 0 0 .113.034M249.53 250.963h.07a8.06 8.06 0 0 1 4.826 0 .212.212 0 0 0 .253-.292.2.2 0 0 0-.119-.105 8.43 8.43 0 0 0-5.12 0 .2.2 0 0 0-.106.091.207.207 0 0 0 .045.258.2.2 0 0 0 .131.048zM254.496 248.96q.06 0 .111-.032a.21.21 0 0 0-.028-.365 7.1 7.1 0 0 0-5.088 0 .22.22 0 0 0-.114.11.2.2 0 0 0-.016.08.2.2 0 0 0 .015.079c.021.05.061.09.111.112.05.021.107.022.158.003 0 0 2.56-.992 4.761 0q.044.015.09.013M254.541 247.04a.198.198 0 0 0 .185-.122.2.2 0 0 0 .01-.157.207.207 0 0 0-.106-.118 6.4 6.4 0 0 0-5.19-.057.2.2 0 0 0-.065.048.2.2 0 0 0-.041.069.2.2 0 0 0-.011.08.22.22 0 0 0 .138.185.2.2 0 0 0 .158-.005 6.08 6.08 0 0 1 4.832.051.15.15 0 0 0 .09.026"/><path fill="#EBEBEB" d="M254.586 244.909a.213.213 0 0 0 .181-.299.2.2 0 0 0-.092-.098c-2.464-1.216-5.12-.051-5.229 0a.207.207 0 0 0 .167.378s2.592-1.133 4.883 0a.16.16 0 0 0 .09.019"/><path fill="#318AD1" d="M251.206 157.517a38.1 38.1 0 0 1 2.925 10.969c1.063 13.767.487 33.524.487 33.524.121 1.44 1.036 4.704 1.644 11.033.73 7.482-.179 32.826-.179 32.826s-4.48 2.662-7.955-.371c0 0-4.051-34.842-4.986-42.24-.819-6.49-3.11-20.532-3.11-20.532l-2.675 20.762s.249 5.843.077 9.6c-.205 4.39-1.434 26.758-1.434 26.758s-6.144 2.08-8.89-.876l-.748-36.308c-.18-10.361 0-29.241 1.683-40.108z"/><path fill="#fff" d="M251.206 157.517a38.1 38.1 0 0 1 2.925 10.969c1.063 13.767.487 33.524.487 33.524.121 1.44 1.036 4.704 1.644 11.033.73 7.482-.179 32.826-.179 32.826s-4.48 2.662-7.955-.371c0 0-4.051-34.842-4.986-42.24-.819-6.49-3.11-20.532-3.11-20.532l-2.675 20.762s.249 5.843.077 9.6c-.205 4.39-1.434 26.758-1.434 26.758s-6.144 2.08-8.89-.876l-.748-36.308c-.18-10.361 0-29.241 1.683-40.108z" opacity=".6"/><path fill="#000" d="m240.032 182.694-.96-6.611s-5.581-.742-8.109-3.117a9.19 9.19 0 0 0 6.579 4.154l.986 5.971-.851 17.869z" opacity=".2"/><path fill="#318AD1" d="M243.962 147.418c1.11.083 2.227.038 3.328-.135a5.5 5.5 0 0 0 3.884-2.56c.175-.43.403-.836.679-1.209.486-.532 1.28-.685 1.92-1.031a4.1 4.1 0 0 0 1.355-1.295 4.1 4.1 0 0 0 .635-1.764 7.2 7.2 0 0 0-.595-3.661c-.467-1.165-1.408-2.227-1.971-3.353a15.44 15.44 0 0 1-2.042-6.548c-.179-2.246-.102-4.569-.179-6.835-.083-2.56-.141-6.157-3.232-8.96a4.7 4.7 0 0 0-2.765-1.197c-1.28-2.342-3.84-3.372-5.977-3.737a16.6 16.6 0 0 0-5.421.089 9.27 9.27 0 0 0-4.832 2.311 6.8 6.8 0 0 0-2.061 4.582 5.58 5.58 0 0 0 1.35 3.84c-.45.41-.768.945-.915 1.536-.16 1.28.173 2.797 2.336 3.623l3.149 2.924a31.7 31.7 0 0 0-.992 6.298c0 1.363 0 2.733.128 4.09.339 4.057 1.402 8.864 5.075 11.347a9.3 9.3 0 0 0 3.539 1.401 9 9 0 0 0 1.556.18c.646-.007 1.356.032 2.048.064"/><path fill="#000" d="M243.962 147.418c1.11.083 2.227.038 3.328-.135a5.5 5.5 0 0 0 3.884-2.56c.175-.43.403-.836.679-1.209.486-.532 1.28-.685 1.92-1.031a4.1 4.1 0 0 0 1.355-1.295 4.1 4.1 0 0 0 .635-1.764 7.2 7.2 0 0 0-.595-3.661c-.467-1.165-1.408-2.227-1.971-3.353a15.44 15.44 0 0 1-2.042-6.548c-.179-2.246-.102-4.569-.179-6.835-.083-2.56-.141-6.157-3.232-8.96a4.7 4.7 0 0 0-2.765-1.197c-1.28-2.342-3.84-3.372-5.977-3.737a16.6 16.6 0 0 0-5.421.089 9.27 9.27 0 0 0-4.832 2.311 6.8 6.8 0 0 0-2.061 4.582 5.58 5.58 0 0 0 1.35 3.84c-.45.41-.768.945-.915 1.536-.16 1.28.173 2.797 2.336 3.623l3.149 2.924a31.7 31.7 0 0 0-.992 6.298c0 1.363 0 2.733.128 4.09.339 4.057 1.402 8.864 5.075 11.347a9.3 9.3 0 0 0 3.539 1.401 9 9 0 0 0 1.556.18c.646-.007 1.356.032 2.048.064" opacity=".2"/><path fill="#FFC4C3" d="m224.045 165.024 4.358 5.402s3.034-5.031 2.912-5.031-3.84-6.099-3.84-6.099z"/><path fill="#455A64" d="M232.858 130.368c-3.424-.051-5.261 1.485-7.776 5.427-2.138 3.36-7.098 11.405-8.493 13.831-1.575 2.739-1.799 3.84-.563 5.9 1.171 1.92 8.646 10.548 8.646 10.548a12.8 12.8 0 0 0 3.731-5.504l-4.358-7.29 8.377-12.384z"/><path fill="#318AD1" d="M233.075 130.214c-2.477-.128-4.013.384-5.504 1.831-1.491 1.446-9.171 14.323-9.171 14.323s.365 2.298 6.848 5.76l7.072-8.288z"/><path fill="#fff" d="M233.075 130.214c-2.477-.128-4.013.384-5.504 1.831-1.491 1.446-9.171 14.323-9.171 14.323s.365 2.298 6.848 5.76l7.072-8.288z" opacity=".6"/><path fill="#318AD1" d="M228.48 147.571c.243 2.714.307 8.026.307 8.026-.985 6.937-1.536 13.76-1.536 13.76 10.362 5.536 25.773 1.011 27.738-1.28-.973-6.797-3.117-11.027-4.519-14.855l2.599-11.564s-4.48-3.719-4.071-11.264l-6.124-.64-5.844.166-4.153.294a35 35 0 0 0-5.427 6.765c-2.036 3.277-2.112 7.322 1.03 10.592"/><path fill="#fff" d="M228.48 147.571c.243 2.714.307 8.026.307 8.026-.985 6.937-1.536 13.76-1.536 13.76 10.362 5.536 25.773 1.011 27.738-1.28-.973-6.797-3.117-11.027-4.519-14.855l2.599-11.564s-4.48-3.719-4.071-11.264l-6.124-.64-5.844.166-4.153.294a35 35 0 0 0-5.427 6.765c-2.036 3.277-2.112 7.322 1.03 10.592" opacity=".75"/><path fill="#000" d="M236.422 147.302s2.708 2.394 6.029 1.447a5.56 5.56 0 0 0 3.975-3.751s.108 3.738-4.071 4.736a5.37 5.37 0 0 1-5.933-2.432" opacity=".1"/><path fill="#FFC4C3" d="M232.147 110.618c-1.28.678-3.155 3.148-2.886 9.977.211 5.351 1.766 6.72 2.662 7.123s2.656.212 4.365 0l-.083 3.2s-3.13 5.28-1.37 7.45a14.3 14.3 0 0 0 6.893-3.968c1.92-1.92 1.92-3.514 1.92-3.514l.141-6.988s.973.96 2.707-.429c1.434-1.146 1.952-3.117.89-4.211a2.5 2.5 0 0 0-.981-.566 2.484 2.484 0 0 0-2.923 1.206s-1.92.083-2.24-3.469c0 0-2.848-.256-4.41-1.056-3.565-1.779-4.275-3.872-4.685-4.755"/><path fill="#455A64" d="M238.976 133.242c-2.899 0-3.2-.813-2.88-2.164-.525.948-2.829 5.332-1.28 7.264a14.37 14.37 0 0 0 6.912-3.942 5.9 5.9 0 0 0 1.92-3.245c-.73 1.223-2.368 2.112-4.672 2.087"/><path fill="#F28F8F" d="M236.288 127.674c2.451-.589 5.504-1.799 6.118-3.2a5.76 5.76 0 0 1-1.625 2.336c-1.127.883-4.525 1.92-4.525 1.92z"/><path fill="#000" d="M237.203 118.131a.804.804 0 0 0 .717.845.763.763 0 0 0 .864-.64.79.79 0 0 0-.717-.838.76.76 0 0 0-.864.633"/><path fill="#F28F8F" d="m236.973 123.187-2.733.672a1.4 1.4 0 0 0 .633.876c.159.097.335.161.519.188.183.028.37.019.55-.027.361-.094.671-.325.864-.644.192-.32.252-.702.167-1.065"/><path fill="#FFA8A7" d="M236.928 123.974a1 1 0 0 0-.64-.23 1.015 1.015 0 0 0-1.011 1.011.7.7 0 0 0 0 .154 1.434 1.434 0 0 0 1.651-.935"/><path fill="#000" d="m230.502 116.294 1.46-.998a.87.87 0 0 0-.564-.37.88.88 0 0 0-.659.14.886.886 0 0 0-.237 1.228M237.606 115.738l1.626.742a.8.8 0 0 0 .055-.658.82.82 0 0 0-.452-.481.967.967 0 0 0-1.229.397M230.803 117.76a.79.79 0 0 0 .711.838.7.7 0 0 0 .296-.013.75.75 0 0 0 .568-.627.8.8 0 0 0-.698-.838.74.74 0 0 0-.778.355.7.7 0 0 0-.099.285"/><path fill="#FFA8A7" d="m234.835 117.613-.39 4.333-2.336-.852z"/><path fill="#FFC4C3" d="M258.157 161.024a20 20 0 0 1-1.472 2.125 3 3 0 0 1-1.767 1.203 22.3 22.3 0 0 0-4.332 1.018c-1.236.39-2.016.288-2.061.601-.051.41.166.883 1.28 1.12.821.094 1.649.094 2.47 0a16 16 0 0 1-3.385 3.015c-2.503 1.651-3.354 2.899-.749 4.48 1.92 1.158 5.216.844 9.792-3.424a49.4 49.4 0 0 0 5.958-7.04z"/><path fill="#455A64" d="M263.68 164.806c7.366-9.184 7.488-10.739 5.318-13.952-12.889-19.084-12.844-18.924-19.289-20.288-2.803 4.826 0 9.53 2.336 12.16l9.382 11.61a112 112 0 0 1-3.507 6.803s2.349 2.906 5.76 3.667"/><path fill="#318AD1" d="M248.96 130.406c3.533.16 6.131.64 8.614 3.693 2.656 3.239 8.813 12.16 8.813 12.16s-1.651 5.082-8.281 6.791l-8.352-10.727s-3.034-6.003-.794-11.917"/><path fill="#fff" d="M248.96 130.406c3.533.16 6.131.64 8.614 3.693 2.656 3.239 8.813 12.16 8.813 12.16s-1.651 5.082-8.281 6.791l-8.352-10.727s-3.034-6.003-.794-11.917" opacity=".6"/><path fill="#318AD1" d="M244.282 129.92c1.094.237 1.388 4.838 1.126 10.419-.045.922-.109 1.651-.09 2.016h.64c0-.333.032-1.049.09-1.92.275-4.409.307-10.816-1.613-11.11a2.5 2.5 0 0 0-.781-.071v.64z"/><path fill="#000" d="M244.282 129.92c1.094.237 1.388 4.838 1.126 10.419-.045.922-.109 1.651-.09 2.016h.64c0-.333.032-1.049.09-1.92.275-4.409.307-10.816-1.613-11.11a2.5 2.5 0 0 0-.781-.071v.64z" opacity=".2"/><path fill="#455A64" d="M245.037 156.243a3.4 3.4 0 0 1-1.92.551l.051-.429a2.8 2.8 0 0 0 1.472-.41 5.1 5.1 0 0 1-1.094-1.171c-.64-.96-1.6-7.546-.999-9.011.499-1.216 1.952-3.84 3.053-3.84h.032c1.107.045 2.349 2.835 2.746 4.102.473 1.511-1.063 7.987-1.767 8.89a5.3 5.3 0 0 1-1.184 1.075c.416.308.911.492 1.427.531v.435h-.051a3.4 3.4 0 0 1-1.766-.723m-2.074-10.323c-.55 1.344.384 7.712.96 8.608a5.1 5.1 0 0 0 1.133 1.171c.462-.289.874-.65 1.222-1.069.64-.844 2.132-7.11 1.696-8.499-.531-1.696-1.702-3.769-2.348-3.795-.672.019-1.997 1.971-2.663 3.584"/><path fill="#263238" d="M242.515 156.55a.641.641 0 1 0 1.268-.124.641.641 0 0 0-1.268.124M246.234 156.71a.64.64 0 0 0 .395.592.64.64 0 0 0 .872-.467.642.642 0 0 0-.627-.765.64.64 0 0 0-.64.64"/><path fill="#318AD1" d="M242.451 148.627h.365a.14.14 0 0 0 .098-.05.14.14 0 0 0 .036-.103 7.5 7.5 0 0 1 .109-2.471c.64-1.568 1.978-3.539 2.56-3.513.583.025 1.741 2.099 2.253 3.718a7.4 7.4 0 0 1-.102 2.47.16.16 0 0 0 .028.107.16.16 0 0 0 .093.06l.365.057a.145.145 0 0 0 .16-.128 7.4 7.4 0 0 0 .077-2.758c-.275-.87-1.555-4.122-2.848-4.179s-2.842 3.078-3.2 3.923a7.4 7.4 0 0 0-.16 2.758.14.14 0 0 0 .06.089q.05.032.106.02"/><path fill="#000" d="M242.451 148.627h.365a.14.14 0 0 0 .098-.05.14.14 0 0 0 .036-.103 7.5 7.5 0 0 1 .109-2.471c.64-1.568 1.978-3.539 2.56-3.513.583.025 1.741 2.099 2.253 3.718a7.4 7.4 0 0 1-.102 2.47.16.16 0 0 0 .028.107.16.16 0 0 0 .093.06l.365.057a.145.145 0 0 0 .16-.128 7.4 7.4 0 0 0 .077-2.758c-.275-.87-1.555-4.122-2.848-4.179s-2.842 3.078-3.2 3.923a7.4 7.4 0 0 0-.16 2.758.14.14 0 0 0 .06.089q.05.032.106.02" opacity=".2"/><path fill="#318AD1" d="M236.237 129.088c-.979.134-4.007 1.626-5.44 6.118s-1.344 11.52-1.28 13.504.179 3.45.179 3.45h.922s-.16-2.189-.205-3.45c-.045-1.26.115-10.297 1.209-13.152 1.312-3.398 2.797-4.71 4.615-5.574z"/><path fill="#000" d="M236.237 129.088c-.979.134-4.007 1.626-5.44 6.118s-1.344 11.52-1.28 13.504.179 3.45.179 3.45h.922s-.16-2.189-.205-3.45c-.045-1.26.115-10.297 1.209-13.152 1.312-3.398 2.797-4.71 4.615-5.574z" opacity=".2"/><path fill="#455A64" d="M232.691 152.493a2.562 2.562 0 0 1-3.059 2.511 2.561 2.561 0 0 1 .499-5.071 2.56 2.56 0 0 1 2.56 2.56"/><path fill="#37474F" d="M230.15 153.939a1.446 1.446 0 1 0 .001-2.893 1.446 1.446 0 0 0-.001 2.893"/><path fill="#455A64" d="M175.405 206.259a1.91 1.91 0 0 0 .352 1.92 8.06 8.06 0 0 0 5.894 1.344c2.925-.377 4.512-1.28 5.683-2.265s2.81-2.362 4.135-2.656a8.1 8.1 0 0 0 2.957-1.204c.39-.384.339-2.073.339-2.073z"/><path fill="#318AD1" d="M193.594 194.797a.464.464 0 0 1 .448.39c.089.467.185 1.824.377 2.56.302 1.345.4 2.728.288 4.103-.16.864-2.163 1.465-3.443 1.958a16 16 0 0 0-4.147 2.618 11.73 11.73 0 0 1-6.176 2.297c-2.253 0-4.794-.742-5.376-1.792-.723-1.28-.16-2.041 3.2-3.59.64-.295 2.861-1.613 3.616-2.087 2.048-1.28 4.083-3.091 5.024-5.376.076-.28.245-.526.48-.697.202-.084.426-.104.64-.058a5.4 5.4 0 0 1 1.606.487c.455.211 1.088.46 1.082 1.036q-.023.301-.128.583c-.039.115-.071.275.032.345.102.071.224 0 .313-.089q.49-.509.903-1.082.228-.301.525-.537.3-.166.576-.372c.204-.179.153-.428.16-.697"/><path fill="#fff" d="M193.594 194.797a.464.464 0 0 1 .448.39c.089.467.185 1.824.377 2.56.302 1.345.4 2.728.288 4.103-.16.864-2.163 1.465-3.443 1.958a16 16 0 0 0-4.147 2.618 11.73 11.73 0 0 1-6.176 2.297c-2.253 0-4.794-.742-5.376-1.792-.723-1.28-.16-2.041 3.2-3.59.64-.295 2.861-1.613 3.616-2.087 2.048-1.28 4.083-3.091 5.024-5.376.076-.28.245-.526.48-.697.202-.084.426-.104.64-.058a5.4 5.4 0 0 1 1.606.487c.455.211 1.088.46 1.082 1.036q-.023.301-.128.583c-.039.115-.071.275.032.345.102.071.224 0 .313-.089q.49-.509.903-1.082.228-.301.525-.537.3-.166.576-.372c.204-.179.153-.428.16-.697" opacity=".9"/><path fill="#318AD1" d="M187.117 206.451c.582-.48 1.203-.947 1.824-1.363 0 0-3.936 2.387-5.523 1.28a1.426 1.426 0 0 1-.512-1.824c0-.269-2.503-1.434-3.501-1.549-.275.154-.506.275-.64.346-3.347 1.549-3.911 2.297-3.2 3.59.582 1.05 2.419 1.863 5.337 1.863 1.908.025 4.839-1.21 6.215-2.343"/><path fill="#fff" d="M187.117 206.451c.582-.48 1.203-.947 1.824-1.363 0 0-3.936 2.387-5.523 1.28a1.426 1.426 0 0 1-.512-1.824c0-.269-2.503-1.434-3.501-1.549-.275.154-.506.275-.64.346-3.347 1.549-3.911 2.297-3.2 3.59.582 1.05 2.419 1.863 5.337 1.863 1.908.025 4.839-1.21 6.215-2.343" opacity=".8"/><path fill="#318AD1" d="M183.181 203.782c-2.08.832-1.197 1.216-.64 1.28s4.083-1.958 6.221-3.648c2.137-1.689 3.628-3.686 4.48-4.339q.491-.382.94-.813c-.057-.454-.102-.87-.14-1.094a.469.469 0 0 0-.448-.39c0 .268.044.518-.16.723q-.276.204-.576.371a3 3 0 0 0-.525.538 10 10 0 0 1-.903 1.081c-1.817 2.323-6.169 5.459-8.249 6.291"/><path fill="#FAFAFA" d="M182.714 204.8a.2.2 0 0 0 .134-.051.205.205 0 0 0 0-.288 4.94 4.94 0 0 0-1.742-1.163 4.94 4.94 0 0 0-2.066-.341.21.21 0 0 0-.11.37.2.2 0 0 0 .073.036.2.2 0 0 0 .082.003 4.57 4.57 0 0 1 3.443 1.357.21.21 0 0 0 .186.077M184.531 203.661a.2.2 0 0 0 .18-.106.2.2 0 0 0 .017-.156.2.2 0 0 0-.037-.071 4.94 4.94 0 0 0-3.84-1.504.206.206 0 0 0-.156.301.2.2 0 0 0 .05.062.2.2 0 0 0 .151.047 4.58 4.58 0 0 1 3.45 1.35.19.19 0 0 0 .185.077M186.342 202.605a.2.2 0 0 0 .135-.045.21.21 0 0 0 0-.294 4.93 4.93 0 0 0-3.84-1.498.2.2 0 0 0-.138.076.2.2 0 0 0-.045.151.21.21 0 0 0 .228.183 4.555 4.555 0 0 1 3.443 1.35.2.2 0 0 0 .097.071.2.2 0 0 0 .12.006M188.026 201.395a.2.2 0 0 0 .128-.045.2.2 0 0 0 .068-.217.2.2 0 0 0-.036-.071 4.962 4.962 0 0 0-3.84-1.504.208.208 0 0 0-.107.366c.043.034.097.05.151.044a4.6 4.6 0 0 1 1.865.311c.593.233 1.13.587 1.579 1.039q.034.043.086.064.05.02.106.013M189.67 200.186a.2.2 0 0 0 .128-.045.2.2 0 0 0 .054-.06.2.2 0 0 0 .026-.076.22.22 0 0 0-.041-.152 5.07 5.07 0 0 0-4.16-1.523.21.21 0 0 0-.186.23.206.206 0 0 0 .224.179 4.7 4.7 0 0 1 3.795 1.37q.03.035.072.056t.088.021"/><path fill="#455A64" d="M207.04 211.418a9.3 9.3 0 0 0 .678 4.563 2.934 2.934 0 0 0 3.245 1.523c1.376-.205 3.2-.941 3.744-2.611.499-1.515.661-3.121.474-4.704z"/><path fill="#318AD1" d="M213.818 197.632c.544.102.441 2.771.492 5.466.058 2.88.788 4.147.858 6.515.083 2.701-.179 3.878-1.28 5.401-1.101 1.524-4.563 2.772-5.965.295-1.139-2.016-.985-4.115-.595-6.765.403-2.746.704-4.672.806-6.778.09-2.009.148-3.955.64-4.134v.966c0 .288-.044 1.312.263 1.357q.08-.373.083-.755a.86.86 0 0 1 .218-.64c.183-.142.408-.216.64-.211a15 15 0 0 1 1.67-.09q.414-.002.826.045c.238.019.472.077.691.173a.5.5 0 0 1 .275.301.8.8 0 0 1 0 .307 2.4 2.4 0 0 0 0 .557c0 .076.058.179.141.172a.16.16 0 0 0 .078-.06.17.17 0 0 0 .031-.093c.032-.327 0-.563.038-.941v-.582c0-.173.083-.333.09-.506"/><path fill="#fff" d="M213.818 197.632c.544.102.441 2.771.492 5.466.058 2.88.788 4.147.858 6.515.083 2.701-.179 3.878-1.28 5.401-1.101 1.524-4.563 2.772-5.965.295-1.139-2.016-.985-4.115-.595-6.765.403-2.746.704-4.672.806-6.778.09-2.009.148-3.955.64-4.134v.966c0 .288-.044 1.312.263 1.357q.08-.373.083-.755a.86.86 0 0 1 .218-.64c.183-.142.408-.216.64-.211a15 15 0 0 1 1.67-.09q.414-.002.826.045c.238.019.472.077.691.173a.5.5 0 0 1 .275.301.8.8 0 0 1 0 .307 2.4 2.4 0 0 0 0 .557c0 .076.058.179.141.172a.16.16 0 0 0 .078-.06.17.17 0 0 0 .031-.093c.032-.327 0-.563.038-.941v-.582c0-.173.083-.333.09-.506" opacity=".9"/><path fill="#318AD1" d="M215.117 208.838c0 .391.089 2.97-.64 3.36-.73.391-1.011-1.619-1.011-1.619s-1.709-.717-4.391.147c.09.423-.441 1.748-1.113 1.389-.672-.358-.64-3.309-.64-3.347-.365 2.56-.48 4.582.64 6.541 1.401 2.477 4.87 1.222 5.964-.295s1.364-2.7 1.28-5.401c-.044-.275-.064-.531-.089-.775"/><path fill="#fff" d="M215.117 208.838c0 .391.089 2.97-.64 3.36-.73.391-1.011-1.619-1.011-1.619s-1.709-.717-4.391.147c.09.423-.441 1.748-1.113 1.389-.672-.358-.64-3.309-.64-3.347-.365 2.56-.48 4.582.64 6.541 1.401 2.477 4.87 1.222 5.964-.295s1.364-2.7 1.28-5.401c-.044-.275-.064-.531-.089-.775" opacity=".8"/><path fill="#318AD1" d="M213.235 210.726c-.089.967.896.736 1.075-.64.18-1.376-.243-4.665 0-7.04-.051-2.694.052-5.363-.492-5.465v.102l-.064 1.357v.582c-.186 1.965-.295 5.799-.301 7.616a33 33 0 0 1-.218 3.488M209.363 210.726a33 33 0 0 1-.185-3.436c0-1.805-.116-5.588-.295-7.572a5 5 0 0 1-.083-1.12v-.9600000000000001c-.365.128-.493 1.197-.57 2.56 0 .781 0 1.748.077 2.925.243 2.343-.185 5.671 0 7.04.186 1.37 1.146 1.53 1.056.563"/><path fill="#FAFAFA" d="M209.005 210.797h.077a6.5 6.5 0 0 1 4.294 0 .21.21 0 0 0 .159-.006.22.22 0 0 0 .11-.116.207.207 0 0 0-.004-.157.2.2 0 0 0-.048-.065.2.2 0 0 0-.07-.04 6.84 6.84 0 0 0-4.595 0 .2.2 0 0 0-.131.189q0 .04.016.08a.2.2 0 0 0 .079.085q.052.03.113.03M208.755 208.64h.064a8.1 8.1 0 0 1 4.819 0c.051.015.106.01.153-.014a.21.21 0 0 0 .115-.194.2.2 0 0 0-.07-.142.2.2 0 0 0-.07-.04 8.44 8.44 0 0 0-5.081 0 .2.2 0 0 0-.07.04.21.21 0 0 0-.07.142.2.2 0 0 0 .012.08.211.211 0 0 0 .198.128M213.702 206.63q.061.001.112-.032a.208.208 0 0 0 .078-.248.2.2 0 0 0-.106-.116 7.1 7.1 0 0 0-5.076-.032.2.2 0 0 0-.11.111.206.206 0 0 0 .002.157.197.197 0 0 0 .262.116s2.528-.992 4.749 0a.2.2 0 0 0 .089.044M213.76 204.736a.202.202 0 0 0 .206-.193.2.2 0 0 0-.052-.149.2.2 0 0 0-.064-.048 6.4 6.4 0 0 0-5.172-.058.2.2 0 0 0-.106.117.2.2 0 0 0 .004.158.2.2 0 0 0 .118.106.2.2 0 0 0 .079.011.2.2 0 0 0 .078-.021 6.106 6.106 0 0 1 4.819.058z"/><path fill="#EBEBEB" d="M213.792 202.611a.2.2 0 0 0 .186-.109.21.21 0 0 0-.096-.281c-2.452-1.21-5.12-.051-5.216 0a.204.204 0 0 0-.103.269.2.2 0 0 0 .046.068.2.2 0 0 0 .229.04s2.56-1.132 4.864 0a.2.2 0 0 0 .09.013"/><path fill="#318AD1" d="M210.426 115.475a38 38 0 0 1 2.912 10.944c1.062 13.722.486 33.421.486 33.421.122 1.434 1.03 4.691 1.645 11.002.723 7.456-.186 32.729-.186 32.729s-4.48 2.663-7.929-.365c0 0-4.039-34.739-4.973-42.156-.813-6.471-3.098-20.48-3.098-20.48l-2.669 20.71s.244 5.818.071 9.6c-.199 4.378-1.421 26.682-1.421 26.682s-6.131 2.073-8.87-.871c0 0-.64-30.937-.743-36.205-.179-10.329 0-29.158 1.677-39.993z"/><path fill="#000" d="M210.426 115.475a38 38 0 0 1 2.912 10.944c1.062 13.722.486 33.421.486 33.421.122 1.434 1.03 4.691 1.645 11.002.723 7.456-.186 32.729-.186 32.729s-4.48 2.663-7.929-.365c0 0-4.039-34.739-4.973-42.156-.813-6.471-3.098-20.48-3.098-20.48l-2.669 20.71s.244 5.818.071 9.6c-.199 4.378-1.421 26.682-1.421 26.682s-6.131 2.073-8.87-.871c0 0-.64-30.937-.743-36.205-.179-10.329 0-29.158 1.677-39.993z" opacity=".2"/><path fill="#000" d="m199.283 140.582-.736-5.068s-4.8.07-7.315-2.298c0 0 .979 3.162 5.856 3.552l.691 4.211-.845 17.824z" opacity=".2"/><path fill="#F28F8F" d="M193.338 88.96c-2.138-.096-5.024.198-6.599 2.067-1.875 2.227-2.387 3.667-4.102 10.24-1.133 4.352-3.002 14.016-1.376 15.578s5.696.985 5.696.985z"/><path fill="#318AD1" d="M194.419 88.82c-2.342-.378-6.547-.41-8.646 2.924s-5.971 15.046-5.971 15.046a11.68 11.68 0 0 0 7.436 1.344c4.308-.614 7.181-19.315 7.181-19.315"/><path fill="#000" d="M194.419 88.82c-2.342-.378-6.547-.41-8.646 2.924s-5.971 15.046-5.971 15.046a11.68 11.68 0 0 0 7.436 1.344c4.308-.614 7.181-19.315 7.181-19.315" opacity=".1"/><path fill="#318AD1" d="M203.654 88.582c2.458.237 8.039.858 9.978 1.242 1.69.691 1.28 1.856 1.28 3.891.166 6.995-2.611 21.6-2.611 21.6l1.958 13.683c-3.373 3.367-21.241 5.248-29.382-.14 0 0 1.382-19.975 2.937-29.933 1.108-7.13 3.674-9.997 6.279-10.106z"/><path fill="#000" d="m201.408 102.304 6.886.275v1.325l-6.982-.294z" opacity=".2"/><path fill="#FAFAFA" d="m203.629 102.394.16-1.946h4.505l-.192 2.125z"/><path fill="#455A64" d="M201.715 102.317c.109-2.247.352-3.36.531-3.501a.42.42 0 0 1 .532 0c.166.218.294 1.376.281 3.552z"/><path fill="#455A64" d="M202.24 102.118c0 .858-.064 2.496.237 2.522s.275-1.587.281-2.522z"/><path fill="#000" d="M207.494 88.992c-1.484-.173-2.892-.32-3.84-.41l-6.63.167c-.896 1.965-1.856 4.806-.128 8.365a20.7 20.7 0 0 0 7.2-4.09c2.195-1.997 3.098-3.207 3.398-4.032" opacity=".1"/><path fill="#455A64" d="M206.899 67.744s1.92.211 2.637 1.626c.64 1.222.499 4.23-.218 7.52a30.2 30.2 0 0 1-1.868 6.201 2.52 2.52 0 0 1-1.421 1.197v-3.879l.064-2.707s-1.799-2.323-2.042-4.262c-.313-2.49.186-3.526.186-3.526z"/><path fill="#455A64" d="M204.467 72.205a7.243 7.243 0 0 1-8.466 7.343 7.245 7.245 0 1 1 8.466-7.343"/><path fill="#F28F8F" d="M206.157 77.21c.435.256 1.049-.583 1.581-1.146.531-.563 2.272-1.35 3.161.48s-.736 4.358-2.105 4.806c-2.368.762-2.74-.755-2.74-.755l-.096 8.826c-1.632 2.124-5.03 4.921-8.32 5.964a7.55 7.55 0 0 1 .564-6.4v-2.604c-1.057.178-2.13.243-3.2.192-1.748-.256-2.861-1.626-3.405-3.507-.877-3.028-1.223-5.479-.551-11.45.73-6.554 8.32-6.688 12.474-4.135.87.538.269 1.581.704 2.42a7.97 7.97 0 0 0 1.933 7.309"/><path fill="#B16668" d="M198.208 86.4s3.891-.82 5.248-1.555a4.5 4.5 0 0 0 1.862-1.882c-.197.8-.554 1.55-1.049 2.208-.986 1.28-6.055 2.266-6.055 2.266z"/><path fill="#000" d="M199.04 76.3a.78.78 0 0 0 .513.69.782.782 0 1 0 .261-1.515.81.81 0 0 0-.774.826M199.859 73.344l1.677.896a1.01 1.01 0 0 0-.403-1.331.93.93 0 0 0-1.053.134.9.9 0 0 0-.221.301"/><path fill="#B16668" d="m199.117 81.056-2.56.998a1.36 1.36 0 0 0 .707.8 1.36 1.36 0 0 0 1.066.045 1.46 1.46 0 0 0 .787-1.843"/><path fill="#000" d="m192.07 74.06 1.511-1.183a.93.93 0 0 0-.621-.381.92.92 0 0 0-.704.189 1.011 1.011 0 0 0-.186 1.376M192.557 76.16a.78.78 0 1 0 .774-.82.795.795 0 0 0-.774.82"/><path fill="#B16668" d="m196.531 75.36-.217 4.698-2.458-.813z"/><path fill="#37474F" d="M189.99 64.64a.307.307 0 0 1 .256-.205c.09.003.176.037.244.096q.764.583 1.619 1.024a5.6 5.6 0 0 1-.09-2.163c.071-.442.167-1.46.704-1.58.32-.078.64.185.858.402 2.233 1.984 5.049.96 7.68.973 2.195 0 4.864.832 5.913 2.938.48.966.589 1.99-.288 2.688a6.2 6.2 0 0 1-2.649 1.075c-4.346.877-10.189 2.56-13.53-1.453a3.84 3.84 0 0 1-.934-1.99 3.2 3.2 0 0 1 .211-1.78s0 .007.006-.025"/><path fill="#263238" d="M190.72 68.48a3.83 3.83 0 0 1-.934-1.99 3.2 3.2 0 0 1 .211-1.78c-.461 1.23-.205 3.2 2.611 4.333s6.336.429 8.25.218a5.96 5.96 0 0 1 3.392.64c-4.365.89-10.208 2.547-13.53-1.421"/><path fill="#F28F8F" d="m211.347 111.258-.973-9.14c-1.043-7.308 1.351-11.756 2.356-12.454 2.854.5 4.582.602 6.214 6.854.602 2.317.64 5.12.979 9.492.269 3.449.275 6.995.211 11.033-.038 2.906-1.28 3.463-4.915 3.648-3.008.154-12.467-.966-17.753-1.971-2.138-.403-5.274-1.235-6.932-1.683-1.209-.327-5.824-1.319-5.625-3.136a1.64 1.64 0 0 1 .883-1.191c.46-.225.956-.366 1.466-.416 2.235-.32 4.504-.32 6.739 0 1.677.231 3.283.532 4.973.64 1.689.109 5.12-1.99 6.72-1.92 3.052.116 5.657.244 5.657.244"/><path fill="#318AD1" d="M211.994 89.555c2.515-.077 4.249.518 5.324 2.24s1.92 3.2 2.605 8.109c.954 6.899 1.075 10.163 1.075 10.163s-5.465 2.234-10.054 0l-1.024-9.197s-.749-7.25 2.074-11.315"/><path fill="#000" d="M211.994 89.555c2.515-.077 4.249.518 5.324 2.24s1.92 3.2 2.605 8.109c.954 6.899 1.075 10.163 1.075 10.163s-5.465 2.234-10.054 0l-1.024-9.197s-.749-7.25 2.074-11.315" opacity=".1"/><path fill="#B16668" d="M215.898 114.957s-.224-2.56-4.551-3.699c0 0-2.605-.128-5.657-.25-1.626-.064-5.12 2.054-6.72 1.92s-3.296-.435-4.973-.64a23.8 23.8 0 0 0-6.739 0c-.51.05-1.006.191-1.466.416a1.644 1.644 0 0 0-.883 1.19c-.199 1.818 4.416 2.81 5.625 3.136.871.237 2.164.576 3.495.909 4.857-1.683 15.449-6.163 17.318-5.817 2.119.403 3.923 1.504 4.551 2.835"/><path fill="#F28F8F" d="M209.408 111.482c-3.987.723-17.44 6.201-23.642 6.438-1.92-.499-2.176-1.459-2.848-4.026s2.183-5.497 4.02-5.76c18.38 0 24.32 2.509 24.32 2.509l.083.64s-.781.032-1.933.199"/><path fill="#B16668" d="m211.264 110.643.083.615-.806.076.064-.915zM186.618 108.211c-2.119.499-3.508 2.925-3.508 2.925a5.52 5.52 0 0 1 1.78-2.886q.865.046 1.728-.039"/><path fill="#37474F" d="M149.165 42.439a120.5 120.5 0 0 1-5.075 23.955h22.246c1.44-7.52 2.214-15.258 0-23.956z"/><path fill="#E6E6E6" d="M164.902 51.367c3.348.09 4.301 1.433 6.317 4.313s7.341 14.509 7.341 14.509.941 5.85-3.264 4.992c-1.382-.288-2.33-1.395-2.976-2.387-.544-.82-4.8-7.533-4.8-7.533z"/><path fill="#E0E0E0" d="M162.342 51.456c3.162-.794 4.557.98 5.613 2.912 1.69 3.091 2.701 9.408 2.842 20.96.096 7.424 2.675 16.403 3.136 23.443.691 10.586 1.03 18.829 1.03 18.829a135 135 0 0 0-18.886-1.12z"/><path fill="#FFA8A7" d="M144.096 159.149s-1.92-12.999-1.107-20.615c.685-6.534 1.645-9.273 1.779-10.758 0 0 1.101-15.36.8-28.34-.141-6.162.173-12.953 4.557-20.223l.16-.288c.39 2.387 4.057 3.93 7.334 4.294q4.737.518 11.783-1.875c1.043 6.163 2.233 17.92 3.443 30.72.595 6.259.493 11.52.595 15.546.141 5.459-.352 26.841-.352 26.841v.903c.032.998.275 1.689.973 3.27a19.2 19.2 0 0 0 3.597 5.536c.473.474 3.705 3.117 4.14 3.693 1.402 1.529-1.369 2.509-3.456 2.297-2.201-.217-5.632-.934-6.636-2.24-.679-.864-1.28-3.968-1.952-4.844-2.33-2.964-3.29-4.244-3.341-5.21-.083-1.754.493-2.47.678-3.469-.249-2.067-4.441-12.864-4.717-18.893a63 63 0 0 1 .5-7.968l-3.68-20.947c-.82 5.888-2.375 19.162-2.938 23.386-.774 5.817-3.648 15.661-5.459 23.392a40.6 40.6 0 0 0-1.184 6.093s-.045.64-.045.678c0 .858-.083 10.016-.358 11.955-.576 4.058-4.173 3.667-4.858.429-.582-2.758-.256-11.366-.275-12.416z"/><path fill="#37474F" d="M144 159.091c-1.011.051-.218 3.943-.397 6.471-.185 2.7-1.005 4.704-1.184 6.924a8.9 8.9 0 0 0 1.031 5.632c.755 1.594 4.371 3.687 5.638 1.332a12.96 12.96 0 0 0 1.229-7.514c-.243-2.56-.461-4.48-.583-6.464-.102-1.741 1.101-5.882-.211-6.093l-.045.685c-.441.954-4.902 1.754-5.491-.038z"/><path fill="#263238" d="M166.163 159.917c-.269 1.28.167 4.717.167 4.717a4.6 4.6 0 0 0 2.56 1.92l.716-4.832z"/><path fill="#000" d="m168.883 166.534 4.243-1.548.909-3.84-4.736 2.598z"/><path fill="#37474F" d="M172.973 155.29v-.903c.595.263 2.029 4.909 3.872 8.071 1.677 2.886 4.864 4.416 5.926 5.664 1.421 1.664-1.152 3.955-5.433 3.2-2.125-.384-5.364-1.626-6.272-3.021s-1.28-4-2.036-5.018c-.755-1.017-2.464-2.176-2.86-3.353a6.5 6.5 0 0 1-.103-3.29c.295-1.094.544-2.413.915-2.304l.058.819c.301.57 1.35 1.216 3.501 1.28 1.011-.013 1.997-.205 2.432-1.145"/><path fill="#318AD1" d="M161.818 137.792a44.8 44.8 0 0 1 .358-9.882l-3.091-20.601s-2.112 19.616-2.464 22.656-6.003 35.84-6.003 35.84c-2.893 1.709-6.605 1.165-9.018-.115 0-13.261.416-26.548.896-30.221a62 62 0 0 1 1.722-7.469s.307-19.347.288-26.688.537-12.262 1.92-15.565a47 47 0 0 1 3.84-6.886s1.075 3.622 9.6 3.635c8.524.013 9.446-2.15 9.446-2.15s2.49 8.697 3.322 21.836c.64 10.586.819 15.405 1.017 20.122.173 4.019.282 8.666.371 16.794.058 6.182.941 19.622.941 19.622s-4.153 2.182-11.008-.301c0 .013-1.715-15.334-2.137-20.627"/><path fill="#000" d="M161.818 137.792a44.8 44.8 0 0 1 .358-9.882l-3.091-20.601s-2.112 19.616-2.464 22.656-6.003 35.84-6.003 35.84c-2.893 1.709-6.605 1.165-9.018-.115 0-13.261.416-26.548.896-30.221a62 62 0 0 1 1.722-7.469s.307-19.347.288-26.688.537-12.262 1.92-15.565a47 47 0 0 1 3.84-6.886s1.075 3.622 9.6 3.635c8.524.013 9.446-2.15 9.446-2.15s2.49 8.697 3.322 21.836c.64 10.586.819 15.405 1.017 20.122.173 4.019.282 8.666.371 16.794.058 6.182.941 19.622.941 19.622s-4.153 2.182-11.008-.301c0 .013-1.715-15.334-2.137-20.627" opacity=".4"/><path fill="#000" d="m159.085 107.309 1.683-12.461a10.66 10.66 0 0 0 6.502-3.149s-.947 3.021-4.94 4.717l-2.253 10.931 1.645 17.543z" opacity=".2"/><path fill="#318AD1" d="m155.104 52.326-4.006.423c-2.656.64-3.84 1.824-4.128 4.179a18.3 18.3 0 0 0 .14 7.68c.845 3.315 3.085 11.43 3.085 11.43s-5.171 6.733-6.105 18.298c9.452 6.163 23.942 2.842 27.859-.883-.333-3.527-2.56-13.21-2.867-16.359 0 0 .204-4.908.595-7.04 2.989-3.264 2.605-6.4 1.28-8.902-2.477-4.646-6.221-8.73-7.424-8.723z"/><path fill="#fff" d="m155.104 52.326-4.006.423c-2.656.64-3.84 1.824-4.128 4.179a18.3 18.3 0 0 0 .14 7.68c.845 3.315 3.085 11.43 3.085 11.43s-5.171 6.733-6.105 18.298c9.452 6.163 23.942 2.842 27.859-.883-.333-3.527-2.56-13.21-2.867-16.359 0 0 .204-4.908.595-7.04 2.989-3.264 2.605-6.4 1.28-8.902-2.477-4.646-6.221-8.73-7.424-8.723z" opacity=".6"/><path fill="#EBEBEB" d="M162.387 49.51c1.184 0 1.319.199 2.343 1.562.608.82 4.448 7.149 4.448 7.149s-3.06-4.02-5.364-5.235a5 5 0 0 0-1.42-.563z"/><path fill="#FAFAFA" d="M154.88 52.327s3.302 8.672 4.051 14.56-1.83 22.316-2.931 34.15c-.717 7.648-1.792 18.899-1.792 18.899a39 39 0 0 1-6.829-.582c-3.885-.73-5.35-1.754-6.016-2.56 0 0 1.92-19.277 2.861-26.772.89-7.04 4.685-14.01 4.685-14.01l-4.563-18.86s.23-3.2 3.2-4.07c2.854-.852 7.334-.755 7.334-.755"/><path fill="#F0F0F0" d="m157.696 85.837-11.84-2.637c-.41 1.229-.8 2.56-1.114 3.93a77.5 77.5 0 0 0 12.436 3.148q.262-2.234.518-4.441"/><path fill="#F0F0F0" d="M149.043 69.959s.359-1.805.903-5.696c.64-4.48.396-6.701-.282-8.122l-3.802 7.27 3.04 12.602a48 48 0 0 0-4.364 12.051c2.982-8.441 6.252-10.976 6.252-10.976z"/><path fill="#318AD1" d="M153.638 62.983c0-.365-.038-1.152-.102-2.15-.307-4.858-.448-9.249 1.19-9.6l.148.64c-1.204.255-.8 6.534-.64 8.895.064 1.011.115 1.811.102 2.215z"/><path fill="#37474F" d="m148.147 31.078 2.56 2.093a1.56 1.56 0 0 0 .374-1.17 1.54 1.54 0 0 0-.591-1.076 1.71 1.71 0 0 0-2.343.153"/><path fill="#37474F" d="M154.835 49.824c0-1.606-3.744-4.006-5.67-7.386-1.927-3.379-.973-8.921 1.677-9.798 0 0 .089-.71.102-.762.151-.633.4-1.24.736-1.798a8.02 8.02 0 0 1 5.491-3.59c8.378-1.223 12.224 2.028 13.767 5.612a8.6 8.6 0 0 1 .64 3.84 4.384 4.384 0 0 1-3.386 4.07z"/><path fill="#FFA8A7" d="M166.445 30.9c1.645.716 3.2 3.2 3.2 10.24 0 5.951-1.85 7.462-2.771 7.903-.922.442-2.72.218-4.48-.05v3.423s1.28 1.28.851 2.1c-.429.819-2.163 1.49-4.8.64-2.995-.941-3.68-2.938-3.68-2.938l-.058-7.488s-1.005 1.062-2.777-.493c-1.46-1.28-1.991-3.475-.89-4.678 1.101-1.204 2.509-1.28 3.782.044l.916-.486c1.625-.186 4.032-.46 5.76-1.35 4.518-2.26 4.979-4.756 4.947-6.868"/><path fill="#37474F" d="M154.835 38.663v3.308a1.55 1.55 0 0 0 1.481-.982c.077-.197.113-.407.106-.618a1.707 1.707 0 0 0-1.587-1.709"/><path fill="#000" d="M166.598 39.123a.79.79 0 0 0 .443.809.8.8 0 0 0 .909-.156.8.8 0 0 0 .229-.595.81.81 0 0 0-.761-.851.815.815 0 0 0-.82.793M160.301 39.475a.85.85 0 0 0 .52.784.85.85 0 1 0 .357-1.635.87.87 0 0 0-.877.851M168.691 37.658l-2.035-.813a1.05 1.05 0 0 1 .985-.724 1.133 1.133 0 0 1 1.05 1.536"/><path fill="#F28F8F" d="m164.672 38.483-.102 4.877 2.624-.589z"/><path fill="#B16668" d="m161.587 44.352 2.56.794a1.28 1.28 0 0 1-1.101 1.026 1.3 1.3 0 0 1-.531-.047 1.465 1.465 0 0 1-.928-1.773"/><path fill="#F28F8F" d="M163.002 46.17a1.352 1.352 0 0 0-1.351-1.338h-.102a1.42 1.42 0 0 0 .96 1.28c.158.054.326.073.493.058M162.387 48.998c-1.843-.217-5.651-1.28-6.265-2.822.244.778.72 1.463 1.363 1.965 1.145.985 4.902 2.01 4.902 2.01z"/><path fill="#EBEBEB" d="M154.746 49.53c-.487-.096-.916.115-1.28.78-.365.666-1.28 2.08-1.28 2.08s-.448 4.672 0 5.83c.384 1.012 4.659 4.788 4.659 4.788s-1.114 4.199-1.152 5.574c-.039 1.377 2.56 6.605 2.873 9.28 0 0 .922-8.41.525-11.43a53.2 53.2 0 0 0-4.32-14.182z"/><path fill="#455A64" d="M152.653 79.226h-.058v-.48a3.1 3.1 0 0 0 1.575-.583 5.6 5.6 0 0 1-1.28-1.184c-.775-.998-2.464-8.134-1.92-9.798.435-1.395 1.804-4.48 3.027-4.518h.032c1.216 0 2.816 2.905 3.366 4.243.64 1.612-.422 8.87-1.107 9.926a5.9 5.9 0 0 1-1.197 1.28 2.95 2.95 0 0 0 1.613.448l.058.48a3.75 3.75 0 0 1-2.093-.64 3.84 3.84 0 0 1-2.016.826m1.344-16.083c-.717 0-2.003 2.31-2.56 4.179-.48 1.53 1.145 8.435 1.862 9.363.383.464.839.861 1.351 1.177a5.6 5.6 0 0 0 1.241-1.28c.64-.985 1.671-8.006 1.063-9.484-.794-1.818-2.234-3.956-2.957-3.956"/><path fill="#263238" d="M157.44 78.784a.7.7 0 0 1-.186.506.707.707 0 0 1-.995.041.7.7 0 0 1-.227-.49.7.7 0 0 1 .675-.732.703.703 0 0 1 .733.675M153.312 78.957a.707.707 0 0 1-.672.736.704.704 0 1 1 .672-.736"/><path fill="#318AD1" d="M157.478 70.055h-.403a.154.154 0 0 1-.141-.167 8.3 8.3 0 0 0-.128-2.72c-.71-1.734-2.176-3.904-2.816-3.872s-1.92 2.31-2.483 4.096a8.4 8.4 0 0 0 .109 2.72.16.16 0 0 1-.028.118.16.16 0 0 1-.1.068l-.403.057a.16.16 0 0 1-.179-.134 8.2 8.2 0 0 1-.084-3.047c.301-.953 1.716-4.537 3.136-4.601s3.136 3.392 3.514 4.32c.249.993.31 2.024.179 3.04a.166.166 0 0 1-.173.121M179.962 64.909l-18.202 6.419-2.675 24.416.403.429 17.299-6.458 3.578-24.371z"/><path fill="#000" d="m162.17 71.763-2.682 24.41-.403-.429 2.675-24.416z" opacity=".2"/><path fill="#000" d="m180.365 65.344-18.195 6.42-2.682 24.409 17.299-6.458z" opacity=".25"/><path fill="#000" d="M174.886 69.76s.064-.326.148-.73-.986-.192-2.388.474l-3.283.992c-1.401.64-2.72 1.152-2.803 1.555l-.154.723z" opacity=".1"/><path fill="#37474F" d="M175.962 66.496c.057-.256-.359-.205-.941-.051l-1.05.358s.429-1.05-2.048-.377c-2.733.736-2.79 2.099-2.79 2.099q-.627.276-1.28.48c-.903.294-1.005.467-1.082.723l-.128.46 9.274-3.263s-.007-.18.045-.429"/><path fill="#37474F" d="M174.989 67.885c-.858.39-1.216.582-1.344 1.197-.147.71-.179.998-.179.998L168.64 72s.262-1.037.326-1.382c.064-.346-.576-.352-1.414.038l.198-.87 7.514-2.79z"/><path fill="#37474F" d="m175.136 69.76.147-.723c.083-.403-.985-.192-2.387.473l-3.296 1.018c-1.402.64-2.72 1.152-2.803 1.555l-.154.724z"/><path fill="#455A64" d="m177.05 71.091-13.3 5.043-2.131 20.717 13.479-5.203z"/><path fill="#F5F5F5" d="m163.878 76.666 13.114-4.992a4.38 4.38 0 0 0 2.253 1.53l-13.018 4.978a10.3 10.3 0 0 1-2.349-1.516"/><path fill="#263238" d="M167.226 78.24a2.21 2.21 0 0 1-1.997-.186l-1.651-1.177a.64.64 0 0 1-.311-.61.65.65 0 0 1 .419-.542l12.954-4.928.41.294-12.8 4.877a.365.365 0 0 0-.064.691l1.536 1.082a1.33 1.33 0 0 0 1.203.115l12.8-4.87.461.332z"/><path fill="#455A64" d="m180.179 73.318-1.92 20.557-12.953 4.922a2.21 2.21 0 0 1-1.997-.186l-1.658-1.177a.71.71 0 0 1-.358-.64l1.907-20.532a.7.7 0 0 0 .358.64l1.652 1.178a2.2 2.2 0 0 0 1.996.186z"/><path fill="#37474F" d="M166.208 78.387a2 2 0 0 1-.979-.333l-1.651-1.177a.69.69 0 0 1-.359-.64l-1.939 20.582a.71.71 0 0 0 .358.64l1.658 1.178c.291.19.626.305.973.333z"/><path fill="#FFA8A7" d="M179.904 76.263c1.088.736 1.171 2.041 1.171 3.43s0 3.558-.896 4.736-2.63 2.86-3.75 2.304c-1.12-.557-1.043-4.538.275-5.978a22.7 22.7 0 0 1 3.021-2.643zM166.362 82.458a14 14 0 0 1-3.904.09c.6-.253 1.16-.592 1.664-1.005a1.367 1.367 0 0 0 .358-1.825c-.186-.236-.73.27-1.92.538-1.498.352-2.451.096-3.923.864a4 4 0 0 1-1.952.314c-1.12 0-2.631-.423-5.536-1.319a65 65 0 0 1-7.079-2.88l4.41-12.832s2.56-8.55-.922-11.321c-4.07 0-5.26 1.92-6.508 5.574-1.14 3.296-4.973 18.7-5.184 21.037s.844 3.264 3.168 4.275c2.323 1.011 7.68 2.304 12.582 3.635a41.7 41.7 0 0 0 7.45 1.447c5.804.448 8.454 0 9.702-2.195 2.003-3.457.685-4.87-2.406-4.397"/><path fill="#FAFAFA" d="M148.147 52.922c-2.425-.11-4.557-.23-6.144 2.63s-3.961 11.7-5.241 18.042-2.189 8.864.736 10.157 12.716 3.73 12.716 3.73-.358-3.986 2.343-6.937l-8.013-3.418 4.288-12.556s2.714-8.058-.685-11.648"/><path fill="#455A64" d="M142.413 199.245a1.89 1.89 0 0 1-.352 1.92 8.09 8.09 0 0 1-5.895 1.337c-2.924-.377-4.48-1.28-5.676-2.265-1.197-.986-2.816-2.362-4.135-2.65a8.1 8.1 0 0 1-2.957-1.209c-.396-.384-.339-2.074-.339-2.074z"/><path fill="#318AD1" d="M124.224 187.782a.46.46 0 0 0-.442.391c-.089.467-.185 1.824-.384 2.56a13.7 13.7 0 0 0-.288 4.102c.167.871 2.17 1.472 3.45 1.959a16.4 16.4 0 0 1 4.147 2.617 11.65 11.65 0 0 0 6.17 2.298c2.259 0 4.8-.743 5.382-1.792.717-1.28.154-2.042-3.2-3.591-.64-.294-2.854-1.612-3.609-2.086-2.055-1.28-4.084-3.091-5.031-5.376a1.28 1.28 0 0 0-.48-.698 1.06 1.06 0 0 0-.64-.057 5.4 5.4 0 0 0-1.613.486c-.448.211-1.088.461-1.075 1.037.008.2.051.398.128.582.039.116.071.276-.032.346-.102.07-.23 0-.313-.09a8.6 8.6 0 0 1-.903-1.081 3.3 3.3 0 0 0-.531-.538 6 6 0 0 1-.57-.371c-.23-.179-.153-.429-.166-.698"/><path fill="#fff" d="M124.224 187.782a.46.46 0 0 0-.442.391c-.089.467-.185 1.824-.384 2.56a13.7 13.7 0 0 0-.288 4.102c.167.871 2.17 1.472 3.45 1.959a16.4 16.4 0 0 1 4.147 2.617 11.65 11.65 0 0 0 6.17 2.298c2.259 0 4.8-.743 5.382-1.792.717-1.28.154-2.042-3.2-3.591-.64-.294-2.854-1.612-3.609-2.086-2.055-1.28-4.084-3.091-5.031-5.376a1.28 1.28 0 0 0-.48-.698 1.06 1.06 0 0 0-.64-.057 5.4 5.4 0 0 0-1.613.486c-.448.211-1.088.461-1.075 1.037.008.2.051.398.128.582.039.116.071.276-.032.346-.102.07-.23 0-.313-.09a8.6 8.6 0 0 1-.903-1.081 3.3 3.3 0 0 0-.531-.538 6 6 0 0 1-.57-.371c-.23-.179-.153-.429-.166-.698" opacity=".9"/><path fill="#318AD1" d="M130.707 199.437a23 23 0 0 0-1.824-1.363s3.93 2.393 5.523 1.28a1.42 1.42 0 0 0 .512-1.818c0-.275 2.503-1.44 3.495-1.555.275.153.512.275.64.345 3.347 1.549 3.91 2.298 3.2 3.591-.583 1.049-2.426 1.862-5.338 1.862-1.875.026-4.832-1.209-6.208-2.342"/><path fill="#fff" d="M130.707 199.437a23 23 0 0 0-1.824-1.363s3.93 2.393 5.523 1.28a1.42 1.42 0 0 0 .512-1.818c0-.275 2.503-1.44 3.495-1.555.275.153.512.275.64.345 3.347 1.549 3.91 2.298 3.2 3.591-.583 1.049-2.426 1.862-5.338 1.862-1.875.026-4.832-1.209-6.208-2.342" opacity=".8"/><path fill="#318AD1" d="M134.643 196.768c2.08.832 1.191 1.222.64 1.28-.55.058-4.083-1.965-6.214-3.654-2.227-1.76-3.635-3.687-4.48-4.333-.307-.243-.64-.538-.935-.819.052-.455.096-.871.141-1.095a.462.462 0 0 1 .442-.39c0 .269-.039.518.166.723q.275.203.57.371.296.238.531.538.407.577.902 1.081c1.805 2.33 6.157 5.466 8.237 6.298"/><path fill="#FAFAFA" d="M135.104 197.76a.2.2 0 0 1-.109-.035.2.2 0 0 1-.074-.086.214.214 0 0 1 .023-.218 4.97 4.97 0 0 1 3.84-1.504.21.21 0 0 1 .106.368.196.196 0 0 1-.151.041 4.59 4.59 0 0 0-3.449 1.357.2.2 0 0 1-.186.077M133.293 196.646a.2.2 0 0 1-.135-.044.205.205 0 0 1 0-.288 4.95 4.95 0 0 1 3.808-1.504.2.2 0 0 1 .139.075.216.216 0 0 1 .044.152.207.207 0 0 1-.227.182 4.6 4.6 0 0 0-1.865.311 4.6 4.6 0 0 0-1.579 1.04.208.208 0 0 1-.185.076M131.475 195.59a.2.2 0 0 1-.128-.044.205.205 0 0 1 0-.288 4.92 4.92 0 0 1 3.84-1.504.204.204 0 0 1 .179.224.2.2 0 0 1-.022.077.2.2 0 0 1-.122.1q-.04.012-.08.008a4.584 4.584 0 0 0-3.449 1.351.2.2 0 0 1-.097.072.2.2 0 0 1-.121.004M129.792 194.381a.2.2 0 0 1-.128-.045.204.204 0 0 1 0-.288 4.96 4.96 0 0 1 3.84-1.504.205.205 0 0 1 .182.227.205.205 0 0 1-.227.183 4.57 4.57 0 0 0-3.449 1.356.21.21 0 0 1-.218.071M128.147 193.178a.25.25 0 0 1-.128-.045.21.21 0 0 1-.032-.295 5.04 5.04 0 0 1 4.16-1.516c.048.012.09.041.118.082.028.04.041.09.035.139a.2.2 0 0 1-.065.128.2.2 0 0 1-.133.054 4.7 4.7 0 0 0-3.795 1.369.21.21 0 0 1-.16.084"/><path fill="#455A64" d="M110.778 204.403c.083 1.991-.09 3.335-.679 4.563a2.923 2.923 0 0 1-3.245 1.524c-1.376-.205-3.2-.941-3.737-2.612a10.9 10.9 0 0 1-.474-4.704z"/><path fill="#318AD1" d="M104.006 190.624c-.55.096-.448 2.765-.499 5.459-.051 2.88-.787 4.147-.857 6.515-.077 2.701.185 3.885 1.28 5.402s4.569 2.771 5.964.294c1.146-2.016.986-4.115.602-6.764a67 67 0 0 1-.806-6.772c-.096-2.009-.154-3.961-.64-4.134v.96c0 .32.044 1.28-.263 1.357a5 5 0 0 1-.083-.755.9.9 0 0 0-.211-.64 1.03 1.03 0 0 0-.64-.212 15 15 0 0 0-1.671-.089c-.275 0-.556 0-.832.045a2.2 2.2 0 0 0-.691.172.51.51 0 0 0-.269.301 1 1 0 0 0 0 .307q.034.279 0 .557c0 .083-.057.179-.14.173s-.096-.09-.103-.154c-.038-.32 0-.563-.038-.934v-.589c0-.173-.096-.333-.103-.499"/><path fill="#fff" d="M104.006 190.624c-.55.096-.448 2.765-.499 5.459-.051 2.88-.787 4.147-.857 6.515-.077 2.701.185 3.885 1.28 5.402s4.569 2.771 5.964.294c1.146-2.016.986-4.115.602-6.764a67 67 0 0 1-.806-6.772c-.096-2.009-.154-3.961-.64-4.134v.96c0 .32.044 1.28-.263 1.357a5 5 0 0 1-.083-.755.9.9 0 0 0-.211-.64 1.03 1.03 0 0 0-.64-.212 15 15 0 0 0-1.671-.089c-.275 0-.556 0-.832.045a2.2 2.2 0 0 0-.691.172.51.51 0 0 0-.269.301 1 1 0 0 0 0 .307q.034.279 0 .557c0 .083-.057.179-.14.173s-.096-.09-.103-.154c-.038-.32 0-.563-.038-.934v-.589c0-.173-.096-.333-.103-.499" opacity=".9"/><path fill="#318AD1" d="M102.701 201.824c0 .39-.083 2.976.64 3.366s1.011-1.625 1.011-1.625 1.709-.717 4.384.147c-.09.429.442 1.747 1.12 1.389s.64-3.309.64-3.347c.358 2.56.474 4.582-.64 6.54-1.395 2.477-4.87 1.229-5.965-.294s-1.357-2.701-1.28-5.402c.051-.275.064-.524.09-.774"/><path fill="#fff" d="M102.701 201.824c0 .39-.083 2.976.64 3.366s1.011-1.625 1.011-1.625 1.709-.717 4.384.147c-.09.429.442 1.747 1.12 1.389s.64-3.309.64-3.347c.358 2.56.474 4.582-.64 6.54-1.395 2.477-4.87 1.229-5.965-.294s-1.357-2.701-1.28-5.402c.051-.275.064-.524.09-.774" opacity=".8"/><path fill="#318AD1" d="M104.589 203.712c.083.966-.903.736-1.082-.64s.243-4.666 0-7.008c.051-2.694-.051-5.363.499-5.466a1 1 0 0 0 0 .103l.064 1.357a5 5 0 0 0 0 .582c.186 1.971.288 5.798.301 7.616q.013 1.734.218 3.456M108.454 203.712q.189-1.713.186-3.437c0-1.805.115-5.587.301-7.571q.097-.556.077-1.12v-.9600000000000001c.364.128.492 1.197.576 2.56 0 .774 0 1.741-.077 2.918-.243 2.343.179 5.671 0 7.04-.179 1.37-1.146 1.536-1.063.57"/><path fill="#FAFAFA" d="M108.8 203.782h-.077a6.6 6.6 0 0 0-4.301 0 .195.195 0 0 1-.222-.052.2.2 0 0 1-.04-.069.2.2 0 0 1-.015-.078q0-.04.017-.078a.2.2 0 0 1 .113-.107 6.88 6.88 0 0 1 4.602 0 .22.22 0 0 1 .115.269.2.2 0 0 1-.079.086.2.2 0 0 1-.113.029M109.069 201.645h-.071a8.12 8.12 0 0 0-4.812 0 .214.214 0 0 1-.263-.128.2.2 0 0 1-.011-.08.206.206 0 0 1 .139-.183 8.46 8.46 0 0 1 5.088 0 .206.206 0 0 1 .122.263.199.199 0 0 1-.192.128M104.122 199.616a.208.208 0 0 1-.197-.28.22.22 0 0 1 .107-.117 7.04 7.04 0 0 1 5.075 0 .202.202 0 0 1 .131.185.2.2 0 0 1-.016.078.2.2 0 0 1-.11.114.21.21 0 0 1-.158.001s-2.522-.992-4.749 0a.2.2 0 0 1-.083.019M104.07 197.76a.2.2 0 0 1-.11-.034.2.2 0 0 1-.075-.088.212.212 0 0 1 .096-.275 6.4 6.4 0 0 1 2.583-.572 6.4 6.4 0 0 1 2.594.521.2.2 0 0 1 .065.046.2.2 0 0 1 .031.223.21.21 0 0 1-.275.102 6.08 6.08 0 0 0-4.819.051.15.15 0 0 1-.09.026"/><path fill="#EBEBEB" d="M104.026 195.603a.21.21 0 0 1-.18-.115.2.2 0 0 1-.023-.077.2.2 0 0 1 .009-.08.2.2 0 0 1 .04-.07.2.2 0 0 1 .064-.048c2.458-1.216 5.12-.058 5.216 0a.207.207 0 0 1-.009.381.2.2 0 0 1-.157-.004s-2.56-1.132-4.864 0q-.047.02-.096.013"/><path fill="#318AD1" d="M107.398 108.467a38 38 0 0 0-2.918 10.938c-1.056 13.721-.486 33.421-.486 33.421-.122 1.433-1.031 4.691-1.639 11.001-.723 7.463.179 32.73.179 32.73s4.48 2.662 7.936-.365c0 0 4.032-34.739 4.967-42.157.819-6.47 3.097-20.48 3.097-20.48l2.676 20.704s-.25 5.824-.077 9.6c.198 4.378 1.427 26.675 1.427 26.675s6.125 2.074 8.864-.87c0 0 .64-30.931.742-36.205.186-10.329 0-29.158-1.67-39.993z"/><path fill="#000" d="M107.398 108.467a38 38 0 0 0-2.918 10.938c-1.056 13.721-.486 33.421-.486 33.421-.122 1.433-1.031 4.691-1.639 11.001-.723 7.463.179 32.73.179 32.73s4.48 2.662 7.936-.365c0 0 4.032-34.739 4.967-42.157.819-6.47 3.097-20.48 3.097-20.48l2.676 20.704s-.25 5.824-.077 9.6c.198 4.378 1.427 26.675 1.427 26.675s6.125 2.074 8.864-.87c0 0 .64-30.931.742-36.205.186-10.329 0-29.158-1.67-39.993z" opacity=".2"/><path fill="#000" d="m118.534 133.568.96-6.592s5.562-.742 8.084-3.11a9.13 9.13 0 0 1-6.554 4.134l-.986 5.958.852 17.824z" opacity=".2"/><path fill="#318AD1" d="M125.69 81.28c3.334.32 4.48 1.178 5.76 3.802s4.672 14.4 4.672 14.4l-8.628 3.264z"/><path fill="#000" d="M125.69 81.28c3.334.32 4.48 1.178 5.76 3.802s4.672 14.4 4.672 14.4l-8.628 3.264z" opacity=".1"/><path fill="#318AD1" d="M130.074 98.56c-.244 2.707-.301 8-.301 8a638 638 0 0 1 1.766 13.677c-10.336 5.517-25.933 1.049-27.897-1.223.966-6.777 3.11-10.995 4.48-14.809l-2.56-11.52s4.48-3.706 4.051-11.226l6.112-.64 5.824.16 4.141.295a35 35 0 0 1 5.414 6.752c2.016 3.225 2.086 7.257-1.03 10.534"/><path fill="#000" d="M125.574 85.626a17.9 17.9 0 0 0-2.291-4.538l-1.734-.128-5.824-.16-2.279.237c-.16.8 1.92 3.264 3.757 4.742s5.818 3.565 7.975 4a5.48 5.48 0 0 0 .396-4.153" opacity=".1"/><path fill="#000" d="m119.93 94.598-6.887.276v1.324l6.983-.294z" opacity=".2"/><path fill="#FAFAFA" d="m117.709 94.682-.154-1.94h-4.512l.192 2.125z"/><path fill="#455A64" d="M119.622 94.605c-.108-2.247-.352-3.354-.531-3.495a.41.41 0 0 0-.525 0c-.172.218-.3 1.376-.288 3.552z"/><path fill="#455A64" d="M119.098 94.413c0 .857.064 2.496-.237 2.521-.301.026-.269-1.587-.282-2.521z"/><path fill="#000" d="M114.451 77.14c0-1.038-1.453-3.2-2.777-5.607s-2.759-6.304 0-9.946 8.998-5.811 12.672-4.09c3.673 1.722 4.71 5.927 4.71 5.927z"/><path fill="#000" d="M113.632 73.338c1.498 1.606 2.394 3.2.787 4.71a3.98 3.98 0 0 1-5.433-5.811c1.6-1.498 3.142-.5 4.646 1.1"/><path fill="#318AD1" d="M110.502 68.531a1.02 1.02 0 0 0-.588-.435 2.2 2.2 0 0 0-.858-.134c-.352 0-1.011.243-.992.69.019.449.902.596 1.28.577.329-.005.657-.054.973-.147a6.5 6.5 0 0 1-.263 1.862 2 2 0 0 1-.518.717 1.27 1.27 0 0 1-1.088.23c-.211-.045-.122.263 0 .307a1.576 1.576 0 0 0 1.83-.819c.455-.8.288-1.721.48-2.56.045-.198-.121-.307-.256-.288m-1.721.282c-.071 0-.243-.045-.282-.109s0-.096.058-.14a1.2 1.2 0 0 1 1.165-.186q.165.035.32.102l.166.083.064.032h.038a2.1 2.1 0 0 1-.902.205 2 2 0 0 1-.608.013z"/><path fill="#FFBDA7" d="M126.56 60.211c1.382.704 3.309 2.208 3.008 9.235-.23 5.485-2.234 8.013-3.2 8.5-.966.486-2.093.588-3.923.396v3.124s3.552 4.332 2.265 7.18c0 0-3.744-1.35-5.76-2.81-3.955-2.847-4.441-4.402-4.441-4.402l-.096-7.508s-1.223.896-3.13-.576c-1.574-1.216-2.214-3.385-1.12-4.64a2.48 2.48 0 0 1 2.317-.774 3.08 3.08 0 0 1 2.112 1.69.6.6 0 0 0 .403.364.45.45 0 0 0 .365-.172 1.1 1.1 0 0 0 .186-.372c.39-1.164.211-2.387.486-3.57.212-.928.618-1.8 1.19-2.56a8.5 8.5 0 0 1 5.466-3.2 11.4 11.4 0 0 1 3.872.095"/><path fill="#37474F" d="m130.816 65.952-.378-.038a12.3 12.3 0 0 0-3.763.121c-1.209.327-1.651.691-2.31.698-.659.006-1.146-.365-2.419-.685a14 14 0 0 0-4.013-.096l-.403.045-3.975 1.337a9 9 0 0 0-.512.775q.195.082.371.198l3.84-1.222.16.198a.8.8 0 0 1 .122.282q.116.98.416 1.92c.118.256.283.489.486.685q.122.11.256.204l.148.09q.213.12.448.192h.32l.396.051h.378c1.651 0 2.368-.704 2.803-1.433s.371-1.754 1.133-1.754h.141c.557.115.454 1.056.781 1.734.126.274.299.523.512.736q.059.063.128.116l.064.057.07.051.064.039.07.045h.09q.304.158.64.23h.058q.396.078.8.07a2.425 2.425 0 0 0 2.38-1.337c.24-.622.422-1.265.544-1.92a.65.65 0 0 1 .154-.25c.17-.142.302-.325.384-.531a.554.554 0 0 0-.384-.608m-8.019 2.733a2.2 2.2 0 0 1-.64 1.017c-.508.422-1.16.63-1.818.583a2.02 2.02 0 0 1-1.702-.736l-.058-.07-.045-.071-.038-.07a.3.3 0 0 1-.032-.058v-.051a.1.1 0 0 1 0-.045l-.064-.064a2 2 0 0 1-.077-.211l-.038-.128c0-.077-.039-.141-.051-.205v-.096c-.109-.506-.224-1.504.064-1.728.7-.365 1.5-.49 2.278-.358h.128q.284.026.563.083l.211.045q.276.065.544.16l.167.064a1 1 0 0 1 .179.076h.032l.064.032q.207.097.358.27a2.02 2.02 0 0 1-.025 1.56m7.174-.237a2.28 2.28 0 0 1-1.222 1.632c-.293.12-.606.18-.922.18a2.01 2.01 0 0 1-1.811-.756l-.032-.045-.038-.057a.5.5 0 0 1-.045-.084s0-.057-.051-.09v-.082a3 3 0 0 1-.109-.378 2.23 2.23 0 0 1 .096-1.536 3.74 3.74 0 0 1 2.041-.755l.564-.039h.652c.103 0 .192 0 .282.039h.256l.134.051q.162.066.301.173c.231.243.039 1.241-.096 1.779z"/><path fill="#000" d="M121.491 67.872a.816.816 0 0 1-1.014.858.77.77 0 0 1-.47-.369.8.8 0 0 1-.09-.29.82.82 0 0 1 .71-.877.76.76 0 0 1 .772.388q.075.136.092.29"/><path fill="#F0997A" d="m121.382 73.12 2.759.698a1.4 1.4 0 0 1-1.145 1.098c-.185.03-.375.022-.558-.023a1.486 1.486 0 0 1-1.056-1.773"/><path fill="#000" d="m128.422 65.42-1.734-.428a.855.855 0 0 1 1.05-.64.927.927 0 0 1 .684 1.069M120.467 64.909l-1.619.761a.855.855 0 0 1 .397-1.177.933.933 0 0 1 1.222.416M127.949 67.84a.815.815 0 0 1-.704.877.77.77 0 0 1-.864-.685.81.81 0 0 1 1.013-.852.75.75 0 0 1 .467.37q.073.136.088.29"/><path fill="#F0997A" d="m124.07 67.667.295 4.352 2.323-.877zM122.464 78.342c-1.92-.288-6.035-1.318-6.739-2.835.291.867.84 1.624 1.574 2.17 1.235.934 5.165 1.773 5.165 1.773z"/><path fill="#318AD1" d="M129.101 63.59s-1.005-1.619-5.594-1.184a17.4 17.4 0 0 0-7.129 2.394 10.24 10.24 0 0 0-3.335 3.309 2.8 2.8 0 0 0-.563-.173 2.5 2.5 0 0 0-2.323.774 7.82 7.82 0 0 1-1.133-5.35c.493-3.2 3.661-5.402 7.181-6.9 4.16-1.766 8.717-1.311 10.547.41 1.83 1.722 2.304 6.554 2.349 6.72"/><path fill="#37474F" d="m139.341 93.472-18.483 6.522-2.727 24.8.41.441 17.574-6.56 3.635-24.761z"/><path fill="#263238" d="m121.267 100.435-2.726 24.8-.41-.441 2.727-24.8z"/><path fill="#455A64" d="m139.75 93.914-18.483 6.521-2.726 24.8 17.574-6.56z"/><path fill="#000" d="m134.182 98.42.154-.737c.083-.41-.998-.198-2.426.474l-3.334 1.043c-1.421.672-2.765 1.171-2.848 1.581l-.154.736z" opacity=".1"/><path fill="#E0E0E0" d="M135.283 95.085c.051-.256-.371-.205-.96-.045l-1.062.358s.429-1.068-2.087-.384c-2.771.75-2.835 2.132-2.835 2.132q-.649.287-1.331.486c-.922.3-1.018.48-1.094.736l-.135.467 9.421-3.315s.026-.16.083-.435"/><path fill="#EBEBEB" d="M134.291 96.5c-.87.396-1.235.588-1.363 1.215a10 10 0 0 0-.179 1.018l-4.909 1.92s.262-1.056.333-1.408c.07-.352-.589-.352-1.434.038l.199-.883 7.628-2.835z"/><path fill="#EBEBEB" d="m134.438 98.432.148-.736c.089-.41-.999-.198-2.42.474l-3.334 1.03c-1.427.672-2.771 1.171-2.854 1.581l-.154.736z"/><path fill="#FFBDA7" d="M125.53 111.296a14.2 14.2 0 0 1-3.975.096 7.1 7.1 0 0 0 1.696-1.018 1.397 1.397 0 0 0 .365-1.856c-.192-.236-.742.269-1.92.551-1.523.352-2.49.096-3.987.877a4 4 0 0 1-1.984.313c-1.133.032-2.669-.429-5.626-1.331a50 50 0 0 1-6.054-2.413l4.48-10.771c-.711 1.44 4.589-11.302 1.126-14.31-4.134 0-6.4 1.01-8.224 5.81-1.28 3.303-6.624 18.881-6.835 21.249s.858 3.315 3.2 4.345c2.342 1.031 7.802 2.336 12.8 3.687a42 42 0 0 0 7.565 1.472c5.901.461 8.589-.032 9.862-2.234 1.984-3.507.621-4.947-2.489-4.467"/><path fill="#318AD1" d="M110.675 81.318c-2.765-.153-6.803-.243-9.133 5.12s-4.723 13.12-4.723 13.12a15.9 15.9 0 0 0 9.159 3.2l4.102-10.77s2.029-7.508.595-10.67"/><path fill="#000" d="M110.675 81.318c-2.765-.153-6.803-.243-9.133 5.12s-4.723 13.12-4.723 13.12a15.9 15.9 0 0 0 9.159 3.2l4.102-10.77s2.029-7.508.595-10.67" opacity=".1"/><path fill="#E6E6E6" d="M52.237 66.598c3.424.096 4.39 1.466 6.457 4.41s9.076 14.08 9.076 14.08l9.932 3.84-1.28 5.798s-8.41-1.676-12.71-2.56a3.68 3.68 0 0 1-2.7-1.836c-.551-.839-6.074-9.53-6.074-9.53z"/><path fill="#E0E0E0" d="M49.62 66.688c3.2-.806 4.658.998 5.76 2.976 1.72 3.162 2.758 9.6 2.905 21.42.09 7.591 2.733 16.763 3.2 23.963a847 847 0 0 1 1.05 19.238 137.5 137.5 0 0 0-19.316-1.165z"/><path fill="#F28F8F" d="M30.976 176.749s-1.92-13.28-1.133-21.069c.698-6.682 1.677-9.478 1.818-10.995 0 0 1.126-15.68.819-28.96-.147-6.285.16-13.242 4.64-20.666l.16-.294c.397 2.432 4.147 4.013 7.494 4.384 3.2.358 7.245-.288 12.039-1.92 1.069 6.297 2.285 18.297 3.526 31.36.64 6.4.5 11.776.64 15.891.141 5.574-.365 27.43-.365 27.43v.922c0 1.018.282 1.728.992 3.341a20 20 0 0 0 3.68 5.657c.48.487 3.783 3.2 4.23 3.776 1.434 1.562-1.394 2.56-3.526 2.349-2.252-.224-5.76-.96-6.79-2.291-.685-.883-1.28-4.051-1.99-4.954-2.381-3.027-3.367-4.332-3.412-5.324-.09-1.792.5-2.522.692-3.54-.256-2.112-4.544-13.152-4.826-19.308 0-2.724.173-5.446.518-8.148l-3.776-21.382c-.832 6.022-2.419 19.584-2.995 23.904-.793 5.946-3.731 16-5.58 23.904a40.5 40.5 0 0 0-1.21 6.227l-.045.691c0 .877-.09 10.24-.371 12.224-.589 4.141-4.263 3.744-4.96.429-.595-2.816-.263-11.609-.282-12.685z"/><path fill="#37474F" d="M30.854 176.691c-1.03.051-.217 4.026-.403 6.605-.192 2.771-1.03 4.813-1.216 7.078a9.2 9.2 0 0 0 1.056 5.76c.775 1.626 4.48 3.77 5.76 1.364a13.33 13.33 0 0 0 1.28-7.68c-.256-2.65-.48-4.589-.601-6.612-.103-1.779 1.126-6.009-.218-6.22l-.032.697c-.448.973-5.011 1.792-5.613-.038z"/><path fill="#263238" d="M53.523 177.536c-.275 1.28.173 4.819.173 4.819s.595 1.197 2.611 1.92l.73-4.947z"/><path fill="#000" d="m56.307 184.301 4.333-1.587.928-3.924-4.838 2.656z"/><path fill="#37474F" d="M60.486 172.8v-.922c.602.276 2.074 5.024 3.956 8.25 1.715 2.95 4.972 4.518 6.06 5.76 1.447 1.702-1.184 4.045-5.555 3.258-2.17-.384-5.478-1.658-6.4-3.085-.921-1.427-1.318-4.083-2.08-5.12-.761-1.037-2.521-2.221-2.925-3.424a6.66 6.66 0 0 1-.102-3.36c.307-1.12.557-2.471.94-2.362l.052.839c.314.588 1.382 1.241 3.578 1.28 1.024.044 2.035-.148 2.476-1.114"/><path fill="#455A64" d="M49.088 154.925a45.6 45.6 0 0 1 .365-10.099L46.29 123.77s-2.131 20.044-2.515 23.148-6.138 36.621-6.138 36.621c-2.95 1.754-6.745 1.197-9.216-.115 0-13.555.423-27.13.916-30.886a65 65 0 0 1 1.76-7.597s.313-19.77.294-27.277.55-12.525 1.978-15.898a47.7 47.7 0 0 1 3.936-7.04s1.094 3.7 9.785 3.706 9.651-2.189 9.651-2.189 2.56 8.883 3.392 22.311c.685 10.822.845 15.744 1.05 20.569.173 4.109.282 8.858.378 17.159.07 6.265.953 20.044.953 20.044S58.278 178.56 51.27 176c0 0-1.747-15.667-2.182-21.075"/><path fill="#37474F" d="M46.291 123.77 48 111.034a10.9 10.9 0 0 0 6.65-3.2s-.973 3.084-5.056 4.812l-2.304 11.175 1.683 17.92z"/><path fill="#318AD1" d="m42.24 67.578-4.096.435c-2.714.64-3.942 1.862-4.218 4.269-.508 2.596-.46 5.27.141 7.846.864 3.386 3.155 11.686 3.155 11.686s-2.982 7.463-4.39 11.226c9.658 6.298 21.574 3.84 25.6 0-.333-3.603-1.613-6.957-1.92-10.176 0 0 .211-5.018.608-7.194 3.06-3.334 2.669-6.521 1.28-9.094-2.56-4.749-6.349-8.922-7.584-8.915z"/><path fill="#fff" d="m42.24 67.578-4.096.435c-2.714.64-3.942 1.862-4.218 4.269-.508 2.596-.46 5.27.141 7.846.864 3.386 3.155 11.686 3.155 11.686s-2.982 7.463-4.39 11.226c9.658 6.298 21.574 3.84 25.6 0-.333-3.603-1.613-6.957-1.92-10.176 0 0 .211-5.018.608-7.194 3.06-3.334 2.669-6.521 1.28-9.094-2.56-4.749-6.349-8.922-7.584-8.915z" opacity=".6"/><path fill="#FAFAFA" d="M41.997 67.578s3.373 8.864 4.14 14.88c.769 6.016-1.868 24.198-2.278 34.969-.3 7.847-1.043 19.143-1.043 19.143a28 28 0 0 1-7.174-.25c-3.968-.749-5.197-1.395-7.456-2.874 0 0 1.958-19.705 2.918-27.366.909-7.206 4.787-14.31 4.787-14.31l-4.659-19.258s.23-3.258 3.29-4.166c2.912-.864 7.475-.768 7.475-.768"/><path fill="#F5F5F5" d="M36.032 85.594s.64-2.292 1.504-6.208.736-6.196.429-7.904l-5.056 7.41L35.89 91.79a49.2 49.2 0 0 0-4.48 12.313c3.053-8.627 6.4-11.219 6.4-11.219z"/><path fill="#EBEBEB" d="M41.856 64.723c-.493-.102-.928.115-1.331.794-.403.678-1.28 2.131-1.28 2.131s-.461 4.774 0 5.958c.39 1.03 4.761 4.89 4.761 4.89s-1.145 4.294-1.184 5.696 2.708 6.752 3.015 9.485c0 0 .864-8.595.46-11.68A54.5 54.5 0 0 0 41.889 67.5z"/><path fill="#F28F8F" d="M31.52 118.752c-.64-1.235-.64-2.131-1.651-3.251a3.55 3.55 0 0 1-.883-1.645 11.8 11.8 0 0 1-.244-3.027l-5.798.089c-.045 1.92-.307 4.698.058 6.752.928 5.21 1.958 7.418 4.134 8.026 3.494.96 4.435-.512 3.315-3.123a12.6 12.6 0 0 1-.966-3.411c.369.469.8.887 1.28 1.241a1.244 1.244 0 0 0 1.683-.109c.14-.211-.448-.576-.928-1.542"/><path fill="#F0F0F0" d="M37.178 67.84s-3.75-.23-5.946 1.562-3.558 6.816-5.171 11.84-3.047 9.9-3.578 13.44c-.441 2.937.135 18.508.135 18.508 2.302.217 4.62-.195 6.707-1.19l1.568-16.64 6.285-17.05a16.3 16.3 0 0 0 0-10.47"/><path fill="#318AD1" d="M40.723 78.47c0-.377-.032-1.177-.096-2.195-.32-4.966-.467-9.459 1.216-9.817l.147.684c-1.228.263-.819 6.676-.64 9.088.064 1.037.116 1.856.096 2.266z"/><path fill="#455A64" d="M39.725 95.072h-.045v-.493a3.14 3.14 0 0 0 1.606-.595 6 6 0 0 1-1.33-1.184c-.794-1.024-2.522-8.32-1.991-10.016.448-1.42 1.85-4.563 3.097-4.614 1.242 0 2.874 2.97 3.437 4.339.679 1.645-.429 9.062-1.126 10.144a6 6 0 0 1-1.229 1.318 3.1 3.1 0 0 0 1.651.461l.058.486a3.84 3.84 0 0 1-2.138-.64 3.9 3.9 0 0 1-1.99.794m1.37-16.442c-.737 0-2.049 2.369-2.65 4.276-.487 1.561 1.177 8.62 1.92 9.6.392.474.859.88 1.382 1.203a5.7 5.7 0 0 0 1.28-1.319c.64-1.004 1.703-8.179 1.082-9.69-.787-1.874-2.279-4.07-3.015-4.07"/><path fill="#263238" d="M44.576 94.618a.723.723 0 0 1-1.44.064.73.73 0 0 1 .691-.756.723.723 0 0 1 .749.692M40.39 94.797a.724.724 0 1 1-1.436.18.724.724 0 0 1 1.436-.18"/><path fill="#318AD1" d="m44.653 85.696-.41-.032a.166.166 0 0 1-.153-.173 8.5 8.5 0 0 0-.122-2.777c-.73-1.767-2.227-3.988-2.88-3.962s-1.965 2.368-2.56 4.192a8.2 8.2 0 0 0 .109 2.784.16.16 0 0 1-.135.18l-.41.063a.166.166 0 0 1-.185-.14 8.4 8.4 0 0 1-.083-3.105c.307-.979 1.747-4.646 3.2-4.704s3.2 3.463 3.59 4.41a8.4 8.4 0 0 1 .18 3.11.17.17 0 0 1-.141.154M83.731 79.84 65.14 86.4l-5.12 22.125.416.441 17.677-6.604 6.035-22.08z"/><path fill="#000" d="m65.549 86.842-5.114 22.124-.416-.441L65.14 86.4z" opacity=".35"/><path fill="#000" d="m84.147 80.282-18.598 6.56-5.114 22.124 17.677-6.604z" opacity=".25"/><path fill="#000" d="M75.347 97.869c.173.435 1.594 1.389 3.661 1.216l.346-1.28z" opacity=".2"/><path fill="#000" d="M78.547 84.813s.064-.333.154-.743-1.011-.192-2.439.48l-3.36 1.018c-1.427.672-2.784 1.178-2.867 1.587l-.153.743z" opacity=".1"/><path fill="#37474F" d="M79.648 81.46c.058-.257-.371-.206-.96-.052l-1.075.365s.435-1.075-2.1-.384c-2.783.755-2.847 2.144-2.847 2.144q-.653.288-1.338.486c-.928.301-1.03.487-1.1.743l-.142.473 9.479-3.315s.032-.205.083-.46"/><path fill="#37474F" d="M78.656 82.88c-.883.397-1.28.589-1.376 1.223-.096.633-.18 1.023-.18 1.023l-4.94 1.92s.269-1.062.333-1.414-.583-.358-1.44.038l.205-.89 7.68-2.853z"/><path fill="#37474F" d="M78.797 84.826s.07-.333.153-.743c.084-.41-1.004-.198-2.432.48l-3.36 1.018c-1.427.672-2.784 1.177-2.867 1.587l-.153.742z"/><path fill="#F28F8F" d="M82.08 87.846s-.64 2.432-.832 3.047c-.192.614-3.2 2.016-4.742 2.208-2.919.365-3.252.992-2.56 3.065.64 1.92 2.56 2.63 5.177 2.317a4.76 4.76 0 0 0 3.61-3.149c.851-2.444.39-5.05.73-6.47s-.64-1.862-1.383-1.018"/><path fill="#318AD1" d="M45.766 40.845h1.07A10.925 10.925 0 0 1 57.76 51.77v11.232a7.207 7.207 0 0 1-7.2 7.206H34.842V51.77a10.925 10.925 0 0 1 10.924-10.925"/><path fill="#000" d="M45.766 40.845h1.07A10.925 10.925 0 0 1 57.76 51.77v11.232a7.207 7.207 0 0 1-7.2 7.206H34.842V51.77a10.925 10.925 0 0 1 10.924-10.925" opacity=".15"/><path fill="#318AD1" d="M38.957 66.38h6.829v8.32a6.51 6.51 0 0 1-6.51 6.51h-.32z"/><path fill="#000" d="M38.957 66.38h6.829v8.32a6.51 6.51 0 0 1-6.51 6.51h-.32z" opacity=".3"/><path fill="#F28F8F" d="M54.01 46.72c1.542 1.107 2.067 2.368 1.92 9.42-.154 5.94-2.087 7.412-3.06 7.86s-2.841.166-4.659-.14v4.23a3.6 3.6 0 0 1 1.21 2.099c.121.441-1.344 1.133-4.96.64a4.73 4.73 0 0 1-3.731-2.439V55.04s0-5.414 3.884-7.54a10.88 10.88 0 0 1 9.396-.78"/><path fill="#318AD1" d="M40.73 55.04s3.539-6.323 8.69-7.091c5.153-.768 6.292 1.818 6.292 1.818s-.64-5.844-6.291-5.696c-7.77.185-8.691 6.137-8.691 10.97"/><path fill="#000" d="M40.73 55.04s3.539-6.323 8.69-7.091c5.153-.768 6.292 1.818 6.292 1.818s-.64-5.844-6.291-5.696c-7.77.185-8.691 6.137-8.691 10.97" opacity=".4"/><path fill="#000" d="M48.262 54.605a.75.75 0 0 1-1.002.74.75.75 0 0 1-.495-.67.755.755 0 0 1 .704-.813.775.775 0 0 1 .793.743"/><path fill="#B16668" d="m47.654 59.168 2.759.883a1.42 1.42 0 0 1-1.773.992 1.523 1.523 0 0 1-.986-1.875"/><path fill="#000" d="m54.746 52.39-1.51-1.05a.88.88 0 0 1 1.28-.262.966.966 0 0 1 .23 1.313M46.08 52.3l1.517-1.055a.883.883 0 0 0-1.28-.256.973.973 0 0 0-.237 1.312M54.4 54.451a.749.749 0 1 1-.787-.749.77.77 0 0 1 .787.75"/><path fill="#B16668" d="m50.74 54.106.12 4.524 2.369-.736zM48.211 63.84c-1.92-.25-5.856-1.382-6.47-2.95a4.05 4.05 0 0 0 1.382 1.996c1.178 1.012 5.12 2.15 5.12 2.15z"/><path fill="#318AD1" d="m50.643 64.64-2.425-.794a.793.793 0 0 1-.788.794h-3.795a2.914 2.914 0 0 1-2.905-2.918l-2.42 2.918h-3.468v4.589a2.84 2.84 0 0 0 2.835 2.848H48.14a6.92 6.92 0 0 0 6.899-6.938v-.499z"/><path fill="#000" d="m50.643 64.64-2.425-.794a.793.793 0 0 1-.788.794h-3.795a2.914 2.914 0 0 1-2.905-2.918l-2.42 2.918h-3.468v4.589a2.84 2.84 0 0 0 2.835 2.848H48.14a6.92 6.92 0 0 0 6.899-6.938v-.499z" opacity=".15"/><path fill="#9E6767" d="M92.986 241.92c-.077-1.85 1.408-20.109 1.408-20.109l-8.858 5.856c.934 10.688 1.536 14.029 1.568 15.815a1.6 1.6 0 0 0-.051.454c0 2.112 2.624 3.251 4.665 4.659a39 39 0 0 0 5.524 3.29c1.484.678 4.48.742 4.87-.128-2.483-1.728-6.1-4.32-8.077-6.291-.94-.954-.979-1.696-1.05-3.546"/><path fill="#455A64" d="M106.349 254.022a1.71 1.71 0 0 1-.378 1.824 9.15 9.15 0 0 1-6.24 1.28c-3.097-.364-4.774-1.235-6.01-2.182s-2.975-2.278-4.377-2.56a8.9 8.9 0 0 1-3.136-1.171c-.416-.365-.358-1.997-.358-1.997z"/><path fill="#318AD1" d="M87.085 242.957a.49.49 0 0 0-.467.377c-.096.455-.199 1.76-.404 2.496a12.2 12.2 0 0 0-.307 3.962c.173.832 2.298 1.414 3.648 1.888a17.6 17.6 0 0 1 4.397 2.528 13.14 13.14 0 0 0 6.528 2.221c2.387 0 5.075-.723 5.696-1.735.762-1.248.16-1.971-3.379-3.468-.64-.282-3.027-1.549-3.84-2.01-2.17-1.248-4.32-2.982-5.319-5.19a1.28 1.28 0 0 0-.512-.672 1.2 1.2 0 0 0-.69-.058 6.5 6.5 0 0 0-1.703.467c-.474.211-1.152.448-1.14 1.005q.022.293.135.563c.045.115.077.263 0 .333s-.243 0-.333-.09a8 8 0 0 1-.953-1.043 3.3 3.3 0 0 0-.564-.518 6 6 0 0 1-.608-.359c-.23-.198-.172-.454-.185-.697"/><path fill="#fff" d="M87.085 242.957a.49.49 0 0 0-.467.377c-.096.455-.199 1.76-.404 2.496a12.2 12.2 0 0 0-.307 3.962c.173.832 2.298 1.414 3.648 1.888a17.6 17.6 0 0 1 4.397 2.528 13.14 13.14 0 0 0 6.528 2.221c2.387 0 5.075-.723 5.696-1.735.762-1.248.16-1.971-3.379-3.468-.64-.282-3.027-1.549-3.84-2.01-2.17-1.248-4.32-2.982-5.319-5.19a1.28 1.28 0 0 0-.512-.672 1.2 1.2 0 0 0-.69-.058 6.5 6.5 0 0 0-1.703.467c-.474.211-1.152.448-1.14 1.005q.022.293.135.563c.045.115.077.263 0 .333s-.243 0-.333-.09a8 8 0 0 1-.953-1.043 3.3 3.3 0 0 0-.564-.518 6 6 0 0 1-.608-.359c-.23-.198-.172-.454-.185-.697" opacity=".9"/><path fill="#318AD1" d="M93.952 254.208a23 23 0 0 0-1.92-1.312s4.166 2.31 5.85 1.28c1.081-.672.563-1.491.537-1.754s2.65-1.388 3.706-1.504c.294.154.537.269.691.333 3.539 1.498 4.141 2.221 3.379 3.469-.64 1.011-2.56 1.798-5.651 1.798a13.43 13.43 0 0 1-6.592-2.31"/><path fill="#fff" d="M93.952 254.208a23 23 0 0 0-1.92-1.312s4.166 2.31 5.85 1.28c1.081-.672.563-1.491.537-1.754s2.65-1.388 3.706-1.504c.294.154.537.269.691.333 3.539 1.498 4.141 2.221 3.379 3.469-.64 1.011-2.56 1.798-5.651 1.798a13.43 13.43 0 0 1-6.592-2.31" opacity=".8"/><path fill="#318AD1" d="M98.118 251.629c2.202.806 1.28 1.177.64 1.28s-4.326-1.92-6.585-3.527c-2.355-1.702-3.84-3.558-4.723-4.185a14 14 0 0 1-.986-.787c.058-.442.102-.845.147-1.056a.48.48 0 0 1 .467-.378c0 .262-.038.499.173.698q.294.196.608.358.312.227.563.518.433.563.954 1.044c1.926 2.208 6.54 5.235 8.742 6.035"/><path fill="#FAFAFA" d="M98.605 252.595a.25.25 0 0 1-.135-.045.185.185 0 0 1-.032-.281 5.53 5.53 0 0 1 4.032-1.453.2.2 0 0 1-.044.397 5.12 5.12 0 0 0-3.648 1.28.23.23 0 0 1-.173.102M96.685 251.52a.2.2 0 0 1-.135-.045.179.179 0 0 1-.032-.275 5.492 5.492 0 0 1 4.032-1.453.2.2 0 0 1 .079.019.2.2 0 0 1 .105.118q.012.04.008.081a.2.2 0 0 1-.08.14.2.2 0 0 1-.156.039 5.12 5.12 0 0 0-3.648 1.28.251.251 0 0 1-.173.096M94.765 250.496a.3.3 0 0 1-.141-.045.2.2 0 0 1-.061-.141.2.2 0 0 1 .061-.14 5.5 5.5 0 0 1 4.032-1.447.2.2 0 0 1 .079.019.2.2 0 0 1 .104.118.2.2 0 0 1 .009.081.2.2 0 0 1-.082.136.2.2 0 0 1-.155.037 5.12 5.12 0 0 0-3.654 1.28.2.2 0 0 1-.081.078.2.2 0 0 1-.111.024M92.986 249.331a.3.3 0 0 1-.141-.045.2.2 0 0 1-.059-.14.2.2 0 0 1 .059-.141 5.54 5.54 0 0 1 4.038-1.453.2.2 0 0 1 .074.024.196.196 0 0 1 .102.197.2.2 0 0 1-.143.169q-.038.011-.078.007a5.12 5.12 0 0 0-3.654 1.28.2.2 0 0 1-.198.102M91.238 248.16a.26.26 0 0 1-.134-.038.186.186 0 0 1 0-.282c.851-.986 2.784-1.632 4.403-1.472a.2.2 0 0 1 .183.143.2.2 0 0 1 .01.081.2.2 0 0 1-.084.134.22.22 0 0 1-.154.039c-1.459-.141-3.264.448-4.019 1.325a.25.25 0 0 1-.205.07"/><path fill="#9E6767" d="m75.872 228.307-8.96-.16c.134 5.978 1.082 12.621 1.242 18.234 0 1.062 0 8.217.37 10.387.596 3.27 4.48 2.829 4.68.87.198-1.958-.25-10.304-.238-11.168 0-3.596 1.658-9.676 2.56-16.14-.006-.32.301-1.716.346-2.023"/><path fill="#455A64" d="M75.053 259.002c.09 1.92-.103 3.2-.723 4.403-.621 1.203-1.99 1.664-3.45 1.465s-3.386-.902-3.974-2.515a9.6 9.6 0 0 1-.506-4.544z"/><path fill="#318AD1" d="M67.84 245.696c-.582.096-.467 2.675-.525 5.274-.057 2.784-.838 4-.909 6.284-.083 2.612.192 3.751 1.357 5.216s4.858 2.676 6.343.288c1.216-1.952 1.05-3.974.64-6.534a59 59 0 0 1-.852-6.534c-.102-1.92-.16-3.84-.697-3.994v.934c0 .295.051 1.28-.275 1.28a4 4 0 0 1-.09-.729.78.78 0 0 0-.23-.602 1.16 1.16 0 0 0-.679-.205 18 18 0 0 0-1.773-.089c-.294 0-.588 0-.883.045-.252.019-.5.075-.736.166a.48.48 0 0 0-.288.294.9.9 0 0 0 0 .295 1.7 1.7 0 0 1 0 .537c0 .077-.057.173-.147.16s-.102-.083-.109-.14c-.038-.314 0-.544-.045-.909v-.563c0-.167-.102-.308-.102-.474"/><path fill="#fff" d="M67.84 245.696c-.582.096-.467 2.675-.525 5.274-.057 2.784-.838 4-.909 6.284-.083 2.612.192 3.751 1.357 5.216s4.858 2.676 6.343.288c1.216-1.952 1.05-3.974.64-6.534a59 59 0 0 1-.852-6.534c-.102-1.92-.16-3.84-.697-3.994v.934c0 .295.051 1.28-.275 1.28a4 4 0 0 1-.09-.729.78.78 0 0 0-.23-.602 1.16 1.16 0 0 0-.679-.205 18 18 0 0 0-1.773-.089c-.294 0-.588 0-.883.045-.252.019-.5.075-.736.166a.48.48 0 0 0-.288.294.9.9 0 0 0 0 .295 1.7 1.7 0 0 1 0 .537c0 .077-.057.173-.147.16s-.102-.083-.109-.14c-.038-.314 0-.544-.045-.909v-.563c0-.167-.102-.308-.102-.474" opacity=".9"/><path fill="#318AD1" d="M66.464 256.512c0 .378-.09 2.867.698 3.245.787.377 1.075-1.568 1.075-1.568a7.87 7.87 0 0 1 4.665.141c-.096.416.468 1.689 1.184 1.344.717-.346.698-3.2.698-3.2.384 2.451.506 4.416-.64 6.31-1.485 2.387-5.178 1.178-6.342-.288-1.165-1.466-1.44-2.605-1.357-5.216a3.8 3.8 0 0 1 .019-.768"/><path fill="#fff" d="M66.464 256.512c0 .378-.09 2.867.698 3.245.787.377 1.075-1.568 1.075-1.568a7.87 7.87 0 0 1 4.665.141c-.096.416.468 1.689 1.184 1.344.717-.346.698-3.2.698-3.2.384 2.451.506 4.416-.64 6.31-1.485 2.387-5.178 1.178-6.342-.288-1.165-1.466-1.44-2.605-1.357-5.216a3.8 3.8 0 0 1 .019-.768" opacity=".8"/><path fill="#318AD1" d="M68.48 258.336c.096.934-.954.71-1.146-.602s.263-4.48 0-6.764c.058-2.599-.057-5.178.525-5.274v.096l.064 1.312c0 .192 0 .358.032.563.192 1.92.307 5.594.314 7.347q.008 1.668.211 3.322M72.582 258.336q.197-1.654.199-3.322c0-1.74.121-5.395.313-7.308.076-.353.104-.715.084-1.076v-.9339999999999999c.384.128.518 1.158.64 2.451 0 .755 0 1.69-.084 2.823-.256 2.259.192 5.472 0 6.784s-1.241 1.516-1.152.582"/><path fill="#FAFAFA" d="M72.96 258.4a.2.2 0 0 1-.083 0 7.67 7.67 0 0 0-4.57 0 .225.225 0 0 1-.281-.115.19.19 0 0 1 .056-.219.2.2 0 0 1 .072-.037 7.98 7.98 0 0 1 4.89 0q.038.012.069.038a.2.2 0 0 1 .066.14.2.2 0 0 1-.014.078.23.23 0 0 1-.087.085.22.22 0 0 1-.118.03M73.235 256.333h-.077a9.36 9.36 0 0 0-5.12 0 .225.225 0 0 1-.275-.128.2.2 0 0 1 .015-.157.2.2 0 0 1 .126-.093 9.8 9.8 0 0 1 5.402 0 .2.2 0 0 1 .122.099.2.2 0 0 1 .012.157.21.21 0 0 1-.205.122M67.968 254.381a.24.24 0 0 1-.198-.115.2.2 0 0 1-.002-.157.2.2 0 0 1 .11-.112 8.18 8.18 0 0 1 5.396 0 .2.2 0 0 1 .07.036.2.2 0 0 1 .068.141.2.2 0 0 1-.017.079.223.223 0 0 1-.281.109s-2.688-.954-5.05 0zM67.923 252.557q-.061 0-.115-.031a.2.2 0 0 1-.083-.084.19.19 0 0 1-.016-.171.2.2 0 0 1 .052-.072.2.2 0 0 1 .079-.039 7.4 7.4 0 0 1 5.498-.058.18.18 0 0 1 .111.108.19.19 0 0 1-.009.155.22.22 0 0 1-.288.096 7.04 7.04 0 0 0-5.12.057.3.3 0 0 1-.109.039"/><path fill="#EBEBEB" d="M67.872 250.502a.22.22 0 0 1-.192-.108.2.2 0 0 1-.012-.156.2.2 0 0 1 .042-.068.2.2 0 0 1 .066-.045c2.611-1.165 5.427-.051 5.549 0a.2.2 0 0 1 .067.041.2.2 0 0 1 .06.144.2.2 0 0 1-.018.077.216.216 0 0 1-.288.096c-.032 0-2.752-1.088-5.172 0a.3.3 0 0 1-.102.019"/><path fill="#318AD1" d="M71.398 166.4a36.8 36.8 0 0 0-2.816 10.56c-1.017 13.242-1.53 32.474-1.53 32.474-.12 1.388-.998 4.531-1.586 10.624-.698 7.193 1.241 31.36 1.241 31.36s4.307 2.56 7.68-.352c0 0 3.891-33.536 4.8-40.692.787-6.246 2.989-19.756 2.989-19.756l1.664 20.678s-.237 5.619-.07 9.254c.192 4.224 2.259 25.063 2.259 25.063s5.92 2.003 8.563-.839c0 0 .64-29.856.717-34.944.173-9.971-.346-28.563-.698-38.694z"/><path fill="#fff" d="M71.398 166.4a36.8 36.8 0 0 0-2.816 10.56c-1.017 13.242-1.53 32.474-1.53 32.474-.12 1.388-.998 4.531-1.586 10.624-.698 7.193 1.241 31.36 1.241 31.36s4.307 2.56 7.68-.352c0 0 3.891-33.536 4.8-40.692.787-6.246 2.989-19.756 2.989-19.756l1.664 20.678s-.237 5.619-.07 9.254c.192 4.224 2.259 25.063 2.259 25.063s5.92 2.003 8.563-.839c0 0 .64-29.856.717-34.944.173-9.971-.346-28.563-.698-38.694z" opacity=".6"/><path fill="#000" d="m82.15 190.63.922-6.361s5.37-.717 7.808-3.002a8.8 8.8 0 0 1-6.33 3.994l-.953 5.76-.064 17.92z" opacity=".2"/><path fill="#9E6767" d="m99.38 168.243-4.2 5.197s-2.918-4.838-2.802-4.838c.115 0 3.699-5.869 3.699-5.869z"/><path fill="#37474F" d="M85.94 135.411c3.295-.051 6.943-.141 10.13 3.642 2.464 2.937 9.14 12.045 10.484 14.374 1.516 2.637 1.728 3.706.537 5.677s-8.32 10.15-8.32 10.15a12.24 12.24 0 0 1-3.59-5.292l4.198-7.04-8.064-11.911z"/><path fill="#318AD1" d="M85.76 135.264c5.12-.435 7.36.288 9.318 2.362 1.37 1.452 9.76 12.665 9.76 12.665s-.352 2.215-6.585 5.536l-6.842-7.987z"/><path fill="#fff" d="M85.76 135.264c5.12-.435 7.36.288 9.318 2.362 1.37 1.452 9.76 12.665 9.76 12.665s-.352 2.215-6.585 5.536l-6.842-7.987z" opacity=".6"/><path fill="#318AD1" d="M77.74 135.501c-1.158.281-5.286.281-8.006 1.248-1.478.525-1.81 2.368-1.99 4.48-.39 4.525.314 13.011.314 13.011L68 175.891c3.75 2.727 19.155 4.115 27.046-1.645 0 0-.966-25.779-.966-29.792 0-4.012-2.227-8.832-8.384-9.19z"/><path fill="#fff" d="M77.74 135.501c-1.158.281-5.286.281-8.006 1.248-1.478.525-1.81 2.368-1.99 4.48-.39 4.525.314 13.011.314 13.011L68 175.891c3.75 2.727 19.155 4.115 27.046-1.645 0 0-.966-25.779-.966-29.792 0-4.012-2.227-8.832-8.384-9.19z" opacity=".75"/><path fill="#455A64" d="M85.197 136.659c-1.37 1.107-5.03 1.427-7.571.403a66 66 0 0 0 7.776 7.335 11.8 11.8 0 0 0-.205-7.738"/><path fill="#000" d="M79.002 118.4a7.226 7.226 0 1 0 14.45.013 7.226 7.226 0 0 0-14.45-.013M73.74 123.52s1.172 5.498 1.64 6.4a2.5 2.5 0 0 0 1.44 1.158l-.084-3.872z"/><path fill="#000" d="M75.206 115.654a2.7 2.7 0 0 0-2.24.788c-.966.985-.428 4.07.775 7.091l2.201.256z"/><path fill="#9E6767" d="M76.608 123.789c-.442.262-1.075-.589-1.62-1.159-.543-.569-2.322-1.35-3.2.525-.876 1.875.782 4.423 2.183 4.864 2.42.755 2.778-.793 2.778-.793l.179 8.96a60.8 60.8 0 0 0 8.486 8.192c.826-2.087.826-5.876-.64-8.685v-2.637a15.2 15.2 0 0 0 3.258.166c1.773-.268 2.893-1.67 3.43-3.596.864-3.085 1.19-5.581.461-11.655-.806-6.656-8.55-6.726-12.73-4.096s-2.585 9.914-2.585 9.914"/><path fill="#000" d="M91.795 115.002c-1.459 1.184-2.413 1.817-5.235 1.92a12.6 12.6 0 0 1-5.6-1.082c-.1.676-.388 1.31-.832 1.83a5.65 5.65 0 0 1-1.978 1.28c-.153 1.197-.147 2.733-.224 3.936 0 .41 0 2.56-.985 1.92a5 5 0 0 1-.845-.94 14 14 0 0 0-1.107-1.236c-.762-.691.217-6.976.217-6.976a3.05 3.05 0 0 1 .532-3.392c1.043-1.152 2.502-2.56 7.238-1.996 3.38.403 7.04 1.452 10.029 0 .435 1.696-.167 3.884-1.21 4.736"/><path fill="#000" d="m75.213 116.141-2.675-1.434a1.475 1.475 0 0 1 2.028-.64 1.6 1.6 0 0 1 .647 2.074"/><path fill="#874C4C" d="M84.774 133.056s-3.968-.794-5.35-1.536c-.82-.43-1.49-1.1-1.92-1.92.21.811.58 1.573 1.088 2.24 1.018 1.28 6.182 2.246 6.182 2.246z"/><path fill="#000" d="M84.032 122.771a.85.85 0 1 1-.851-.889.876.876 0 0 1 .851.889M83.2 119.891l-1.76.967a1.05 1.05 0 0 1 .416-1.396.97.97 0 0 1 .764-.074.98.98 0 0 1 .58.503"/><path fill="#874C4C" d="m83.38 127.731 2.88 1.075a1.52 1.52 0 0 1-.777.894 1.5 1.5 0 0 1-1.182.06 1.6 1.6 0 0 1-.922-2.029"/><path fill="#000" d="m91.22 120.538-1.62-1.236a.98.98 0 0 1 1.043-.389 1 1 0 0 1 .352.172 1.066 1.066 0 0 1 .224 1.453M90.688 122.682a.825.825 0 1 1-.826-.858.85.85 0 0 1 .592.257.84.84 0 0 1 .234.601"/><path fill="#874C4C" d="m86.624 121.542.282 5.184 2.707-.921z"/><path fill="#318AD1" d="M76.282 136.07c-1.05.224-1.338 4.66-1.082 10.029.045.883.102 1.587.083 1.92h-.595c0-.32 0-1.011-.083-1.875-.269-4.25-.301-10.413 1.549-10.694q.37-.09.748-.071v.64z"/><path fill="#000" d="M76.282 136.07c-1.05.224-1.338 4.66-1.082 10.029.045.883.102 1.587.083 1.92h-.595c0-.32 0-1.011-.083-1.875-.269-4.25-.301-10.413 1.549-10.694q.37-.09.748-.071v.64z" opacity=".2"/><path fill="#455A64" d="M73.83 162.086h-.05v-.416c.496-.04.973-.217 1.375-.512a5 5 0 0 1-1.139-1.036c-.678-.871-2.157-7.104-1.702-8.557.384-1.216 1.58-3.904 2.643-3.949 1.062 0 2.457 2.56 2.937 3.712.576 1.408-.364 7.744-.96 8.672a5.2 5.2 0 0 1-1.056 1.126c.425.264.916.399 1.415.391l.051.416a3.25 3.25 0 0 1-1.83-.531 3.34 3.34 0 0 1-1.684.684m1.172-14.048c-.64 0-1.748 2.016-2.26 3.655-.422 1.331.999 7.366 1.626 8.173.325.404.714.752 1.152 1.03.42-.316.787-.696 1.088-1.126.55-.858 1.46-6.989.928-8.282-.627-1.574-1.9-3.45-2.534-3.45"/><path fill="#263238" d="M77.978 161.702a.64.64 0 1 1-1.278.103.64.64 0 0 1 1.278-.103M74.4 161.85a.64.64 0 1 1-1.275.102.64.64 0 0 1 1.275-.102"/><path fill="#318AD1" d="M78.042 154.074h-.352a.147.147 0 0 1-.128-.148 6.8 6.8 0 0 0-.11-2.374c-.64-1.51-1.92-3.411-2.457-3.386-.537.026-1.677 2.023-2.17 3.584a7.1 7.1 0 0 0 .097 2.375.14.14 0 0 1-.025.103.14.14 0 0 1-.09.057l-.346.051a.14.14 0 0 1-.104-.025.14.14 0 0 1-.056-.09 7.1 7.1 0 0 1-.07-2.663c.262-.832 1.497-3.968 2.739-4.019s2.732 2.963 3.065 3.776c.219.866.271 1.765.154 2.65a.14.14 0 0 1-.147.109"/><path fill="#000" d="M78.042 154.074h-.352a.147.147 0 0 1-.128-.148 6.8 6.8 0 0 0-.11-2.374c-.64-1.51-1.92-3.411-2.457-3.386-.537.026-1.677 2.023-2.17 3.584a7.1 7.1 0 0 0 .097 2.375.14.14 0 0 1-.025.103.14.14 0 0 1-.09.057l-.346.051a.14.14 0 0 1-.104-.025.14.14 0 0 1-.056-.09 7.1 7.1 0 0 1-.07-2.663c.262-.832 1.497-3.968 2.739-4.019s2.732 2.963 3.065 3.776c.219.866.271 1.765.154 2.65a.14.14 0 0 1-.147.109" opacity=".2"/><path fill="#318AD1" d="M84.774 134.784c.948.128 3.84 1.562 5.236 5.888s1.28 11.104 1.28 12.998-.173 3.316-.173 3.316h-.679s.096-2.413.122-3.623c.096-5.325-.237-9.869-1.28-12.608-1.28-3.277-2.72-4.326-4.48-5.158z"/><path fill="#000" d="M84.774 134.784c.948.128 3.84 1.562 5.236 5.888s1.28 11.104 1.28 12.998-.173 3.316-.173 3.316h-.679s.096-2.413.122-3.623c.096-5.325-.237-9.869-1.28-12.608-1.28-3.277-2.72-4.326-4.48-5.158z" opacity=".2"/><path fill="#455A64" d="M90.63 159.75a2.444 2.444 0 1 0 .001-4.889 2.444 2.444 0 0 0 0 4.889"/><path fill="#37474F" d="M90.63 158.694a1.388 1.388 0 1 0 .002-2.776 1.388 1.388 0 0 0-.002 2.776"/><path fill="#318AD1" d="M76.87 176.512v20.48a.4.4 0 0 1-.166.378l-.922.544a.4.4 0 0 1-.147 0 .56.56 0 0 1-.262-.077L52.16 184.461a1.34 1.34 0 0 1-.595-1.037v-20.48a.43.43 0 0 1 .166-.384h.039l.87-.506a.3.3 0 0 1 .154-.038q.143.006.268.077l12.16 7.04 1.44.832 2.15 1.235h.058l7.386 4.262q.064.038.122.084.18.156.3.364c.116.181.182.388.192.602"/><path fill="#fff" d="m76.698 175.923-.896.525a1.483 1.483 0 0 0-.3-.365l-.123-.089-7.385-4.256-2.19-1.28-.882-.506-12.75-7.328a.45.45 0 0 0-.39-.058l.87-.505a.3.3 0 0 1 .154-.039.5.5 0 0 1 .27.077l12.16 7.04 1.44.832 2.15 1.235h.057l7.386 4.263q.064.037.121.083.186.16.308.371" opacity=".5"/><path fill="#318AD1" d="M51.571 162.97v20.48a1.33 1.33 0 0 0 .602 1.043l23.277 13.44a.35.35 0 0 0 .355.002.35.35 0 0 0 .176-.309v-20.589a1.2 1.2 0 0 0-.18-.589 1.3 1.3 0 0 0-.422-.448l-7.385-4.262-2.19-1.28-13.631-7.834a.45.45 0 0 0-.39-.058.43.43 0 0 0-.212.404M75.801 176.448"/><path fill="#000" d="m75.75 197.92.928-.538a.45.45 0 0 0 .16-.384v-20.48a1.2 1.2 0 0 0-.179-.588l-.896.524c.108.178.167.381.173.589V197.6a.35.35 0 0 1-.186.32" opacity=".2"/><path fill="#9E6767" d="M57.427 164.48c4.973-20.326 7.527-26.56 13.568-26.483 1.767 2.105-.096 8.665-1.28 11.853 0 0-5.344 13.056-6.336 17.715-.87 4.096-1.856 9.241-1.792 12.761a2.56 2.56 0 0 0 .691 1.677c1.133 1.229 1.14 2.221 1.87 3.578.575 1.069 1.209 1.465 1.03 1.702a1.377 1.377 0 0 1-1.87.141 7.2 7.2 0 0 1-1.414-1.357c.13 1.605.504 3.18 1.108 4.672l1.28.73s-.384 1.312-3.437.435c-3.45-.986-4.685-1.414-5.05-7.264a46 46 0 0 1-.064-6.47c.519-5.556.896-10.432 1.696-13.69"/><path fill="#37474F" d="M71.142 136.352s-4.64.166-6.099 2.4c-1.69 2.56-3.161 7.174-5.997 17.28s-3.699 17.44-3.84 23.117c0 0 3.552 1.657 6.83-.231 0 0 1.452-8.774 2.738-13.44 1.287-4.665 5.415-14.784 5.415-14.784s3.251-7.334.953-14.342"/><path fill="#318AD1" d="M72.467 136.102c-3.437.359-6.528.25-8.23 3.437-1.92 3.597-6.202 16.64-6.202 16.64a12.76 12.76 0 0 0 9.063 4.179l4.134-11.577s2.726-7.693 1.235-12.679"/><path fill="#fff" d="M72.467 136.102c-3.437.359-6.528.25-8.23 3.437-1.92 3.597-6.202 16.64-6.202 16.64a12.76 12.76 0 0 0 9.063 4.179l4.134-11.577s2.726-7.693 1.235-12.679" opacity=".6"/><path fill="#37474F" d="M77.3 193.382c.274.173.396-.352.46-1.12v-1.42s1.088.972 1.35-2.317c.295-3.616-1.324-4.275-1.324-4.275v-1.792c0-1.191-.25-1.485-.525-1.684l-.41-.204v12.563s.167.077.448.249"/><path fill="#37474F" d="M75.968 191.597c0-1.075-.102-1.715-.794-2.138a17 17 0 0 0-1.126-.64l-.205-6.662s1.14.768 1.53.998c.39.231.64-1.133.595-1.529l.934.422.11 10.291z"/><path fill="#37474F" d="m73.722 190.95.812.493c.455.269.64-1.113.448-3.091l.192-4.403c-.204-1.978-.236-3.789-.69-4.058l-.814-.493z"/><path fill="#318AD1" d="M193.152 241.21H171.27l-.409-13.101h-21.722l-.409 13.101h-21.844l-.435 4.985v9.005h21.837l-.41 4.09v9.011h24.244v-9.011l-.41-4.09h21.837v-9.011z"/><path fill="#000" d="M193.152 241.21H171.27l-.409-13.101h-21.722l-.409 13.101h-21.844l-.435 4.985v9.005h21.837l-.41 4.09v9.011h24.244v-9.011l-.41-4.09h21.837v-9.011z" opacity=".2"/><path fill="#318AD1" d="M193.152 232.198H171.27l-.409-13.1h-21.722l-.409 13.1h-21.844l-.435 13.997h21.837l-.41 13.095h24.244l-.41-13.101h21.837z"/><path fill="#000" d="M171.712 246.189h21.837v9.011h-21.555zM148.288 246.195l-.282 9.005h-21.555v-9.005z" opacity=".13"/></svg>