<svg width="20" height="20" viewBox="0 0 20 20" fill="none" xmlns="http://www.w3.org/2000/svg">
<path fill-rule="evenodd" clip-rule="evenodd" d="M8.21674 1.14875C8.71434 0.724643 9.34676 0.491699 10.0006 0.491699C10.6544 0.491699 11.2868 0.724643 11.7844 1.14875L12.9495 2.14242C13.0965 2.26779 13.2794 2.34351 13.472 2.35875L14.9982 2.48067C15.6497 2.53282 16.2612 2.81525 16.7233 3.27735C17.1854 3.73945 17.4678 4.351 17.52 5.00242L17.6419 6.52958C17.6573 6.72188 17.733 6.9044 17.8582 7.05117L18.8519 8.21625C19.276 8.71385 19.509 9.34627 19.509 10.0001C19.509 10.6539 19.276 11.2863 18.8519 11.7839L17.8582 12.949C17.7329 13.096 17.6571 13.2789 17.6419 13.4715L17.52 14.9977C17.4678 15.6492 17.1854 16.2607 16.7233 16.7228C16.2612 17.1849 15.6497 17.4673 14.9982 17.5195L13.4711 17.6414C13.2788 17.6568 13.0963 17.7326 12.9495 17.8577L11.7844 18.8514C11.2868 19.2755 10.6544 19.5085 10.0006 19.5085C9.34676 19.5085 8.71434 19.2755 8.21674 18.8514L7.05165 17.8577C6.90464 17.7324 6.72177 17.6567 6.52915 17.6414L5.0029 17.5195C4.35149 17.4673 3.73993 17.1849 3.27784 16.7228C2.81574 16.2607 2.53331 15.6492 2.48115 14.9977L2.35924 13.4706C2.34381 13.2783 2.2681 13.0958 2.1429 12.949L1.14924 11.7839C0.725132 11.2863 0.492188 10.6539 0.492188 10.0001C0.492187 9.34627 0.725132 8.71385 1.14924 8.21625L2.1429 7.05117C2.26828 6.90415 2.344 6.72128 2.35924 6.52867L2.48115 5.00242C2.53331 4.351 2.81574 3.73945 3.27784 3.27735C3.73993 2.81525 4.35149 2.53282 5.0029 2.48067L6.53007 2.35875C6.72236 2.34332 6.90489 2.26761 7.05165 2.14242L8.21674 1.14875ZM13.3987 8.81483C13.5656 8.64195 13.658 8.4104 13.6559 8.17005C13.6538 7.9297 13.5574 7.69979 13.3875 7.52983C13.2175 7.35987 12.9876 7.26347 12.7473 7.26138C12.5069 7.25929 12.2754 7.35169 12.1025 7.51867L9.0839 10.5372L7.89865 9.352C7.72577 9.18502 7.49422 9.09263 7.25387 9.09471C7.01352 9.0968 6.78361 9.19321 6.61365 9.36316C6.4437 9.53312 6.34729 9.76303 6.3452 10.0034C6.34311 10.2437 6.43551 10.4753 6.60249 10.6482L8.43582 12.4815C8.60772 12.6533 8.84084 12.7499 9.0839 12.7499C9.32697 12.7499 9.56009 12.6533 9.73199 12.4815L13.3987 8.81483Z" fill="#318AD1"/>
</svg>
