<svg width="32" height="32" viewBox="0 0 32 32" fill="none" xmlns="http://www.w3.org/2000/svg">
<path d="M21.334 17.3333L28.298 21.9759C28.3984 22.0428 28.515 22.0811 28.6355 22.0868C28.7559 22.0926 28.8757 22.0656 28.982 22.0087C29.0883 21.9517 29.1772 21.8671 29.2392 21.7636C29.3012 21.6602 29.3339 21.5419 29.334 21.4213V10.4933C29.334 10.376 29.3031 10.2607 29.2444 10.1592C29.1856 10.0577 29.1011 9.97344 28.9994 9.91501C28.8977 9.85658 28.7824 9.82602 28.6651 9.82642C28.5478 9.82682 28.4326 9.85816 28.3313 9.91728L21.334 13.9999" stroke="black" stroke-width="2" stroke-linecap="round" stroke-linejoin="round"/>
<path d="M18.666 8H5.33268C3.85992 8 2.66602 9.19391 2.66602 10.6667V21.3333C2.66602 22.8061 3.85992 24 5.33268 24H18.666C20.1388 24 21.3327 22.8061 21.3327 21.3333V10.6667C21.3327 9.19391 20.1388 8 18.666 8Z" stroke="black" stroke-width="2" stroke-linecap="round" stroke-linejoin="round"/>
</svg>
