<svg width="196" height="95" viewBox="0 0 196 95" fill="none" xmlns="http://www.w3.org/2000/svg">
<path d="M93.1641 75.884V68.9855H94.4138V74.8364H97.4521V75.884H93.1641Z" fill="black"/>
<path d="M98.4828 75.884V70.7101H99.7022V75.884H98.4828ZM99.0959 69.9758C98.9028 69.9758 98.7366 69.9118 98.5974 69.7838C98.4581 69.6535 98.3885 69.4975 98.3885 69.3156C98.3885 69.1314 98.4581 68.9753 98.5974 68.8473C98.7366 68.7171 98.9028 68.652 99.0959 68.652C99.2913 68.652 99.4574 68.7171 99.5944 68.8473C99.7337 68.9753 99.8033 69.1314 99.8033 69.3156C99.8033 69.4975 99.7337 69.6535 99.5944 69.7838C99.4574 69.9118 99.2913 69.9758 99.0959 69.9758Z" fill="black"/>
<path d="M105.578 70.7101L103.735 75.884H102.388L100.545 70.7101H101.845L103.034 74.5535H103.088L104.281 70.7101H105.578Z" fill="black"/>
<path d="M108.536 75.9851C108.017 75.9851 107.569 75.8773 107.192 75.6617C106.817 75.4439 106.528 75.1362 106.326 74.7387C106.124 74.339 106.023 73.8686 106.023 73.3274C106.023 72.7951 106.124 72.3281 106.326 71.9261C106.531 71.5219 106.816 71.2075 107.182 70.9829C107.548 70.7561 107.978 70.6427 108.472 70.6427C108.791 70.6427 109.092 70.6944 109.375 70.7977C109.66 70.8987 109.911 71.0559 110.129 71.2692C110.349 71.4826 110.522 71.7543 110.648 72.0844C110.774 72.4123 110.837 72.803 110.837 73.2566V73.6305H106.596V72.8086H109.668C109.665 72.5751 109.615 72.3674 109.516 72.1855C109.417 72.0013 109.279 71.8565 109.102 71.7509C108.927 71.6454 108.722 71.5926 108.489 71.5926C108.24 71.5926 108.021 71.6533 107.832 71.7745C107.643 71.8935 107.496 72.0507 107.391 72.2461C107.287 72.4392 107.235 72.6514 107.232 72.8827V73.6002C107.232 73.9011 107.287 74.1594 107.397 74.3749C107.507 74.5883 107.661 74.7522 107.859 74.8667C108.056 74.979 108.288 75.0352 108.553 75.0352C108.73 75.0352 108.891 75.0105 109.034 74.9611C109.178 74.9094 109.303 74.8342 109.408 74.7354C109.514 74.6366 109.594 74.5142 109.648 74.3682L110.786 74.4962C110.714 74.7971 110.577 75.0599 110.375 75.2844C110.175 75.5067 109.919 75.6797 109.607 75.8032C109.295 75.9244 108.938 75.9851 108.536 75.9851Z" fill="black"/>
<path d="M116.805 70.7101V71.6533H113.83V70.7101H116.805ZM114.565 69.4705H115.784V74.3278C115.784 74.4917 115.809 74.6175 115.858 74.7051C115.91 74.7904 115.977 74.8488 116.06 74.8802C116.143 74.9116 116.235 74.9274 116.336 74.9274C116.413 74.9274 116.482 74.9218 116.545 74.9105C116.61 74.8993 116.66 74.8892 116.693 74.8802L116.899 75.8335C116.834 75.8559 116.741 75.8806 116.619 75.9076C116.5 75.9345 116.354 75.9502 116.181 75.9547C115.876 75.9637 115.601 75.9177 115.356 75.8166C115.111 75.7133 114.917 75.5539 114.773 75.3383C114.632 75.1227 114.562 74.8533 114.565 74.5299V69.4705Z" fill="black"/>
<path d="M119.155 72.8524V75.884H117.936V68.9855H119.128V71.5893H119.189C119.31 71.2973 119.497 71.0671 119.751 70.8987C120.007 70.7281 120.333 70.6427 120.728 70.6427C121.087 70.6427 121.401 70.7179 121.668 70.8684C121.935 71.0189 122.142 71.2389 122.288 71.5286C122.436 71.8183 122.51 72.172 122.51 72.5897V75.884H121.291V72.7783C121.291 72.4302 121.201 72.1596 121.021 71.9665C120.844 71.7711 120.594 71.6735 120.273 71.6735C120.058 71.6735 119.865 71.7206 119.694 71.8149C119.525 71.907 119.393 72.0406 119.296 72.2158C119.202 72.3909 119.155 72.6031 119.155 72.8524Z" fill="black"/>
<path d="M126.043 75.9851C125.525 75.9851 125.077 75.8773 124.699 75.6617C124.324 75.4439 124.036 75.1362 123.834 74.7387C123.632 74.339 123.531 73.8686 123.531 73.3274C123.531 72.7951 123.632 72.3281 123.834 71.9261C124.038 71.5219 124.323 71.2075 124.689 70.9829C125.055 70.7561 125.485 70.6427 125.979 70.6427C126.298 70.6427 126.599 70.6944 126.882 70.7977C127.167 70.8987 127.419 71.0559 127.637 71.2692C127.857 71.4826 128.03 71.7543 128.155 72.0844C128.281 72.4123 128.344 72.803 128.344 73.2566V73.6305H124.103V72.8086H127.175C127.173 72.5751 127.122 72.3674 127.024 72.1855C126.925 72.0013 126.787 71.8565 126.609 71.7509C126.434 71.6454 126.23 71.5926 125.996 71.5926C125.747 71.5926 125.528 71.6533 125.339 71.7745C125.151 71.8935 125.004 72.0507 124.898 72.2461C124.795 72.4392 124.742 72.6514 124.74 72.8827V73.6002C124.74 73.9011 124.795 74.1594 124.905 74.3749C125.015 74.5883 125.169 74.7522 125.366 74.8667C125.564 74.979 125.795 75.0352 126.06 75.0352C126.238 75.0352 126.398 75.0105 126.542 74.9611C126.686 74.9094 126.81 74.8342 126.916 74.7354C127.021 74.6366 127.101 74.5142 127.155 74.3682L128.293 74.4962C128.222 74.7971 128.085 75.0599 127.883 75.2844C127.683 75.5067 127.427 75.6797 127.115 75.8032C126.802 75.9244 126.445 75.9851 126.043 75.9851Z" fill="black"/>
<path d="M132.948 68.9855V75.884H131.728V68.9855H132.948Z" fill="black"/>
<path d="M134.202 75.884V70.7101H135.421V75.884H134.202ZM134.815 69.9758C134.622 69.9758 134.455 69.9118 134.316 69.7838C134.177 69.6535 134.107 69.4975 134.107 69.3156C134.107 69.1314 134.177 68.9753 134.316 68.8473C134.455 68.7171 134.622 68.652 134.815 68.652C135.01 68.652 135.176 68.7171 135.313 68.8473C135.453 68.9753 135.522 69.1314 135.522 69.3156C135.522 69.4975 135.453 69.6535 135.313 69.7838C135.176 69.9118 135.01 69.9758 134.815 69.9758Z" fill="black"/>
<path d="M139.296 70.7101V71.6533H136.237V70.7101H139.296ZM137.002 75.884V70.2217C137.002 69.8736 137.074 69.5839 137.217 69.3526C137.363 69.1213 137.559 68.9484 137.803 68.8339C138.048 68.7193 138.32 68.6621 138.619 68.6621C138.83 68.6621 139.017 68.6789 139.181 68.7126C139.345 68.7463 139.466 68.7766 139.545 68.8036L139.302 69.7467C139.251 69.731 139.186 69.7153 139.107 69.6996C139.028 69.6816 138.941 69.6726 138.844 69.6726C138.617 69.6726 138.457 69.7276 138.363 69.8377C138.27 69.9455 138.224 70.1004 138.224 70.3025V75.884H137.002Z" fill="black"/>
<path d="M142.347 75.9851C141.828 75.9851 141.38 75.8773 141.003 75.6617C140.628 75.4439 140.339 75.1362 140.137 74.7387C139.935 74.339 139.834 73.8686 139.834 73.3274C139.834 72.7951 139.935 72.3281 140.137 71.9261C140.341 71.5219 140.626 71.2075 140.992 70.9829C141.358 70.7561 141.789 70.6427 142.283 70.6427C142.601 70.6427 142.902 70.6944 143.185 70.7977C143.471 70.8987 143.722 71.0559 143.94 71.2692C144.16 71.4826 144.333 71.7543 144.459 72.0844C144.584 72.4123 144.647 72.803 144.647 73.2566V73.6305H140.406V72.8086H143.478C143.476 72.5751 143.426 72.3674 143.327 72.1855C143.228 72.0013 143.09 71.8565 142.912 71.7509C142.737 71.6454 142.533 71.5926 142.299 71.5926C142.05 71.5926 141.831 71.6533 141.643 71.7745C141.454 71.8935 141.307 72.0507 141.201 72.2461C141.098 72.4392 141.045 72.6514 141.043 72.8827V73.6002C141.043 73.9011 141.098 74.1594 141.208 74.3749C141.318 74.5883 141.472 74.7522 141.67 74.8667C141.867 74.979 142.098 75.0352 142.363 75.0352C142.541 75.0352 142.701 75.0105 142.845 74.9611C142.989 74.9094 143.113 74.8342 143.219 74.7354C143.325 74.6366 143.404 74.5142 143.458 74.3682L144.597 74.4962C144.525 74.7971 144.388 75.0599 144.186 75.2844C143.986 75.5067 143.73 75.6797 143.418 75.8032C143.106 75.9244 142.749 75.9851 142.347 75.9851Z" fill="black"/>
<path d="M148.79 77.8242C148.623 77.8242 148.47 77.8107 148.328 77.7838C148.189 77.7591 148.078 77.7299 147.995 77.6962L148.278 76.7463C148.455 76.798 148.613 76.8227 148.752 76.8204C148.892 76.8182 149.014 76.7744 149.12 76.6891C149.227 76.606 149.318 76.4667 149.392 76.2714L149.497 75.9918L147.621 70.7101H148.914L150.107 74.6175H150.16L151.356 70.7101H152.653L150.582 76.5105C150.485 76.7845 150.357 77.0192 150.198 77.2145C150.038 77.4121 149.843 77.5626 149.611 77.6659C149.382 77.7714 149.108 77.8242 148.79 77.8242Z" fill="black"/>
<path d="M155.578 75.9851C155.073 75.9851 154.635 75.8739 154.264 75.6516C153.894 75.4293 153.606 75.1182 153.402 74.7185C153.2 74.3188 153.099 73.8517 153.099 73.3173C153.099 72.7828 153.2 72.3146 153.402 71.9126C153.606 71.5107 153.894 71.1985 154.264 70.9762C154.635 70.7539 155.073 70.6427 155.578 70.6427C156.083 70.6427 156.521 70.7539 156.891 70.9762C157.262 71.1985 157.548 71.5107 157.75 71.9126C157.955 72.3146 158.057 72.7828 158.057 73.3173C158.057 73.8517 157.955 74.3188 157.75 74.7185C157.548 75.1182 157.262 75.4293 156.891 75.6516C156.521 75.8739 156.083 75.9851 155.578 75.9851ZM155.585 75.0082C155.858 75.0082 156.088 74.933 156.272 74.7825C156.456 74.6298 156.593 74.4255 156.683 74.1695C156.775 73.9135 156.821 73.6283 156.821 73.3139C156.821 72.9973 156.775 72.7109 156.683 72.4549C156.593 72.1967 156.456 71.9912 156.272 71.8385C156.088 71.6858 155.858 71.6095 155.585 71.6095C155.304 71.6095 155.07 71.6858 154.884 71.8385C154.7 71.9912 154.562 72.1967 154.47 72.4549C154.38 72.7109 154.335 72.9973 154.335 73.3139C154.335 73.6283 154.38 73.9135 154.47 74.1695C154.562 74.4255 154.7 74.6298 154.884 74.7825C155.07 74.933 155.304 75.0082 155.585 75.0082Z" fill="black"/>
<path d="M162.39 73.708V70.7101H163.609V75.884H162.427V74.9644H162.373C162.256 75.2541 162.064 75.491 161.797 75.6752C161.532 75.8593 161.205 75.9514 160.817 75.9514C160.477 75.9514 160.178 75.8761 159.917 75.7257C159.659 75.573 159.457 75.3518 159.311 75.0621C159.165 74.7702 159.092 74.4176 159.092 74.0044V70.7101H160.311V73.8158C160.311 74.1436 160.401 74.4041 160.581 74.5973C160.76 74.7904 160.996 74.8869 161.288 74.8869C161.468 74.8869 161.642 74.8432 161.81 74.7556C161.979 74.668 162.117 74.5378 162.225 74.3648C162.335 74.1897 162.39 73.9707 162.39 73.708Z" fill="black"/>
<path d="M168.435 68.9855V75.884H167.216V68.9855H168.435Z" fill="black"/>
<path d="M171.946 75.9851C171.441 75.9851 171.003 75.8739 170.632 75.6516C170.262 75.4293 169.974 75.1182 169.77 74.7185C169.568 74.3188 169.467 73.8517 169.467 73.3173C169.467 72.7828 169.568 72.3146 169.77 71.9126C169.974 71.5107 170.262 71.1985 170.632 70.9762C171.003 70.7539 171.441 70.6427 171.946 70.6427C172.451 70.6427 172.889 70.7539 173.26 70.9762C173.63 71.1985 173.916 71.5107 174.118 71.9126C174.323 72.3146 174.425 72.7828 174.425 73.3173C174.425 73.8517 174.323 74.3188 174.118 74.7185C173.916 75.1182 173.63 75.4293 173.26 75.6516C172.889 75.8739 172.451 75.9851 171.946 75.9851ZM171.953 75.0082C172.227 75.0082 172.456 74.933 172.64 74.7825C172.824 74.6298 172.961 74.4255 173.051 74.1695C173.143 73.9135 173.189 73.6283 173.189 73.3139C173.189 72.9973 173.143 72.7109 173.051 72.4549C172.961 72.1967 172.824 71.9912 172.64 71.8385C172.456 71.6858 172.227 71.6095 171.953 71.6095C171.672 71.6095 171.438 71.6858 171.252 71.8385C171.068 71.9912 170.93 72.1967 170.838 72.4549C170.748 72.7109 170.703 72.9973 170.703 73.3139C170.703 73.6283 170.748 73.9135 170.838 74.1695C170.93 74.4255 171.068 74.6298 171.252 74.7825C171.438 74.933 171.672 75.0082 171.953 75.0082Z" fill="black"/>
<path d="M179.905 70.7101L178.063 75.884H176.716L174.873 70.7101H176.173L177.362 74.5535H177.416L178.609 70.7101H179.905Z" fill="black"/>
<path d="M182.864 75.9851C182.345 75.9851 181.897 75.8773 181.52 75.6617C181.145 75.4439 180.856 75.1362 180.654 74.7387C180.452 74.339 180.351 73.8686 180.351 73.3274C180.351 72.7951 180.452 72.3281 180.654 71.9261C180.858 71.5219 181.144 71.2075 181.51 70.9829C181.876 70.7561 182.306 70.6427 182.8 70.6427C183.119 70.6427 183.42 70.6944 183.702 70.7977C183.988 70.8987 184.239 71.0559 184.457 71.2692C184.677 71.4826 184.85 71.7543 184.976 72.0844C185.102 72.4123 185.164 72.803 185.164 73.2566V73.6305H180.924V72.8086H183.996C183.993 72.5751 183.943 72.3674 183.844 72.1855C183.745 72.0013 183.607 71.8565 183.43 71.7509C183.255 71.6454 183.05 71.5926 182.817 71.5926C182.567 71.5926 182.348 71.6533 182.16 71.7745C181.971 71.8935 181.824 72.0507 181.718 72.2461C181.615 72.4392 181.562 72.6514 181.56 72.8827V73.6002C181.56 73.9011 181.615 74.1594 181.725 74.3749C181.835 74.5883 181.989 74.7522 182.187 74.8667C182.384 74.979 182.616 75.0352 182.881 75.0352C183.058 75.0352 183.219 75.0105 183.362 74.9611C183.506 74.9094 183.631 74.8342 183.736 74.7354C183.842 74.6366 183.921 74.5142 183.975 74.3682L185.114 74.4962C185.042 74.7971 184.905 75.0599 184.703 75.2844C184.503 75.5067 184.247 75.6797 183.935 75.8032C183.623 75.9244 183.266 75.9851 182.864 75.9851Z" fill="black"/>
<path d="M186.947 75.9581C186.743 75.9581 186.568 75.8862 186.422 75.7425C186.276 75.5988 186.204 75.4237 186.206 75.2171C186.204 75.0149 186.276 74.842 186.422 74.6983C186.568 74.5546 186.743 74.4827 186.947 74.4827C187.145 74.4827 187.317 74.5546 187.463 74.6983C187.611 74.842 187.686 75.0149 187.688 75.2171C187.686 75.354 187.65 75.4787 187.58 75.5909C187.513 75.7032 187.423 75.7931 187.311 75.8604C187.201 75.9255 187.08 75.9581 186.947 75.9581Z" fill="black"/>
<path d="M189.698 75.9581C189.494 75.9581 189.319 75.8862 189.173 75.7425C189.027 75.5988 188.955 75.4237 188.957 75.2171C188.955 75.0149 189.027 74.842 189.173 74.6983C189.319 74.5546 189.494 74.4827 189.698 74.4827C189.896 74.4827 190.068 74.5546 190.214 74.6983C190.362 74.842 190.437 75.0149 190.439 75.2171C190.437 75.354 190.401 75.4787 190.332 75.5909C190.264 75.7032 190.174 75.7931 190.062 75.8604C189.952 75.9255 189.831 75.9581 189.698 75.9581Z" fill="black"/>
<path d="M192.03 75.9581C191.825 75.9581 191.65 75.8862 191.504 75.7425C191.358 75.5988 191.286 75.4237 191.288 75.2171C191.286 75.0149 191.358 74.842 191.504 74.6983C191.65 74.5546 191.825 74.4827 192.03 74.4827C192.227 74.4827 192.399 74.5546 192.545 74.6983C192.693 74.842 192.768 75.0149 192.771 75.2171C192.768 75.354 192.732 75.4787 192.663 75.5909C192.595 75.7032 192.506 75.7931 192.393 75.8604C192.283 75.9255 192.162 75.9581 192.03 75.9581Z" fill="black"/>
<path d="M93.1493 8.44079C92.53 8.44079 92.2203 8.17241 92.2203 7.63565V6.07491C92.2203 5.53816 92.53 5.26978 93.1493 5.26978H105.883C106.502 5.26978 106.812 5.53816 106.812 6.07491V7.63565C106.812 8.17241 106.502 8.44079 105.883 8.44079H101.325V22.3511C101.325 22.8053 101.118 23.0324 100.705 23.0324H98.327C97.9141 23.0324 97.7076 22.8053 97.7076 22.3511V8.44079H93.1493Z" fill="black"/>
<path d="M110.082 23.0324C109.504 23.0324 109.215 22.7227 109.215 22.1034V6.19878C109.215 5.57944 109.504 5.26978 110.082 5.26978H111.965C112.543 5.26978 112.832 5.57944 112.832 6.19878V12.2559H119.496V6.19878C119.496 5.57944 119.785 5.26978 120.363 5.26978H122.246C122.824 5.26978 123.113 5.57944 123.113 6.19878V22.1034C123.113 22.7227 122.824 23.0324 122.246 23.0324H120.363C119.785 23.0324 119.496 22.7227 119.496 22.1034V15.3278H112.832V22.1034C112.832 22.7227 112.543 23.0324 111.965 23.0324H110.082Z" fill="black"/>
<path d="M127.944 23.0324C127.366 23.0324 127.077 22.7227 127.077 22.1034V6.19878C127.077 5.57944 127.366 5.26978 127.944 5.26978H138.572C139.191 5.26978 139.501 5.53816 139.501 6.07491V7.53655C139.501 8.07331 139.191 8.34169 138.572 8.34169H130.694V12.2807H137.915C138.534 12.2807 138.844 12.5491 138.844 13.0858V14.5475C138.844 15.0842 138.534 15.3526 137.915 15.3526H130.694V19.9605H138.968C139.587 19.9605 139.897 20.2289 139.897 20.7656V22.2272C139.897 22.764 139.587 23.0324 138.968 23.0324H127.944Z" fill="black"/>
<path d="M24.812 31.7197C24.4486 30.3984 24.8285 29.7378 25.9516 29.7378H30.5347C31.3109 29.7378 31.8311 30.2828 32.0954 31.3728L36.8024 50.8448C37.1492 52.2652 37.3721 53.2396 37.4712 53.7681C37.5869 54.2801 37.6859 55.1141 37.7685 56.2702H37.8924C37.975 55.1141 38.0575 54.2388 38.1401 53.6442C38.2227 53.0497 38.4622 52.067 38.8586 50.6962L44.3831 31.571C44.7299 30.3489 45.4235 29.7378 46.464 29.7378H51.0224C52.0629 29.7378 52.7565 30.3489 53.1033 31.571L58.6278 50.6962C59.0242 52.067 59.2637 53.0497 59.3463 53.6442C59.4288 54.2388 59.5114 55.1141 59.594 56.2702H59.7179C59.8005 55.1141 59.8913 54.2801 59.9904 53.7681C60.106 53.2396 60.3372 52.2652 60.684 50.8448L65.391 31.3728C65.6553 30.2828 66.1755 29.7378 66.9517 29.7378H71.5348C72.6579 29.7378 73.0378 30.3984 72.6744 31.7197L64.2514 62.86C63.822 64.462 63.0458 65.263 61.9227 65.263H57.5873C56.6294 65.263 55.9275 64.4703 55.4816 62.8848L49.536 42.1246C49.2056 41.0015 49.0157 40.2748 48.9662 39.9445C48.9166 39.5977 48.8506 38.9618 48.768 38.0369H48.7184C48.6358 38.9618 48.5698 39.5977 48.5202 39.9445C48.4707 40.2748 48.2808 41.0015 47.9504 42.1246L42.0048 62.8848C41.5589 64.4703 40.857 65.263 39.899 65.263H35.5637C34.4406 65.263 33.6644 64.462 33.235 62.86L24.812 31.7197Z" fill="black"/>
<path d="M73.6654 65.263C72.4762 65.263 72.0881 64.718 72.501 63.628L84.64 31.7444C85.152 30.4067 85.9283 29.7378 86.9688 29.7378H90.437C91.4775 29.7378 92.2538 30.4067 92.7658 31.7444L104.905 63.628C105.318 64.718 104.93 65.263 103.74 65.263H99.8014C98.7114 65.263 97.9517 64.6932 97.5223 63.5536L94.9954 56.8896H82.4104L79.8835 63.5536C79.4541 64.6932 78.6944 65.263 77.6044 65.263H73.6654ZM84.7144 50.7457H92.6914L89.6443 42.8678C89.281 41.9429 89.058 41.274 88.9754 40.8611C88.9093 40.4317 88.835 39.8041 88.7524 38.9783H88.6534C88.5708 39.8041 88.4882 40.4317 88.4056 40.8611C88.3396 41.274 88.1249 41.9429 87.7615 42.8678L84.7144 50.7457Z" fill="#318AD1"/>
<path d="M111.049 65.263C109.893 65.263 109.314 64.6437 109.314 63.405V31.5958C109.314 30.3571 109.893 29.7378 111.049 29.7378H119.695C127.292 29.7378 132.428 31.2738 135.104 34.3457C137.796 37.4176 139.142 41.786 139.142 47.4509C139.142 53.1157 137.796 57.5006 135.104 60.6056C132.428 63.7105 127.292 65.263 119.695 65.263H111.049ZM116.548 59.1192H119.224C124.344 59.1192 127.655 58.1695 129.158 56.2702C130.661 54.3544 131.412 51.4146 131.412 47.4509C131.412 43.4871 130.661 40.5638 129.158 38.681C127.655 36.7817 124.344 35.8321 119.224 35.8321H116.548V59.1192Z" fill="black"/>
<path d="M144.121 65.263C142.932 65.263 142.544 64.718 142.957 63.628L155.096 31.7444C155.608 30.4067 156.384 29.7378 157.425 29.7378H160.893C161.933 29.7378 162.71 30.4067 163.222 31.7444L175.361 63.628C175.774 64.718 175.385 65.263 174.196 65.263H170.257C169.167 65.263 168.408 64.6932 167.978 63.5536L165.451 56.8896H152.866L150.339 63.5536C149.91 64.6932 149.15 65.263 148.06 65.263H144.121ZM155.17 50.7457H163.147L160.1 42.8678C159.737 41.9429 159.514 41.274 159.431 40.8611C159.365 40.4317 159.291 39.8041 159.208 38.9783H159.109C159.027 39.8041 158.944 40.4317 158.862 40.8611C158.795 41.274 158.581 41.9429 158.217 42.8678L155.17 50.7457Z" fill="#318AD1"/>
<mask id="path-4-inside-1_352_7620" fill="white">
<path d="M87.755 24.7721C88.4586 24.7721 88.8912 24.0083 88.5075 23.4186C83.2008 15.262 73.9825 7.0136 65.214 3.54405C55.9599 -0.11765 45.7651 -0.600007 36.2108 2.17179C26.6565 4.94358 18.2767 10.8146 12.371 18.8744C6.46523 26.9341 3.36365 36.7321 3.54727 46.7487C3.73088 56.7653 7.18943 66.4408 13.3865 74.2745C19.5836 82.1082 28.1729 87.6624 37.8222 90.0756C47.4715 92.4888 57.6416 91.6261 66.7552 87.6214C75.4107 83.818 84.8103 75.3961 89.8549 67.0484C90.2112 66.4589 89.777 65.7243 89.0884 65.7243L84.8118 65.7242C84.481 65.7242 84.177 65.9051 84.0141 66.1931C79.6745 73.8617 72.9892 79.9173 64.9501 83.4498C56.7479 87.054 47.5948 87.8304 38.9104 85.6586C30.226 83.4867 22.4956 78.4879 16.9182 71.4376C11.3409 64.3872 8.22819 55.6793 8.06293 46.6644C7.89768 37.6494 10.6891 28.8312 16.0043 21.5775C21.3194 14.3237 28.8613 9.03977 37.4601 6.54516C46.059 4.05054 55.2343 4.48466 63.563 7.78019C71.733 11.0129 78.6405 16.8219 83.2582 24.3326C83.4251 24.6041 83.7198 24.7721 84.0385 24.7721L87.755 24.7721Z"/>
</mask>
<path d="M65.214 3.54405L54.912 29.58L65.214 3.54405ZM66.7552 87.6214L78.0195 113.256L66.7552 87.6214ZM64.9501 83.4498L76.2143 109.084L64.9501 83.4498ZM63.563 7.78019L73.865 -18.2557L63.563 7.78019ZM83.2582 24.3326L107.111 9.66775L83.2582 24.3326ZM84.0385 24.7721L84.0386 52.7721H84.0386L84.0385 24.7721ZM84.8118 65.7242L84.8118 37.7242H84.8118L84.8118 65.7242ZM84.0141 66.1931L59.6453 52.4031L84.0141 66.1931ZM89.8549 67.0484L65.8909 52.5665L89.8549 67.0484ZM89.0884 65.7243L89.0884 93.7243H89.0884L89.0884 65.7243ZM88.5075 23.4186L65.0376 38.6883L88.5075 23.4186ZM87.755 24.7721L87.7549 -3.22788H87.7549L87.755 24.7721ZM111.977 8.14893C104.123 -3.92384 90.6511 -16.5031 75.516 -22.4919L54.912 29.58C57.3138 30.5303 62.2787 34.4478 65.0376 38.6883L111.977 8.14893ZM75.516 -22.4919C60.4916 -28.4368 43.9287 -29.2217 28.4094 -24.7194L44.0122 29.063C47.6015 28.0217 51.4281 28.2015 54.912 29.58L75.516 -22.4919ZM28.4094 -24.7194C12.8928 -20.2179 -0.674308 -10.6953 -10.2147 2.32479L34.9566 35.4239C37.2277 32.3245 40.4203 30.1051 44.0122 29.063L28.4094 -24.7194ZM-10.2147 2.32479C-19.7524 15.3412 -24.7436 31.1365 -24.448 47.2619L31.5426 46.2355C31.4709 42.3276 32.6828 38.527 34.9566 35.4239L-10.2147 2.32479ZM-24.448 47.2619C-24.1524 63.3874 -18.5854 78.9896 -8.57307 91.6462L35.3461 56.9028C32.9643 53.8919 31.6142 50.1432 31.5426 46.2355L-24.448 47.2619ZM-8.57307 91.6462C1.44219 104.307 15.3543 113.319 31.0289 117.239L44.6155 62.9122C40.9914 62.0058 37.725 59.9099 35.3461 56.9028L-8.57307 91.6462ZM31.0289 117.239C46.7059 121.16 63.2277 119.756 78.0195 113.256L55.491 61.9871C52.0556 63.4967 48.2372 63.8179 44.6155 62.9122L31.0289 117.239ZM78.0195 113.256C92.2341 107.01 105.952 94.5483 113.819 81.5302L65.8909 52.5665C63.6686 56.244 58.5873 60.6265 55.491 61.9871L78.0195 113.256ZM89.0884 37.7243L84.8118 37.7242L84.8118 93.7242L89.0884 93.7243L89.0884 37.7243ZM59.6453 52.4031C58.2653 54.8418 56.1631 56.727 53.6858 57.8155L76.2143 109.084C89.8152 103.108 101.084 92.8817 108.383 79.983L59.6453 52.4031ZM53.6858 57.8155C51.1618 58.9246 48.3604 59.1596 45.7036 58.4951L32.1171 112.822C46.8291 116.501 62.3339 115.183 76.2143 109.084L53.6858 57.8155ZM45.7036 58.4951C43.0445 57.8301 40.637 56.2897 38.8778 54.0659L-5.04133 88.8093C4.35422 100.686 17.4074 109.143 32.1171 112.822L45.7036 58.4951ZM38.8778 54.0659C37.1157 51.8384 36.1115 49.0572 36.0582 46.1512L-19.9324 47.1775C-19.6551 62.3014 -14.434 76.9361 -5.04133 88.8093L38.8778 54.0659ZM36.0582 46.1512C36.005 43.2449 36.9067 40.4241 38.5899 38.127L-6.58141 5.0279C-15.5285 17.2383 -20.2096 32.0539 -19.9324 47.1775L36.0582 46.1512ZM38.5899 38.127C40.2704 35.8336 42.625 34.2013 45.2615 33.4364L29.6587 -20.3461C15.0975 -16.1217 2.36841 -7.18618 -6.58141 5.0279L38.5899 38.127ZM45.2615 33.4364C47.8954 32.6723 50.7025 32.8038 53.261 33.8161L73.865 -18.2557C59.766 -23.8345 44.2226 -24.5712 29.6587 -20.3461L45.2615 33.4364ZM53.261 33.8161C55.7739 34.8104 57.9404 36.6141 59.4058 38.9975L107.111 9.66775C99.3406 -2.97035 87.6921 -12.7846 73.865 -18.2557L53.261 33.8161ZM84.0386 52.7721L87.7551 52.7721L87.7549 -3.22788L84.0384 -3.22787L84.0386 52.7721ZM59.4058 38.9975C64.5628 47.3854 73.7944 52.7722 84.0386 52.7721L84.0384 -3.22787C93.6452 -3.2279 102.288 1.82279 107.111 9.66775L59.4058 38.9975ZM84.8118 37.7242C74.1795 37.7242 64.6725 43.5194 59.6453 52.4031L108.383 79.983C103.682 88.2908 94.7825 93.7243 84.8118 93.7242L84.8118 37.7242ZM113.819 81.5302C126.015 61.3493 110.485 37.7243 89.0884 37.7243L89.0884 93.7243C69.0692 93.7242 54.4077 71.5686 65.8909 52.5665L113.819 81.5302ZM65.0376 38.6883C52.7382 19.7838 67.2797 -3.22783 87.7549 -3.22788L87.7551 52.7721C109.638 52.7721 125.044 28.2328 111.977 8.14893L65.0376 38.6883Z" fill="#318AD1" mask="url(#path-4-inside-1_352_7620)"/>
</svg>
