<svg width="80" height="80" viewBox="0 0 80 80" fill="none" xmlns="http://www.w3.org/2000/svg">
<path d="M16.667 66.6666V60H63.3337V66.6666H16.667ZM16.667 55L12.417 28.25C12.3059 28.25 12.1803 28.2644 12.0403 28.2933C11.9003 28.3222 11.7759 28.3355 11.667 28.3333C10.2781 28.3333 9.09811 27.8466 8.127 26.8733C7.15589 25.9 6.66922 24.72 6.667 23.3333C6.66478 21.9466 7.15144 20.7666 8.127 19.7933C9.10256 18.82 10.2826 18.3333 11.667 18.3333C13.0514 18.3333 14.2326 18.82 15.2103 19.7933C16.1881 20.7666 16.6737 21.9466 16.667 23.3333C16.667 23.7222 16.6248 24.0833 16.5403 24.4166C16.4559 24.75 16.3592 25.0555 16.2503 25.3333L26.667 30L37.0837 15.75C36.4726 15.3055 35.9726 14.7222 35.5837 14C35.1948 13.2777 35.0003 12.5 35.0003 11.6666C35.0003 10.2777 35.487 9.09663 36.4603 8.1233C37.4337 7.14997 38.6137 6.66441 40.0003 6.66663C41.387 6.66886 42.5681 7.15552 43.5437 8.12663C44.5192 9.09774 45.0048 10.2777 45.0003 11.6666C45.0003 12.5 44.8059 13.2777 44.417 14C44.0281 14.7222 43.5281 15.3055 42.917 15.75L53.3337 30L63.7503 25.3333C63.6392 25.0555 63.5414 24.75 63.457 24.4166C63.3726 24.0833 63.3314 23.7222 63.3337 23.3333C63.3337 21.9444 63.8203 20.7633 64.7937 19.79C65.767 18.8166 66.947 18.3311 68.3337 18.3333C69.7203 18.3355 70.9014 18.8222 71.877 19.7933C72.8526 20.7644 73.3381 21.9444 73.3337 23.3333C73.3292 24.7222 72.8437 25.9033 71.877 26.8766C70.9103 27.85 69.7292 28.3355 68.3337 28.3333C68.2226 28.3333 68.0981 28.32 67.9603 28.2933C67.8226 28.2666 67.697 28.2522 67.5837 28.25L63.3337 55H16.667Z" fill="#CAE8FF"/>
</svg>
