<svg width="50" height="50" viewBox="0 0 50 50" fill="none" xmlns="http://www.w3.org/2000/svg">
<rect width="50" height="50" rx="8" fill="#DC0004"/>
<mask id="mask0_1632_12795" style="mask-type:alpha" maskUnits="userSpaceOnUse" x="9" y="8" width="32" height="34">
<rect x="41" y="42" width="32" height="34" transform="rotate(-180 41 42)" fill="#D9D9D9"/>
</mask>
<g mask="url(#mask0_1632_12795)">
<path d="M34.332 15.0834L34.332 27.9167C34.332 28.6531 33.7351 29.25 32.9987 29.25C32.2623 29.25 31.6654 28.6531 31.6654 27.9167L31.6654 19.9L17.1885 35.2817C16.6518 35.8519 15.7456 35.8519 15.2089 35.2817C14.7162 34.7583 14.7162 33.9418 15.2089 33.4184L29.7987 17.9167L22.4154 17.9167C21.633 17.9167 20.9987 17.2824 20.9987 16.5C20.9987 15.7176 21.633 15.0834 22.4154 15.0834L34.332 15.0834Z" fill="white"/>
</g>
</svg>
