<svg width="24" height="25" viewBox="0 0 24 25" fill="none" xmlns="http://www.w3.org/2000/svg">
<path d="M15.3858 2.37547C15.3384 2.3388 15.2838 2.31154 15.2253 2.29526C15.1668 2.27898 15.1056 2.274 15.0451 2.28061C14.9846 2.28722 14.9261 2.30529 14.8729 2.33377C14.8197 2.36225 14.7728 2.40059 14.7351 2.44657L10.4862 7.6124H8.13138L13.2886 1.34266C13.4774 1.11313 13.7114 0.92178 13.9771 0.779605C14.2429 0.63743 14.5353 0.547232 14.8374 0.514194C15.1395 0.481156 15.4454 0.505929 15.7376 0.587091C16.0297 0.668253 16.3023 0.804203 16.5397 0.987128L21.2908 4.65174C21.74 4.99833 22.0385 5.49408 22.1276 6.04168C22.2168 6.58927 22.0902 7.14918 21.7726 7.61151H19.3597L20.1969 6.67647C20.2375 6.63125 20.2681 6.57862 20.287 6.52173C20.306 6.46483 20.3128 6.40485 20.3071 6.34536C20.3014 6.28587 20.2834 6.2281 20.254 6.17549C20.2245 6.12288 20.1844 6.07653 20.136 6.03919L17.8246 4.25621L15.0849 7.6124H12.7366L16.3828 3.14519L15.3858 2.37547ZM2.76923 4.94594C2.03479 4.94594 1.33042 5.22687 0.811089 5.72693C0.291757 6.22698 0 6.90521 0 7.6124V20.5003C0 21.5611 0.437636 22.5784 1.21663 23.3285C1.99563 24.0786 3.05218 24.5 4.15385 24.5H19.8462C20.9478 24.5 22.0044 24.0786 22.7834 23.3285C23.5624 22.5784 24 21.5611 24 20.5003V12.5009C24 11.4401 23.5624 10.4228 22.7834 9.67271C22.0044 8.92262 20.9478 8.50122 19.8462 8.50122H2.76923C2.52442 8.50122 2.28963 8.40758 2.11652 8.24089C1.94341 8.07421 1.84615 7.84813 1.84615 7.6124C1.84615 7.37667 1.94341 7.1506 2.11652 6.98391C2.28963 6.81722 2.52442 6.72358 2.76923 6.72358H6.99692L8.47015 4.94594H2.76923ZM16.6154 15.6118H19.3846C19.6294 15.6118 19.8642 15.7054 20.0373 15.8721C20.2104 16.0388 20.3077 16.2649 20.3077 16.5006C20.3077 16.7363 20.2104 16.9624 20.0373 17.1291C19.8642 17.2958 19.6294 17.3894 19.3846 17.3894H16.6154C16.3706 17.3894 16.1358 17.2958 15.9627 17.1291C15.7896 16.9624 15.6923 16.7363 15.6923 16.5006C15.6923 16.2649 15.7896 16.0388 15.9627 15.8721C16.1358 15.7054 16.3706 15.6118 16.6154 15.6118Z" fill="#0059A0"/>
</svg>
