<svg width="50" height="50" viewBox="0 0 50 50" fill="none" xmlns="http://www.w3.org/2000/svg">
<rect width="50" height="50" rx="8" fill="#039300"/>
<mask id="mask0_1632_12919" style="mask-type:alpha" maskUnits="userSpaceOnUse" x="9" y="8" width="32" height="34">
<rect x="9" y="8" width="32" height="34" fill="#D9D9D9"/>
</mask>
<g mask="url(#mask0_1632_12919)">
<path d="M15.668 34.9166V22.0833C15.668 21.3469 16.2649 20.75 17.0013 20.75C17.7377 20.75 18.3346 21.3469 18.3346 22.0833L18.3346 30.1L32.8115 14.7183C33.3482 14.1481 34.2544 14.1481 34.7911 14.7183C35.2838 15.2417 35.2838 16.0582 34.7911 16.5816L20.2013 32.0833H27.5846C28.367 32.0833 29.0013 32.7176 29.0013 33.5C29.0013 34.2824 28.367 34.9166 27.5846 34.9166H15.668Z" fill="white"/>
</g>
</svg>
