<svg width="12" height="12" viewBox="0 0 12 12" fill="none" xmlns="http://www.w3.org/2000/svg">
<path d="M10.5 6.6275C9.07024 7.20561 7.54221 7.50188 6 7.5C4.4085 7.5 2.89 7.19 1.5 6.6275M6 6H6.005M8 3V2C8 1.73478 7.89464 1.48043 7.70711 1.29289C7.51957 1.10536 7.26522 1 7 1H5C4.73478 1 4.48043 1.10536 4.29289 1.29289C4.10536 1.48043 4 1.73478 4 2V3H8ZM2.5 10H9.5C9.76522 10 10.0196 9.89464 10.2071 9.70711C10.3946 9.51957 10.5 9.26522 10.5 9V4C10.5 3.73478 10.3946 3.48043 10.2071 3.29289C10.0196 3.10536 9.76522 3 9.5 3H2.5C2.23478 3 1.98043 3.10536 1.79289 3.29289C1.60536 3.48043 1.5 3.73478 1.5 4V9C1.5 9.26522 1.60536 9.51957 1.79289 9.70711C1.98043 9.89464 2.23478 10 2.5 10Z" stroke="#787878" stroke-linecap="round" stroke-linejoin="round"/>
</svg>
